<?xml version="1.0" encoding="utf-8"?>
<!-- Generator: Adobe Illustrator 25.1.0, SVG Export Plug-In . SVG Version: 6.00 Build 0)  -->
<svg version="1.1" id="圖層_1" xmlns="http://www.w3.org/2000/svg" xmlns:xlink="http://www.w3.org/1999/xlink" x="0px" y="0px"
	 viewBox="0 0 448 512" style="enable-background:new 0 0 448 512;" xml:space="preserve">
<style type="text/css">
	.st0{fill:#D3D3D3;}
	.st1{fill:#FFFFFF;}
</style>
<rect class="st0" width="448" height="512"/>
<path class="st1" d="M371,324.3V103.8c0-8.7-7-15.8-15.8-15.8H140c-34.8,0-63,28.2-63,63v210c0,34.8,28.2,63,63,63h215.3
	c8.7,0,15.8-7,15.8-15.8v-10.5c0-4.9-2.3-9.4-5.8-12.3c-2.8-10.1-2.8-38.9,0-49C368.7,333.6,371,329.2,371,324.3L371,324.3z
	 M161,175.9c0-2.2,1.8-3.9,3.9-3.9h139.1c2.2,0,3.9,1.8,3.9,3.9v13.1c0,2.2-1.8,3.9-3.9,3.9H164.9c-2.2,0-3.9-1.8-3.9-3.9V175.9z
	 M161,217.9c0-2.2,1.8-3.9,3.9-3.9h139.1c2.2,0,3.9,1.8,3.9,3.9v13.1c0,2.2-1.8,3.9-3.9,3.9H164.9c-2.2,0-3.9-1.8-3.9-3.9V217.9z
	 M327.3,382H140c-11.6,0-21-9.4-21-21c0-11.6,9.4-21,21-21h187.3C326,351.2,326,370.8,327.3,382z"/>
</svg>
