<svg id="svg8" xmlns="http://www.w3.org/2000/svg" viewBox="0 0 174 174"><defs><style>.cls-1{fill:#028ac4;}.cls-2{fill:#fff;}</style></defs><rect class="cls-1" width="174" height="174" rx="10"/><g id="layer1"><path id="path23" class="cls-2" d="M89.43,115.42c-5.13-1.26-8.84-2.85-14.68-6.27-2.86-1.67-2.91-1.68-10.35-.9-13.11,1.37-28.4-1.08-41.66-6.67C10.89,96.58,1.12,90,11.19,93.74c13.22,5,23.62,5.82,34,2.73,9-2.68,16.48-6,26.47-11.62C99.84,68.93,109,65.68,125.11,65.79A60.33,60.33,0,0,1,152.8,72.3c6.44,3.17,14.71,8.34,14.18,8.88-.18.17-2.8-.31-5.82-1.07-18.54-4.69-33-1.24-56.51,13.46-9.85,6.17-14.74,8.67-21.11,10.82-4.49,1.51-4.74,1.69-3.17,2.28a47.48,47.48,0,0,0,6.71,1.41c9.38,1.42,18.45-1,30.34-8,8.46-5,13.09-7,18.31-8.07,8.1-1.59,17.67.58,27,6.12,5.25,3.12,5.16,3.93-.26,2.32-7.71-2.29-15.21-.84-25.67,5-18.13,10.06-22.21,11.4-34.36,11.33a56.18,56.18,0,0,1-13-1.34Z"/></g></svg>