<svg xmlns="http://www.w3.org/2000/svg" xmlns:xlink="http://www.w3.org/1999/xlink" width="36.5" height="30" viewBox="0 0 36.5 30"><defs><style>.cls-1{fill:#2bcccc;}.cls-2{fill:none;}.cls-3{isolation:isolate;}.cls-4{clip-path:url(#clip-path);}.cls-5{opacity:0.2;mix-blend-mode:luminosity;}.cls-6{clip-path:url(#clip-path-2);}.cls-7{opacity:0.8;}.cls-8{clip-path:url(#clip-path-3);}.cls-9{mix-blend-mode:color-dodge;fill:url(#radial-gradient);}.cls-10,.cls-11{fill:#fff;}.cls-11{opacity:0.5;}</style><clipPath id="clip-path"><rect class="cls-1" x="-1027.8" y="2999" width="1920" height="190"/></clipPath><clipPath id="clip-path-2"><rect class="cls-2" x="-1077.8" y="2640.5" width="2009" height="1039"/></clipPath><clipPath id="clip-path-3"><rect class="cls-2" x="-1424.4" y="2233.9" width="2842.1" height="2020.5"/></clipPath><radialGradient id="radial-gradient" cx="-1220.38" cy="5795.85" r="3.1" gradientTransform="matrix(-27.11, -68.42, -97.89, 18.95, 534528.14, -193220.2)" gradientUnits="userSpaceOnUse"><stop offset="0" stop-color="#4b4b4b"/><stop offset="1" stop-color="#030303"/></radialGradient></defs><title>icon_leaf</title><g class="cls-3"><g id="bg_photo" data-name="bg &amp; photo"><rect class="cls-1" x="-1027.8" y="2999" width="1920" height="190"/><g class="cls-4"><g class="cls-5"><g class="cls-6"><g class="cls-7"><g class="cls-8"><path class="cls-9" d="M181.2-128.6C13.9-96.3-84.2,24.8-38,141.8S181.8,327.3,349.1,295,614.6,141.5,568.2,24.5,348.6-161.1,181.2-128.6Z"/></g></g></g></g></g></g><g id="txt"><path class="cls-10" d="M20.8,20.2C13,28.1.6,28.5.6,28.5S1.1,16.1,8.9,8.3,29.1,0,29.1,0,28.7,12.3,20.8,20.2Z"/><path class="cls-11" d="M21.8,27.7C11.7,32.4,0,28.5,0,28.5S4.6,17.1,14.7,12.4s21.8-.9,21.8-.9S31.9,23,21.8,27.7Z"/></g></g></svg>