<svg width="18" height="18" viewBox="0 0 18 18" fill="none" xmlns="http://www.w3.org/2000/svg">
<path d="M8.99991 0C13.9628 0 18 3.27637 18 7.30359C18 8.91537 17.3753 10.3669 16.0709 11.7972C14.1827 13.9705 9.96057 16.6177 8.99991 17.0224C8.0664 17.4159 8.17421 16.801 8.21693 16.5573C8.21815 16.5503 8.21933 16.5436 8.22042 16.5373C8.24319 16.402 8.34878 15.7669 8.34878 15.7669C8.37915 15.5371 8.41055 15.1807 8.3198 14.9531C8.21887 14.7026 7.81997 14.5725 7.52684 14.5094C3.20183 13.9376 0 10.914 0 7.30359C0 3.27637 4.03775 0 8.99991 0ZM5.64962 8.64706H3.93431V5.5327C3.93431 5.43591 3.85581 5.35741 3.75919 5.35741H3.12773C3.03094 5.35741 2.95244 5.43591 2.95244 5.5327V9.45399C2.95244 9.50109 2.97124 9.5437 3.00144 9.5751L3.00248 9.57636L3.00385 9.57769L3.00644 9.5801C3.03801 9.61047 3.08045 9.6291 3.12756 9.6291H5.64962C5.74641 9.6291 5.82456 9.55043 5.82456 9.45364V8.82235C5.82456 8.72556 5.74641 8.64706 5.64962 8.64706ZM6.54006 5.35751C6.44327 5.35751 6.3646 5.43601 6.3646 5.53245V9.45409C6.3646 9.5507 6.44327 9.62903 6.54006 9.62903H7.17135C7.26814 9.62903 7.34665 9.5507 7.34665 9.45409V5.53245C7.34665 5.43601 7.26814 5.35751 7.17135 5.35751H6.54006ZM10.8852 5.35751C10.7885 5.35751 10.7099 5.43601 10.7099 5.53245V7.86231L8.91287 5.43532C8.90872 5.42911 8.90407 5.42324 8.89924 5.41755L8.89803 5.41651C8.89458 5.41255 8.89113 5.4091 8.8875 5.40564L8.88423 5.40271C8.88129 5.39995 8.87819 5.39736 8.87491 5.39495C8.8739 5.39394 8.87279 5.39311 8.87166 5.39226L8.87042 5.39132L8.86458 5.38727L8.86128 5.38511C8.85955 5.38391 8.85783 5.38287 8.85593 5.38201C8.85282 5.38011 8.84972 5.37821 8.84661 5.37666L8.84453 5.37564L8.84109 5.37407C8.83781 5.37252 8.83453 5.37097 8.83109 5.36976L8.82539 5.36769C8.82194 5.36648 8.81849 5.36527 8.81487 5.36441L8.81173 5.3635L8.80883 5.36268L8.79882 5.36044L8.7914 5.35958L8.78885 5.35911L8.78441 5.35861L8.78209 5.35837L8.77609 5.35798L8.77311 5.35785L8.7669 5.35751H8.13578C8.039 5.35751 7.96032 5.43601 7.96032 5.53245V9.45409C7.96032 9.5507 8.039 9.62903 8.13578 9.62903H8.7669C8.86387 9.62903 8.94237 9.5507 8.94237 9.45409V7.12492L10.7417 9.55502C10.7541 9.57262 10.7695 9.58694 10.7862 9.59832L10.7879 9.5997L10.7988 9.60626C10.8005 9.6073 10.8021 9.60798 10.8038 9.60885C10.8064 9.6104 10.8093 9.61178 10.8121 9.61299L10.8207 9.61661L10.8259 9.61851C10.83 9.62006 10.8338 9.62127 10.8378 9.62248C10.8387 9.62248 10.8395 9.62282 10.8404 9.623C10.8547 9.62679 10.8697 9.62903 10.8852 9.62903H11.5165C11.6135 9.62903 11.6918 9.5507 11.6918 9.45409V5.53245C11.6918 5.43601 11.6135 5.35751 11.5165 5.35751H10.8852ZM15.1777 6.16416V5.53287C15.1777 5.43608 15.0995 5.35741 15.0027 5.35741H12.4805C12.4332 5.35741 12.3906 5.37638 12.3591 5.40692L12.3582 5.40771L12.357 5.40882L12.3542 5.41193C12.3242 5.44333 12.3056 5.48577 12.3056 5.5327V9.45399C12.3056 9.50109 12.3244 9.5437 12.3546 9.5751C12.3553 9.57596 12.3561 9.577 12.357 9.57769C12.3577 9.57855 12.3587 9.57942 12.3596 9.58011C12.391 9.6103 12.4336 9.6291 12.4805 9.6291H15.0027C15.0995 9.6291 15.1777 9.55043 15.1777 9.45381V8.82235C15.1777 8.72573 15.0995 8.64706 15.0027 8.64706H13.2876V7.98419H15.0027C15.0995 7.98419 15.1777 7.90569 15.1777 7.8089V7.17761C15.1777 7.08082 15.0995 7.00215 15.0027 7.00215H13.2876V6.33945H15.0027C15.0995 6.33945 15.1777 6.26112 15.1777 6.16416Z" fill="#5D5D5D"/>
</svg>
