<svg xmlns="http://www.w3.org/2000/svg" width="536.864" height="50.873" viewBox="0 0 536.864 50.873"><g transform="translate(0 1.969)"><path d="M42.087,2.459H14.26V2.5a8.184,8.184,0,0,1,.907,4.066,8.093,8.093,0,0,1-.907,4.046H42.087a6.046,6.046,0,0,0,1.53-4.078A6.046,6.046,0,0,0,42.087,2.459Z" transform="translate(-2.843 -2.459)" fill="#0096df"/><path d="M15.79,17.738H43.617v.042a8.179,8.179,0,0,0-.907,4.066,8.1,8.1,0,0,0,.907,4.046H15.79a6.2,6.2,0,0,1,0-8.154Z" transform="translate(-2.843 -5.505)" fill="#0096df"/><path d="M0,21.316V2.459H.042a8.179,8.179,0,0,0,4.067.907,8.087,8.087,0,0,0,4.046-.907V21.316a6.046,6.046,0,0,1-4.078,1.53A6.046,6.046,0,0,1,0,21.316Z" transform="translate(0 -2.459)" fill="#0096df"/><g transform="translate(0 24.466)"><path d="M1.53,56.45H29.357v-.042a8.185,8.185,0,0,1-.907-4.067,8.1,8.1,0,0,1,.907-4.046H1.53a6.2,6.2,0,0,0,0,8.156Z" transform="translate(0 -36.063)" fill="#008f8a"/><path d="M27.828,41.172H0V41.13a8.185,8.185,0,0,0,.907-4.067A8.092,8.092,0,0,0,0,33.017H27.828a6.2,6.2,0,0,1,0,8.155Z" transform="translate(0 -33.017)" fill="#008f8a"/><path d="M48.9,34.547V53.4h-.042a8.176,8.176,0,0,0-4.067-.908,8.087,8.087,0,0,0-4.046.908V34.547a6.2,6.2,0,0,1,8.155,0Z" transform="translate(-8.123 -33.017)" fill="#008f8a"/></g><g transform="translate(50.962 31.37)"><g transform="translate(76.268 0.56)"><path d="M163.364,43.884h-4.451v-1.4h10.836v1.4h-4.474V55.2h-1.911Z" transform="translate(-158.913 -42.371)" fill="#1a1a1a"/><path d="M180.927,53.854a13.383,13.383,0,0,0,.152,2.187h-1.716l-.151-1.151h-.066a4.133,4.133,0,0,1-3.214,1.358c-2.128,0-3.214-1.3-3.214-2.62,0-2.206,2.258-3.413,6.319-3.393v-.189c0-.735-.239-2.111-2.39-2.093a5.649,5.649,0,0,0-2.757.679l-.435-1.113a7.622,7.622,0,0,1,3.475-.791c3.214,0,4,1.9,4,3.714Zm-1.845-2.469c-2.084-.038-4.451.283-4.451,2.055a1.576,1.576,0,0,0,1.781,1.583,2.656,2.656,0,0,0,2.584-1.527,1.63,1.63,0,0,0,.087-.528Z" transform="translate(-161.666 -43.216)" fill="#1a1a1a"/><path d="M188.2,43.479A1.086,1.086,0,0,1,187.04,44.6a1.07,1.07,0,0,1-1.1-1.117,1.109,1.109,0,0,1,1.138-1.138A1.091,1.091,0,0,1,188.2,43.479Zm-2.072,11.688V46.041h1.911v9.125Z" transform="translate(-164.302 -42.341)" fill="#1a1a1a"/><path d="M218.359,53.854a13.211,13.211,0,0,0,.151,2.187h-1.715l-.154-1.151h-.064a4.131,4.131,0,0,1-3.215,1.358c-2.127,0-3.214-1.3-3.214-2.62,0-2.206,2.258-3.413,6.319-3.393v-.189c0-.735-.237-2.111-2.387-2.093a5.651,5.651,0,0,0-2.758.679l-.435-1.113a7.625,7.625,0,0,1,3.475-.791c3.215,0,4,1.9,4,3.714Zm-1.847-2.469c-2.084-.038-4.451.283-4.451,2.055a1.576,1.576,0,0,0,1.781,1.583,2.658,2.658,0,0,0,2.585-1.527,1.668,1.668,0,0,0,.086-.528Z" transform="translate(-169.128 -43.216)" fill="#1a1a1a"/><path d="M223.605,46.916h1.747v1.508a4.04,4.04,0,0,1,3.484-1.7,3.537,3.537,0,0,1,3.714,3.884v5.429h-1.911V50.782c0-1.471-.63-2.7-2.433-2.7a2.9,2.9,0,0,0-2.693,2.47v5.486H223.6Z" transform="translate(-171.81 -43.216)" fill="#1a1a1a"/><path d="M203.919,46.963,201.3,54.5l-2.651-7.541h-1.432L194.568,54.5l-2.621-7.541h-1.571l3.171,9.124h1.737l2.649-7.353,2.649,7.353h1.737l3.171-9.124Z" transform="translate(-165.186 -43.263)" fill="#1a1a1a"/></g><path d="M63.653,55.2V42.489h2.085l7.2,10.557V42.489h1.7V55.2H72.73L65.4,44.507V55.2Z" transform="translate(-63.653 -41.81)" fill="#1a1a1a"/><path d="M87.946,53.854a13.292,13.292,0,0,0,.152,2.187H86.382l-.151-1.151h-.066a4.133,4.133,0,0,1-3.214,1.358c-2.128,0-3.215-1.3-3.215-2.62,0-2.206,2.259-3.413,6.319-3.393v-.189c0-.735-.239-2.111-2.389-2.093a5.653,5.653,0,0,0-2.758.679l-.433-1.113a7.619,7.619,0,0,1,3.474-.791c3.215,0,4,1.9,4,3.714ZM86.1,51.384c-2.085-.038-4.451.283-4.451,2.055a1.575,1.575,0,0,0,1.781,1.583A2.658,2.658,0,0,0,86.013,53.5a1.649,1.649,0,0,0,.086-.528Z" transform="translate(-66.86 -42.655)" fill="#1a1a1a"/><path d="M95.195,44.232v2.187H97.93v1.263H95.195V52.6c0,1.13.369,1.772,1.433,1.772a4.041,4.041,0,0,0,1.107-.114l.088,1.263a5.914,5.914,0,0,1-1.694.227,2.956,2.956,0,0,1-2.064-.7,3.239,3.239,0,0,1-.738-2.395V47.682H91.7V46.419h1.628V44.232Z" transform="translate(-69.245 -42.158)" fill="#1a1a1a"/><path d="M103.538,43.48a1.078,1.078,0,0,1-1.151,1.108A1.062,1.062,0,0,1,101.3,43.48a1.1,1.1,0,0,1,1.13-1.127A1.084,1.084,0,0,1,103.538,43.48Zm-2.065,11.688V46.044h1.911v9.125Z" transform="translate(-71.159 -41.783)" fill="#1a1a1a"/><path d="M116.535,51.4c0,3.375-2.714,4.845-5.233,4.845-2.824,0-5.038-1.809-5.038-4.694,0-3.036,2.323-4.826,5.211-4.826C114.494,46.728,116.535,48.632,116.535,51.4Zm-8.317.094A3.242,3.242,0,0,0,111.388,55a3.285,3.285,0,0,0,3.193-3.544,3.2,3.2,0,1,0-6.363.038Z" transform="translate(-72.149 -42.655)" fill="#1a1a1a"/><path d="M143.034,53.854a13.3,13.3,0,0,0,.151,2.187H141.47l-.153-1.151h-.065a4.131,4.131,0,0,1-3.214,1.358c-2.127,0-3.215-1.3-3.215-2.62,0-2.206,2.259-3.413,6.32-3.393v-.189c0-.735-.239-2.111-2.389-2.093a5.653,5.653,0,0,0-2.758.679l-.435-1.113a7.628,7.628,0,0,1,3.476-.791c3.214,0,4,1.9,4,3.714Zm-1.847-2.469c-2.084-.038-4.451.283-4.451,2.055a1.575,1.575,0,0,0,1.78,1.583A2.658,2.658,0,0,0,141.1,53.5a1.668,1.668,0,0,0,.086-.528Z" transform="translate(-77.843 -42.655)" fill="#1a1a1a"/><path d="M148.278,41.641h1.911V55.027h-1.911Z" transform="translate(-80.525 -41.641)" fill="#1a1a1a"/><path d="M121.456,46.916H123.2v1.508a4.04,4.04,0,0,1,3.484-1.7,3.535,3.535,0,0,1,3.713,3.884v5.429h-1.911V50.782c0-1.471-.629-2.7-2.431-2.7a2.894,2.894,0,0,0-2.693,2.47v5.486h-1.911Z" transform="translate(-75.177 -42.655)" fill="#1a1a1a"/><g transform="translate(143.953)"><path d="M243.454,42.489h1.91v11.33h6.255V55.2h-8.166Z" transform="translate(-243.454 -41.81)" fill="#1a1a1a"/><path d="M257.363,43.479A1.086,1.086,0,0,1,256.2,44.6a1.07,1.07,0,0,1-1.1-1.117,1.109,1.109,0,0,1,1.138-1.138A1.091,1.091,0,0,1,257.363,43.479Zm-2.072,11.688V46.041H257.2v9.125Z" transform="translate(-245.777 -41.781)" fill="#1a1a1a"/><path d="M261.034,41.641h1.887v5.732a4.541,4.541,0,0,1,3.626-1.659A4.334,4.334,0,0,1,271,50.351a4.624,4.624,0,0,1-4.733,4.883,3.953,3.953,0,0,1-3.483-1.7v1.49h-1.749Zm1.887,9.728a1.843,1.843,0,0,0,.087.6,2.882,2.882,0,0,0,2.866,1.942c2.021,0,3.192-1.413,3.192-3.506a3.109,3.109,0,0,0-3.148-3.394,3.007,3.007,0,0,0-2.888,2.037,2.262,2.262,0,0,0-.11.7Z" transform="translate(-246.959 -41.641)" fill="#1a1a1a"/><path d="M291.21,53.854a13.379,13.379,0,0,0,.152,2.187h-1.716L289.5,54.89h-.066a4.134,4.134,0,0,1-3.214,1.358c-2.128,0-3.214-1.3-3.214-2.62,0-2.206,2.259-3.413,6.319-3.393v-.189c0-.735-.239-2.111-2.389-2.093a5.65,5.65,0,0,0-2.757.679l-.435-1.113a7.622,7.622,0,0,1,3.475-.791c3.214,0,4,1.9,4,3.714Zm-1.845-2.469c-2.086-.038-4.452.283-4.452,2.055a1.575,1.575,0,0,0,1.781,1.583,2.655,2.655,0,0,0,2.583-1.527,1.633,1.633,0,0,0,.088-.528Z" transform="translate(-251.339 -42.655)" fill="#1a1a1a"/><path d="M295.758,46.926h1.809v1.809a3.988,3.988,0,0,1,3.423-1.96v1.564c-1.8,0-3.277,1.38-3.277,2.583V56.05h-1.955Z" transform="translate(-253.882 -42.665)" fill="#1a1a1a"/><path d="M304.745,46.963l3.378,7.616,3.385-7.616h1.525l-2.866,6.5c-1.368,3.13-2.3,4.713-3.6,5.712a5.779,5.779,0,0,1-2.346,1.057l-.477-1.376a5.329,5.329,0,0,0,1.672-.811,4.792,4.792,0,0,0,1.693-2.017c.062-.181-3.951-9.069-3.951-9.069Z" transform="translate(-255.356 -42.702)" fill="#1a1a1a"/><path d="M275.6,46.926h1.809v1.809a3.992,3.992,0,0,1,3.424-1.96v1.564c-1.8,0-3.279,1.38-3.279,2.583V56.05H275.6Z" transform="translate(-249.863 -42.665)" fill="#1a1a1a"/></g></g><g transform="translate(50.962)"><path d="M124.309,25.272h-6.846l3.176-17.249h-2.8l-3.176,17.25h-4.684L106.8,8.024H104l3.176,17.251h-6.843V26.74l23.972,0Zm0-20.2H113.984V2.765h-3.33V5.078H100.334V6.547l23.972,0Z" transform="translate(-70.966 -2.52)" fill="#1a1a1a"/><path d="M252.288,19.339a5.78,5.78,0,0,0,0,7.584h20.621a5.78,5.78,0,0,0,0-7.584Zm18.964,6.113H253.945a4.127,4.127,0,0,1-.6-1.585h18.517A4.155,4.155,0,0,1,271.251,25.452ZM253.337,22.4a4.131,4.131,0,0,1,.608-1.606h17.306a4.133,4.133,0,0,1,.609,1.606Zm19.191-11.079A5.551,5.551,0,0,0,273.9,8.261h.935V6.792H273.9a5.5,5.5,0,0,0-1.376-3.038h-8.7v-1.3h-2.448v1.3h-10.1V5.2h10.1v1.59H250.375V8.261h11.009V9.85h-10.1v1.468h10.1V13h-10.1v1.468h10.1v1.686H250.375v1.469H274.84V16.159H263.831V14.472h10.1V13h-10.1V11.319Zm-8.7-6.117h7.035a4.107,4.107,0,0,1,.608,1.59h-7.644Zm0,3.059h7.644a4.108,4.108,0,0,1-.608,1.589h-7.035Z" transform="translate(-100.881 -2.459)" fill="#1a1a1a"/><path d="M288.482,3.139,285.8,7.874h2.411l1.718-3.037h4.054L295.7,7.874h2.411l-2.679-4.735Zm12.455,2.5h7.371V7.874h2.448v-3.7H305.95V2.765H303.3V4.173h-4.807v3.7h2.447Zm8.474,12.651H301.4V16.063h7.475a5.055,5.055,0,0,0,1.348-3.592,5.281,5.281,0,0,0-1.348-3.576h-9.893V26.74H309.41a6.4,6.4,0,0,0,0-8.448ZM301.4,10.362h5.741a3.706,3.706,0,0,1,.633,2.108,4.386,4.386,0,0,1-.633,2.125H301.4Zm6.4,14.91h-6.4V19.759h6.4a5.669,5.669,0,0,1,.747,2.745A6.261,6.261,0,0,1,307.8,25.272ZM293.863,21.04l.548,1.764-5.063,2.323V19.813h5.823A1.886,1.886,0,0,0,297.207,18V8.89h-3.536V7.183h-3.235V8.89H286.9V24.918c0,1.323.671,1.749,1.589,1.816a3.88,3.88,0,0,0,1.829-.44c1.672-.758,3.657-1.676,4.533-2.081l.786,2.527h2.274l-1.775-5.7Zm-4.515-10.682h5.411v3.226h-5.411Zm0,4.692h5.411v2.194s.02,1.1-.976,1.1h-4.435Z" transform="translate(-107.944 -2.52)" fill="#1a1a1a"/><path d="M178.851,15.125h1.714V13.412h-1.714Zm4.652,0h1.713V13.412H183.5Zm-4.616-3.263h2.292v4.052h1.708V11.862h1.373c1.143,0,1.035-.839.855-1.281l-.7-1.689h-1.588l.906,1.748h-2.318l3.319-5.61h-1.8L181.4,7.62l-.925-.65,2.668-4.511h-1.926l-2.721,4.6,2.263,1.64Zm-.61-2.989L175.5,3.494h-2.351l2.771,5.379Zm0,7.041L175.5,10.535h-2.351l2.771,5.379Zm4.277,6.387,0-1.206h16a3.2,3.2,0,0,0,0-4.133H179.686v1.464h17.332a1.582,1.582,0,0,1,0,1.206l-16.535,0v4.139h5.777l11.085,0a1.917,1.917,0,0,1,.2.849,1.863,1.863,0,0,1-.2.837h-18.4v1.468h19.9a3.832,3.832,0,0,0,.881-2.305,3.385,3.385,0,0,0-.881-2.317Zm11.623-7.177h1.712V13.412h-1.712Zm.034-3.263H196.5v4.052h1.709V11.862h1.372c1.142,0,1.034-.839.856-1.281-.091-.218-.7-1.689-.7-1.689h-1.589l.9,1.748h-2.315l3.316-5.61h-1.8l-1.534,2.59-.922-.65,2.668-4.511H196.54l-2.721,4.6,2.263,1.64Zm4.616,3.263h1.714V13.412h-1.714ZM193.789,3.878h-2.712V2.459h-2.937V3.878H185.43V5.1h8.359Zm-8.034,6.608v3.791a1.514,1.514,0,0,0,1.614,1.638h4.48a1.514,1.514,0,0,0,1.612-1.638V10.485h-1.713v.924h-4.281v-.924Zm5.993,2.147v2.058h-4.281V12.633Zm1.713-4.178h-7.706V9.677h7.706Zm0-2.289h-7.706V7.388h7.706ZM176.817,16.992l-3.664,9.932h2.3l3.667-9.932Z" transform="translate(-85.484 -2.459)" fill="#1a1a1a"/><path d="M150.272,24.065h9.807V22.6h-9.807V21.206h5.747a1.514,1.514,0,0,0,1.614-1.637V18.1h.735v-1.47H139.774V18.1h.733v1.467a1.514,1.514,0,0,0,1.613,1.637h5.705V22.6h-9.765v1.47h9.765v1.388H137.238v1.47H160.9v-1.47H150.272Zm-7.563-4.082V18.1h12.722v1.881Zm7.563-16.209V2.459h-2.446V3.775H136.715V5.242h11.111V6.377H137.79V7.846h22.561V6.377H150.272V5.242h11.154V3.775ZM136.715,21.206h2.2V15.337h20.307v5.869h2.2V13.867H136.715Zm23.636-8.418a3.886,3.886,0,0,1-.436-1.942,3.925,3.925,0,0,1,.436-1.951V8.874H137.79V8.9a3.918,3.918,0,0,1,.435,1.951,3.879,3.879,0,0,1-.435,1.942Zm-2.588-2.446a1.188,1.188,0,0,0-.092.5,1.107,1.107,0,0,0,.09.475H140.379a1.085,1.085,0,0,0,.091-.475,1.153,1.153,0,0,0-.093-.5Z" transform="translate(-78.22 -2.459)" fill="#1a1a1a"/><path d="M63.659,2.765,63.653,26.74H86.086a1.89,1.89,0,0,0,2.032-1.813V2.765Zm2.447,1.47H77.669q.036,1.488.183,2.909H66.105ZM76.916,25.27H66.105V23.226H77.651ZM66.105,21.744V8.612H78.03a38.462,38.462,0,0,0,2.014,7.955l-1.861,5.177ZM84.34,25.27H79.008l2.155-6.009a28.806,28.806,0,0,0,3.612,5.966A2.063,2.063,0,0,1,84.34,25.27Zm1.331-2.21a35.4,35.4,0,0,1-3.464-6.688l2.252-6.229H82.366l-1.181,3.269a34.7,34.7,0,0,1-1.077-4.8h5.563Zm0-15.916H83.783V5.188H81.826V7.144h-1.9q-.149-1.429-.163-2.909h5.911ZM67.626,18.354a1.886,1.886,0,0,0,2.03,1.812h4.937a1.886,1.886,0,0,0,2.03-1.812V10.381h-9Zm2.212-.754V11.848h4.572V17.6s.02,1.1-.973,1.1H70.811C69.816,18.7,69.838,17.6,69.838,17.6Z" transform="translate(-63.653 -2.52)" fill="#1a1a1a"/><path d="M230.471,19.89V16.835h-9.514v4.694h7.483A1.789,1.789,0,0,0,230.471,19.89Zm-2.446-.584c0,.427-.1.754-.769.754H223.4V18.3h4.621Zm6.066,2.914V14.245H217.34v9.788h14.623C233.639,24.033,234.091,23.044,234.091,22.22Zm-2.447-.607a.878.878,0,0,1-.972.95H219.784V15.713h11.859ZM213.489,2.459V26.924h22.433a1.891,1.891,0,0,0,2.031-1.817V2.459Zm22,21.892c0,.5-.341,1.1-1.331,1.1l-18.225.006v-12.5h19.556Zm0-12.874h-8.482V10.045h7.564a5.316,5.316,0,0,1-.436-2.306,5.378,5.378,0,0,1,.436-2.318V5.4H216.857v.025a5.393,5.393,0,0,1,.435,2.318,5.33,5.33,0,0,1-.435,2.306h7.6v1.432h-8.523V3.933h19.556ZM219.443,7.14h12.544a1.633,1.633,0,0,0-.092.6,1.527,1.527,0,0,0,.09.563H219.445a1.478,1.478,0,0,0,.09-.563A1.6,1.6,0,0,0,219.443,7.14Z" transform="translate(-93.526 -2.459)" fill="#1a1a1a"/></g></g><g transform="translate(270.797)"><g transform="translate(238.438 0.351)"><path d="M657.56,19.863c.311-.576.518-1.247.7-1.241a3.057,3.057,0,0,0,2.174-.7,8.7,8.7,0,0,0,2.866-5.05,1.707,1.707,0,0,0-.564-1.407,4.578,4.578,0,0,0-2.289-.6,8.73,8.73,0,0,0-2.256.667c-.339-1.311.392-1.387,1.294-1.369a6.75,6.75,0,0,0,1.4-.263c-.385-1.167-.793-2.209-2.086-2.5-.743-.168-1.488-.328-2.231-.492l.074-.392c.469-.093.935-.206,1.408-.274,1.535-.223,3.08-.392,4.6-.672.277-.05.709-.561.67-.793a2.582,2.582,0,0,0-2.538-1.545c-1.463.37-2.92.765-4.415,1.158-.05-2.016-1.709-3.572-4.831-3.942.48,1.667.687,3.323,2.674,4.153L645.879,7.23a8.511,8.511,0,0,1,1.146,1.062,1.722,1.722,0,0,0,2.444.52c1.279-.569,2.616-1.017,3.943-1.474a4.952,4.952,0,0,1,1.132-.12,3.636,3.636,0,0,1,.008,1.446c-.155.354-.672.589-1.073.789-.49.243-1.027.395-1.8.682,1.167.713,2.115,1.245,2.994,1.873.149.106.107.683-.038.931-.163.279-.545.431-.856.654,1.545.775,1.531.926-.139,2.261,1.194,1.277,1.119,1.8-.4,2.366.122-2.26.074-4.443-2.738-5.216a8.938,8.938,0,0,0,1.046,5.683c.3.532,1.351.724,2.1.9a3.527,3.527,0,0,0,1.351-.238c.3,1.008-.022,1.3-.828,1.529-2.2.636-4.359,1.416-6.571,2.15,1.454,2.218,1.707,2.279,3.954,1.1.48-.252.964-.5,1.458-.722.512-.234,1.038-.437,1.758-.737a2.832,2.832,0,0,1,.339,1.044c-.108,3,.721,5.821,1.532,8.843.18-.339.327-.494.342-.661.248-2.775.512-5.549.7-8.329.1-1.5.333-1.816,1.846-1.782a29.482,29.482,0,0,0,3.793.151,7.869,7.869,0,0,0,2.317-1.088V20.62C663.277,18.327,660.52,19.419,657.56,19.863Zm2.935-7.99.337.345-2.168,4.549-.494-.176c-.746-1.171,1-1.287.986-2.2l-1.821-.757Z" transform="translate(-638.006 -0.439)"/><path d="M647.312,11.6c-2,3.231-3.833,6.351-5.837,9.355-1.573,2.358-3.367,4.571-5.051,6.857a1.472,1.472,0,0,0-.376.812,2.285,2.285,0,0,0,.413,1.084c.073.106.541.1.7-.026a20.494,20.494,0,0,0,3.282-2.74,54.8,54.8,0,0,0,4.268-5.9c1.513-2.4,2.827-4.927,4.379-7.666Z" transform="translate(-636.046 -2.665)"/></g><g transform="translate(206.73 0.181)"><path d="M631,14.324c-1.28-.809-2.552-1.631-3.828-2.448l-.108.239,1.18,2.355-3.223.821c.079-.865.15-1.571.209-2.278.253-3.046.428-6.1.78-9.135.241-2.083-.109-2.927-1.949-3.446a6.4,6.4,0,0,0-1.733-.208,1.026,1.026,0,0,0-.795.386c-.113.223.026.6.121.893a10.506,10.506,0,0,1,.805,2.351c.175,2.468.183,4.947.274,7.421.052,1.414.164,2.826.182,4.239a.984.984,0,0,1-.52.705c-1.713.767-3.449,1.484-5.178,2.216a8.851,8.851,0,0,1,3.69-3.623c.552-.3.87-.479.341-1.163a4.757,4.757,0,0,0-3.122-1.856,8.174,8.174,0,0,1,1.951-.689c.681-.177,1.685-.156,1.645-1.057-.028-.62-.638-1.248-1.082-1.8a1.369,1.369,0,0,0-.93-.374c-1.206-.043-2.414-.018-3.956-.018l2.085,2.609c-.2.211-.4.438-.616.647-1.072,1.032-1.08,1.846-.183,3.094a1.391,1.391,0,0,1,0,1.188A8.067,8.067,0,0,1,616,16.755a6.678,6.678,0,0,0-1.368,1.839,6.506,6.506,0,0,0-.035,2.585,1.144,1.144,0,0,0,.817.717c.313.04.678-.293,1.015-.473,1.808-.965,3.625-1.913,5.416-2.909.748-.416,1.024-.179,1.074.582.089,1.389.228,2.777.262,4.167.046,1.883.011,3.768.011,5.685l-.616-.076c-.079,1.081.958,2.663,2.49,3.815h.234c1.025-3.61.13-7.223.025-10.836a25.526,25.526,0,0,1,.028-4.272c.159-1.118,1.431-.832,2.223-1.125,1.333-.494,2.686-.937,4.03-1.4v-.464A4.211,4.211,0,0,1,631,14.324Z" transform="translate(-600.039 -0.226)"/><path d="M609.829,16.835a5.778,5.778,0,0,0-2.21-.841c-.886-.079-.948-.628-.887-1.159.031-.277.5-.6.845-.729,1.355-.512,2.735-.955,4.166-1.444a3.384,3.384,0,0,0-4.078-1.8,15.615,15.615,0,0,1,1.942-1.108,6.431,6.431,0,0,0,2.7-2.524,1.573,1.573,0,0,0-.116-1.467A16.372,16.372,0,0,0,609.478,4.2a1.11,1.11,0,0,0-.382.551c-.041.421.193.928.032,1.267-.544,1.148-1.211,2.239-1.831,3.351l-.447-.133c.208-1.73.421-3.46.618-5.191a.972.972,0,0,0-.092-.58,2.741,2.741,0,0,0-3.044-.922c-.489.244-.89.609-.344,1.27a2.577,2.577,0,0,1-.685,4.23c-.218.139-.442.267-.66.4a12.1,12.1,0,0,0-1.456-1.122,1.343,1.343,0,0,0-1.1-.137c-.756.447-1.768,3.383-1.492,4.191a8.513,8.513,0,0,0,.7,1.3c.213.383,2.019.975,2.346.688a5.544,5.544,0,0,0,1.11-1.347c.582-.992,1.086-2.03,1.624-3.048a22.257,22.257,0,0,1,.057,2.874c.012.657-.262.877-.849,1.11-2.386.945-4.737,1.974-7.148,2.993a11.135,11.135,0,0,0,.815,1.745c.491.713.994,1.248,1.947.338a13.444,13.444,0,0,1,1.867-1.281l.223.226a14.13,14.13,0,0,1-2.172,2.431c-1.557,1.1-1.019,2.564-.955,3.961a.958.958,0,0,0,.757.212c.871-.406,1.7-.9,2.533-1.352,1.124,1.741,1.6,3.939,3.823,4.916,1.241-2.855.954-5.817,1.032-9.051.6.636.971,1.07,1.388,1.452a1.649,1.649,0,0,0,2.293-.048C610.613,18.693,610.578,17.259,609.829,16.835ZM604.1,23.658,601.736,21.9l2.364-3.062Z" transform="translate(-596.441 -0.656)"/></g><path d="M351.453,13.273a5.316,5.316,0,0,0-1.052.41c-.976.683-1.918,1.413-2.893,2.1a.558.558,0,0,1-.529,0,8.04,8.04,0,0,1-2.335-3.033.6.6,0,0,0-.05-.124c-.608-.954-.632-1,.335-1.486a22.414,22.414,0,0,1,2.38-.913c.835-.3,1.676-.592,2.513-.889.609-.216,1.213-.451,1.829-.65a.984.984,0,0,0,.577-1.1.667.667,0,0,1-.053-.32c.074-.537.191-1.07.242-1.609.107-1.118.188-2.239.264-3.359a1.426,1.426,0,0,0-.087-.588c-.156-.415-.348-.816-.592-1.375L355.576,0c-.074.307-.116.459-.146.612-.044.227-.2.54-.1.669.581.793-.025,1.471-.159,2.185-.1.544-.326,1.066-.41,1.61-.112.73-.142,1.474-.216,2.313a10.663,10.663,0,0,0,3.734-1.479A5.6,5.6,0,0,1,361.5,9.647c-.416.1-.845.2-1.271.316a7.767,7.767,0,0,1-.867.249,17.837,17.837,0,0,0-2.3.3,11.84,11.84,0,0,0-2.074.948,1.775,1.775,0,0,0-1.042,1.858,6.163,6.163,0,0,1-.223,1.414c1.09.329,2.142.594,3.151.97a9.612,9.612,0,0,1,1.525.9c1.067.649,2.132,1.3,3.2,1.946a21.849,21.849,0,0,0,1.95,1.118,8.846,8.846,0,0,0,1.505.424c.544.143,1.092.277,1.636.42.438.114.871.249,1.311.351a24.041,24.041,0,0,1,3.166.97,6.286,6.286,0,0,1,2.56,1.62,4.541,4.541,0,0,1,.511,1.03c-.294.019-.447.031-.6.039l-6.853.348.03.42a8.394,8.394,0,0,1-2.272-.3c-.59-.268-.845-.836-1.46-1.035a5.511,5.511,0,0,1-1.566-1.1c-1.474-1.193-2.922-2.418-4.4-3.6-1.063-.851-2.162-1.657-3.33-2.547v4.68a3.737,3.737,0,0,0,2.263-.613,1.1,1.1,0,0,1,.68-.156,5.721,5.721,0,0,1,1.32.311c.133.05.172.35.32.685a1.739,1.739,0,0,1,1,1.286c-.012.2-.311.474-.532.544-.713.223-1.449.372-2.179.538-.441.1-.888.179-1.331.269l-1.566.319.282,8.19c-.569.065-.917.213-1.208-.392-.209-.433-.816-.662-1.215-1.017a6.035,6.035,0,0,1-1.163-1.181,22.467,22.467,0,0,1-1.136-2.269c-.022-.046.024-.126.052-.25.982.6,1.45,1.879,2.856,1.982L351.935,25c-.681.238-1.259.4-1.8.64a1.714,1.714,0,0,1-1.942-.31c-.593-.552-1.215-1.074-1.765-1.556l-2.453,2.5-.254-.167c-.036.045-.086.078-.087.112a1.564,1.564,0,0,1-.933,1.325,8.528,8.528,0,0,0-1.916,1.466,2.828,2.828,0,0,1-2.126.951.563.563,0,0,1-.129-.045l-.3-1.189.568-1.371.393,1.3.259.062c.568-.709,1.112-1.438,1.708-2.122a20.855,20.855,0,0,0,3.022-3.825c.069-.131.229-.211.331-.328.981-1.143,1.988-2.265,2.926-3.441.716-.9,1.35-1.858,2.007-2.8C350.083,15.29,350.706,14.363,351.453,13.273Zm-4.434,10.1c1.76.08,3.154-1.144,4.819-1.253V17.568A34.065,34.065,0,0,1,347.019,23.375Z" transform="translate(-338.231)"/><path d="M397.561,12.681c.187-.075.291-.109.387-.157.346-.175.76-.577,1.022-.494a15.579,15.579,0,0,1,2.99,1.267,2.354,2.354,0,0,1,.765,1.286c.083.251-.058.807-.229.869-.513.188-.555.837-1.288.934a2.816,2.816,0,0,0-2.15.855,1.2,1.2,0,0,1-.741.4c-1.124.167-1.045,1.113-1.046,1.813a17.583,17.583,0,0,0-.025,2.608c.079.549-.461,1.187-.754,1.857.327-.047.7-.1,1.067-.155a29.317,29.317,0,0,1,3.894-.558,9.357,9.357,0,0,1,2.7.645c.18.054.3.355.418.558a4.241,4.241,0,0,1,.2.485c.239.552.48,1.1.713,1.639a7.1,7.1,0,0,1-1.625.814,5.875,5.875,0,0,1-1.665-.122,8.936,8.936,0,0,1-2.469-.287c-1.1-.454-2.124.036-3.176.013A8.168,8.168,0,0,0,394,27.6c-1.359.443-2.7.927-4.048,1.412a1.283,1.283,0,0,1-1.425-.3,4.694,4.694,0,0,1-.62-1.28c-.072-.159-.09-.37-.207-.477a.832.832,0,0,1-.175-1.152,1.332,1.332,0,0,1,1.209-.3,2.4,2.4,0,0,0,1.6.115,3.821,3.821,0,0,0,2.985-1.9,1.131,1.131,0,0,1,.267-.3,3,3,0,0,0,1.193-2.818c-.028-.447,0-.9,0-1.432-.395.147-.833.171-.987.393-.627.9-1.492.506-2.229.412-.422-.054-.822-.517-1.169-.861-.456-.452-.61-1.1-1.248-1.5-.442-.272-.612-1.033-.818-1.605-.042-.116.267-.488.468-.542,1.714-.467,3.439-.893,5.164-1.318a.933.933,0,0,0,.744-1.179c-.135-.794-.19-1.6-.264-2.407-.068-.739-.071-1.488-.194-2.217-.063-.378-.123-.852-.683-.955a.56.56,0,0,1-.32-.44.642.642,0,0,1,.333-.457,2.185,2.185,0,0,1,2.109-.023,4.852,4.852,0,0,0,.941.278A1.857,1.857,0,0,1,398.1,9.112c-.151.891-.372,1.769-.535,2.659A5.7,5.7,0,0,0,397.561,12.681Z" transform="translate(-348.027 -1.235)"/><g transform="translate(62.506 2.824)"><path d="M430.9,27.874c-.01-1.684.01-3.368-.012-5.051-.006-.388-.178-.774-.189-1.163a1.839,1.839,0,0,1,.164-1.067c.731-.986,1.534-1.918,2.331-2.852.339-.4.377-.956-.033-1.17-.975-.507-1.93-1.163-3.073-.271a23.751,23.751,0,0,1-2.188,1.372l-.142-.034a2.806,2.806,0,0,1,.334-.564c.592-.61,1.211-1.192,1.805-1.8.189-.193.291-.565.5-.627a19.166,19.166,0,0,1,2.479-.561c.679-.106,1.375-.1,2.2-.155l-.41-1.207-2.506-.361c.143-.207.28-.4.414-.6.308-.456.568-.934,1.23-.994a.537.537,0,0,0,.333-.913c-.42-.524-.933-.973-1.44-1.489l-1.178,1.808c-.649-1.118-1.122-2.242-2.528-2.311.087-.769.157-1.486.254-2.2a6.115,6.115,0,0,1,.223-1.01.8.8,0,0,0-.816-1.1,3.633,3.633,0,0,0-1.015.023,1.2,1.2,0,0,0-.527.514c.375.518.083.974,0,1.49-.177,1.051-.187,2.131-.28,3.2-.016.187-.04.449-.161.536a12.464,12.464,0,0,1-1.283.769c-.758.42-1.531.813-2.279,1.249-.259.151-.465.373-.166.713a12.545,12.545,0,0,0,1.327,1.541c.379.307,1.087.657,1.408.5.7-.349.706.092.87.481-1.331.577-2.656,1.159-3.986,1.726s-2.655,1.118-4.1,1.725a3.908,3.908,0,0,0,.318.636,4.311,4.311,0,0,0,.658.745c.292.264.623.675.936.674s.991.2,1.01-.554c0-.1.167-.208.279-.275q2.2-1.321,4.419-2.631a1.061,1.061,0,0,1-.281.62c-.314.34-.668.644-.973.991-.259.295-.452.647-.709.943-.349.4-.753.758-1.1,1.167-.53.634-1.013,1.307-1.545,1.939-.3.356-.777.605-.974,1-.559,1.134-1.733,1.564-2.547,2.4-.274.281-.863.649-.811.782a.579.579,0,0,1-.43.8c-.508.143-.431.4-.328.774a1.842,1.842,0,0,0,.486-.006c.437-.127.864-.8,1.312,0a1.128,1.128,0,0,0,.339-.142,12.763,12.763,0,0,0,2.633-2.4c1.2-1.4,2.445-2.769,3.672-4.15.395-.444.553-.062.833.182a2.374,2.374,0,0,0,1.021.448c.1.022.272-.3.409-.467.106-.13.206-.263.341-.436l1.007,1.512c-.285.2-.674.444-1.019.737-.754.639-1.44,1.371-2.243,1.936-.532.375-1.118.979-1.921.444-.094-.063-.292.026-.5.053a2.739,2.739,0,0,0,.11.829,13.512,13.512,0,0,1,.787,1.338c.2.56.786.283,1.041.632.251-.2.508-.4.75-.61.275-.24.538-.5.657-.607a3.969,3.969,0,0,1,.309-.869,10.575,10.575,0,0,1,.986-1.225c.476-.508.99-.979,1.488-1.466l.161.083v4.324l-2.941-.419c.195.7.44,1.419,1.408,1.585l-.165.351c1.093.358,2,1.209,3.231.986-.014-.173-.082-.341-.028-.445A4.784,4.784,0,0,0,430.9,27.874ZM429.7,11.268c.386-.2.738-.466,1.106-.7l.162.151-2.354,3.024C428.382,12.34,428.642,11.82,429.7,11.268Zm-.715,8.851a1.06,1.06,0,0,1-1.331.711c-.082-.261-.165-.528-.232-.742a9.975,9.975,0,0,1,2.872-2.552C429.861,18.4,429.41,19.251,428.99,20.119Z" transform="translate(-416.302 -3.527)"/><path d="M452.53,28.992a15.561,15.561,0,0,0-4.594-1.476,7.51,7.51,0,0,1-1.95-.515A31.975,31.975,0,0,1,443.2,25.2a.9.9,0,0,1-.409-1.046,13.822,13.822,0,0,1,.6-1.655c.189-.438.1-.752-.316-.938-.477-.211-.974-.379-1.463-.56-.22-.082-.445-.151-.667-.225l-.168.135a2.4,2.4,0,0,1,.185,2.588l-3.072-1.15,1.06-1.706c.18-.023.529-.061.876-.117,1.361-.22,2.717-.48,4.083-.66,1.031-.136,2.078-.147,3.113-.261.805-.089.981-.444.581-1.037a.421.421,0,0,1-.038-.127,1.44,1.44,0,0,0-1.54-1.21.646.646,0,0,1-.326-.062,1.737,1.737,0,0,0-2.01.237,3.57,3.57,0,0,1-.443.283,16.285,16.285,0,0,0-1.616.8,2.779,2.779,0,0,1-1.572.576l1.55-3.274.219-.03c.456-.853.786-1.616,1.243-2.292.532-.786.548-1.832-.141-2.184a5.451,5.451,0,0,0-2.765-.748,2.95,2.95,0,0,0-.73.239c.285.407.667.7.672,1.008a7.39,7.39,0,0,1-.282,2.027,16.663,16.663,0,0,1-.881,2.508,9.258,9.258,0,0,1-1.616,3.164,2.56,2.56,0,0,0-.7,2.688c.151.443-.081.433-.261.548-.412.264-.841.5-1.335.794a3.971,3.971,0,0,0,1.034.408,6.481,6.481,0,0,1,2.923.975c.661.365.915.97.445,1.283-1.03.686-1.9,1.7-3.327,1.615.2.438.371.792.52,1.112.208-.06.434-.211.59-.157a2.992,2.992,0,0,0,1.712-.074,2.425,2.425,0,0,0,1.728-1.244c.14-.3.393-.543.786-.163.539.521,1.126.994,1.706,1.471.76.625,1.514,1.26,2.31,1.837a1.721,1.721,0,0,0,.977.295c.514-.006,1.023-.168,1.539-.216a5.857,5.857,0,0,0,1.7-.109,6.788,6.788,0,0,1,2.539-.367,7.607,7.607,0,0,0,1.176-.237A4.447,4.447,0,0,0,452.53,28.992Z" transform="translate(-420.035 -4.923)"/></g><g transform="translate(93 1.997)"><path d="M475.449,24.091c-.082-1.177-.306-2.345-.367-3.522a.91.91,0,0,0-.668-.942c-.454-.164-.9-.348-1.368-.473a1.859,1.859,0,0,0-2.178.335c-.765.424-1.532.842-2.294,1.273-.25.141-.482.314-.785.513l1.947.646,2.584-1.738c.5,2.3.153,4.393.292,6.669-1.167-1.425-2.34-.809-3.507-.323l-.134-.229,3.038-2.713c-.991-1.343-2.09-1.8-3.321-.042-.088-.5-.151-.856-.237-1.341l-2.606-1.544c-.1,1.016-.191,2.014-.289,3.01-.042.435-.094.867-.136,1.3-.09.951-.19,1.9-.259,2.856-.034.467,0,.938-.01,1.407-.022.975-.3,2,.4,2.854a10.832,10.832,0,0,0,1.338,1.41c.116.1.5-.129.769-.2a1.1,1.1,0,0,1,.164-.022c.061-.5-.178-1.2.757-1.023.068.013.268-.213.248-.26-.267-.628-.051-1.309-.153-1.887-.132-.749.148-1.383-.03-2.215,1.536,1,2.745.008,4.062-.3V30.96l-2.656-.665,2.273,2.046-.583.324,2.083,1.943c.215-.508.287-1.091.532-1.177a1.193,1.193,0,0,0,.8-1.135,20.547,20.547,0,0,0,.268-2.538c.027-1.206-.059-2.414-.064-3.621C475.367,25.454,475.5,24.767,475.449,24.091Z" transform="translate(-456.521 -5.778)"/><path d="M478.024,8.4c-.509-.411-1.051-.991-1.631-1.058a6.827,6.827,0,0,0-2.972.257c-.983.345-2.006.392-2.983.712a18.707,18.707,0,0,1-2.589.476,1.845,1.845,0,0,0-.762.177c-.763.58-1.713.333-2.545.642-.857.319-1.8.4-2.688.641-1.074.292-2.13.649-3.195.972-1.37.415-2.742.823-4.268,1.28.528.7.9,1.295,1.371,1.8.4.432,1.008.411,1.193-.028.413-.981,1.41-1.025,2.163-1.358a37.1,37.1,0,0,1,4.161-1.4c.692-.213,1.408-.347,2.232-.545a4.035,4.035,0,0,1-.508.785c-.745.663-1.534,1.276-2.275,1.942a4.433,4.433,0,0,1-1.887,1.3c-.134.032-.215.4-.273.618a3.445,3.445,0,0,0-.014.532c-.059.6-.156,1.2-.186,1.8-.031.632.146.725.713.484.681-.289,1.359-.593,2.061-.823A34.765,34.765,0,0,0,469.1,14.95c.544-.3,1.1-.581,1.647-.87l.092.149-.771.561c.316.408.477.918,1.159.8a1.415,1.415,0,0,1,.82.234c.446.243.949.315,1.2-.11a2.622,2.622,0,0,0,.391-1.576c-.071-.464-.552-.861-.846-1.291a2.246,2.246,0,0,0-1.685-.851c-.551-.082-1.1-.138-1.658-.2l-.078.23,1.185,1.353L466.1,14.826c.076-.447.115-.676.137-.8a2.055,2.055,0,0,0,.744-.089,7.591,7.591,0,0,0,1.083-.819c.267-.232.495-.511.741-.769-.387-.318.055-1.031-.62-1.247-.222-.071-.37-.372-.587-.605a2.768,2.768,0,0,1,.6-.307,17.315,17.315,0,0,1,4.757-.624c.207.016.422-.134.634-.135a24.269,24.269,0,0,1,2.816.042,3.765,3.765,0,0,0,2.361-.151A5.5,5.5,0,0,0,478.024,8.4Z" transform="translate(-454.39 -3.45)"/><path d="M466.955,5.862a5.79,5.79,0,0,0-1.044.756,1.894,1.894,0,0,0,1.97.167.9.9,0,0,1,.331-.042A16.628,16.628,0,0,0,470.5,6.5c.247-.058.612-.632.543-.841a3.685,3.685,0,0,0-1.624-2.38A4.939,4.939,0,0,0,466,2.564c.421.816.806,1.542,1.172,2.279C467.364,5.225,467.584,5.6,466.955,5.862Z" transform="translate(-456.687 -2.495)"/></g><g transform="translate(120.724 1.947)"><path d="M514.346,16.254a11.182,11.182,0,0,1-1.259-1.65,3.937,3.937,0,0,0-2.6-1.872c-1.922-.594-3.935-.889-5.9-1.351-.251-.059-.445-.367-.665-.56.3-.251.064-.959.868-.825a2.335,2.335,0,0,0,1.546-.393,3.719,3.719,0,0,1,1.739-.93.585.585,0,0,0,.313-.22c.6-.7,1.188-1.407,1.782-2.113a3.274,3.274,0,0,0-3.078-1.375,12.461,12.461,0,0,0-2.116.69c-.472.167-.936.359-1.4.54a.984.984,0,0,1,.144-.577c.853-1.626.844-1.616-.464-2.933-.282-.283-.447-.388-.705,0-.626.946-1.277,1.873-1.909,2.816-.089.133-.082.34-.186.452-.343.37-.72.706-1.074,1.065-.6.611-1.158,1.273-1.809,1.824-.306.259-.334.388-.14.7.311.495.58,1.015.865,1.525.066.118.124.24.239.463a6.983,6.983,0,0,1,1.721-2.021c.652-.529,1.242-1.135,1.859-1.708l.266.175a6.15,6.15,0,0,1-.528,1.582,12.975,12.975,0,0,1-1.694,1.969c-.958.942-1.951,1.852-2.978,2.718-.244.207-.68.187-1.108.291.058.29.013.841.263,1.155.757.946.084,1.873.048,2.783-.052,1.3-.416,2.588-.515,3.891a4.658,4.658,0,0,0,.685,3.482c-.952-.017-1.666,1.185-2.576.061.056.28.167.465.2.665a1.561,1.561,0,0,0,2.464,1.19c.661-.355,1.281-.789,1.934-1.163.353-.2.737-.351,1.107-.524a13.474,13.474,0,0,1-1.905,2.143c-.671.614-1.266,1.4-2.331,1.347.428,1.26.594,1.438,1.484,1.291a3.583,3.583,0,0,0,2.132-1c1.006-1.058,2.066-2.065,3.163-3.153a17.445,17.445,0,0,1,1.887,2.1A5.613,5.613,0,0,0,506.9,31.31a1.045,1.045,0,0,0,1.363-.769,2.425,2.425,0,0,0-.427-2.025c-.451-.448-.693-1.128-1.413-1.292-.663-.151-1.315-.356-1.979-.5-.637-.139-1.285-.23-2-.354l1.183-1.6a17.036,17.036,0,0,0,1.637,1.462.9.9,0,0,0,.838-.223,6.266,6.266,0,0,0,.488-2.062c.015-1.484-.111-2.97-.186-4.455-.062-1.213-.143-2.424-.2-3.638a1.528,1.528,0,0,0-1.375-1.558c-.126-.019-.239-.108-.365-.14-.46-.118-.978-.415-1.371-.3a11.335,11.335,0,0,0-2.231,1.078c-.589.332-1.136.741-1.741,1.142a1.66,1.66,0,0,0,2.195.754c.829-.435,1.653-.88,2.529-1.347.165,2.831.324,5.56.484,8.291h-1.365a2.835,2.835,0,0,0-2.847.384,10.828,10.828,0,0,1-1.637.647c.072-.986.124-1.707.183-2.506,1.911,1.141,3.179-.112,4.667-.9-.406-.2-.732-.387-1.081-.516a1.672,1.672,0,0,0-1.938.165,2.47,2.47,0,0,1-.786.468,3.481,3.481,0,0,1-.751.126c-.018-.219-.042-.439-.051-.659a3.116,3.116,0,0,1,.009-.681,4.262,4.262,0,0,1,.257-.688c.893.824,1.387.85,2.271.321.781-.468,1.6-.873,2.409-1.311a1.89,1.89,0,0,0-2.4-.916c-.749.412-1.48.853-2.306,1.332,0-.444-.119-.836.023-1.058.342-.529-.087-.7-.339-.925-.369-.335-.782-.622-1.262-1a3.84,3.84,0,0,1,.565-.283,6.565,6.565,0,0,0,1.6-.639,15.73,15.73,0,0,0,2.283-2.037,8.98,8.98,0,0,1,.808-.737c.548-.4.606.355.954.444a.641.641,0,0,1,.13.036c.982.47,1.945.985,2.949,1.4.869.358,1.78.616,2.681.89.543.166,1.11.249,1.65.422,1.017.324,2.02.691,3.034,1.026a.4.4,0,0,0,.3-.078C514.4,16.473,514.39,16.311,514.346,16.254Zm-10.78-7.885,2.175-.489.1.131-1.239,1.315Z" transform="translate(-490.007 -2.432)"/><path d="M493.752,17.967c.289-.432.5-.914.778-1.357.65-1.05,1.327-2.085,1.964-3.142.081-.134-.009-.371-.02-.56a1.387,1.387,0,0,0-.481.185c-.41.393-.757.856-1.187,1.22-.608.513-1.287.942-1.9,1.445a24.706,24.706,0,0,1-1.927,1.661c-.536.354-.978,1.192-1.959.705a8.436,8.436,0,0,1,.4.911,3.871,3.871,0,0,0,1.861,2.134c.471.287.7.139.878-.374a12.836,12.836,0,0,1,.829-1.9C493.174,18.546,493.531,18.3,493.752,17.967Z" transform="translate(-489.018 -4.521)"/><path d="M493.471,8.648c-.211.474-.5.91-.727,1.38a1.315,1.315,0,0,0-.078.616c0,.054.213.159.3.137.592-.143,1.171-.347,1.767-.464a10.458,10.458,0,0,1,1.242-.07.715.715,0,0,0,.356-.11,1.209,1.209,0,0,0,.116-1.7,8.285,8.285,0,0,0-4.259-2.2c.4.613.82,1.219,1.2,1.847A.712.712,0,0,1,493.471,8.648Z" transform="translate(-489.651 -3.191)"/></g><g transform="translate(179.162 2.162)"><path d="M587.337,16.521a11.134,11.134,0,0,1-1.259-1.649,3.936,3.936,0,0,0-2.6-1.872c-1.922-.594-3.935-.889-5.9-1.351-.251-.059-.445-.367-.665-.56.3-.251.064-.959.868-.825a2.335,2.335,0,0,0,1.546-.393,3.713,3.713,0,0,1,1.739-.93.582.582,0,0,0,.313-.221c.6-.7,1.188-1.406,1.782-2.112a3.274,3.274,0,0,0-3.078-1.375,12.46,12.46,0,0,0-2.116.69c-.472.167-.936.359-1.4.54a.983.983,0,0,1,.144-.577c.853-1.626.844-1.616-.464-2.933-.282-.283-.447-.388-.7,0-.627.945-1.278,1.873-1.909,2.816-.089.133-.082.34-.186.452-.343.37-.72.706-1.074,1.065-.6.61-1.158,1.273-1.809,1.824-.306.259-.334.388-.14.7.311.495.58,1.015.865,1.525.066.118.124.239.239.463a6.982,6.982,0,0,1,1.721-2.021c.652-.529,1.242-1.135,1.859-1.708l.266.175a6.151,6.151,0,0,1-.528,1.582,12.971,12.971,0,0,1-1.694,1.969c-.957.942-1.951,1.852-2.978,2.718-.244.207-.68.187-1.108.291.059.29.013.841.263,1.155.757.946.084,1.873.048,2.783-.052,1.3-.416,2.588-.515,3.891a4.658,4.658,0,0,0,.685,3.482c-.952-.017-1.666,1.185-2.576.061.056.28.167.465.205.664a1.561,1.561,0,0,0,2.464,1.191c.661-.355,1.281-.789,1.934-1.163.353-.2.737-.351,1.107-.525a13.447,13.447,0,0,1-1.905,2.144c-.671.613-1.266,1.4-2.331,1.347.428,1.259.594,1.438,1.484,1.291a3.583,3.583,0,0,0,2.132-1c1.006-1.058,2.066-2.065,3.164-3.153a17.508,17.508,0,0,1,1.886,2.1,5.613,5.613,0,0,0,2.785,2.519,1.045,1.045,0,0,0,1.363-.77,2.425,2.425,0,0,0-.427-2.025c-.451-.448-.693-1.127-1.413-1.291-.663-.151-1.315-.356-1.979-.5-.637-.139-1.285-.23-2-.354l1.183-1.6a17.145,17.145,0,0,0,1.637,1.462.9.9,0,0,0,.838-.223,6.257,6.257,0,0,0,.488-2.062c.015-1.484-.11-2.97-.186-4.455-.062-1.213-.143-2.425-.2-3.638a1.528,1.528,0,0,0-1.375-1.558c-.126-.019-.239-.108-.365-.14-.46-.118-.978-.415-1.371-.3a11.337,11.337,0,0,0-2.231,1.078c-.589.332-1.136.741-1.741,1.142a1.661,1.661,0,0,0,2.194.754c.829-.435,1.653-.88,2.529-1.347.165,2.831.324,5.56.484,8.291h-1.365a2.833,2.833,0,0,0-2.847.384,10.91,10.91,0,0,1-1.636.647c.072-.986.124-1.708.182-2.506,1.911,1.141,3.179-.112,4.667-.9-.406-.2-.732-.387-1.081-.516a1.673,1.673,0,0,0-1.938.164,2.472,2.472,0,0,1-.786.468,3.481,3.481,0,0,1-.751.126c-.018-.22-.042-.439-.051-.659a3.111,3.111,0,0,1,.009-.681,4.262,4.262,0,0,1,.257-.688c.893.824,1.388.85,2.271.321.781-.468,1.6-.873,2.409-1.311a1.891,1.891,0,0,0-2.4-.917c-.749.412-1.48.854-2.306,1.332,0-.443-.119-.835.023-1.057.342-.529-.087-.7-.339-.926-.369-.335-.781-.621-1.262-1a3.759,3.759,0,0,1,.565-.283,6.566,6.566,0,0,0,1.6-.639,15.727,15.727,0,0,0,2.283-2.037,8.993,8.993,0,0,1,.808-.737c.548-.4.606.355.954.443a.7.7,0,0,1,.13.037c.982.469,1.945.985,2.949,1.4.869.358,1.78.616,2.681.89.543.166,1.11.249,1.65.422,1.017.324,2.02.69,3.034,1.026a.391.391,0,0,0,.3-.078C587.386,16.741,587.381,16.579,587.337,16.521Zm-10.78-7.884,2.175-.489.1.131L577.6,9.594Z" transform="translate(-562.997 -2.7)"/><path d="M566.743,18.235c.289-.432.5-.914.779-1.357.649-1.05,1.326-2.085,1.963-3.142.081-.135-.009-.371-.02-.56a1.387,1.387,0,0,0-.481.185c-.41.393-.757.856-1.187,1.22-.608.513-1.286.941-1.9,1.445a24.689,24.689,0,0,1-1.927,1.661c-.536.354-.978,1.192-1.959.705a8.362,8.362,0,0,1,.4.911,3.871,3.871,0,0,0,1.861,2.134c.471.287.7.139.878-.374a12.872,12.872,0,0,1,.829-1.9C566.165,18.814,566.522,18.566,566.743,18.235Z" transform="translate(-562.009 -4.789)"/><path d="M566.462,8.916c-.211.474-.5.91-.727,1.38a1.314,1.314,0,0,0-.078.616c0,.054.214.159.3.136.592-.142,1.17-.346,1.767-.463a10.293,10.293,0,0,1,1.242-.07.715.715,0,0,0,.356-.11,1.21,1.21,0,0,0,.116-1.7,8.3,8.3,0,0,0-4.259-2.2c.4.614.82,1.22,1.2,1.848A.716.716,0,0,1,566.462,8.916Z" transform="translate(-562.642 -3.459)"/></g><g transform="translate(148.277 2.685)"><path d="M546.809,19.132c.033-.045.135-.051.206-.057.291-.026.582-.044.873-.065-.132-.291-.284-.576-.389-.876-.058-.167-.1-.493-.041-.52.532-.252.692-.608.346-1.153a1.014,1.014,0,0,0,1.25-.831c.267-.918.65-1.8.928-2.717a1.529,1.529,0,0,0-.339-1.627,5.629,5.629,0,0,0-2.157-1.241,1.875,1.875,0,0,0-1.563.034c-.789.339-1.574.7-2.387.969a1.2,1.2,0,0,1-.891-.165c-.439-.275-.792-.685-1.219-.984s-.812-.327-1.026.3c-.263.77-.552,1.532-.878,2.279-.8,1.829-.672,1.511-2.042.709-.037-.021-.054-.074-.062-.086a1.959,1.959,0,0,0,.08-.38,3.74,3.74,0,0,0-1.777-2.439.459.459,0,0,0-.387.207c-.32.689-.639,1.383-.9,2.1-.438,1.206-.805,2.438-1.25,3.641-.495,1.341-1.034,2.666-1.571,3.992-.33.817-.669,1.632-1.043,2.428-.307.653-.685,1.27-1,1.916-.283.57-.107,1.393-.934,1.67-.059.019-.066.226-.078.347-.148,1.4-1.185,1.954-2.319,2.371-.54.2-1.026,1.315-.681,1.789.327.448.7.861,1.086,1.33a16.118,16.118,0,0,0,2.138-1.991,18.294,18.294,0,0,0,1.288-1.444c.759-1.291,1.449-2.628,2.093-3.982.993-2.088,1.93-4.2,2.877-6.312.452-1.009.873-2.032,1.368-3.188.583,1.5,1.11,2.864,1.652,4.263l-1.907.885,2.323,1.487c.6-.305,1.175-.6,1.757-.882.688-.328,1.026-.1,1.058.676.018.422.116.842.12,1.263.016,1.43.006,2.859.006,4.36l-1.815-.231a10.912,10.912,0,0,0,2.07,2.108,6.712,6.712,0,0,0,1.6.652c.139-.4.276-.808.418-1.211.025-.07.087-.127.1-.2a8.467,8.467,0,0,0,.523-3.042,21.225,21.225,0,0,1,.14-2.994,1.753,1.753,0,0,0-.221-.922,15.078,15.078,0,0,0-1.023-1.341,3.347,3.347,0,0,0,1.09-.255C545.081,19.284,546.157,20.043,546.809,19.132Zm-7.03-.488c-.2-.76.078-1.014.932-1.274a24.308,24.308,0,0,0,3.191-1.317,2.288,2.288,0,0,0,.76-.773c.243-.341.419-.7-.21-.907-.294-.1-.5-.448-.8-.553-1.2-.432-2.03.442-2.959.92a10.023,10.023,0,0,0-1.208.873c-.07-.316-.209-.574-.147-.768.074-.234.39-.616.477-.585.794.282,1.127-.286,1.445-.772.862-1.319.857-1.357,2.249-.624a1.378,1.378,0,0,0,1.8-.177,3.758,3.758,0,0,1,.76-.42,15.289,15.289,0,0,1-.339,1.781c-.259.82-.592,1.617-.918,2.415a1.481,1.481,0,0,1-1.076,1.022C542.4,17.811,541.1,18.251,539.779,18.644Zm-.327-2.6,1.2.224.084.185-.91.62Z" transform="translate(-523.833 -4.618)"/><path d="M525.258,22.912c-.293.86-.871,1.572-.119,2.477.4.478.6,1.122,1.01,1.587a.823.823,0,0,0,1.307.019,2.953,2.953,0,0,0,.628-1.167,10.188,10.188,0,0,0,.9-2.5c.2-1.09.666-2.128.966-3.2.077-.276-.086-.612-.057-.911.058-.582.175-1.159.279-1.81l-3.476,5.845-.357-.151c.13-.457.239-.921.393-1.37.261-.764.511-1.536.839-2.272.229-.514-.047-1.484,1.065-1.283-.059-.2-.1-.322-.133-.449-.089-.372-.058-.844-.278-1.1-.817-.957-2-.965-3.134-1.017-.4-.018-.8.011-1.2.023-.143,0-.388-.014-.408.043a.568.568,0,0,0,.014.48,7.57,7.57,0,0,0,1.648,1.589c.725.4,1.142.67.861,1.618C525.659,20.518,525.645,21.777,525.258,22.912Z" transform="translate(-523.433 -5.796)"/><path d="M548.454,4.663c.055-.562-.819-.488-.468-1.086.007-.014-.138-.171-.21-.169a8.086,8.086,0,0,0-2.836.143c-2.019.861-3.926,1.989-6.025,3.086L541.9,9.1Z" transform="translate(-526.519 -3.354)"/><path d="M551.142,25.386c.341.54.683,1.079,1.045,1.649l-1.769.548c.317.275.535.624.8.667a22.409,22.409,0,0,1,2.844.595,8.383,8.383,0,0,0,2.3.042C556.672,26.9,553.526,24.842,551.142,25.386Z" transform="translate(-528.813 -7.729)"/><path d="M543.455,26.19a12.159,12.159,0,0,0-1.373.713c-.769.526-.978.532-1.6-.175-.177-.2-.317-.438-.5-.7a15.353,15.353,0,0,0-1.319,2.161,6.091,6.091,0,0,0-.351,2.093c-.014.417.355.677.789.837a1.247,1.247,0,0,0,1.548-.615,9.222,9.222,0,0,1,.923-1.492c.662-.886,1.365-1.742,2.051-2.611Z" transform="translate(-526.4 -7.875)"/><path d="M527.955,8.7a2.751,2.751,0,0,0,1.17.374c.463,0,.926-.175,1.39-.182.514-.007.969-.038,1.141-.621a1.488,1.488,0,0,0-.59-1.777c-1.2-.554-2.431-1.062-3.649-1.588l-.247.185c.3.628.558,1.283.917,1.877S528.669,8.071,527.955,8.7Z" transform="translate(-524.178 -3.663)"/></g><g transform="translate(1.871 35.963)"><path d="M340.568,56.79V44.918h1.96V49.59h3.863V44.918h1.96V56.79h-1.96V51.6h-3.863V56.79Z" transform="translate(-340.568 -44.918)"/><path d="M352.262,53.133a5.223,5.223,0,0,1,.5-2.3,3.7,3.7,0,0,1,1.313-1.558,3.294,3.294,0,0,1,1.821-.519,3.125,3.125,0,0,1,2.672,1.334,5.157,5.157,0,0,1,.972,3.12,5.559,5.559,0,0,1-.506,2.4,3.811,3.811,0,0,1-1.327,1.611,3.231,3.231,0,0,1-1.8.539,3.3,3.3,0,0,1-2.608-1.2A5.086,5.086,0,0,1,352.262,53.133Zm1.912.122a3.217,3.217,0,0,0,.512,1.978,1.51,1.51,0,0,0,1.234.671,1.476,1.476,0,0,0,1.209-.674,3.3,3.3,0,0,0,.5-1.99,3.2,3.2,0,0,0-.512-1.958,1.505,1.505,0,0,0-1.226-.674,1.488,1.488,0,0,0-1.214.674A3.252,3.252,0,0,0,354.174,53.255Z" transform="translate(-342.899 -45.682)"/><path d="M363.005,48.954h1.717v1.175a3.448,3.448,0,0,1,1.013-1.033,2.2,2.2,0,0,1,1.19-.343,2.038,2.038,0,0,1,1.179.339,2.444,2.444,0,0,1,.814,1.029,3.564,3.564,0,0,1,1.008-1.029,2.113,2.113,0,0,1,1.147-.339,2.2,2.2,0,0,1,1.243.344,2.143,2.143,0,0,1,.794.985,5.352,5.352,0,0,1,.271,1.97v5.5h-1.871V52.633a4.217,4.217,0,0,0-.227-1.715.792.792,0,0,0-.761-.426,1.148,1.148,0,0,0-1,.6,4.809,4.809,0,0,0-.381,2.331v4.135h-1.87V52.836a6.452,6.452,0,0,0-.154-1.808.794.794,0,0,0-.818-.536,1.2,1.2,0,0,0-.761.276,1.534,1.534,0,0,0-.5.806,7.229,7.229,0,0,0-.154,1.8v4.184h-1.871Z" transform="translate(-345.041 -45.682)"/><path d="M382.253,54.826l1.854.381a3.672,3.672,0,0,1-1.16,1.923,2.969,2.969,0,0,1-1.914.628,2.939,2.939,0,0,1-2.417-1.046,5.208,5.208,0,0,1-1.006-3.408,5.466,5.466,0,0,1,1.013-3.456,2.692,2.692,0,0,1,2.219-1.1,2.824,2.824,0,0,1,2.373,1.119,6.119,6.119,0,0,1,.988,3.78l-.009.259h-4.672a2.579,2.579,0,0,0,.459,1.585,1.324,1.324,0,0,0,1.068.561Q381.952,56.057,382.253,54.826Zm.1-2.308A2.512,2.512,0,0,0,381.921,51a1.186,1.186,0,0,0-1.96.02,2.372,2.372,0,0,0-.406,1.5Z" transform="translate(-347.953 -45.682)"/><path d="M387.739,56.79V44.918h1.87V56.79Z" transform="translate(-349.973 -44.918)"/><path d="M393.732,51.569,392.04,51.2a3.288,3.288,0,0,1,1.017-1.874,3.173,3.173,0,0,1,2.037-.571,3.934,3.934,0,0,1,1.805.331,1.968,1.968,0,0,1,.891.9,5.508,5.508,0,0,1,.267,2.08l-.016,2.659a11.342,11.342,0,0,0,.089,1.665,5.784,5.784,0,0,0,.332,1.163h-1.846l-.243-.939a3.477,3.477,0,0,1-1.025.854,2.467,2.467,0,0,1-1.163.287,2.218,2.218,0,0,1-1.685-.693,2.575,2.575,0,0,1-.656-1.845,2.862,2.862,0,0,1,.267-1.274,2.181,2.181,0,0,1,.753-.868,4.984,4.984,0,0,1,1.555-.576,8.874,8.874,0,0,0,1.806-.56,2.762,2.762,0,0,0-.1-.941.786.786,0,0,0-.372-.366,1.67,1.67,0,0,0-.765-.143,1.241,1.241,0,0,0-.789.227A1.633,1.633,0,0,0,393.732,51.569Zm2.494,1.855a9.27,9.27,0,0,1-1.109.341,2.573,2.573,0,0,0-1.134.5.981.981,0,0,0-.267.714,1.216,1.216,0,0,0,.295.833.946.946,0,0,0,.741.337,1.359,1.359,0,0,0,.786-.272,1.446,1.446,0,0,0,.538-.645,4.143,4.143,0,0,0,.15-1.357Z" transform="translate(-350.791 -45.682)"/><path d="M408.321,57.555h-1.87V53.16a9.23,9.23,0,0,0-.106-1.76,1.2,1.2,0,0,0-.393-.673,1,1,0,0,0-.652-.235,1.33,1.33,0,0,0-.85.3,1.607,1.607,0,0,0-.535.839,8.65,8.65,0,0,0-.154,2.019v3.9H401.89v-8.6h1.733v1.255a3.409,3.409,0,0,1,1.041-1.093,2.358,2.358,0,0,1,1.283-.364,2.22,2.22,0,0,1,1.381.425,2.178,2.178,0,0,1,.777,1.094,6.665,6.665,0,0,1,.215,1.934Z" transform="translate(-352.794 -45.682)"/><path d="M418.648,56.79h-1.733V55.527a3.157,3.157,0,0,1-1.013,1.1,2.222,2.222,0,0,1-1.2.368,2.534,2.534,0,0,1-2.061-1.181,5.563,5.563,0,0,1-.879-3.371,5.442,5.442,0,0,1,.857-3.331,2.571,2.571,0,0,1,2.111-1.123,2.149,2.149,0,0,1,1.1.3,3.112,3.112,0,0,1,.942.9V44.918h1.871ZM413.675,52.3a5.7,5.7,0,0,0,.2,1.742,1.8,1.8,0,0,0,.565.861,1.307,1.307,0,0,0,.828.288,1.288,1.288,0,0,0,1.066-.666,3.593,3.593,0,0,0,.452-2.006,3.946,3.946,0,0,0-.44-2.14,1.273,1.273,0,0,0-2.218-.012A3.37,3.37,0,0,0,413.675,52.3Z" transform="translate(-354.762 -44.918)"/><path d="M427.412,56.79V44.918h7.224v2.008h-5.264v2.632h4.892v2h-4.892v3.223h5.443V56.79Z" transform="translate(-357.882 -44.918)"/><path d="M445.08,56.79h-1.733V55.527a3.158,3.158,0,0,1-1.013,1.1,2.222,2.222,0,0,1-1.2.368,2.534,2.534,0,0,1-2.061-1.181,5.563,5.563,0,0,1-.879-3.371,5.442,5.442,0,0,1,.857-3.331,2.571,2.571,0,0,1,2.111-1.123,2.15,2.15,0,0,1,1.1.3,3.113,3.113,0,0,1,.942.9V44.918h1.871ZM440.107,52.3a5.7,5.7,0,0,0,.2,1.742,1.8,1.8,0,0,0,.565.861,1.307,1.307,0,0,0,.828.288,1.29,1.29,0,0,0,1.067-.666,3.6,3.6,0,0,0,.452-2.006,3.945,3.945,0,0,0-.44-2.14,1.273,1.273,0,0,0-2.218-.012A3.37,3.37,0,0,0,440.107,52.3Z" transform="translate(-360.032 -44.918)"/><path d="M453.711,57.605V56.319a2.941,2.941,0,0,1-1.018,1.094,2.441,2.441,0,0,1-1.317.395,2.159,2.159,0,0,1-2.066-1.4,5.469,5.469,0,0,1-.271-1.954V49h1.871v3.953a15.887,15.887,0,0,0,.085,2.15,1.187,1.187,0,0,0,.375.709,1.038,1.038,0,0,0,.7.251,1.321,1.321,0,0,0,.864-.328,1.532,1.532,0,0,0,.521-.842,12.38,12.38,0,0,0,.125-2.263V49h1.871v8.6Z" transform="translate(-362.194 -45.733)"/><path d="M465.531,51.489l-1.839.4q-.2-1.352-1.279-1.352a1.317,1.317,0,0,0-1.116.584,3.467,3.467,0,0,0-.424,1.974,4.1,4.1,0,0,0,.423,2.169,1.3,1.3,0,0,0,1.129.634,1.143,1.143,0,0,0,.869-.361,2.438,2.438,0,0,0,.488-1.275l1.838.38q-.567,3.11-3.264,3.11a2.819,2.819,0,0,1-2.559-1.314,5.782,5.782,0,0,1-.834-3.165,5.21,5.21,0,0,1,.945-3.371,3.321,3.321,0,0,1,4.5-.5A3.773,3.773,0,0,1,465.531,51.489Z" transform="translate(-364.173 -45.682)"/><path d="M470.2,51.569,468.5,51.2a3.292,3.292,0,0,1,1.017-1.874,3.173,3.173,0,0,1,2.037-.571,3.934,3.934,0,0,1,1.805.331,1.968,1.968,0,0,1,.891.9,5.5,5.5,0,0,1,.267,2.08l-.016,2.659a11.373,11.373,0,0,0,.088,1.665,5.78,5.78,0,0,0,.332,1.163H473.08l-.243-.939a3.476,3.476,0,0,1-1.025.854,2.467,2.467,0,0,1-1.163.287,2.218,2.218,0,0,1-1.685-.693,2.575,2.575,0,0,1-.656-1.845,2.851,2.851,0,0,1,.267-1.274,2.173,2.173,0,0,1,.753-.868,4.983,4.983,0,0,1,1.555-.576,8.875,8.875,0,0,0,1.806-.56,2.789,2.789,0,0,0-.1-.941.792.792,0,0,0-.373-.366,1.67,1.67,0,0,0-.765-.143,1.241,1.241,0,0,0-.789.227A1.633,1.633,0,0,0,470.2,51.569Zm2.494,1.855a9.222,9.222,0,0,1-1.109.341,2.572,2.572,0,0,0-1.134.5.981.981,0,0,0-.267.714,1.216,1.216,0,0,0,.295.833.946.946,0,0,0,.741.337,1.359,1.359,0,0,0,.786-.272,1.446,1.446,0,0,0,.538-.645,4.14,4.14,0,0,0,.15-1.357Z" transform="translate(-366.036 -45.682)"/><path d="M481.406,48.248v1.814h-1.272v3.472a7.622,7.622,0,0,0,.057,1.306.448.448,0,0,0,.462.324,2.021,2.021,0,0,0,.745-.219l.162,1.765a3.1,3.1,0,0,1-1.466.34,1.781,1.781,0,0,1-1.142-.34,1.674,1.674,0,0,1-.575-.982,10.027,10.027,0,0,1-.114-1.913V50.062H477.4V48.248h.857V46.539l1.871-1.328v3.037Z" transform="translate(-367.85 -44.976)"/><path d="M484.03,47.024V44.918h1.87v2.106Zm0,9.767v-8.6h1.87v8.6Z" transform="translate(-369.171 -44.918)"/><path d="M488.208,53.133a5.223,5.223,0,0,1,.5-2.3,3.707,3.707,0,0,1,1.312-1.558,3.3,3.3,0,0,1,1.822-.519,3.126,3.126,0,0,1,2.672,1.334,5.157,5.157,0,0,1,.972,3.12,5.559,5.559,0,0,1-.506,2.4,3.819,3.819,0,0,1-1.328,1.611,3.226,3.226,0,0,1-1.8.539,3.3,3.3,0,0,1-2.608-1.2A5.086,5.086,0,0,1,488.208,53.133Zm1.912.122a3.222,3.222,0,0,0,.511,1.978,1.512,1.512,0,0,0,1.234.671,1.478,1.478,0,0,0,1.21-.674,3.3,3.3,0,0,0,.5-1.99,3.192,3.192,0,0,0-.512-1.958,1.5,1.5,0,0,0-1.225-.674,1.487,1.487,0,0,0-1.214.674A3.252,3.252,0,0,0,490.12,53.255Z" transform="translate(-370.004 -45.682)"/><path d="M505.543,57.555h-1.87V53.16a9.227,9.227,0,0,0-.106-1.76,1.194,1.194,0,0,0-.393-.673,1,1,0,0,0-.652-.235,1.326,1.326,0,0,0-.849.3,1.6,1.6,0,0,0-.536.839,8.7,8.7,0,0,0-.154,2.019v3.9h-1.871v-8.6h1.733v1.255a3.4,3.4,0,0,1,1.042-1.093,2.353,2.353,0,0,1,1.283-.364,2.22,2.22,0,0,1,1.381.425,2.168,2.168,0,0,1,.777,1.094,6.637,6.637,0,0,1,.215,1.934Z" transform="translate(-372.178 -45.682)"/><path d="M514.256,56.79V44.918h4.138a5.774,5.774,0,0,1,2.267.319,2.522,2.522,0,0,1,1.118,1.11,3.848,3.848,0,0,1,.437,1.891,3.525,3.525,0,0,1-.669,2.243,2.975,2.975,0,0,1-1.9,1.07,4.918,4.918,0,0,1,1.044.991,14.028,14.028,0,0,1,1.126,1.932L523,56.79h-2.344l-1.424-2.584a16.874,16.874,0,0,0-1.042-1.753,1.538,1.538,0,0,0-.584-.486,2.667,2.667,0,0,0-.988-.134h-.4V56.79Zm1.96-6.852h1.458a7.333,7.333,0,0,0,1.7-.117,1.087,1.087,0,0,0,.592-.474,1.746,1.746,0,0,0,.227-.948,1.633,1.633,0,0,0-.227-.911,1.154,1.154,0,0,0-.616-.473,7.7,7.7,0,0,0-1.595-.09h-1.539Z" transform="translate(-375.197 -44.918)"/><path d="M530.459,54.826l1.854.381a3.672,3.672,0,0,1-1.159,1.923,2.972,2.972,0,0,1-1.913.628,2.937,2.937,0,0,1-2.417-1.046,5.208,5.208,0,0,1-1.006-3.408,5.471,5.471,0,0,1,1.012-3.456,2.7,2.7,0,0,1,2.219-1.1,2.822,2.822,0,0,1,2.373,1.119,6.114,6.114,0,0,1,.988,3.78l-.008.259h-4.673a2.573,2.573,0,0,0,.46,1.585,1.322,1.322,0,0,0,1.068.561Q530.157,56.057,530.459,54.826Zm.1-2.308A2.507,2.507,0,0,0,530.127,51a1.186,1.186,0,0,0-1.96.02,2.372,2.372,0,0,0-.406,1.5Z" transform="translate(-377.502 -45.682)"/><path d="M535.124,55.109,537,54.761a1.424,1.424,0,0,0,1.506,1.352,1.619,1.619,0,0,0,1-.259.814.814,0,0,0,.332-.673.641.641,0,0,0-.147-.446,1.343,1.343,0,0,0-.609-.283,8.279,8.279,0,0,1-2.921-1.163,2.4,2.4,0,0,1-.777-1.891,2.524,2.524,0,0,1,.761-1.924,3.089,3.089,0,0,1,2.211-.722,3.484,3.484,0,0,1,2.106.538,2.944,2.944,0,0,1,1.011,1.737l-1.757.4a1.223,1.223,0,0,0-1.329-1.036,1.809,1.809,0,0,0-.979.2.6.6,0,0,0-.291.516.557.557,0,0,0,.267.471,7.41,7.41,0,0,0,1.66.588,4.554,4.554,0,0,1,2.122,1.066,2.418,2.418,0,0,1,.552,1.661,2.713,2.713,0,0,1-.854,2.058,3.291,3.291,0,0,1-2.361.81,3.525,3.525,0,0,1-2.234-.676A3.254,3.254,0,0,1,535.124,55.109Z" transform="translate(-379.357 -45.682)"/><path d="M544.846,53.133a5.223,5.223,0,0,1,.5-2.3,3.707,3.707,0,0,1,1.312-1.558,3.3,3.3,0,0,1,1.822-.519,3.126,3.126,0,0,1,2.672,1.334,5.163,5.163,0,0,1,.972,3.12,5.547,5.547,0,0,1-.507,2.4,3.811,3.811,0,0,1-1.327,1.611,3.229,3.229,0,0,1-1.8.539,3.3,3.3,0,0,1-2.607-1.2A5.082,5.082,0,0,1,544.846,53.133Zm1.912.122a3.222,3.222,0,0,0,.511,1.978,1.512,1.512,0,0,0,1.234.671,1.478,1.478,0,0,0,1.21-.674,3.3,3.3,0,0,0,.5-1.99,3.192,3.192,0,0,0-.512-1.958,1.5,1.5,0,0,0-1.225-.674,1.487,1.487,0,0,0-1.214.674A3.252,3.252,0,0,0,546.758,53.255Z" transform="translate(-381.296 -45.682)"/><path d="M560.383,57.605V56.319a2.941,2.941,0,0,1-1.018,1.094,2.441,2.441,0,0,1-1.317.395,2.159,2.159,0,0,1-2.066-1.4,5.47,5.47,0,0,1-.271-1.954V49h1.871v3.953a15.872,15.872,0,0,0,.085,2.15,1.187,1.187,0,0,0,.375.709,1.037,1.037,0,0,0,.7.251,1.321,1.321,0,0,0,.865-.328,1.532,1.532,0,0,0,.521-.842,12.38,12.38,0,0,0,.125-2.263V49h1.871v8.6Z" transform="translate(-383.462 -45.733)"/><path d="M567.918,57.555h-1.87v-8.6h1.733v1.223a3.751,3.751,0,0,1,.8-1.142,1.259,1.259,0,0,1,.813-.283,2.037,2.037,0,0,1,1.224.428l-.583,1.985a1.426,1.426,0,0,0-.875-.373.954.954,0,0,0-.685.288,1.915,1.915,0,0,0-.425,1.042,19.251,19.251,0,0,0-.13,2.773Z" transform="translate(-385.523 -45.682)"/><path d="M578.808,51.489l-1.839.4q-.2-1.352-1.279-1.352a1.316,1.316,0,0,0-1.115.584,3.461,3.461,0,0,0-.424,1.974,4.1,4.1,0,0,0,.423,2.169,1.3,1.3,0,0,0,1.129.634,1.142,1.142,0,0,0,.869-.361,2.432,2.432,0,0,0,.488-1.275l1.838.38q-.566,3.11-3.263,3.11a2.821,2.821,0,0,1-2.56-1.314,5.789,5.789,0,0,1-.834-3.165,5.21,5.21,0,0,1,.946-3.371,3.321,3.321,0,0,1,4.5-.5A3.773,3.773,0,0,1,578.808,51.489Z" transform="translate(-386.757 -45.682)"/><path d="M586.167,54.826l1.854.381a3.677,3.677,0,0,1-1.159,1.923,2.972,2.972,0,0,1-1.913.628,2.937,2.937,0,0,1-2.417-1.046,5.208,5.208,0,0,1-1.006-3.408,5.471,5.471,0,0,1,1.012-3.456,2.694,2.694,0,0,1,2.219-1.1,2.822,2.822,0,0,1,2.373,1.119,6.114,6.114,0,0,1,.988,3.78l-.008.259h-4.673A2.578,2.578,0,0,0,583.9,55.5a1.324,1.324,0,0,0,1.069.561Q585.865,56.057,586.167,54.826Zm.1-2.308A2.507,2.507,0,0,0,585.835,51a1.186,1.186,0,0,0-1.96.02,2.372,2.372,0,0,0-.406,1.5Z" transform="translate(-388.609 -45.682)"/><path d="M596.376,44.918h3.584a5.323,5.323,0,0,1,2.05.3,3.413,3.413,0,0,1,1.275,1.025,5.253,5.253,0,0,1,.914,1.87,10.454,10.454,0,0,1,.332,2.859,9.206,9.206,0,0,1-.348,2.676,5.352,5.352,0,0,1-.882,1.8,3.421,3.421,0,0,1-1.29,1,4.841,4.841,0,0,1-1.946.335h-3.688Zm1.96,2.008v7.857h1.473a3.823,3.823,0,0,0,1.373-.179,1.659,1.659,0,0,0,.7-.538,3.1,3.1,0,0,0,.449-1.137,9.442,9.442,0,0,0,.179-2.046,9.314,9.314,0,0,0-.183-2.079,2.749,2.749,0,0,0-.567-1.2,1.8,1.8,0,0,0-.935-.574,7.743,7.743,0,0,0-1.6-.106Z" transform="translate(-391.569 -44.918)"/><path d="M609.906,51.569l-1.693-.372a3.291,3.291,0,0,1,1.016-1.874,3.176,3.176,0,0,1,2.037-.571,3.936,3.936,0,0,1,1.806.331,1.968,1.968,0,0,1,.891.9,5.507,5.507,0,0,1,.267,2.08l-.016,2.659a11.351,11.351,0,0,0,.089,1.665,5.729,5.729,0,0,0,.332,1.163h-1.846l-.243-.939a3.476,3.476,0,0,1-1.025.854,2.467,2.467,0,0,1-1.162.287,2.218,2.218,0,0,1-1.685-.693,2.575,2.575,0,0,1-.656-1.845,2.862,2.862,0,0,1,.267-1.274,2.181,2.181,0,0,1,.753-.868,4.983,4.983,0,0,1,1.555-.576,8.875,8.875,0,0,0,1.806-.56,2.76,2.76,0,0,0-.1-.941.786.786,0,0,0-.372-.366,1.67,1.67,0,0,0-.765-.143,1.24,1.24,0,0,0-.789.227A1.633,1.633,0,0,0,609.906,51.569Zm2.494,1.855a9.27,9.27,0,0,1-1.109.341,2.581,2.581,0,0,0-1.135.5.984.984,0,0,0-.267.714,1.216,1.216,0,0,0,.295.833.946.946,0,0,0,.741.337,1.361,1.361,0,0,0,.786-.272,1.446,1.446,0,0,0,.538-.645,4.14,4.14,0,0,0,.15-1.357Z" transform="translate(-393.891 -45.682)"/><path d="M621.115,48.248v1.814h-1.272v3.472a7.621,7.621,0,0,0,.057,1.306.448.448,0,0,0,.461.324,2.012,2.012,0,0,0,.745-.219l.163,1.765a3.1,3.1,0,0,1-1.466.34,1.779,1.779,0,0,1-1.142-.34,1.674,1.674,0,0,1-.575-.982,10.021,10.021,0,0,1-.115-1.913V50.062h-.857V48.248h.857V46.539l1.871-1.328v3.037Z" transform="translate(-395.704 -44.976)"/><path d="M625.008,51.569l-1.693-.372a3.292,3.292,0,0,1,1.017-1.874,3.175,3.175,0,0,1,2.037-.571,3.938,3.938,0,0,1,1.806.331,1.97,1.97,0,0,1,.89.9,5.5,5.5,0,0,1,.267,2.08l-.016,2.659a11.342,11.342,0,0,0,.089,1.665,5.779,5.779,0,0,0,.331,1.163h-1.846l-.243-.939a3.474,3.474,0,0,1-1.024.854,2.47,2.47,0,0,1-1.163.287,2.218,2.218,0,0,1-1.685-.693,2.578,2.578,0,0,1-.656-1.845,2.851,2.851,0,0,1,.267-1.274,2.173,2.173,0,0,1,.753-.868A5,5,0,0,1,625.7,52.5a8.882,8.882,0,0,0,1.805-.56,2.787,2.787,0,0,0-.1-.941.791.791,0,0,0-.373-.366,1.667,1.667,0,0,0-.765-.143,1.243,1.243,0,0,0-.789.227A1.633,1.633,0,0,0,625.008,51.569Zm2.494,1.855a9.221,9.221,0,0,1-1.109.341,2.578,2.578,0,0,0-1.134.5.981.981,0,0,0-.267.714,1.217,1.217,0,0,0,.3.833.945.945,0,0,0,.741.337,1.359,1.359,0,0,0,.786-.272,1.453,1.453,0,0,0,.539-.645,4.168,4.168,0,0,0,.149-1.357Z" transform="translate(-396.902 -45.682)"/><path d="M633.075,56.79V44.918h1.872v4.267a3.1,3.1,0,0,1,.941-.9,2.152,2.152,0,0,1,1.1-.3,2.573,2.573,0,0,1,2.107,1.127,5.428,5.428,0,0,1,.861,3.327,5.552,5.552,0,0,1-.881,3.371,2.548,2.548,0,0,1-2.07,1.181,2.211,2.211,0,0,1-1.2-.376,3.111,3.111,0,0,1-1-1.09V56.79ZM634.93,52.3a5.27,5.27,0,0,0,.211,1.7,1.925,1.925,0,0,0,.6.889,1.305,1.305,0,0,0,.818.3,1.26,1.26,0,0,0,1.053-.645,3.721,3.721,0,0,0,.437-2.043,3.913,3.913,0,0,0-.441-2.124,1.282,1.282,0,0,0-2.224-.02A3.35,3.35,0,0,0,634.93,52.3Z" transform="translate(-398.886 -44.918)"/><path d="M644.836,51.569l-1.693-.372a3.3,3.3,0,0,1,1.017-1.874,3.175,3.175,0,0,1,2.037-.571,3.937,3.937,0,0,1,1.806.331,1.966,1.966,0,0,1,.89.9,5.505,5.505,0,0,1,.267,2.08l-.016,2.659a11.351,11.351,0,0,0,.089,1.665,5.729,5.729,0,0,0,.332,1.163h-1.847l-.243-.939a3.475,3.475,0,0,1-1.024.854,2.47,2.47,0,0,1-1.163.287,2.216,2.216,0,0,1-1.684-.693,2.575,2.575,0,0,1-.656-1.845,2.851,2.851,0,0,1,.267-1.274,2.178,2.178,0,0,1,.753-.868,5,5,0,0,1,1.556-.576,8.892,8.892,0,0,0,1.806-.56,2.783,2.783,0,0,0-.1-.941.788.788,0,0,0-.373-.366,1.665,1.665,0,0,0-.765-.143,1.243,1.243,0,0,0-.789.227A1.633,1.633,0,0,0,644.836,51.569Zm2.494,1.855a9.264,9.264,0,0,1-1.109.341,2.581,2.581,0,0,0-1.134.5.981.981,0,0,0-.267.714,1.217,1.217,0,0,0,.3.833.945.945,0,0,0,.741.337,1.358,1.358,0,0,0,.785-.272,1.454,1.454,0,0,0,.539-.645,4.165,4.165,0,0,0,.15-1.357Z" transform="translate(-400.855 -45.682)"/><path d="M652.194,55.109l1.871-.348a1.424,1.424,0,0,0,1.506,1.352,1.621,1.621,0,0,0,1.006-.259.815.815,0,0,0,.331-.673.645.645,0,0,0-.146-.446,1.347,1.347,0,0,0-.609-.283,8.278,8.278,0,0,1-2.921-1.163,2.4,2.4,0,0,1-.778-1.891,2.527,2.527,0,0,1,.761-1.924,3.091,3.091,0,0,1,2.211-.722,3.479,3.479,0,0,1,2.106.538,2.945,2.945,0,0,1,1.012,1.737l-1.757.4a1.222,1.222,0,0,0-1.328-1.036,1.807,1.807,0,0,0-.979.2.6.6,0,0,0-.292.516.556.556,0,0,0,.267.471,7.41,7.41,0,0,0,1.659.588,4.557,4.557,0,0,1,2.122,1.066,2.418,2.418,0,0,1,.552,1.661,2.716,2.716,0,0,1-.854,2.058,3.293,3.293,0,0,1-2.362.81,3.527,3.527,0,0,1-2.235-.676A3.255,3.255,0,0,1,652.194,55.109Z" transform="translate(-402.698 -45.682)"/><path d="M666.425,54.826l1.854.381a3.672,3.672,0,0,1-1.16,1.923,2.968,2.968,0,0,1-1.913.628,2.937,2.937,0,0,1-2.417-1.046,5.2,5.2,0,0,1-1.006-3.408,5.472,5.472,0,0,1,1.013-3.456,2.694,2.694,0,0,1,2.219-1.1,2.824,2.824,0,0,1,2.373,1.119,6.119,6.119,0,0,1,.988,3.78l-.009.259h-4.672a2.578,2.578,0,0,0,.459,1.585,1.324,1.324,0,0,0,1.069.561Q666.123,56.057,666.425,54.826Zm.1-2.308A2.507,2.507,0,0,0,666.093,51a1.186,1.186,0,0,0-1.96.02,2.372,2.372,0,0,0-.406,1.5Z" transform="translate(-404.61 -45.682)"/></g></g></svg>