<?xml version="1.0" encoding="utf-8"?>
<!-- Generator: Adobe Illustrator 26.3.1, SVG Export Plug-In . SVG Version: 6.00 Build 0)  -->
<svg version="1.2" baseProfile="tiny"
	 id="svg8" xmlns:dc="http://purl.org/dc/elements/1.1/" xmlns:cc="http://creativecommons.org/ns#" xmlns:svg="http://www.w3.org/2000/svg" xmlns:rdf="http://www.w3.org/1999/02/22-rdf-syntax-ns#"
	 xmlns="http://www.w3.org/2000/svg" xmlns:xlink="http://www.w3.org/1999/xlink" x="0px" y="0px" viewBox="0 0 251.4 49"
	 overflow="visible" xml:space="preserve">
<g id="layer1_00000045618445841886608950000012125955768758344579_" transform="translate(-25.348717,-38.291849)">
	<path id="path23_00000110459903049969047700000010822040059568549525_" fill="#028AC4" d="M75.9,68.1c-3.1-0.8-5.3-1.7-8.8-3.8
		c-1.7-1-1.8-1-6.2-0.5c-7.9,0.8-17.1-0.6-25.1-4c-7.1-3-13-7-7-4.7c8,3,14.2,3.5,20.4,1.6c5.4-1.6,9.9-3.6,15.9-7
		c17-9.6,22.5-11.5,32.2-11.5c6.2,0,11.2,1.2,16.7,3.9c3.9,1.9,8.8,5,8.5,5.3c-0.1,0.1-1.7-0.2-3.5-0.6c-11.2-2.8-19.9-0.7-34,8.1
		c-5.9,3.7-8.9,5.2-12.7,6.5c-2.7,0.9-2.9,1-1.9,1.4c0.6,0.2,2.4,0.6,4,0.8c5.6,0.9,11.1-0.6,18.3-4.8c5.1-3,7.9-4.2,11-4.9
		c4.9-1,10.6,0.3,16.2,3.7c3.2,1.9,3.1,2.4-0.2,1.4c-4.6-1.4-9.1-0.5-15.4,3C93.5,68.2,91,69,83.7,69C80.5,68.9,78,68.7,75.9,68.1
		L75.9,68.1z"/>
</g>
<g>
	<path fill="#028AC4" d="M2,45.3V32.9h11v1.5H4.5v3.9h8v1.5h-8v5.6H2z"/>
	<path fill="#028AC4" d="M15.6,45.3V32.4h2.4v12.8H15.6z"/>
	<path fill="#028AC4" d="M32.8,36.5L27.1,46c-0.6,1-1.4,1.8-2.4,2.3c-1,0.5-2.1,0.8-3.5,1l-0.5-1.4c1.2-0.2,2-0.4,2.6-0.7
		s1.1-0.7,1.4-1.3l0.4-0.7L20,36.5h2.6l3.8,6.8l3.9-6.8H32.8z"/>
	<path fill="#028AC4" d="M36.9,45c-1.1-0.3-2.1-0.6-2.9-1.1l0.9-1.3c0.8,0.5,1.7,0.8,2.6,1.1c0.9,0.2,1.9,0.3,3.1,0.3
		c1.3,0,2.3-0.2,3-0.5c0.7-0.3,1.1-0.8,1.1-1.5c0-0.5-0.3-0.9-1-1.2S42,40.2,40.6,40c-1.4-0.2-2.5-0.5-3.4-0.7s-1.6-0.6-2.1-1.1
		c-0.5-0.5-0.8-1-0.8-1.8c0-0.7,0.3-1.4,0.8-1.9c0.5-0.6,1.3-1,2.3-1.3s2.1-0.5,3.4-0.5c1.2,0,2.4,0.1,3.4,0.4
		c1.1,0.3,2,0.6,2.7,1.1L46,35.6c-0.8-0.5-1.6-0.8-2.5-1.1c-0.8-0.2-1.7-0.3-2.7-0.3c-1.3,0-2.2,0.2-2.9,0.6
		c-0.7,0.4-1.1,0.9-1.1,1.5c0,0.6,0.3,1,0.9,1.3c0.6,0.3,1.6,0.6,3,0.8c1.4,0.2,2.6,0.5,3.5,0.7c0.9,0.3,1.6,0.6,2.1,1
		c0.5,0.4,0.8,1,0.8,1.7c0,0.7-0.3,1.3-0.8,1.9c-0.5,0.5-1.3,0.9-2.3,1.2c-1,0.3-2.2,0.4-3.5,0.4C39.3,45.4,38,45.3,36.9,45z"/>
	<path fill="#028AC4" d="M61.1,39.8v5.5h-2.5v-5.4c0-0.8-0.2-1.3-0.6-1.7c-0.4-0.3-1.1-0.5-2-0.5c-1,0-1.9,0.2-2.5,0.7
		s-0.9,1.1-0.9,1.9v5h-2.4V32.4h2.4v5.4c0.4-0.5,1-0.9,1.7-1.2s1.5-0.4,2.4-0.4C59.6,36.3,61.1,37.4,61.1,39.8z"/>
	<path fill="#028AC4" d="M75.1,40.9h-8.8c0.1,2.1,1.4,3.1,3.9,3.1c1.4,0,2.7-0.3,3.9-1l0.8,1.3c-0.6,0.3-1.3,0.6-2.1,0.8
		s-1.7,0.3-2.6,0.3c-2,0-3.5-0.4-4.6-1.2c-1.1-0.8-1.7-1.9-1.7-3.3c0-0.9,0.2-1.7,0.7-2.4c0.5-0.7,1.2-1.2,2.1-1.6
		c0.9-0.4,1.9-0.6,3-0.6c1.7,0,3,0.4,3.9,1.1c0.9,0.8,1.4,1.8,1.4,3.2V40.9z M67.5,38.2c-0.6,0.4-1,1-1.1,1.7h6.5
		c-0.1-0.7-0.4-1.3-1-1.7c-0.5-0.4-1.3-0.6-2.2-0.6C68.8,37.6,68.1,37.8,67.5,38.2z"/>
	<path fill="#028AC4" d="M88.4,40.9h-8.8C79.7,43,81,44,83.5,44c1.4,0,2.7-0.3,3.9-1l0.8,1.3c-0.6,0.3-1.3,0.6-2.1,0.8
		s-1.7,0.3-2.6,0.3c-2,0-3.5-0.4-4.6-1.2c-1.1-0.8-1.7-1.9-1.7-3.3c0-0.9,0.2-1.7,0.7-2.4c0.5-0.7,1.2-1.2,2.1-1.6
		c0.9-0.4,1.9-0.6,3-0.6c1.7,0,3,0.4,3.9,1.1c0.9,0.8,1.4,1.8,1.4,3.2V40.9z M80.8,38.2c-0.6,0.4-1,1-1.1,1.7h6.5
		c-0.1-0.7-0.4-1.3-1-1.7c-0.5-0.4-1.3-0.6-2.2-0.6C82.1,37.6,81.4,37.8,80.8,38.2z"/>
	<path fill="#028AC4" d="M94.2,37.8v4.4c0,0.6,0.2,1,0.5,1.3c0.4,0.2,0.9,0.4,1.5,0.4c0.4,0,0.9,0,1.3-0.1v1.4
		c-0.5,0.1-1.1,0.2-1.8,0.2c-1.3,0-2.2-0.3-2.9-0.8s-1-1.3-1-2.2v-4.5h-2.4v-1.4h2.4v-2.2l2.5-0.6v2.8h3.4v1.4H94.2z"/>
</g>
<g>
	<path fill="#028AC4" d="M153,40.3c-1.7,3.7-3.8,5.5-6.4,5.5c-2.5,0-4.8-1.6-6.8-4.7c-2.1-3.1-3.1-7.8-3-13.9h-4.2v18.3h-4.3V27.2
		h-6.5c-0.2,7.9-3,14.2-8.4,18.7l-3.2-3.1c2.4-2,4.2-4.2,5.4-6.6c1.2-2.4,1.8-5.4,1.8-9h-7.4v-4.1h7.5v-6.4
		c-2.1,0.6-4.1,1.1-5.9,1.5l-1.7-4.1c5.4-0.7,10.2-2.3,14.3-4.8l2.6,3.3c-1.6,1-3.2,1.8-4.9,2.5v8h6.5V10h4.3v13.1h8.5
		c0,0.5-0.1,1.2-0.1,2c0,1.3,0,2.4,0.1,3.5c1,0.3,1.8,0.5,2.4,0.8c1.2-1.2,2.5-2.8,3.9-4.7l3.7,2c-1.1,1.5-2.2,2.9-3.5,4.2
		c2.5,1,4.3,1.9,5.4,2.5l-2,3.8c-2.6-1.5-5.8-2.9-9.5-4.3c0.3,2.6,0.9,4.7,2.1,6.2c1.1,1.6,2.1,2.3,2.9,2.3c1,0,1.9-1.3,2.7-3.9
		L153,40.3z M152.6,18.9c-1.7,3.4-3.9,5-6.5,5c-2.3,0-4.3-1.3-6.2-3.8c-1.8-2.5-2.9-6.7-3.1-12.5h-25.8V3.5h30.2
		c-0.1,1-0.1,2-0.1,2.9c0,0.8,0,1.5,0.1,2.3c0.8,0.2,1.3,0.3,1.5,0.4c1.3-1.4,2.6-3.1,3.9-5.1l3.8,1.8c-1,1.5-2.1,3-3.2,4.4
		c1.8,0.6,3.5,1.1,5,1.7l-1.4,3.7c-2.4-1.1-5.4-2.1-9.1-3c0.3,2.2,0.9,3.9,1.8,5.1c0.9,1.2,1.8,1.8,2.5,1.8c0.8,0,1.7-1.1,2.8-3.2
		L152.6,18.9z"/>
	<path fill="#028AC4" d="M202.1,17.7l-2.1,3.9c-1.3-0.3-2.7-0.7-4.3-1.2v18.4h-20.7l2.1,2.4c-4.6,2.1-10,3.7-16.3,4.7l-2.1-3.9
		c4.7-0.6,9.1-1.6,13.4-3.2H165V20.3h9.3l-1.9-2.7c5.7-1.5,10-4,12.8-7.6l4.5,1c-0.5,0.9-0.8,1.4-1.1,1.7
		C192,14.8,196.5,16.5,202.1,17.7z M173.4,16.3h-14.3v-4h14.3V16.3z M173,8.5h-13.2V4.6H173V8.5z M191.4,25.5v-1.7h-21.8v1.7H191.4z
		 M191.4,30.5v-1.8h-21.8v1.8H191.4z M191.4,35.6v-1.9h-21.8v1.9H191.4z M201.2,9.1c-1.5,2.2-2.9,4-4.3,5.5l-3.7-2.2
		c0.4-0.5,1.3-1.6,2.6-3.3h-15.4c-1.5,1.7-2.9,3.2-4.3,4.3l-3.3-2.8c2.5-1.8,5-4.6,7.3-8.3l4,1.4c-0.1,0.6-0.5,1.1-0.9,1.7h18V9.1z
		 M195.3,20.3c-3.3-1.1-6.5-2.6-9.6-4.7c-2,1.8-4.7,3.4-8,4.7H195.3z M201.8,42.4l-2.3,3.8c-4.3-1.4-9.1-2.4-14.4-3l2.2-3.7
		C192.5,39.9,197.3,40.9,201.8,42.4z"/>
	<path fill="#028AC4" d="M221.6,4.7c-3.8,5-7.8,8.7-11.8,11.1l-2.2-3.9c3.2-1.7,6.7-4.8,10.4-9.5L221.6,4.7z M222,14.4
		c-1.1,2.2-2.3,4.2-3.6,6.2v24.8H214v-19c-1.7,1.7-3,2.9-4,3.7l-2.1-4c3.5-2.8,7-7.2,10.5-13.4L222,14.4z M250.9,32h-5.7v9
		c0,3-2,4.5-5.9,4.5c-1.1,0-2.2,0-3.4-0.1l-1.2-4c1.4,0.1,2.6,0.1,3.6,0.1c1.2,0,1.9-0.1,2.3-0.4s0.5-0.7,0.5-1.3V32h-20.6V28H241
		v-2.9h-19.6v-3.9h28.2v3.9h-4.5V28h5.7V32z M247.6,18.8h-24.3V3.5h24.3V18.8z M234.2,38.3l-3.1,3c-2.5-2.6-4.8-4.5-6.9-5.8l2.8-3
		C229.1,33.7,231.5,35.6,234.2,38.3z M243.4,9.3V7.2h-15.8v2.1H243.4z M243.4,15v-2.2h-15.8V15H243.4z"/>
</g>
</svg>
