<svg width="183" height="63" viewBox="0 0 183 63" fill="none" xmlns="http://www.w3.org/2000/svg">
<g clip-path="url(#clip0_324_1486)">
<path fill-rule="evenodd" clip-rule="evenodd" d="M0.669956 40.63C0.669956 35.59 0.699956 37.4 0.679956 34.69C0.679956 34.15 0.719956 33.99 0.829956 33.99C0.939956 33.99 1.17996 34.3 1.31996 34.44C1.52996 34.68 3.60996 36.93 5.75996 39.23C7.13996 40.71 8.66996 42.41 9.10996 42.88L8.95996 35.78C8.94996 34.87 8.84996 34.56 8.41996 34.45C8.21996 34.41 8.01996 34.38 7.81996 34.38C7.66996 34.38 7.61996 34.34 7.61996 34.28C7.61996 34.2 7.72996 34.18 7.89996 34.18C8.52996 34.18 9.19996 34.22 9.34996 34.22C9.49996 34.22 9.96996 34.18 10.54 34.18C10.69 34.18 10.79 34.19 10.79 34.28C10.79 34.34 10.73 34.36 10.64 34.38C10.53 34.39 10.44 34.41 10.28 34.44C9.88996 34.52 9.78996 34.73 9.78996 35.7L9.75996 43.86C9.75996 44.78 9.72996 44.85 9.63996 44.85C9.52996 44.85 9.35996 44.7 8.61996 43.96C8.46996 43.82 6.44996 41.77 4.96996 40.18C3.73996 38.85 2.52996 37.52 1.32996 36.17L1.50996 42.86C1.53996 44.01 1.67996 44.37 2.05996 44.48C2.32996 44.55 2.62996 44.56 2.75996 44.56C2.82996 44.56 2.86996 44.59 2.86996 44.64C2.86996 44.72 2.78996 44.75 2.61996 44.75C1.82996 44.75 1.26996 44.71 1.13996 44.71C1.00996 44.71 0.429956 44.75 -0.200044 44.75C-0.340044 44.75 -0.420044 44.74 -0.420044 44.64C-0.420044 44.58 -0.380044 44.56 -0.310044 44.56C-0.200044 44.56 0.049956 44.55 0.259956 44.48C0.609956 44.38 0.679956 43.98 0.679956 42.71C0.669956 42.7 0.669956 40.63 0.669956 40.63ZM16.95 40.86C17.01 40.86 17.01 40.82 16.99 40.78L15.89 37.69C15.82 37.49 15.81 37.49 15.74 37.69L14.69 40.78C14.66 40.83 14.69 40.86 14.72 40.86H16.95ZM14.58 41.35C14.51 41.35 14.47 41.39 14.44 41.46L13.83 43.21C13.69 43.6 13.59 43.98 13.59 44.2C13.59 44.45 13.74 44.56 14.05 44.56H14.15C14.28 44.56 14.32 44.6 14.32 44.66C14.32 44.73 14.21 44.76 14.11 44.76C13.8 44.76 13.16 44.72 13.01 44.72C12.87 44.72 12.26 44.76 11.67 44.76C11.52 44.76 11.45 44.73 11.45 44.66C11.45 44.6 11.51 44.56 11.62 44.56C11.69 44.56 11.82 44.56 11.9 44.55C12.5 44.49 12.74 44.03 12.98 43.45L15.77 36.09C15.92 35.69 15.97 35.62 16.06 35.62C16.13 35.62 16.19 35.68 16.34 36.07C16.54 36.53 18.44 41.41 19.18 43.15C19.64 44.25 20.05 44.43 20.24 44.5C20.42 44.57 20.62 44.57 20.71 44.57C20.81 44.57 20.88 44.6 20.88 44.67C20.88 44.74 20.82 44.77 20.67 44.77C20.53 44.77 19.48 44.77 18.55 44.74C18.28 44.73 18.2 44.71 18.2 44.64C18.2 44.6 18.24 44.56 18.3 44.54C18.36 44.51 18.44 44.44 18.36 44.23L17.26 41.42C17.23 41.38 17.2 41.35 17.15 41.35C17.12 41.35 14.58 41.35 14.58 41.35ZM24.81 41.3C24.81 42.38 24.82 43.37 24.88 43.88C24.92 44.22 24.95 44.41 25.3 44.49C25.47 44.53 25.73 44.55 25.85 44.55C25.96 44.55 26.02 44.59 26.02 44.63C26.02 44.7 25.98 44.74 25.84 44.74C25.13 44.74 24.3 44.7 24.25 44.7C24.19 44.7 23.37 44.74 23.01 44.74C22.86 44.74 22.8 44.71 22.8 44.64C22.8 44.6 22.84 44.54 22.95 44.54C23.06 44.54 23.15 44.54 23.26 44.53C23.53 44.49 23.57 44.32 23.62 43.84C23.67 43.34 23.67 42.33 23.67 41.28V36.29C23.21 36.29 22.47 36.29 21.91 36.3C21.02 36.31 20.82 36.45 20.63 36.75C20.5 36.94 20.45 37.11 20.42 37.18C20.38 37.28 20.35 37.29 20.29 37.29C20.23 37.29 20.22 37.23 20.22 37.16C20.21 37.08 20.42 36.15 20.5 35.78C20.54 35.61 20.58 35.56 20.63 35.56C20.73 35.56 20.99 35.69 21.24 35.71C21.73 35.77 22.12 35.78 22.13 35.78H26.71C27.1 35.78 27.52 35.75 27.72 35.71C27.9 35.67 27.94 35.65 27.99 35.65C28.05 35.65 28.07 35.72 28.07 35.78C28.07 36.17 28.04 37.09 28.04 37.21C28.04 37.34 27.98 37.38 27.94 37.38C27.87 37.38 27.84 37.32 27.84 37.21C27.84 37.17 27.84 37.15 27.83 37.01C27.77 36.45 27.59 36.31 26.18 36.3C25.65 36.3 25.22 36.29 24.81 36.29V41.3ZM30.54 39.21C30.54 37.37 30.54 37.03 30.51 36.65C30.48 36.27 30.4 36.06 30.1 36.01C29.96 35.98 29.86 35.98 29.78 35.97C29.68 35.96 29.63 35.93 29.63 35.87C29.63 35.8 29.69 35.77 29.84 35.77C30.27 35.77 31.07 35.81 31.11 35.81C31.17 35.81 31.98 35.77 32.37 35.77C32.51 35.77 32.58 35.8 32.58 35.87C32.58 35.93 32.54 35.95 32.43 35.97C32.35 35.98 32.28 35.98 32.18 36C31.78 36.06 31.73 36.27 31.71 36.67C31.68 37.05 31.7 37.37 31.7 39.21V41.31C31.7 42.39 31.69 43.36 31.76 43.87C31.82 44.27 31.87 44.43 32.24 44.51C32.42 44.55 32.71 44.57 32.77 44.57C32.9 44.58 32.92 44.61 32.92 44.67C32.92 44.73 32.86 44.77 32.72 44.77C32.01 44.77 31.2 44.73 31.13 44.73C31.09 44.73 30.26 44.77 29.87 44.77C29.74 44.77 29.65 44.74 29.65 44.67C29.65 44.61 29.71 44.57 29.83 44.57C29.9 44.57 30.05 44.56 30.17 44.53C30.41 44.47 30.45 44.19 30.49 43.86C30.56 43.36 30.56 42.37 30.56 41.32L30.54 39.21ZM42.57 40.41C42.57 37.6 40.84 36.04 38.92 36.04C36.98 36.04 35.41 37.24 35.41 39.88C35.41 42.62 36.93 44.43 39.28 44.43C40.22 44.43 42.57 43.96 42.57 40.41ZM34.12 40.24C34.12 38.38 35.56 35.6 39.01 35.6C41.78 35.6 43.88 37.25 43.88 40.06C43.88 42.73 41.91 44.91 38.94 44.91C35.51 44.91 34.12 42.37 34.12 40.24ZM46.14 36.18C46.14 35.75 46.18 35.61 46.29 35.61C46.39 35.61 46.63 35.89 46.72 35.99C46.85 36.13 48.79 38.11 50.74 40.11C51.83 41.17 53.23 42.61 53.59 42.94L53.44 37.13C53.43 36.38 53.34 36.12 52.97 36.03C52.79 36 52.61 35.98 52.43 35.97C52.29 35.97 52.26 35.91 52.26 35.86C52.26 35.79 52.37 35.78 52.51 35.78C53.11 35.78 53.7 35.82 53.82 35.82C53.96 35.82 54.39 35.78 54.94 35.78C55.09 35.78 55.14 35.79 55.14 35.86C55.14 35.92 55.1 35.96 55.01 35.97C54.93 35.98 54.81 35.98 54.66 36.01C54.34 36.08 54.24 36.22 54.24 37.06L54.21 44.07C54.21 44.77 54.18 44.84 54.08 44.84C53.98 44.84 53.84 44.74 53.16 44.1C53.1 44.07 51.16 42.15 49.95 40.96C48.5 39.45 47.1 38 46.75 37.64L46.93 43.1C46.96 44.06 47.04 44.43 47.39 44.51C47.61 44.57 47.85 44.57 47.96 44.57C48.07 44.57 48.13 44.61 48.13 44.67C48.13 44.74 48.06 44.77 47.91 44.77C47.16 44.77 46.65 44.73 46.55 44.73C46.45 44.73 45.94 44.77 45.33 44.77C45.2 44.77 45.12 44.76 45.12 44.67C45.12 44.61 45.17 44.57 45.32 44.57C45.42 44.57 45.57 44.57 45.75 44.51C46.06 44.41 46.13 44.04 46.13 43.02C46.14 36.35 46.16 38.5 46.14 36.18ZM61.22 40.86C61.28 40.86 61.28 40.82 61.26 40.78L60.16 37.69C60.09 37.49 60.08 37.49 60.01 37.69L58.96 40.78C58.93 40.83 58.96 40.86 58.99 40.86H61.22ZM58.85 41.35C58.78 41.35 58.74 41.39 58.71 41.46L58.1 43.2C57.96 43.59 57.86 43.97 57.86 44.19C57.86 44.44 58.01 44.55 58.32 44.55H58.42C58.55 44.55 58.59 44.59 58.59 44.65C58.59 44.72 58.48 44.75 58.38 44.75C58.07 44.75 57.43 44.71 57.28 44.71C57.14 44.71 56.53 44.75 55.94 44.75C55.79 44.75 55.72 44.72 55.72 44.65C55.72 44.59 55.78 44.55 55.89 44.55C55.96 44.55 56.09 44.55 56.17 44.54C56.77 44.48 57.01 44.02 57.25 43.44L60.04 36.08C60.19 35.68 60.24 35.61 60.33 35.61C60.4 35.61 60.46 35.67 60.61 36.06C60.81 36.52 62.71 41.4 63.45 43.14C63.91 44.24 64.32 44.42 64.51 44.49C64.69 44.56 64.89 44.56 64.98 44.56C65.08 44.56 65.15 44.59 65.15 44.66C65.15 44.73 65.09 44.76 64.94 44.76C64.8 44.76 63.75 44.76 62.82 44.73C62.55 44.72 62.47 44.7 62.47 44.63C62.47 44.59 62.51 44.55 62.57 44.53C62.63 44.5 62.71 44.43 62.63 44.22L61.53 41.41C61.5 41.37 61.47 41.34 61.42 41.34H58.85V41.35ZM68.32 41.33C68.32 42.94 68.38 43.75 68.61 43.97C68.83 44.17 69.11 44.25 70.08 44.25C70.69 44.25 71.25 44.25 71.56 43.86C71.7 43.65 71.8 43.37 71.83 43.16C71.84 43.05 71.87 42.99 71.94 42.99C72 42.99 72.02 43.03 72.02 43.17C72.02 43.31 71.9399 44.11 71.85 44.43C71.77 44.71 71.78 44.78 71.11 44.78C70.16 44.78 69.11 44.71 67.72 44.71C67.26 44.71 66.9799 44.75 66.49 44.75C66.35 44.75 66.27 44.72 66.27 44.64C66.27 44.6 66.31 44.56 66.42 44.56C66.53 44.56 66.64 44.56 66.76 44.53C67 44.49 67.08 44.21 67.12 43.87C67.2 43.34 67.18 42.38 67.18 41.3V39.2C67.18 37.36 67.18 37.05 67.15 36.67C67.12 36.28 67.07 36.03 66.59 35.97C66.5099 35.96 66.35 35.96 66.24 35.96C66.14 35.96 66.09 35.92 66.09 35.86C66.09 35.79 66.16 35.76 66.3 35.76C66.89 35.76 67.72 35.8 67.75 35.8C67.95 35.8 68.8 35.76 69.19 35.76C69.33 35.76 69.37 35.8 69.37 35.86C69.37 35.92 69.3 35.96 69.22 35.96C69.12 35.96 68.9799 35.97 68.84 35.99C68.45 36.05 68.3599 36.27 68.34 36.67C68.31 37.05 68.33 37.35 68.33 39.2V41.33H68.32Z" fill="#FEFEFE"/>
<path fill-rule="evenodd" clip-rule="evenodd" d="M82.8169 40.135C82.8869 40.135 82.8869 40.095 82.8769 40.035L81.5469 36.265C81.4769 36.055 81.4069 36.055 81.3369 36.265L80.1069 40.035C80.0769 40.105 80.1069 40.135 80.1469 40.135H82.8169ZM79.9969 40.635C79.9269 40.635 79.8869 40.675 79.8569 40.745L79.0169 43.215C78.8869 43.565 78.8169 43.895 78.8169 44.155C78.8169 44.435 79.0869 44.555 79.3169 44.555H79.4469C79.5869 44.555 79.6269 44.585 79.6269 44.635C79.6269 44.715 79.4969 44.745 79.3769 44.745C79.0369 44.745 78.4869 44.705 78.3269 44.705C78.1769 44.705 77.4069 44.745 76.7469 44.745C76.5669 44.745 76.4769 44.715 76.4769 44.635C76.4769 44.575 76.5469 44.555 76.6769 44.555C76.7769 44.555 76.8969 44.545 77.0169 44.525C77.6569 44.445 77.9369 43.915 78.1869 43.215L81.3569 34.545C81.5269 34.085 81.5769 34.005 81.6669 34.005C81.7469 34.005 81.8069 34.075 81.9769 34.505C82.1869 35.035 84.3769 40.805 85.2269 42.925C85.7269 44.165 86.1369 44.395 86.4269 44.475C86.6369 44.545 86.8569 44.555 86.9669 44.555C87.0469 44.555 87.1169 44.565 87.1169 44.635C87.1169 44.715 86.9869 44.745 86.8369 44.745C86.6269 44.745 85.6069 44.745 84.6469 44.715C84.3769 44.705 84.2269 44.705 84.2269 44.615C84.2269 44.555 84.2669 44.535 84.3269 44.515C84.4069 44.485 84.4969 44.365 84.4069 44.135L83.1069 40.695C83.0769 40.635 83.0469 40.615 82.9769 40.615H79.9969V40.635Z" fill="#FEFEFE"/>
<path fill-rule="evenodd" clip-rule="evenodd" d="M88.53 43.56C87.32 42.51 87.01 41.12 87.01 39.94C87.01 39.14 87.32 37.74 88.44 36.66C89.21 35.92 90.36 35.4 92.26 35.4C92.91 35.4 93.44 35.46 94.13 35.56C94.58 35.63 95.04 35.7 95.38 35.72C95.49 35.72 95.51 35.79 95.51 35.86C95.51 35.97 95.47 36.1 95.44 36.55C95.43 36.95 95.43 37.69 95.41 37.86C95.4 38.06 95.37 38.13 95.3 38.13C95.2 38.13 95.19 38.04 95.19 37.86C95.19 37.45 94.99 36.89 94.64 36.63C94.21 36.26 93.22 35.91 92.13 35.91C90.55 35.91 89.83 36.35 89.4 36.73C88.48 37.57 88.26 38.59 88.26 39.84C88.26 42.2 90.18 44.27 92.68 44.27C93.64 44.27 94.35 44.17 94.85 43.69C95.1 43.42 95.25 43.07 95.32 42.67C95.35 42.53 95.39 42.46 95.48 42.46C95.55 42.46 95.55 42.56 95.55 42.66C95.55 42.77 95.36 43.92 95.27 44.24C95.19 44.47 95.14 44.51 94.94 44.59C94.44 44.8 93.49 44.87 92.7 44.87C90.82 44.86 89.54 44.43 88.53 43.56Z" fill="#FEFEFE"/>
<path fill-rule="evenodd" clip-rule="evenodd" d="M105.73 44.5C105.63 44.5 105.43 44.5 105.25 44.43C105.05 44.36 104.64 44.17 104.17 43.05C103.42 41.28 101.49 36.32 101.29 35.85C101.13 35.45 101.08 35.4 101.01 35.4C100.91 35.4 100.87 35.47 100.71 35.88L97.87 43.36C97.63 43.96 97.39 44.43 96.78 44.48C96.69 44.49 96.57 44.49 96.5 44.49C96.39 44.49 96.33 44.53 96.33 44.59C96.33 44.66 96.4 44.69 96.56 44.69C97.16 44.69 97.78 44.65 97.92 44.65C98.08 44.65 98.73 44.69 99.04 44.69C99.14 44.69 99.25 44.66 99.25 44.59C99.25 44.53 99.21 44.49 99.08 44.49H98.98C98.67 44.49 98.51 44.38 98.51 44.12C98.51 43.89 98.61 43.51 98.75 43.11L99.38 41.34C99.41 41.27 99.45 41.23 99.52 41.23H102.1C102.16 41.23 102.18 41.26 102.21 41.3L103.33 44.15C103.42 44.36 103.33 44.43 103.27 44.46C103.21 44.48 103.17 44.52 103.17 44.56C103.17 44.63 103.25 44.65 103.52 44.66C104.47 44.69 105.54 44.69 105.68 44.69C105.84 44.69 105.89 44.66 105.89 44.59C105.9 44.53 105.83 44.5 105.73 44.5ZM101.92 40.74H99.65C99.62 40.74 99.59 40.71 99.62 40.66L100.68 37.52C100.75 37.32 100.76 37.32 100.84 37.52L101.96 40.66C101.98 40.7 101.98 40.74 101.92 40.74Z" fill="#FEFEFE"/>
<path fill-rule="evenodd" clip-rule="evenodd" d="M115.28 36.96C113.78 35.44 111.45 35.57 110.2 35.57C109.4 35.57 108.67 35.61 108.57 35.61C108.53 35.61 107.63 35.57 107.05 35.57C106.92 35.57 106.84 35.6 106.84 35.68C106.84 35.72 106.91 35.77 106.98 35.77C107.12 35.77 107.25 35.78 107.39 35.8C107.8 35.88 107.92 36.08 107.94 36.47C107.97 36.84 107.97 37.19 107.97 39.07V41.17C107.97 42.32 107.98 43.29 107.9 43.81C107.86 44.12 107.77 44.42 107.53 44.46C107.42 44.49 107.32 44.5 107.2 44.5C107.09 44.5 107.04 44.56 107.04 44.6C107.04 44.67 107.11 44.7 107.24 44.7C107.45 44.7 107.79 44.67 108.06 44.67C108.33 44.66 108.52 44.66 108.54 44.66C108.58 44.66 109.02 44.7 109.56 44.73C110.15 44.78 110.74 44.8 111.34 44.8C113.5 44.8 114.58 43.96 115.13 43.41C115.83 42.7 116.48 41.52 116.48 40.02C116.49 38.58 115.91 37.59 115.28 36.96ZM114.33 43.25C113.59 43.99 112.54 44.36 111.38 44.36C109.9 44.36 109.45 44.06 109.29 43.82C109.19 43.69 109.16 43.31 109.15 42.87C109.15 42.66 109.14 41.55 109.14 40.27V38.84C109.14 37.99 109.14 36.78 109.15 36.37C109.15 36.24 109.19 36.19 109.31 36.13C109.4 36.07 109.84 36.03 110.03 36.03C111.44 36.03 112.83 36.17 114.03 37.38C114.51 37.85 115.25 38.83 115.25 40.43C115.26 41.56 114.96 42.63 114.33 43.25Z" fill="#FEFEFE"/>
<path fill-rule="evenodd" clip-rule="evenodd" d="M118.96 39.06C118.96 37.2 118.96 36.86 118.93 36.48C118.9 36.08 118.8 35.88 118.39 35.8C118.28 35.78 118.16 35.77 118.05 35.77C117.95 35.77 117.86 35.73 117.86 35.68C117.86 35.6 117.93 35.57 118.07 35.57C118.35 35.57 118.74 35.6 119.53 35.61C119.6 35.61 122.13 35.61 122.41 35.6C122.69 35.59 122.85 35.57 122.96 35.53C123.04 35.5 123.06 35.49 123.12 35.49C123.15 35.49 123.18 35.52 123.18 35.59C123.18 35.68 123.1 35.87 123.07 36.23C123.05 36.47 123.04 36.7 123.03 36.97C123.03 37.1 123 37.18 122.93 37.18C122.86 37.18 122.83 37.12 122.83 37.02C122.82 36.81 122.77 36.67 122.73 36.57C122.65 36.29 122.52 36.19 121.81 36.14C121.63 36.13 120.22 36.11 120.19 36.11C120.15 36.11 120.12 36.14 120.12 36.22V39.44C120.12 39.53 120.13 39.58 120.2 39.58C120.37 39.58 121.82 39.56 122.12 39.54C122.45 39.53 122.66 39.48 122.77 39.33C122.83 39.25 122.87 39.22 122.93 39.22C122.96 39.22 122.99 39.23 122.99 39.3C122.99 39.37 122.93 39.64 122.89 40.05C122.85 40.45 122.85 40.73 122.83 40.92C122.82 41.03 122.79 41.08 122.73 41.08C122.66 41.08 122.65 40.99 122.65 40.9C122.65 40.81 122.64 40.67 122.61 40.56C122.55 40.38 122.47 40.18 121.93 40.13C121.6 40.1 120.45 40.07 120.23 40.07C120.14 40.07 120.13 40.11 120.13 40.17V41.21C120.13 41.65 120.11 42.9 120.13 43.14C120.16 43.67 120.23 43.94 120.53 44.06C120.74 44.16 121.08 44.19 121.57 44.19C121.84 44.19 122.29 44.2 122.65 44.11C123.08 43.98 123.17 43.7 123.29 43.17C123.32 43.03 123.36 42.97 123.42 42.97C123.5 42.97 123.5 43.1 123.5 43.18C123.5 43.28 123.39 44.17 123.34 44.42C123.28 44.7 123.18 44.73 122.72 44.73C121.78 44.73 121.39 44.7 120.89 44.7C120.39 44.69 119.74 44.66 119.21 44.66C118.88 44.66 118.61 44.7 118.27 44.7C118.14 44.7 118.07 44.67 118.07 44.6C118.07 44.54 118.13 44.5 118.2 44.5C118.29 44.5 118.39 44.49 118.48 44.46C118.74 44.4 118.91 44.22 118.93 43.34C118.94 42.86 118.96 42.28 118.96 41.2V39.06Z" fill="#FEFEFE"/>
<path fill-rule="evenodd" clip-rule="evenodd" d="M135.91 43.14C135.95 43.48 136.04 44.28 136.59 44.4C136.83 44.46 137.12 44.49 137.31 44.5C137.37 44.5 137.5 44.51 137.5 44.59C137.5 44.67 137.44 44.7 137.29 44.7C137.03 44.7 135.5 44.64 135.05 44.62C134.74 44.59 134.62 44.56 134.62 44.49C134.62 44.45 134.68 44.39 134.75 44.36C134.82 44.33 134.86 44.16 134.83 43.96L134.21 37.88L131.2 43.98C130.93 44.53 130.89 44.66 130.76 44.66C130.67 44.66 130.6 44.53 130.33 44.05C130.1 43.64 128.97 41.37 128.88 41.24C128.8 41.07 127.4 38.32 127.29 38.02L126.76 43.49C126.75 43.69 126.75 43.82 126.75 44.03C126.75 44.19 126.82 44.4 127.1 44.46C127.26 44.49 127.36 44.49 127.5 44.5C127.61 44.51 127.64 44.56 127.64 44.59C127.64 44.69 127.55 44.7 127.4 44.7C126.95 44.7 126.33 44.66 126.22 44.66C126.08 44.66 125.48 44.7 125.13 44.7C125 44.7 124.92 44.69 124.92 44.59C124.92 44.56 124.98 44.51 125.11 44.51C125.21 44.51 125.22 44.51 125.38 44.5C125.72 44.47 125.85 44.13 125.92 43.56L126.87 35.77C126.9 35.53 126.96 35.42 127.03 35.42C127.1 35.42 127.14 35.46 127.24 35.65L131.05 43.02L134.67 35.67C134.74 35.51 134.8 35.43 134.88 35.43C134.96 35.43 135.01 35.56 135.02 35.78L135.91 43.14Z" fill="#FEFEFE"/>
<path fill-rule="evenodd" clip-rule="evenodd" d="M140.81 41.61C140.81 40.93 140.71 40.67 140.5 40.3C140.42 40.14 138.77 37.46 138.33 36.85C137.95 36.31 137.8 36.14 137.61 35.98C137.41 35.84 137.23 35.78 136.94 35.77C136.85 35.77 136.78 35.73 136.78 35.66C136.78 35.62 136.84 35.57 136.95 35.57C137.18 35.57 138.26 35.61 138.28 35.61C138.36 35.61 138.83 35.57 139.36 35.57C139.5 35.57 139.54 35.61 139.54 35.65C139.54 35.71 139.5 35.73 139.38 35.76C139.18 35.8 139.15 35.87 139.15 35.99C139.15 36.13 139.24 36.27 139.34 36.46C139.52 36.81 141.4 39.82 141.61 40.18C141.84 39.68 143.43 37.09 143.63 36.73C143.9 36.26 143.96 36.13 143.96 35.98C143.96 35.8 143.79 35.8 143.63 35.77C143.52 35.76 143.47 35.71 143.47 35.66C143.47 35.62 143.5 35.57 143.64 35.57C143.98 35.57 144.28 35.61 144.51 35.61C144.7 35.61 145.52 35.57 145.76 35.57C145.89 35.57 145.93 35.61 145.93 35.65C145.93 35.72 145.86 35.76 145.76 35.76C145.46 35.77 145.25 35.8 145.05 35.94C144.84 36.08 144.75 36.21 144.52 36.52C143.7 37.66 142.32 39.97 142.11 40.47C141.94 40.91 141.97 41.22 141.97 41.59V42.63C141.97 42.73 141.97 43.25 142 43.77C142.03 44.11 142.06 44.35 142.5 44.44C142.68 44.48 142.93 44.5 143.03 44.5C143.14 44.5 143.19 44.54 143.19 44.59C143.19 44.66 143.15 44.7 143.02 44.7C142.31 44.7 141.43 44.66 141.39 44.66C141.36 44.66 140.51 44.7 140.11 44.7C139.97 44.7 139.91 44.66 139.91 44.59C139.91 44.55 139.95 44.5 140.05 44.5C140.16 44.5 140.29 44.49 140.41 44.46C140.65 44.42 140.75 44.12 140.78 43.78C140.82 43.27 140.82 42.76 140.82 42.64L140.81 41.61Z" fill="#FEFEFE"/>
<path fill-rule="evenodd" clip-rule="evenodd" d="M152.09 38.44C152.26 37.62 152.7 36.18 153.62 35.33C154.27 34.71 154.91 34.53 155.39 34.53C155.76 34.53 156.11 34.63 156.31 34.81C156.21 35.11 155.94 35.75 155.73 36.03L155.52 36.13C155.41 35.83 155.31 35.41 155.24 35.06C155.2 35.04 155.16 35.03 155.11 35.03C154.6 35.03 153.72 35.36 153.01 38.44H154.56L154.32 38.87L152.87 39.08C152.53 40.61 152.33 41.58 151.79 43.84C151.34 45.73 150.88 46.61 150.03 47.37C149.45 47.88 148.94 48.09 148.44 48.09C147.9 48.09 147.49 47.78 147.36 47.51L147.87 46.8L147.96 46.77C148.29 47.24 148.71 47.35 149.07 47.35C149.48 47.35 150.04 47.31 150.6 44.98C150.97 43.5 151.27 42.2 151.93 39.05L150.82 38.82L151.06 38.42H152.09V38.44Z" fill="#FEFEFE"/>
<path fill-rule="evenodd" clip-rule="evenodd" d="M157.8 38.27C155.8 38.27 154.1 40.37 154.11 42.53C154.11 44.02 154.99 44.84 156.04 44.84C158 44.84 159.72 42.71 159.72 40.65C159.72 39.36 159.01 38.27 157.8 38.27ZM156.13 44.39C155.58 44.39 155.14 43.98 155.14 42.79C155.14 41.24 156.16 38.72 157.68 38.72C158.37 38.72 158.69 39.36 158.69 40.39C158.68 42.1 157.46 44.39 156.13 44.39Z" fill="#FEFEFE"/>
<path fill-rule="evenodd" clip-rule="evenodd" d="M161.06 38.82C161.57 38.58 162.49 38.27 162.86 38.27L162.89 38.28C162.9 38.75 162.8 39.57 162.44 40.91H162.5C163.66 38.74 164.62 38.27 165.28 38.27C165.51 38.27 165.68 38.33 165.79 38.43C165.78 38.64 165.35 39.78 165.12 40.12L164.89 40.23C164.82 39.93 164.76 39.55 164.69 39.12C164.66 39.11 164.63 39.11 164.58 39.11C164.24 39.11 163.37 39.83 162.36 42.15C162.08 42.79 161.89 43.4 161.52 44.66L160.55 44.77C161.32 42.33 161.93 39.91 161.97 39.23L160.93 39.12L161.06 38.82Z" fill="#FEFEFE"/>
<path fill-rule="evenodd" clip-rule="evenodd" d="M0.850059 54.99C0.850059 52.68 0.850059 52.26 0.820059 51.79C0.790059 51.29 0.670059 51.05 0.180059 50.95C0.0600586 50.92 -0.189941 50.9 -0.319941 50.9C-0.379941 50.9 -0.439941 50.87 -0.439941 50.81C-0.439941 50.72 -0.369941 50.69 -0.199941 50.69C0.140059 50.69 0.540058 50.69 0.870059 50.7L1.48006 50.73C1.58006 50.73 4.53006 50.73 4.88006 50.72C5.16006 50.71 5.40006 50.67 5.52006 50.65C5.59006 50.64 5.65006 50.58 5.73006 50.58C5.77006 50.58 5.79006 50.64 5.79006 50.71C5.79006 50.81 5.72006 50.99 5.67006 51.41C5.66006 51.56 5.63006 52.21 5.60006 52.39C5.59006 52.46 5.56006 52.55 5.50006 52.55C5.41006 52.55 5.38006 52.48 5.38006 52.36C5.38006 52.26 5.37006 52 5.29006 51.83C5.19006 51.59 5.04006 51.41 4.24006 51.33C3.99006 51.3 2.37006 51.29 2.21006 51.29C2.15006 51.29 2.12006 51.33 2.12006 51.44V55.53C2.12006 55.63 2.13006 55.68 2.21006 55.68C2.40006 55.68 4.23006 55.68 4.57006 55.65C4.93006 55.62 5.13006 55.59 5.27006 55.44C5.37006 55.32 5.43006 55.25 5.49006 55.25C5.53006 55.25 5.56006 55.28 5.56006 55.37C5.56006 55.46 5.49006 55.71 5.44006 56.2C5.41006 56.5 5.38006 57.05 5.38006 57.15C5.38006 57.27 5.38006 57.43 5.28006 57.43C5.21006 57.43 5.18006 57.37 5.18006 57.3C5.18006 57.15 5.18006 57 5.12006 56.81C5.06006 56.6 4.93006 56.35 4.35006 56.29C3.95006 56.25 2.48006 56.22 2.23006 56.22C2.16006 56.22 2.13006 56.26 2.13006 56.32V57.62C2.13006 58.12 2.12006 59.84 2.13006 60.16C2.17006 61.18 2.40006 61.38 3.85006 61.38C4.24006 61.38 4.89006 61.38 5.27006 61.22C5.66006 61.06 5.83006 60.76 5.94006 60.15C5.97006 59.99 6.00006 59.93 6.07006 59.93C6.16006 59.93 6.16006 60.05 6.16006 60.15C6.16006 60.27 6.04006 61.28 5.97006 61.59C5.87006 61.98 5.75006 61.98 5.17006 61.98C4.06006 61.98 3.24006 61.95 2.66006 61.94C2.08006 61.91 1.73006 61.9 1.50006 61.9C1.47006 61.9 1.22006 61.9 0.910059 61.91C0.610059 61.91 0.270059 61.94 0.0500586 61.94C-0.109941 61.94 -0.189941 61.91 -0.189941 61.82C-0.189941 61.78 -0.159941 61.73 -0.0699414 61.73C0.0600586 61.73 0.240059 61.7 0.370059 61.67C0.670059 61.61 0.740059 61.28 0.800059 60.85C0.870059 60.23 0.870059 59.06 0.870059 57.63L0.850059 54.99Z" fill="#FEFEFE"/>
<path fill-rule="evenodd" clip-rule="evenodd" d="M16.5401 53.8C15.0001 52.24 12.6101 52.36 11.3101 52.36C10.5401 52.36 9.71009 52.39 9.56009 52.39C9.49009 52.39 8.64009 52.36 8.05009 52.36C7.90009 52.36 7.84009 52.39 7.84009 52.46C7.84009 52.5 7.90009 52.56 7.94009 52.56C8.09009 52.56 8.24009 52.57 8.38009 52.59C8.81009 52.65 8.88009 52.86 8.91009 53.29C8.94009 53.69 8.94009 54.05 8.94009 56V58.22C8.94009 59.44 8.94009 60.43 8.87009 60.95C8.81009 61.32 8.78009 61.56 8.53009 61.62C8.41009 61.65 8.25009 61.68 8.13009 61.68C8.06009 61.68 8.03009 61.74 8.03009 61.78C8.03009 61.85 8.10009 61.88 8.24009 61.88C8.45009 61.88 8.76009 61.87 9.03009 61.85C9.30009 61.85 9.53009 61.84 9.56009 61.84C9.62009 61.84 10.0601 61.87 10.6301 61.91C11.1901 61.94 11.8901 61.98 12.4501 61.98C14.6701 61.98 15.8501 61.11 16.4101 60.53C17.1401 59.79 17.8201 58.57 17.8201 56.99C17.8201 55.51 17.1901 54.45 16.5401 53.8ZM15.5201 60.38C14.7301 61.12 13.6701 61.52 12.4701 61.52C10.9301 61.52 10.4701 61.25 10.3101 61.02C10.2101 60.89 10.1801 60.43 10.1601 60.12C10.1501 59.88 10.1501 58.71 10.1501 57.38V53.17C10.1501 53.02 10.1901 52.96 10.3101 52.92C10.4301 52.87 10.8401 52.83 11.1001 52.83C12.6601 52.83 14.0901 52.99 15.3301 54.24C15.8601 54.77 16.5601 55.8 16.5601 57.4C16.5401 58.55 16.2001 59.75 15.5201 60.38Z" fill="#FEFEFE"/>
<path fill-rule="evenodd" clip-rule="evenodd" d="M20.1 56.078C20.1 54.148 20.1 53.798 20.07 53.398C20.04 52.998 19.97 52.768 19.54 52.708C19.39 52.688 19.25 52.678 19.1 52.678C19.06 52.678 19 52.618 19 52.578C19 52.508 19.06 52.478 19.2 52.478C19.79 52.478 20.56 52.508 20.68 52.508C20.8 52.508 21.6 52.478 21.98 52.478C22.13 52.478 22.2 52.508 22.2 52.578C22.2 52.618 22.14 52.678 22.08 52.678C21.99 52.678 21.92 52.678 21.76 52.708C21.42 52.768 21.35 52.988 21.32 53.398C21.29 53.798 21.29 54.148 21.29 56.078V57.818C21.29 59.618 21.69 60.368 22.24 60.858C22.87 61.428 23.43 61.528 24.16 61.528C24.95 61.528 25.71 61.178 26.15 60.648C26.75 59.928 26.88 58.908 26.88 57.638V56.068C26.88 54.138 26.87 53.788 26.85 53.388C26.84 52.988 26.76 52.758 26.34 52.698C26.19 52.678 26.05 52.668 25.9 52.668C25.84 52.668 25.8 52.608 25.8 52.568C25.8 52.498 25.86 52.468 26 52.468C26.57 52.468 27.32 52.498 27.39 52.498C27.48 52.498 28.09 52.468 28.47 52.468C28.62 52.468 28.67 52.498 28.67 52.568C28.67 52.608 28.63 52.668 28.57 52.668C28.48 52.668 28.41 52.668 28.25 52.698C27.9 52.768 27.83 52.978 27.8 53.388C27.77 53.788 27.79 54.138 27.79 56.068V57.398C27.79 58.748 27.61 60.248 26.59 61.128C25.65 61.928 24.66 62.038 23.9 62.038C23.48 62.038 22.13 62.008 21.22 61.158C20.59 60.568 20.09 59.708 20.09 57.898L20.1 56.078Z" fill="#FEFEFE"/>
<path fill-rule="evenodd" clip-rule="evenodd" d="M31.33 60.718C30.07 59.638 29.76 58.218 29.76 57.028C29.76 56.198 30.07 54.748 31.21 53.638C31.99 52.888 33.16 52.308 35.13 52.308C35.64 52.308 36.37 52.348 37 52.458C37.48 52.548 37.89 52.638 38.32 52.648C38.45 52.648 38.48 52.708 38.48 52.778C38.48 52.878 38.45 53.028 38.42 53.478C38.41 53.888 38.41 54.578 38.39 54.748C38.38 54.938 38.32 55.008 38.24 55.008C38.15 55.008 38.14 54.918 38.14 54.748C38.14 54.268 37.94 53.768 37.6 53.508C37.15 53.128 36.21 52.818 35.07 52.818C33.42 52.818 32.63 53.258 32.17 53.678C31.22 54.558 31.01 55.668 31.01 56.928C31.01 59.318 32.9 61.438 35.65 61.438C36.62 61.438 37.26 61.368 37.77 60.848C38.05 60.568 38.22 60.048 38.27 59.808C38.3 59.678 38.31 59.628 38.4 59.628C38.46 59.628 38.52 59.718 38.52 59.808C38.52 59.898 38.34 60.978 38.21 61.408C38.14 61.638 38.11 61.688 37.89 61.778C37.36 61.978 36.4 62.058 35.56 62.058C33.64 62.048 32.34 61.588 31.33 60.718Z" fill="#FEFEFE"/>
<path fill-rule="evenodd" clip-rule="evenodd" d="M45.32 57.9C45.38 57.9 45.38 57.87 45.36 57.81L44.09 54.4C44.02 54.21 43.94 54.21 43.87 54.4L42.67 57.81C42.66 57.87 42.67 57.9 42.71 57.9H45.32ZM43.88 52.72C44.04 52.31 44.1 52.24 44.19 52.24C44.32 52.24 44.37 52.42 44.5 52.69C44.73 53.22 46.8 58.35 47.59 60.24C48.06 61.35 48.41 61.51 48.69 61.6C48.86 61.65 49.03 61.67 49.2 61.67C49.27 61.67 49.36 61.7 49.36 61.77C49.36 61.84 49.21 61.87 49.07 61.87C48.88 61.87 47.93 61.87 47.04 61.84C46.79 61.82 46.59 61.82 46.59 61.75C46.59 61.69 46.62 61.69 46.68 61.66C46.75 61.63 46.89 61.53 46.8 61.32L45.64 58.47C45.61 58.41 45.6 58.4 45.52 58.4H42.55C42.49 58.4 42.45 58.43 42.42 58.5L41.69 60.49C41.57 60.8 41.5 61.1 41.5 61.32C41.5 61.57 41.72 61.66 41.94 61.66H42.06C42.16 61.66 42.19 61.7 42.19 61.76C42.19 61.83 42.12 61.86 42 61.86C41.69 61.86 40.99 61.82 40.84 61.82C40.71 61.82 40.06 61.86 39.54 61.86C39.38 61.86 39.29 61.83 39.29 61.76C39.29 61.7 39.35 61.66 39.41 61.66C39.5 61.66 39.69 61.65 39.79 61.63C40.38 61.56 40.62 61.12 40.87 60.49L43.88 52.72ZM53.33 58.27C53.33 59.47 53.33 60.45 53.39 60.96C53.43 61.33 53.49 61.56 53.89 61.62C54.07 61.65 54.36 61.68 54.48 61.68C54.57 61.68 54.58 61.74 54.58 61.78C54.58 61.84 54.52 61.88 54.38 61.88C53.68 61.88 52.86 61.84 52.78 61.84C52.72 61.84 51.83 61.88 51.45 61.88C51.3 61.88 51.24 61.85 51.24 61.78C51.24 61.74 51.27 61.69 51.34 61.69C51.46 61.69 51.6 61.66 51.72 61.63C51.98 61.57 52.06 61.32 52.1 60.96C52.16 60.45 52.16 59.47 52.16 58.27V53.05L50.3 53.08C49.5 53.09 49.19 53.18 49 53.48C48.85 53.7 48.84 53.79 48.8 53.88C48.77 53.98 48.73 54 48.67 54C48.64 54 48.58 53.97 48.58 53.9C48.58 53.77 48.84 52.66 48.86 52.55C48.89 52.48 48.95 52.32 48.99 52.32C49.08 52.32 49.21 52.42 49.56 52.47C49.93 52.51 50.42 52.53 50.57 52.53H55.43C55.85 52.53 56.15 52.5 56.35 52.47C56.54 52.44 56.66 52.41 56.72 52.41C56.78 52.41 56.78 52.48 56.78 52.56C56.78 52.94 56.74 53.83 56.74 53.98C56.74 54.08 56.68 54.14 56.62 54.14C56.56 54.14 56.53 54.1 56.52 53.92L56.51 53.79C56.47 53.41 56.19 53.13 54.96 53.1L53.35 53.07L53.33 58.27ZM60.45 58.27C60.45 59.47 60.45 60.45 60.51 60.96C60.55 61.33 60.6 61.56 60.98 61.62C61.17 61.65 61.45 61.68 61.57 61.68C61.64 61.68 61.67 61.74 61.67 61.78C61.67 61.84 61.61 61.88 61.47 61.88C60.75 61.88 59.92 61.84 59.86 61.84C59.79 61.84 58.98 61.88 58.59 61.88C58.46 61.88 58.38 61.85 58.38 61.78C58.38 61.74 58.41 61.68 58.48 61.68C58.6 61.68 58.76 61.65 58.88 61.62C59.13 61.56 59.17 61.33 59.22 60.96C59.28 60.45 59.29 59.47 59.29 58.27V56.08C59.29 54.15 59.29 53.8 59.26 53.4C59.23 52.98 59.13 52.79 58.85 52.73C58.72 52.7 58.59 52.69 58.45 52.69C58.39 52.69 58.35 52.63 58.35 52.59C58.35 52.52 58.41 52.49 58.56 52.49C58.98 52.49 59.79 52.52 59.86 52.52C59.92 52.52 60.75 52.49 61.15 52.49C61.3 52.49 61.35 52.52 61.35 52.59C61.35 52.63 61.29 52.69 61.25 52.69C61.16 52.69 61.07 52.69 60.93 52.72C60.58 52.79 60.51 52.97 60.48 53.41C60.47 53.81 60.47 54.16 60.47 56.09L60.45 58.27Z" fill="#FEFEFE"/>
<path fill-rule="evenodd" clip-rule="evenodd" d="M68.275 61.538C69.435 61.538 71.755 60.928 71.755 57.328C71.755 54.338 69.945 52.778 67.905 52.778C65.755 52.778 64.205 54.128 64.205 56.828C64.205 59.718 65.945 61.538 68.275 61.538ZM67.985 52.298C70.885 52.298 73.075 54.068 73.075 56.968C73.075 59.748 71.015 62.048 67.905 62.048C64.375 62.048 62.875 59.398 62.875 57.158C62.875 55.158 64.425 52.298 67.985 52.298Z" fill="#FEFEFE"/>
<path fill-rule="evenodd" clip-rule="evenodd" d="M76.2601 60.19C76.2901 61.21 76.4101 61.52 76.7601 61.61C76.9901 61.67 77.2901 61.68 77.4001 61.68C77.4601 61.68 77.5001 61.72 77.5001 61.78C77.5001 61.85 77.4101 61.88 77.2701 61.88C76.5401 61.88 76.0301 61.84 75.9101 61.84C75.7901 61.84 75.2501 61.88 74.6701 61.88C74.5401 61.88 74.4701 61.87 74.4701 61.78C74.4701 61.72 74.5101 61.68 74.5701 61.68C74.6701 61.68 74.9101 61.67 75.1001 61.61C75.4201 61.52 75.4701 61.19 75.4701 60.06V52.93C75.4701 52.43 75.5401 52.3 75.6501 52.3C75.8001 52.3 76.0201 52.55 76.1501 52.68C76.3501 52.88 78.2301 54.87 80.2201 56.92C81.4901 58.24 82.8701 59.71 83.2601 60.12L83.1301 53.89C83.1201 53.09 83.0401 52.81 82.6501 52.73C82.4401 52.69 82.2301 52.67 82.0201 52.67C81.9301 52.67 81.9201 52.6 81.9201 52.55C81.9201 52.48 82.0201 52.46 82.1701 52.46C82.7601 52.46 83.3701 52.49 83.5201 52.49C83.6701 52.49 84.0901 52.46 84.6201 52.46C84.7501 52.46 84.8501 52.47 84.8501 52.55C84.8501 52.59 84.7901 52.67 84.7001 52.67C84.6401 52.67 84.5401 52.67 84.3901 52.7C83.9701 52.79 83.9401 53.04 83.9401 53.78L83.9101 61.07C83.9101 61.89 83.9001 61.96 83.8101 61.96C83.6801 61.96 83.5501 61.86 82.8301 61.2C82.7001 61.08 80.8401 59.25 79.4801 57.83C77.9901 56.26 76.5401 54.74 76.1401 54.3L76.2601 60.19ZM91.3201 57.9C91.3801 57.9 91.3801 57.87 91.3601 57.81L90.0901 54.4C90.0201 54.21 89.9401 54.21 89.8701 54.4L88.6701 57.81C88.6601 57.87 88.6701 57.9 88.7101 57.9H91.3201ZM89.8901 52.72C90.0501 52.31 90.1101 52.24 90.2001 52.24C90.3301 52.24 90.3801 52.42 90.5101 52.69C90.7401 53.22 92.8101 58.35 93.6001 60.24C94.0701 61.35 94.4201 61.51 94.7001 61.6C94.8701 61.65 95.0401 61.67 95.2101 61.67C95.2801 61.67 95.3701 61.7 95.3701 61.77C95.3701 61.84 95.2201 61.87 95.0801 61.87C94.8901 61.87 93.9401 61.87 93.0501 61.84C92.8001 61.82 92.6001 61.82 92.6001 61.75C92.6001 61.69 92.6301 61.69 92.6901 61.66C92.7601 61.63 92.9001 61.53 92.8101 61.32L91.6501 58.47C91.6201 58.41 91.6101 58.4 91.5301 58.4H88.5601C88.5001 58.4 88.4601 58.43 88.4301 58.5L87.7001 60.49C87.5801 60.8 87.5101 61.1 87.5101 61.32C87.5101 61.57 87.7301 61.66 87.9501 61.66H88.0701C88.1701 61.66 88.2001 61.7 88.2001 61.76C88.2001 61.83 88.1301 61.86 88.0101 61.86C87.7001 61.86 87.0001 61.82 86.8501 61.82C86.7201 61.82 86.0701 61.86 85.5501 61.86C85.3901 61.86 85.3001 61.83 85.3001 61.76C85.3001 61.7 85.3601 61.66 85.4201 61.66C85.5101 61.66 85.7001 61.65 85.8001 61.63C86.3801 61.56 86.6301 61.12 86.8801 60.49L89.8901 52.72ZM98.5501 58.3C98.5501 60.13 98.5801 60.88 98.8101 61.09C99.0101 61.29 99.5101 61.38 100.52 61.38C101.19 61.38 101.76 61.37 102.07 61C102.23 60.81 102.33 60.55 102.38 60.3C102.39 60.21 102.44 60.14 102.51 60.14C102.57 60.14 102.6 60.2 102.6 60.33C102.6 60.46 102.51 61.21 102.41 61.57C102.32 61.86 102.28 61.91 101.59 61.91C100.67 61.91 99.9501 61.9 99.3501 61.87C98.7601 61.86 98.3301 61.84 97.9501 61.84C97.8901 61.84 97.6701 61.84 97.4201 61.85C97.1601 61.86 96.8801 61.88 96.6701 61.88C96.5401 61.88 96.4601 61.85 96.4601 61.78C96.4601 61.74 96.4901 61.68 96.5601 61.68C96.6801 61.68 96.8401 61.65 96.9601 61.62C97.2101 61.56 97.2401 61.33 97.3001 60.96C97.3701 60.45 97.3701 59.47 97.3701 58.27V56.08C97.3701 54.15 97.3701 53.8 97.3401 53.4C97.3101 52.98 97.2401 52.77 96.8101 52.71C96.6601 52.69 96.5201 52.68 96.3701 52.68C96.3301 52.68 96.2701 52.62 96.2701 52.58C96.2701 52.51 96.3301 52.48 96.4701 52.48C97.0601 52.48 97.8601 52.51 97.9301 52.51C97.9901 52.51 98.9501 52.48 99.3501 52.48C99.4801 52.48 99.5501 52.51 99.5501 52.58C99.5501 52.62 99.4901 52.67 99.4501 52.67C99.3601 52.67 99.1701 52.68 99.0301 52.7C98.6501 52.77 98.5801 52.96 98.5501 53.4C98.5401 53.8 98.5401 54.15 98.5401 56.08L98.5501 58.3ZM111.47 56.34C111.47 56.41 111.5 56.47 111.57 56.52C111.79 56.65 112.46 56.75 113.11 56.75C113.46 56.75 113.87 56.71 114.21 56.47C114.72 56.12 115.1 55.33 115.1 54.22C115.1 52.39 114.13 51.29 112.57 51.29C112.13 51.29 111.74 51.33 111.59 51.38C111.52 51.41 111.47 51.47 111.47 51.56V56.34ZM110.3 55.07C110.3 52.79 110.3 52.38 110.27 51.91C110.24 51.41 110.12 51.18 109.64 51.08C109.52 51.05 109.27 51.04 109.14 51.04C109.08 51.04 109.02 51.01 109.02 50.95C109.02 50.86 109.09 50.83 109.25 50.83C109.91 50.83 110.83 50.87 110.9 50.87C111.06 50.87 112.17 50.83 112.63 50.83C113.55 50.83 114.53 50.92 115.31 51.47C115.68 51.73 116.32 52.45 116.32 53.46C116.32 54.54 115.87 55.63 114.55 56.84C115.75 58.38 116.74 59.68 117.59 60.59C118.38 61.42 119.01 61.59 119.38 61.64C119.57 61.67 119.76 61.68 119.95 61.68C120.02 61.68 120.08 61.72 120.08 61.77C120.08 61.86 119.99 61.89 119.73 61.89H118.69C117.87 61.89 117.5 61.82 117.12 61.61C116.49 61.27 115.98 60.56 115.14 59.46C114.53 58.66 113.84 57.68 113.54 57.29C113.48 57.23 113.44 57.2 113.35 57.2L111.55 57.17C111.48 57.17 111.45 57.21 111.45 57.29V57.64C111.45 59.04 111.45 60.2 111.52 60.82C111.56 61.24 111.65 61.57 112.09 61.62C112.29 61.65 112.62 61.68 112.75 61.68C112.84 61.68 112.87 61.72 112.87 61.77C112.87 61.84 112.8 61.89 112.64 61.89C111.83 61.89 110.91 61.85 110.84 61.85C110.83 61.85 109.9 61.89 109.46 61.89C109.3 61.89 109.23 61.86 109.23 61.77C109.23 61.73 109.26 61.68 109.35 61.68C109.48 61.68 109.66 61.65 109.79 61.62C110.08 61.56 110.16 61.24 110.21 60.82C110.28 60.21 110.28 59.05 110.28 57.64L110.3 55.07ZM121.79 56.08C121.79 54.15 121.79 53.8 121.76 53.4C121.73 52.98 121.66 52.77 121.23 52.71C121.08 52.69 120.94 52.68 120.79 52.68C120.75 52.68 120.69 52.62 120.69 52.58C120.69 52.51 120.75 52.48 120.89 52.48C121.48 52.48 122.31 52.51 122.38 52.51C122.47 52.51 125.16 52.53 125.45 52.51C125.7 52.5 125.93 52.45 126.04 52.44C126.1 52.43 126.16 52.38 126.22 52.38C126.26 52.38 126.28 52.44 126.28 52.5C126.28 52.59 126.21 52.73 126.18 53.08C126.17 53.2 126.14 53.75 126.11 53.9C126.1 53.96 126.05 54.03 125.99 54.03C125.92 54.03 125.89 53.97 125.89 53.87C125.89 53.78 125.88 53.58 125.82 53.43C125.73 53.22 125.6 53.14 124.9 53.05C124.68 53.02 123.19 53.01 123.04 53.01C122.98 53.01 122.97 53.05 122.97 53.14V56.52C122.97 56.61 122.97 56.65 123.04 56.65C123.2 56.65 124.9 56.65 125.19 56.62C125.5 56.59 125.69 56.58 125.82 56.44C125.91 56.35 125.97 56.28 126.01 56.28C126.05 56.28 126.08 56.31 126.08 56.38C126.08 56.45 126.01 56.66 125.98 57.07C125.95 57.32 125.92 57.79 125.92 57.87C125.92 57.97 125.89 58.1 125.8 58.1C125.74 58.1 125.71 58.06 125.71 57.98C125.71 57.86 125.71 57.73 125.65 57.57C125.61 57.39 125.49 57.25 124.99 57.19C124.64 57.15 123.26 57.13 123.04 57.13C122.97 57.13 122.95 57.17 122.95 57.22V58.26C122.95 58.68 122.93 60.13 122.95 60.38C122.98 61.21 123.21 61.38 124.49 61.38C124.83 61.38 125.44 61.38 125.78 61.25C126.12 61.1 126.29 60.88 126.37 60.39C126.4 60.24 126.43 60.2 126.5 60.2C126.57 60.2 126.59 60.3 126.59 60.39C126.59 60.48 126.49 61.33 126.41 61.59C126.32 61.91 126.19 61.91 125.69 61.91C124.72 61.91 123.98 61.88 123.45 61.87C122.91 61.84 122.57 61.84 122.38 61.84C122.35 61.84 122.1 61.84 121.82 61.85C121.57 61.86 121.28 61.88 121.07 61.88C120.94 61.88 120.87 61.85 120.87 61.78C120.87 61.74 120.9 61.68 120.97 61.68C121.09 61.68 121.25 61.64 121.37 61.62C121.62 61.58 121.65 61.33 121.71 60.96C121.78 60.45 121.78 59.47 121.78 58.27L121.79 56.08Z" fill="#FEFEFE"/>
<path fill-rule="evenodd" clip-rule="evenodd" d="M128.453 61.708C128.273 61.618 128.263 61.578 128.263 61.238C128.263 60.628 128.323 60.128 128.333 59.918C128.333 59.788 128.363 59.718 128.433 59.718C128.503 59.718 128.553 59.758 128.553 59.868C128.553 59.968 128.553 60.148 128.593 60.318C128.793 61.228 129.763 61.548 130.623 61.548C131.893 61.548 132.553 60.828 132.553 59.898C132.553 59.008 132.073 58.578 130.933 57.728L130.353 57.288C128.963 56.248 128.513 55.488 128.513 54.628C128.513 53.168 129.673 52.288 131.363 52.288C131.873 52.288 132.383 52.358 132.693 52.438C132.943 52.498 133.043 52.498 133.143 52.498C133.243 52.498 133.273 52.508 133.273 52.588C133.273 52.648 133.213 53.058 133.213 53.908C133.213 54.098 133.193 54.188 133.113 54.188C133.023 54.188 133.013 54.128 132.993 54.028C132.983 53.878 132.873 53.548 132.803 53.418C132.713 53.268 132.293 52.808 131.133 52.808C130.193 52.808 129.423 53.278 129.423 54.158C129.423 54.948 129.823 55.398 131.093 56.268L131.463 56.518C133.033 57.588 133.573 58.448 133.573 59.518C133.573 60.248 133.293 61.038 132.373 61.638C131.833 61.988 131.023 62.078 130.323 62.078C129.733 62.048 128.983 61.958 128.453 61.708Z" fill="#FEFEFE"/>
<path fill-rule="evenodd" clip-rule="evenodd" d="M136.46 56.08C136.46 54.15 136.46 53.8 136.43 53.4C136.4 52.98 136.33 52.77 135.9 52.71C135.75 52.69 135.61 52.68 135.46 52.68C135.42 52.68 135.36 52.62 135.36 52.58C135.36 52.51 135.42 52.48 135.56 52.48C136.15 52.48 136.98 52.51 137.05 52.51C137.14 52.51 139.83 52.53 140.12 52.51C140.37 52.5 140.6 52.45 140.71 52.44C140.77 52.43 140.83 52.38 140.89 52.38C140.93 52.38 140.95 52.44 140.95 52.5C140.95 52.59 140.88 52.73 140.85 53.08C140.84 53.2 140.81 53.75 140.78 53.9C140.77 53.96 140.72 54.03 140.66 54.03C140.59 54.03 140.56 53.97 140.56 53.87C140.56 53.78 140.55 53.58 140.49 53.43C140.4 53.22 140.27 53.14 139.57 53.05C139.35 53.02 137.86 53.01 137.71 53.01C137.65 53.01 137.64 53.05 137.64 53.14V56.52C137.64 56.61 137.64 56.65 137.71 56.65C137.87 56.65 139.57 56.65 139.86 56.62C140.17 56.59 140.36 56.58 140.49 56.44C140.58 56.35 140.64 56.28 140.68 56.28C140.72 56.28 140.75 56.31 140.75 56.38C140.75 56.45 140.68 56.66 140.65 57.07C140.62 57.32 140.59 57.79 140.59 57.87C140.59 57.97 140.56 58.1 140.47 58.1C140.41 58.1 140.38 58.06 140.38 57.98C140.38 57.86 140.38 57.73 140.32 57.57C140.28 57.39 140.16 57.25 139.66 57.19C139.31 57.15 137.93 57.13 137.71 57.13C137.64 57.13 137.62 57.17 137.62 57.22V58.26C137.62 58.68 137.6 60.13 137.62 60.38C137.65 61.21 137.88 61.38 139.16 61.38C139.5 61.38 140.11 61.38 140.45 61.25C140.79 61.1 140.96 60.88 141.04 60.39C141.07 60.24 141.1 60.2 141.17 60.2C141.24 60.2 141.26 60.3 141.26 60.39C141.26 60.48 141.16 61.33 141.08 61.59C140.99 61.91 140.86 61.91 140.36 61.91C139.39 61.91 138.65 61.88 138.12 61.87C137.58 61.84 137.24 61.84 137.05 61.84C137.02 61.84 136.77 61.84 136.49 61.85C136.24 61.86 135.95 61.88 135.74 61.88C135.61 61.88 135.54 61.85 135.54 61.78C135.54 61.74 135.57 61.68 135.64 61.68C135.76 61.68 135.92 61.64 136.04 61.62C136.29 61.58 136.32 61.33 136.38 60.96C136.45 60.45 136.45 59.47 136.45 58.27L136.46 56.08ZM148.24 57.9C148.3 57.9 148.3 57.87 148.28 57.81L147.01 54.4C146.94 54.21 146.86 54.21 146.79 54.4L145.59 57.81C145.58 57.87 145.59 57.9 145.63 57.9H148.24ZM146.81 52.72C146.97 52.31 147.03 52.24 147.12 52.24C147.25 52.24 147.3 52.42 147.43 52.69C147.66 53.22 149.73 58.35 150.52 60.24C150.99 61.35 151.34 61.51 151.62 61.6C151.79 61.65 151.96 61.67 152.13 61.67C152.2 61.67 152.29 61.7 152.29 61.77C152.29 61.84 152.14 61.87 152 61.87C151.81 61.87 150.86 61.87 149.97 61.84C149.72 61.82 149.52 61.82 149.52 61.75C149.52 61.69 149.55 61.69 149.61 61.66C149.68 61.63 149.81 61.53 149.73 61.32L148.57 58.47C148.54 58.41 148.53 58.4 148.45 58.4H145.48C145.42 58.4 145.38 58.43 145.35 58.5L144.62 60.49C144.5 60.8 144.43 61.1 144.43 61.32C144.43 61.57 144.65 61.66 144.87 61.66H144.99C145.09 61.66 145.12 61.7 145.12 61.76C145.12 61.83 145.05 61.86 144.93 61.86C144.62 61.86 143.92 61.82 143.77 61.82C143.64 61.82 142.99 61.86 142.47 61.86C142.31 61.86 142.22 61.83 142.22 61.76C142.22 61.7 142.28 61.66 142.34 61.66C142.43 61.66 142.62 61.65 142.72 61.63C143.31 61.56 143.55 61.12 143.8 60.49L146.81 52.72ZM155.41 57.13C155.41 57.2 155.44 57.25 155.5 57.29C155.69 57.39 156.35 57.48 156.92 57.48C157.23 57.48 157.58 57.47 157.89 57.26C158.33 56.97 158.67 56.31 158.67 55.36C158.67 53.81 157.82 52.92 156.45 52.92C156.07 52.92 155.66 52.96 155.53 52.99C155.47 53.02 155.43 53.06 155.43 53.14V57.13H155.41ZM154.29 56.08C154.29 54.15 154.29 53.8 154.26 53.4C154.23 52.98 154.16 52.77 153.73 52.71C153.58 52.69 153.44 52.68 153.29 52.68C153.25 52.68 153.19 52.62 153.19 52.58C153.19 52.51 153.25 52.48 153.39 52.48C153.98 52.48 154.84 52.51 154.91 52.51C155.04 52.51 156.12 52.48 156.52 52.48C157.34 52.48 158.25 52.55 158.92 53.02C159.24 53.25 159.81 53.85 159.81 54.72C159.81 55.64 159.43 56.53 158.23 57.56C159.28 58.88 160.18 60 160.92 60.78C161.61 61.48 162.03 61.6 162.35 61.64C162.6 61.68 162.73 61.68 162.8 61.68C162.87 61.68 162.92 61.74 162.92 61.78C162.92 61.85 162.85 61.88 162.61 61.88H161.81C161.08 61.88 160.76 61.81 160.43 61.63C159.87 61.34 159.41 60.74 158.67 59.8C158.13 59.13 157.56 58.32 157.28 57.99C157.22 57.93 157.19 57.92 157.1 57.92L155.46 57.89C155.4 57.89 155.37 57.92 155.37 57.99V58.28C155.37 59.48 155.37 60.45 155.43 60.96C155.47 61.33 155.55 61.56 155.94 61.62C156.12 61.65 156.39 61.68 156.51 61.68C156.6 61.68 156.61 61.74 156.61 61.78C156.61 61.84 156.55 61.88 156.4 61.88C155.7 61.88 154.88 61.84 154.82 61.84C154.81 61.84 153.94 61.88 153.55 61.88C153.42 61.88 153.35 61.85 153.35 61.78C153.35 61.74 153.38 61.68 153.45 61.68C153.57 61.68 153.73 61.65 153.84 61.62C154.09 61.56 154.12 61.33 154.18 60.96C154.25 60.45 154.25 59.47 154.25 58.27L154.29 56.08Z" fill="#FEFEFE"/>
<path fill-rule="evenodd" clip-rule="evenodd" d="M163.968 60.718C162.708 59.638 162.398 58.218 162.398 57.028C162.398 56.198 162.708 54.748 163.848 53.638C164.618 52.888 165.798 52.308 167.768 52.308C168.278 52.308 169.008 52.348 169.638 52.458C170.118 52.548 170.528 52.638 170.958 52.648C171.088 52.648 171.118 52.708 171.118 52.778C171.118 52.878 171.088 53.028 171.058 53.478C171.048 53.888 171.048 54.578 171.028 54.748C171.018 54.938 170.958 55.008 170.878 55.008C170.788 55.008 170.778 54.918 170.778 54.748C170.778 54.268 170.578 53.768 170.238 53.508C169.788 53.128 168.848 52.818 167.708 52.818C166.058 52.818 165.268 53.258 164.808 53.678C163.858 54.558 163.648 55.668 163.648 56.928C163.648 59.318 165.538 61.438 168.288 61.438C169.258 61.438 169.898 61.368 170.408 60.848C170.688 60.568 170.858 60.048 170.908 59.808C170.938 59.678 170.948 59.628 171.038 59.628C171.098 59.628 171.158 59.718 171.158 59.808C171.158 59.898 170.978 60.978 170.848 61.408C170.778 61.638 170.748 61.688 170.528 61.778C169.998 61.978 169.038 62.058 168.198 62.058C166.278 62.048 164.978 61.588 163.968 60.718Z" fill="#FEFEFE"/>
<path fill-rule="evenodd" clip-rule="evenodd" d="M181.77 58.27C181.77 59.47 181.78 60.45 181.84 60.96C181.88 61.33 181.91 61.56 182.31 61.62C182.49 61.65 182.78 61.68 182.88 61.68C182.97 61.68 183 61.74 183 61.78C183 61.84 182.93 61.88 182.78 61.88C182.08 61.88 181.26 61.84 181.18 61.84C181.12 61.84 180.29 61.88 179.91 61.88C179.76 61.88 179.7 61.85 179.7 61.78C179.7 61.74 179.73 61.68 179.8 61.68C179.92 61.68 180.06 61.65 180.18 61.62C180.44 61.56 180.49 61.31 180.53 60.95C180.59 60.44 180.59 59.5 180.59 58.3V57.06C180.59 57 180.56 56.99 180.52 56.99H175.15C175.11 56.99 175.08 57 175.08 57.06V58.3C175.08 59.5 175.08 60.45 175.14 60.96C175.18 61.33 175.23 61.56 175.61 61.62C175.8 61.65 176.08 61.68 176.2 61.68C176.27 61.68 176.3 61.74 176.3 61.78C176.3 61.84 176.24 61.88 176.1 61.88C175.38 61.88 174.56 61.84 174.51 61.84C174.44 61.84 173.62 61.88 173.22 61.88C173.09 61.88 173.02 61.85 173.02 61.78C173.02 61.74 173.05 61.68 173.12 61.68C173.24 61.68 173.4 61.65 173.51 61.62C173.76 61.56 173.79 61.33 173.85 60.96C173.92 60.45 173.92 59.47 173.92 58.27V56.08C173.92 54.15 173.92 53.8 173.89 53.4C173.86 52.98 173.79 52.77 173.36 52.71C173.21 52.69 173.07 52.68 172.92 52.68C172.88 52.68 172.82 52.62 172.82 52.58C172.82 52.51 172.88 52.48 173.02 52.48C173.61 52.48 174.42 52.51 174.5 52.51C174.56 52.51 175.38 52.48 175.77 52.48C175.92 52.48 175.97 52.51 175.97 52.58C175.97 52.62 175.91 52.68 175.87 52.68C175.78 52.68 175.69 52.68 175.55 52.71C175.2 52.78 175.13 52.96 175.1 53.4C175.09 53.8 175.09 54.18 175.09 56.11V56.37C175.09 56.44 175.12 56.44 175.16 56.44H180.53C180.57 56.44 180.6 56.44 180.6 56.37V56.1C180.6 54.17 180.59 53.79 180.57 53.39C180.54 52.97 180.48 52.76 180.06 52.7C179.91 52.68 179.77 52.67 179.62 52.67C179.56 52.67 179.52 52.61 179.52 52.57C179.52 52.5 179.58 52.47 179.73 52.47C180.3 52.47 181.13 52.5 181.19 52.5C181.26 52.5 182.08 52.47 182.46 52.47C182.61 52.47 182.68 52.5 182.68 52.57C182.68 52.61 182.62 52.67 182.56 52.67C182.47 52.67 182.4 52.67 182.24 52.7C181.9 52.77 181.83 52.95 181.8 53.39C181.77 53.79 181.77 54.14 181.77 56.07V58.27Z" fill="#FEFEFE"/>
<path fill-rule="evenodd" clip-rule="evenodd" d="M13.8801 14.868C13.5801 15.258 13.2601 15.628 12.9701 16.038C13.5801 16.218 14.4901 16.338 15.1801 16.158C14.6501 15.828 14.3801 15.238 13.8801 14.868ZM6.72006 12.188C7.21006 12.358 7.97006 12.658 8.60006 12.598C9.08006 12.548 9.28006 12.128 9.29006 11.648C9.30006 10.838 8.88006 9.99802 8.35006 9.82802C8.02006 10.828 7.19006 11.328 6.72006 12.188ZM17.2001 5.73802C17.4401 6.07802 17.8601 6.45802 17.8201 7.06802C17.7901 7.52802 17.4801 7.70802 17.3301 8.07802C17.7401 8.55802 16.9001 8.56802 17.1701 8.85802C16.3301 9.52802 14.8901 9.66802 13.4901 9.69802C13.5501 10.438 13.7901 10.978 13.9801 11.578C14.7501 10.858 15.3001 9.89802 16.6501 9.73802C17.4201 10.678 16.4701 11.518 15.9701 12.148C15.5901 12.618 15.2701 13.058 14.9601 13.428C15.4201 14.188 15.8701 14.958 16.4901 15.558C16.3701 15.678 16.4801 15.828 16.5201 15.948C16.5301 16.068 16.3301 15.998 16.3901 16.178C16.6701 16.478 17.2401 16.248 17.7201 16.268C18.1301 16.278 18.4901 16.358 18.7601 16.488C18.6901 16.738 18.7701 16.958 18.7601 17.238C18.3201 17.298 17.8901 17.628 17.4301 17.668C17.2501 17.688 17.0901 17.628 16.9101 17.638C16.4801 17.648 16.0201 17.738 15.5501 17.748C13.8301 17.768 12.2101 17.918 10.6001 17.848C10.0601 17.828 9.63006 17.938 9.14006 17.958C7.74006 17.998 6.39006 17.878 5.10006 17.888C4.35006 17.898 3.64006 17.838 3.05006 17.838C2.94006 18.348 3.21006 18.698 3.25006 19.168C4.29006 18.888 5.12006 19.488 6.05006 19.468C6.46006 19.468 6.99006 19.368 7.38006 19.268C7.55006 19.218 7.69006 19.118 7.87006 19.098C8.01006 19.088 8.17006 19.168 8.33006 19.158C8.48006 19.148 8.58006 19.048 8.72006 19.058C9.25006 19.078 9.83006 19.508 10.4101 19.568C11.3001 19.658 12.1401 19.398 13.1101 19.578C13.7101 19.178 14.4301 19.678 15.1301 19.698C15.7101 19.708 16.3101 19.478 16.9201 19.518C17.0801 19.528 17.2601 19.608 17.4101 19.608C17.8601 19.608 18.3201 19.358 18.7801 19.408C19.3801 17.928 18.9901 16.098 19.0101 14.328C19.0201 12.908 18.8701 11.408 19.0101 9.99802C19.0601 9.50802 19.1801 9.09802 19.1701 8.66802C19.1501 7.99802 18.9401 7.35802 19.0101 6.61802C19.0401 6.28802 19.1901 5.96802 19.1401 5.63802C18.5801 5.78802 17.8101 5.78802 17.2001 5.73802ZM14.0401 5.36802C12.6001 5.37802 10.7501 5.39802 9.36006 5.72802C9.10006 5.45802 8.65006 5.73802 8.32006 5.76802C7.86006 5.79802 7.38006 5.59802 6.89006 5.60802C6.58006 5.61802 6.27006 5.69802 5.97006 5.68802C5.54006 5.65802 5.12006 5.52802 4.67006 5.52802C3.98006 5.52802 3.31006 5.62802 2.66006 5.69802C2.79006 6.30802 2.95006 6.80802 2.89006 7.55802C2.84006 8.06802 2.49006 8.69802 2.50006 9.08802C2.50006 9.40802 2.75006 9.73802 2.78006 10.068C2.80006 10.318 2.80006 10.568 2.78006 10.818C2.71006 11.688 2.72006 12.658 2.65006 13.518C2.63006 13.698 2.55006 13.888 2.55006 14.078C2.55006 14.538 2.81006 15.028 2.65006 15.478C3.14006 15.398 3.53006 15.258 4.04006 15.338C4.40006 15.378 4.70006 15.638 5.00006 15.678C5.34006 15.728 5.71006 15.628 6.08006 15.668C6.33006 15.698 6.60006 15.808 6.86006 15.858C8.25006 16.108 9.63006 16.318 10.8601 15.898C11.3301 14.748 12.1501 13.968 12.7501 12.958C12.3001 11.878 11.7701 10.878 11.4101 9.71802H10.8901C10.9301 10.558 11.2501 11.638 10.9901 12.448C10.8901 12.748 10.4501 13.498 10.2801 13.658C10.1701 13.748 9.95006 13.788 9.76006 13.888C9.61006 13.968 9.47006 14.148 9.34006 14.178C8.94006 14.258 8.46006 14.058 8.07006 14.088C7.77006 14.118 7.50006 14.228 7.21006 14.228C6.58006 14.238 6.07006 14.048 5.59006 13.858C4.96006 14.298 3.99006 13.928 3.66006 13.478C3.49006 12.998 3.63006 12.508 3.95006 12.268C4.09006 12.178 4.25006 12.178 4.40006 12.108C5.36006 11.668 5.96006 10.798 6.39006 9.81802C5.77006 9.35802 4.57006 9.68802 4.18006 9.04802C4.05006 8.81802 3.90006 8.20802 3.99006 7.84802C4.04006 7.61802 4.68006 6.99802 5.16006 6.79802C5.46006 6.68802 5.78006 6.65802 6.10006 6.68802C6.61006 6.76802 6.73006 7.21802 7.20006 7.39802C7.62006 7.55802 8.08006 7.42802 8.54006 7.48802C9.02006 7.54802 9.47006 7.74802 9.97006 7.73802C10.3601 7.73802 10.6901 7.61802 11.0401 7.62802C11.2201 7.20802 11.0401 6.69802 11.2001 6.29802C11.2701 6.11802 11.5001 6.01802 11.6501 5.90802C12.2101 5.51802 12.4101 5.62802 12.7301 6.15802C12.9901 6.61802 13.2301 7.03802 13.1901 7.74802C14.0101 7.78802 14.8701 8.02802 15.6901 7.85802C15.8301 7.54802 16.0201 7.16802 15.8801 6.81802C15.7801 6.56802 15.4101 6.55802 15.3601 6.29802C15.5101 6.12802 15.9501 5.81802 15.9101 5.67802C15.3201 5.54802 14.5401 5.59802 14.0401 5.36802ZM-0.439941 5.82802V5.04802C-0.369941 4.59802 -0.179941 4.29802 0.0500586 3.93802C0.270059 3.59802 0.400059 3.20802 0.640059 2.92802C1.05006 2.41802 1.77006 1.66802 2.56006 1.64802C3.45006 1.61802 3.64006 2.32802 4.25006 2.47802C4.59006 2.55802 4.97006 2.44802 5.33006 2.50802C5.94006 2.59802 6.49006 2.97802 7.12006 3.10802C7.84006 3.25802 8.50006 3.38802 9.17006 3.48802C10.7601 2.83802 12.6901 3.27802 14.5401 3.34802C15.5301 3.38802 16.4701 3.34802 17.3701 3.49802C18.2701 3.64802 19.1201 3.79802 20.0101 3.83802C20.1501 3.63802 20.5201 3.65802 20.5301 3.31802C20.7601 3.20802 20.9301 2.93802 21.1801 2.91802C21.6501 2.88802 22.3901 3.86802 22.4101 4.27802C22.4301 4.67802 22.0701 5.04802 21.9901 5.54802C21.9501 5.79802 21.9501 6.03802 21.8901 6.25802C21.8201 6.50802 21.6701 6.68802 21.6601 6.90802C21.6301 7.45802 21.7601 8.03802 21.7901 8.59802C21.8201 9.09802 21.6901 9.61802 21.6001 10.168C21.3101 11.858 21.3501 13.628 21.2501 15.278C21.2101 15.788 21.3501 16.308 21.3501 16.808C21.3501 17.068 21.2901 17.358 21.2501 17.628C21.2301 17.738 21.1601 17.878 21.1501 17.988C21.1401 18.108 21.2201 18.248 21.2201 18.378C21.1801 18.858 20.9101 19.328 20.8001 19.718C20.8201 19.938 20.9001 20.098 20.8601 20.368C20.4801 20.838 20.0901 21.248 19.5601 21.448C18.6701 21.788 17.3601 21.658 16.2101 21.698C15.6401 21.718 15.0601 21.748 14.4901 21.778C13.8701 21.808 13.3001 21.648 12.7301 21.658C12.2101 21.668 11.6901 21.668 11.2001 21.668C11.1101 21.668 11.0201 21.608 10.9401 21.608C10.8501 21.608 10.6401 21.688 10.4801 21.708C9.94006 21.768 9.40006 21.788 8.85006 21.748C8.47006 21.718 8.13006 21.518 7.68006 21.498C6.98006 21.468 6.47006 21.638 5.83006 21.738C4.98006 21.878 3.97006 21.678 3.23006 21.818C2.76006 21.908 2.49006 22.108 2.16006 22.058C1.68006 21.978 1.30006 21.558 1.28006 21.018C1.27006 20.898 1.23006 20.848 1.21006 20.728C1.17006 20.458 1.28006 20.278 1.28006 20.048C1.27006 19.808 0.940059 19.368 0.860059 19.108C0.520059 18.088 0.330059 17.048 0.310059 15.758C0.290059 14.948 0.240059 14.148 0.280059 13.318C0.320059 12.498 0.320059 11.668 0.310059 10.808C0.310059 10.368 0.0600586 9.88802 0.0500586 9.44802C5.85914e-05 8.99802 0.0500586 8.59802 0.120059 8.09802C0.220059 7.19802 -0.189941 6.54802 -0.439941 5.82802Z" fill="#FEFEFE"/>
<path fill-rule="evenodd" clip-rule="evenodd" d="M56.5201 11.93C56.7501 12.19 56.8701 12.56 57.1101 12.81C57.3201 12.52 57.5201 12.22 57.7001 11.9C57.3201 11.84 56.8301 11.78 56.5201 11.93ZM57.0401 5.52003C56.8701 5.89003 56.7601 6.33003 56.7501 6.86003C56.9701 6.90003 57.1401 7.00003 57.3601 7.04003C57.4801 6.49003 57.6501 5.98003 57.7201 5.38003C57.5001 5.44003 57.2701 5.48003 57.0401 5.52003ZM57.0401 3.53003C57.1501 3.59003 57.2601 3.65003 57.3601 3.72003C57.7301 3.72003 57.9001 3.51003 58.2401 3.49003C58.3801 3.17003 58.6101 2.96003 58.6601 2.57003C58.9101 2.49003 59.1901 2.45003 59.5401 2.47003C59.8601 2.64003 60.0201 2.85003 60.0301 3.35003C60.0301 3.65003 60.0301 4.08003 60.0001 4.32003C59.9401 4.73003 59.6301 5.21003 59.4401 5.66003C59.2401 6.16003 58.9701 6.60003 58.9201 7.03003C59.3901 7.31003 60.1201 6.74003 60.5101 7.15003C60.8101 8.12003 60.0101 8.66003 58.9801 8.76003C57.8101 8.88003 56.3601 8.91003 55.5601 8.59003C55.2401 8.84003 54.8001 8.47003 54.4601 8.66003C54.3801 9.12003 54.5701 9.60003 54.4901 10.06C54.4801 10.17 54.3901 10.28 54.3601 10.39C54.1901 11.04 54.2901 11.72 54.1901 12.37C54.1001 13.05 53.6701 13.69 53.8001 14.42C54.2401 14.23 54.5201 13.9 55.1301 14.02C55.4701 14.08 55.7601 14.47 56.1101 14.47C55.9801 13.93 55.6201 13.46 55.2901 12.94C55.1201 12.67 54.8301 12.46 54.7701 12.16C54.6501 11.56 54.9601 10.99 55.1001 10.46C55.8301 9.36003 57.6401 10.12 58.5501 10.53C58.7601 10.41 58.7901 10.2 59.0401 10.17C59.5001 10.12 60.0201 10.7 59.9501 11.17C59.9101 11.39 59.5701 11.68 59.4001 11.95C59.2701 12.15 59.2301 12.4 59.1101 12.57C58.9601 12.77 58.6701 12.92 58.5001 13.13C58.3601 13.3 58.3201 13.5 58.2101 13.62C58.0601 13.77 57.8401 13.8 57.7201 13.91C57.6601 14.13 57.7401 14.44 57.7801 14.66C58.1101 14.73 58.4201 14.89 58.7601 14.88C59.1701 14.87 59.4801 14.58 59.8601 14.55C60.0101 14.76 60.1101 15.02 60.3101 15.16C60.3301 15.34 60.1101 15.32 60.2201 15.48C59.8201 15.72 59.5201 16.13 59.0101 16.3C58.6301 16.43 58.1401 16.33 57.7701 16.57C57.5101 19.33 56.5101 21.37 53.6401 21.54C53.2301 21.39 52.4801 21.1 52.6601 20.41C52.6601 20.41 52.7401 20.27 52.7601 20.25C53.0301 19.96 53.7001 20.14 54.1601 20.01C55.6901 19.6 56.2801 18.35 56.3101 16.45C55.5101 16.04 54.2001 16.52 53.4801 16.05C52.9001 17.42 51.0401 18.46 49.0601 17.84C48.7301 17.49 48.1801 16.82 48.4101 16.16C48.5301 15.8 48.9601 15.72 49.3201 15.53C49.5001 15.68 49.6801 15.84 49.9401 15.92C51.5801 16.17 52.4901 15.13 52.7401 13.49C52.9701 11.95 52.9601 10.14 52.4801 8.91003C51.5901 8.58003 50.8201 8.86003 49.8801 8.93003C49.8201 8.83003 49.7201 8.77003 49.6501 8.67003C49.7701 7.95003 49.4901 7.21003 49.9401 6.72003C50.0501 6.60003 50.2201 6.59003 50.3901 6.49003C50.8201 6.24003 51.5201 5.70003 52.1501 6.12003C52.2701 6.20003 52.3401 6.35003 52.5101 6.44003C52.6601 6.52003 52.8901 6.58003 53.1001 6.66003C53.5501 6.86003 53.9101 7.02003 54.6601 6.94003C54.7801 6.53003 54.7601 5.96003 54.7201 5.48003C54.1001 5.41003 53.4501 5.31003 52.8701 5.23003C52.6501 5.20003 52.4201 5.23003 52.2501 5.17003C52.0701 5.10003 51.9801 4.90003 51.7901 4.88003C51.6301 4.86003 51.5101 4.99003 51.3701 4.98003C51.1601 4.98003 51.0801 4.86003 50.9101 4.79003C50.6901 4.11003 50.8201 3.12003 51.2001 2.61003C51.3801 2.37003 51.8801 2.04003 52.1801 1.98003C52.4801 1.93003 52.7601 2.09003 53.0601 2.07003C53.2501 2.06003 53.3601 1.94003 53.5801 1.94003C53.7501 2.06003 53.7901 2.43003 53.8401 2.75003C54.0901 3.00003 54.5101 3.07003 54.8501 3.23003C54.8601 2.06003 54.9801 1.01003 55.7001 0.55003C55.8601 0.50003 55.8601 0.63003 56.0001 0.62003C56.1501 0.60003 56.2501 0.37003 56.5201 0.48003C56.7901 0.60003 57.0701 1.67003 57.1101 2.17003C57.1301 2.67003 57.0101 3.17003 57.0401 3.53003Z" fill="#FEFEFE"/>
<path fill-rule="evenodd" clip-rule="evenodd" d="M64.13 8.43006C63.81 7.91006 62.86 8.09005 62.5 8.48005C62.86 9.06005 63.21 9.68005 63.48 10.3601C63.62 10.7101 63.73 11.0601 63.87 11.4001C64.01 11.7301 64.22 12.0201 64.36 12.3401C64.44 12.5201 64.44 12.7701 64.62 12.8901C64.76 11.5301 65.22 10.0501 64.98 8.63006C64.68 8.57006 64.41 8.49006 64.13 8.43006ZM64.78 6.28006C65 6.50006 65.34 6.59005 65.66 6.72006C66.19 6.94005 66.8 7.27006 67.45 7.39006C67.96 7.49006 68.66 7.57006 69.11 7.38006C69.25 7.32006 69.45 7.06006 69.6 7.05006C70.09 7.00006 70.05 7.68006 69.86 7.99006C69.39 8.78006 68.3 9.19006 67.06 9.18006C66.92 9.89006 66.53 10.6801 66.6 11.3901C66.61 11.5101 66.49 11.5001 66.47 11.5901C66.54 12.6601 65.88 13.2801 66.05 14.5501C65.62 15.1001 65.97 15.5801 66.24 16.2401C66.62 17.1501 67.21 18.4201 67.67 19.1601C67.97 19.6401 68.63 20.1401 69.16 20.2901C69.75 20.4601 70.44 20.3301 70.69 19.9901C70.83 19.7901 70.91 19.2301 71.18 19.2301C71.59 19.2301 71.51 20.2901 71.37 20.6601C71.14 21.3001 70.88 21.5301 70.3 21.8101C69.51 22.1801 67.69 22.7201 66.88 22.0001C66.32 21.4901 66.15 20.5501 65.84 19.7301C65.54 18.9201 65.05 18.2801 64.86 17.4301C63.95 17.9701 62.96 18.9101 61.55 19.0801C60.92 19.1601 60.32 18.9501 59.6 18.9601C59.45 18.8401 59.28 18.7401 59.11 18.6401C58.92 18.2701 58.96 17.8401 58.94 17.3401C59.03 17.1601 59.21 17.0901 59.37 16.9801C60.71 17.2801 62.34 17.1201 63.21 16.4001C63.42 16.2301 63.9 15.7001 63.89 15.3901C63.89 15.1801 63.5 14.6501 63.34 14.3201C63.13 13.9201 62.98 13.5601 62.82 13.2201C62.48 12.4701 62.21 11.4701 61.9 10.8801C61.7 10.4801 61.5 10.2001 61.35 9.71006C61.3 9.50006 61.14 9.30006 61.14 9.16006C61.14 8.81005 61.57 8.54006 61.63 8.21006C61.51 8.10006 61.21 8.15005 61.08 7.95006C60.93 7.75006 60.94 7.29006 61.04 7.04006C61.09 6.94006 61.19 6.91006 61.27 6.81006C61.38 6.68006 61.38 6.60006 61.47 6.55006C61.64 6.45006 61.81 6.47006 61.96 6.42006C62.8 6.10006 63.69 4.97006 63.46 3.87005C63.42 3.68005 63.23 3.47006 63.27 3.22006C63.3 2.90006 63.71 2.85006 63.82 2.40006C64.58 2.03006 65.49 2.79006 65.67 3.46006C65.95 4.54006 64.99 5.61006 64.78 6.28006ZM37.86 3.84005C38.5 3.77006 39.2 3.86005 39.87 3.86005C40.04 3.86005 40.22 3.81006 40.39 3.82006C40.62 3.84005 40.84 4.02006 41.11 4.07006C41.46 4.14006 41.95 4.06006 42.41 4.09006C42.94 4.13006 43.35 4.32006 43.78 4.21006C43.89 4.18006 43.95 4.09006 44.07 4.05006C44.19 4.00006 44.32 4.02006 44.43 3.98006C44.79 3.84005 45.31 3.37006 45.96 3.64006C46.28 3.78006 46.65 4.38006 46.48 4.94006C46.39 5.23006 46.06 5.38006 45.89 5.69006C45.45 6.55006 45.68 7.73005 45.4 8.69005C45.39 8.84005 45.31 8.60006 45.27 8.75006C45.27 9.84006 44.59 10.6201 43.77 10.8801C43.61 10.8001 43.37 10.8001 43.21 10.7201C42.79 10.3601 43.16 9.68006 43.28 9.26006C43.55 8.26006 43.33 7.04006 43.51 5.87006C42.4 5.70006 41.15 5.70006 40.06 5.51006C39.7 5.45006 39.34 5.31006 39.02 5.29006C38.29 5.25006 37.65 5.53006 37.07 5.76006C36.55 5.79006 36 5.46006 35.41 5.52006C35.24 5.54006 35.13 5.66006 34.96 5.72006C34.31 5.94005 33.48 6.00006 32.58 6.06006C32.07 6.10006 31.47 6.25006 30.8 6.20006C29.98 6.15005 29.22 5.78006 28.42 5.96006C28.55 7.24006 28.22 9.09006 28.74 10.0901C28.54 10.3201 28.55 10.7401 28.29 10.9101C28.17 11.0001 28.42 11.1001 28.32 11.1701C28.19 11.0601 28 11.2001 27.84 11.1101C27.43 10.6201 26.69 10.0201 26.57 9.14006C26.54 8.93006 26.58 8.72006 26.54 8.49006C26.48 8.16006 26.31 7.83006 26.31 7.48006C26.31 7.32006 26.39 7.16006 26.37 6.99006C26.34 6.38005 25.65 6.03006 25.5 5.40006C25.27 4.52006 25.74 3.52006 26.28 3.18006C26.96 2.74006 28.57 2.69005 28.88 3.62005C29.49 3.68005 29.94 3.76006 30.41 3.93006C30.84 4.08006 31.27 4.39005 31.77 4.41005C32.13 4.42005 32.45 4.28006 32.85 4.27006C33.64 4.26006 34.78 4.29006 35.03 3.77006C35.14 3.54006 35.11 3.21006 35.03 3.05006C34.83 2.65006 34.15 2.79006 34.08 2.31006C34.05 2.10005 34.23 1.75006 34.37 1.56006C34.81 0.960055 35.36 0.470055 36.42 0.860055C36.75 0.990055 37.18 1.22006 37.43 1.41006C38.15 1.94006 38.15 3.07006 37.86 3.84005Z" fill="#FEFEFE"/>
<path fill-rule="evenodd" clip-rule="evenodd" d="M40.72 8.15004C41.22 8.33004 41.26 9.07004 40.92 9.45005C40.46 9.44004 40.19 9.82004 39.75 9.95005C38.54 10.29 36.95 9.78005 35.71 10.11C35.78 11.12 36.19 11.79 36.62 12.45C37.19 12.26 37.62 12.43 38.08 12.7C38.34 12.85 38.45 13.08 38.7 13.09C38.92 13.09 39.14 12.88 39.35 12.76C39.95 12.42 40.47 11.95 40.88 11.38C40.77 11.16 40.8 10.78 40.91 10.6C41.4 10.55 41.5 10.13 42.08 10.24C42.56 10.33 43.4 11.23 43.28 12.09C43.21 12.56 42.87 12.55 42.47 12.75C42.08 12.94 41.82 13.37 41.4 13.51C41.18 14.04 40.23 14.13 39.8 14.56C39.88 15.06 40.24 15.47 40.55 15.89C41.15 16.71 41.77 17.52 42.41 18.32C42.82 18.83 43.16 19.35 43.68 19.64C44.33 20.01 45.59 20.41 46.48 19.91C46.66 19.81 46.86 19.39 47.07 19.39C47.36 19.39 47.65 20 47.59 20.43C47.56 20.62 47.4 20.77 47.23 20.95C46.86 21.37 46.22 22.04 45.48 22.1C45.31 22.11 45.12 22.04 44.96 22.04C44.59 22.03 44.26 22.14 43.92 22.14C43.68 22.14 43.47 21.98 43.21 22.05C42.91 21.81 42.46 21.76 42.16 21.51C41.93 21.31 41.8 20.94 41.61 20.66C41.41 20.37 41.21 20.08 41.02 19.85C40.4 19.11 39.83 18.3 39.26 17.46C38.72 16.66 38.01 15.91 37.6 14.97C38.03 16.83 37.6 18.7 36.91 19.92C36.19 21.19 35.1 22.2 33.66 22.54C33.29 22.35 32.9 21.93 33.08 21.37C33.11 21.27 33.23 21.19 33.4 21.04C33.6 20.87 33.67 20.67 33.99 20.68C35.15 19.53 36.38 17.74 35.75 15.49C35.47 15.69 35.22 16.01 34.97 16.31C34.71 16.61 34.49 16.92 34.29 17.26C33.72 17.51 33.23 17.97 32.66 18.37C31.61 19.11 30.38 19.76 29.08 20.28C28.15 20.65 27.26 21.18 25.96 21.02C25.65 20.98 24.89 20.22 24.95 19.79C24.98 19.6 25.33 19.29 25.54 19.23C25.77 19.16 26.05 19.22 26.29 19.19C27 19.11 27.49 18.85 28.08 18.66C29.35 18.25 30.5 18.01 31.56 17.27C31.9 17.03 32.22 16.72 32.54 16.45C32.85 16.18 33.22 15.91 33.49 15.6C33.8 15.24 34.03 14.83 34.3 14.45C34.52 14.15 35.05 13.75 34.82 13.21C34.48 13.21 34.2 13.39 33.94 13.61C33.79 13.74 33.72 13.93 33.58 14.07C33.42 14.22 33.1 14.33 32.83 14.5C32.58 14.65 32.35 14.89 32.15 14.99C32.04 15.05 31.91 15.04 31.79 15.09C31.39 15.27 31 15.56 30.59 15.78C29.77 16.23 29.04 16.67 28.02 17C27.32 17.23 26.52 17.27 25.87 17.21C25.62 17.01 25.27 16.93 25.12 16.66C24.89 16.23 25.17 15.9 25.51 15.58C27.01 15.63 28.15 15.09 29.22 14.61C29.76 14.37 30.33 14.22 30.75 13.98C31.09 13.8 31.41 13.52 31.76 13.32C32.11 13.12 32.52 12.94 32.83 12.73C33.04 12.58 33.2 12.34 33.38 12.14C33.57 11.94 33.79 11.76 33.87 11.52C33.82 11.36 33.74 11.22 33.67 11.06C32.83 11.29 32.13 12.01 31.36 12.41C30.63 12.79 29.79 13.18 28.89 13.44C28.16 13.65 27.59 13.8 26.84 13.65C26.11 13.5 25.45 13.26 25.51 12.29C25.74 12.02 26.09 11.87 26.35 11.63C28.71 11.82 31.11 11.27 32.31 9.99005C31.95 9.98004 31.59 9.69005 31.17 9.64005C30.99 9.62005 30.79 9.70005 30.62 9.64005C29.78 9.36005 30.46 8.31005 30.75 7.75005C31.12 7.68005 31.46 7.38005 31.85 7.32005C32.31 7.25005 32.67 7.51005 33.15 7.50005C33.33 7.73005 33.51 7.97005 33.74 8.15004C34.4 8.22005 35.17 8.51005 36 8.51005C36.36 8.51005 36.7 8.40005 37.07 8.37005C37.6 8.32004 38.19 8.33004 38.7 8.36004C39 8.37005 39.3 8.49005 39.58 8.48004C39.99 8.46004 40.37 8.18005 40.72 8.15004ZM100.05 6.33005C100.05 7.01005 99.85 7.74005 99.81 8.36004C99.77 8.89005 99.89 9.53005 99.84 10.04C99.82 10.28 99.73 10.5 99.7 10.74C99.62 11.41 99.67 12.05 99.56 12.7C99.47 13.27 99.36 13.94 99.21 14.49C99.12 14.81 98.91 15.1 98.72 15.41C98.31 16.08 98.1 16.48 97.53 17.03C97.29 17.27 97.07 17.57 96.83 17.77C96.53 18.02 95.75 18.62 95.25 18.59C94.69 18.57 94.29 17.97 94.06 17.44C93.97 17.23 93.87 16.97 93.92 16.81C94.01 16.52 94.45 16.62 94.59 16.32C94.93 16.28 95.38 16.27 95.68 16.14C96.7 15.69 97.71 14.56 97.95 13.18C98.22 11.69 98.42 9.96005 98.27 8.35005C98.19 7.46005 97.67 6.67005 97.36 6.01005C97.09 4.57005 97.89 3.45005 98.76 3.06005C99.65 2.66005 100.1 3.83005 100.62 4.06005C100.87 4.18005 101.34 4.16005 101.74 4.26005C101.92 4.31005 102.08 4.44005 102.23 4.47005C102.58 4.55005 103.04 4.47005 103.42 4.49005C103.91 4.54005 104.35 4.65005 104.82 4.38005C104.98 4.29005 105.14 3.91005 105.45 4.03005C105.64 4.10005 105.68 4.63005 105.59 4.90005C105.55 5.04005 105.37 5.15005 105.21 5.32005C105.06 5.47005 104.98 5.68005 104.86 5.78005C104.75 5.87005 104.53 5.96005 104.37 6.06005C104.07 6.26005 103.82 6.45005 103.32 6.49005C102.18 6.58004 101.09 6.29005 100.05 6.33005Z" fill="#FEFEFE"/>
<path fill-rule="evenodd" clip-rule="evenodd" d="M111.14 6.57004C111.08 7.70004 111.13 8.74004 110.93 9.76004C111.24 9.85004 111.57 9.92004 111.91 10C112.64 10.15 113.13 10.21 113.77 9.98004C113.77 9.56004 113.97 9.18004 113.95 8.76004C113.92 8.40004 113.73 8.04004 113.7 7.64004C113.67 7.17004 113.77 6.93004 113.8 6.62004C112.83 6.62004 111.92 6.39004 111.14 6.57004ZM115.74 6.64004C115.77 7.00004 115.58 7.35004 115.56 7.73004C115.54 8.03004 115.71 8.36004 115.74 8.71004C115.77 9.18004 115.66 9.63004 115.67 10.14C115.94 10.19 116.2 10.38 116.65 10.41C117.38 10.46 118.22 9.90004 118.36 10.71C118.46 11.27 117.97 11.68 117.55 11.84C117.03 12.04 116.27 11.98 115.63 12.07C115.42 14.84 115.57 18.1 115.63 21C115.64 21.69 115.9 22.66 115.7 23.17C115.6 23.44 114.78 23.77 114.4 23.6C114.04 23.44 114.14 22.77 114.05 22.2C114 21.91 113.91 21.69 113.91 21.5C113.91 21.3 113.98 21.04 113.98 20.9C113.98 20.68 113.9 20.47 113.87 20.24C113.84 19.87 113.9 19.47 113.91 19.05C113.91 18.27 113.8 17.41 113.8 16.57C113.8 15.69 113.63 14.82 113.7 14.08C113.76 13.33 113.93 12.6 113.73 11.91C112.72 11.91 112 11.62 111 11.61C110.52 13.16 110.42 15.02 109.67 16.35C109.55 16.56 109.39 16.74 109.25 16.95C109.12 17.15 109.03 17.42 108.9 17.58C108.21 18.42 107.2 19.05 105.85 19.36C105.21 19.5 104.62 19.53 104.13 19.16C103.78 18.9 103.61 18.34 103.64 17.83C103.88 17.43 104.39 17.71 104.9 17.72C105.5 17.73 105.96 17.55 106.41 17.36C106.59 17.28 106.61 17.12 106.83 17.15C107.03 16.93 107.36 16.86 107.57 16.66C107.81 16.41 108.01 15.96 108.23 15.6C108.86 14.59 108.97 13.26 109.18 11.71C108.94 11.69 108.78 11.73 108.58 11.72C108.25 11.69 107.92 11.47 107.6 11.48C107.16 11.5 106.98 12.13 106.48 11.98C106.25 11.89 106.12 11.17 106.14 10.77C106.17 10.01 107.1 8.85004 107.92 8.86004C108.42 8.87004 108.77 9.22004 109.18 9.55004C109.4 8.66004 109.44 7.15004 109 6.43004C108.49 6.28004 107.96 6.13004 107.54 5.86004C107.02 6.11004 106.36 6.23004 106.21 5.52004C106.12 5.12004 106.24 4.12004 106.42 3.94004C106.7 3.66004 107.08 3.11004 107.54 3.02004C108.01 2.92004 108.34 3.08004 108.84 3.15004C109.33 4.11004 110.84 4.03004 111.85 4.46004C112.56 4.13004 113.38 4.55004 114.19 4.55004C114.49 4.55004 114.79 4.46004 115.1 4.48004C115.84 4.52004 116.54 4.73004 117.16 4.61004C117.47 4.55004 117.79 4.27004 118.07 4.25004C118.45 4.23004 118.67 4.52004 118.77 4.80004C118.38 6.02004 117.37 6.64004 115.74 6.64004Z" fill="#FEFEFE"/>
<path fill-rule="evenodd" clip-rule="evenodd" d="M102.36 11.67C102.24 12.52 102.09 13.33 101.98 14.09C102.43 14.28 103.16 14.42 103.7 14.22C103.77 13.39 103.83 12.55 103.84 11.66C103.34 11.67 102.84 11.67 102.36 11.67ZM100.71 16.31C99.99 15.78 100.57 14.84 100.75 14.17C100.9 13.56 101 12.6 100.85 11.93C100.79 11.63 100.57 11.41 100.5 11.05C100.28 9.83002 100.86 8.93002 101.62 8.80002C102.41 8.66002 102.61 9.26002 102.91 9.70002C103.42 9.82002 103.7 10.03 104.17 9.83002C104.56 9.67002 104.64 9.17002 105.01 9.16002C105.28 9.16002 105.4 9.39002 105.57 9.61002C105.66 10.39 105.35 11.12 105.33 11.82C105.32 12.02 105.39 12.22 105.36 12.41C105.34 12.57 105.2 12.67 105.15 12.83C105.1 13 105.09 13.3 105.05 13.53C105.01 13.77 104.91 14.04 104.91 14.16C104.9 14.51 105.07 14.79 104.98 15.07C104.89 15.35 104.58 15.58 104.32 15.67C103.51 15.96 102.23 15.71 101.41 15.94C101.11 16.04 101 16.23 100.71 16.31ZM83.86 5.13002C83.4 5.59002 83.08 6.19002 82.81 6.86002C83.41 7.25002 84.69 7.36002 85.51 7.07002C85.8 6.41002 85.36 5.78002 84.92 5.55002C84.98 5.40002 85.03 5.25002 85.01 5.03002C84.6 5.02002 84.2 5.04002 83.86 5.13002ZM85.1 3.27002C85.56 3.42002 86.07 3.63002 86.6 3.65002C87.17 3.67002 87.67 3.48002 88.19 3.48002C88.67 3.48002 89.15 3.58002 89.59 3.70002C90.67 3.98002 92.07 3.93002 93.11 4.20002C93.38 4.10002 93.78 3.96002 94.05 3.97002C94.41 3.73002 94.66 3.38002 95.03 3.15002C95.35 3.33002 95.37 3.70002 95.32 4.03002C94.69 4.98002 93.61 5.61002 92.13 5.78002C91.43 5.86002 90.93 5.66002 90.31 5.53002C89.72 5.41002 89.11 5.38002 88.68 5.15002C88.19 5.23002 87.62 5.01002 87.15 5.16002C87.32 5.50002 87.28 5.74002 87.31 6.17002C87.32 6.29002 87.41 6.42002 87.41 6.53002C87.42 7.25002 86.71 8.38002 86.08 8.62002C85.66 8.78002 84.8 8.92002 84.29 8.96002C83.8 9.00002 83.24 8.97002 82.76 8.94002C82.47 8.92002 82.2 8.78002 81.91 8.75002C81.37 8.70002 80.86 9.12002 80.38 9.05002C80.25 9.03002 80.05 8.91002 79.86 8.83002C79.33 8.60002 78.86 8.06002 79.34 7.40002C79.43 7.32002 79.56 7.33002 79.7 7.36002C80.47 6.86002 81.14 6.25002 81.55 5.39002C81.1 5.36002 80.69 5.63002 80.25 5.66002C79.39 5.72002 78.49 5.40002 77.61 5.38002C77.26 5.38002 76.97 5.54002 76.63 5.62002C75.54 5.86002 74.56 5.34002 73.7 5.09002C73.4 5.18002 72.59 5.69002 72.37 5.42002C72.27 5.30002 72.34 5.14002 72.34 4.93002C72.33 4.66002 72.22 4.28002 72.28 3.98002C72.32 3.75002 72.6 3.37002 72.77 3.17002C73.09 2.78002 73.62 2.28002 74.27 2.31002C74.52 2.32002 74.74 2.51002 75.01 2.60002C75.22 2.67002 75.44 2.63002 75.6 2.69002C75.89 2.81002 76.07 3.17002 76.35 3.27002C76.86 3.33002 77.32 3.26002 77.81 3.29002C78.74 3.36002 79.5 3.82002 80.51 3.83002C81.32 3.83002 82.49 3.93002 82.53 3.10002C82.48 2.91002 82.17 2.80002 82.13 2.55002C82.08 2.26002 82.24 1.83002 82.33 1.67002C82.88 0.620022 85.08 0.870022 85.23 2.20002C85.26 2.50002 85.19 2.82002 85.1 3.27002ZM81.85 14.61C81.82 14.86 81.78 15.08 81.75 15.33C82.12 15.42 82.55 15.44 82.99 15.46C83.76 15.49 84.55 15.53 85.14 15.51C85.2 15.17 85.14 14.77 85.14 14.47C84.02 14.69 82.73 13.89 81.85 14.61ZM81.91 12.59C82.42 12.88 83.15 12.7 83.8 12.77C84.2 12.81 84.73 13.07 85.2 12.92C85.18 12.57 85.37 12.13 85.4 11.72C84.13 11.68 82.98 11.35 81.66 11.49C81.77 11.83 81.85 12.2 81.91 12.59ZM85.33 17.09C84.82 17.28 84.04 17.07 83.32 17.07C82.95 17.07 82.59 17.23 82.28 17.24C82.02 17.25 81.75 17.11 81.53 17.21C81.42 17.26 81.1 17.78 80.98 18C80.8 18.32 80.68 18.78 80.52 19.04C80.26 19.49 79.64 20.24 79.25 20.55C79.09 20.67 78.93 20.76 78.76 20.91C78.48 21.17 78.21 21.43 77.79 21.54C77.46 21.62 76.99 21.65 76.68 21.48C76.58 21.43 76.16 20.96 76.16 20.73C76.16 20.22 77.06 20.14 77.46 19.94C77.81 19.77 78.15 19.47 78.47 19.18C79.14 18.59 79.39 17.85 79.71 16.89C79.85 16.47 80.09 16.03 80.17 15.62C80.3 14.92 80.27 14.12 80.23 13.44C80.21 13.04 80.08 12.65 79.94 12.33C79.7 11.81 78.97 11.14 79.42 10.35C79.56 10.1 80.43 9.32002 80.72 9.27002C81.2 9.18002 81.83 9.43002 82.31 9.55002C82.83 9.69002 83.38 9.73002 83.91 9.80002C85.01 9.94002 86.06 10.63 86.57 9.55002C86.93 9.61002 87.06 8.87002 87.58 9.02002C87.98 9.13002 87.87 10.52 87.75 10.88C87.69 11.04 87.55 11.18 87.49 11.34C87.36 11.66 87.37 12.03 87.26 12.38C87.2 12.58 87.06 12.78 87 13C86.86 13.51 86.89 14.2 86.93 14.89C87.01 16 86.91 17.18 86.9 18.21C86.89 18.46 86.99 18.74 87 19.02C87 19.24 86.94 19.49 86.93 19.73C86.92 20.26 87.04 20.81 87.06 21.29C87.07 21.55 87.02 21.77 87.03 21.97C87.03 22.3 87.1 22.55 87.03 22.75C86.93 23.02 86.54 23.27 86.22 23.25C85.37 23.19 85.33 21.23 85.27 20.26C85.2 19.16 85.27 18.17 85.33 17.09ZM149.51 13.29C149.61 13.27 149.58 13.39 149.7 13.35C149.94 13.24 150.13 12.91 150.39 12.7C150.46 12.64 150.56 12.63 150.62 12.57C151.3 11.9 151.22 10.36 150.39 9.90002C150.18 10.08 149.63 10.12 149.32 10.01C149.1 11.18 149.06 12.37 149.19 13.55C149.32 13.48 149.34 13.3 149.51 13.29ZM149.58 5.51002C149.19 6.25002 149.59 7.21002 149.38 8.15002C150.07 7.94002 150.41 7.20002 150.78 6.67002C151.02 6.34002 151.25 6.07002 151.24 5.60002C150.67 5.71002 150.08 5.57002 149.58 5.51002ZM162.27 4.35002C162.76 4.56002 163.2 4.41002 163.76 4.50002C164.09 4.55002 164.46 4.67002 164.84 4.72002C165.23 4.78002 165.67 4.97002 165.91 4.94002C166.26 4.89002 166.4 4.43002 166.69 4.31002C167.28 4.08002 167.67 4.69002 167.9 4.92002C167.85 5.78002 167.84 6.60002 167.77 7.45002C167.73 7.98002 167.73 8.74002 167.54 9.21002C167.43 9.49002 167.19 9.73002 167.05 9.99002C166.9 10.26 166.74 10.52 166.47 10.65H165.98C165.85 10.55 165.73 10.43 165.62 10.29C165.42 9.61002 165.78 9.14002 165.88 8.63002C166.03 7.84002 165.88 7.03002 165.75 6.29002C163.97 6.20002 162.36 6.21002 160.64 6.16002C160.11 6.15002 159.59 6.29002 159.05 6.34002C158.91 6.35002 158.77 6.30002 158.63 6.31002C158.38 6.32002 158.15 6.45002 157.88 6.48002C157.39 6.53002 156.89 6.46002 156.38 6.46002C156.33 7.11002 156.11 7.92002 156.12 8.68002C156.12 9.17002 156.37 9.55002 156.31 9.92002C156.3 10.02 156.26 9.96002 156.18 10.08C155.99 10.37 155.73 11.3 155.11 11C154.96 10.93 154.65 10.22 154.56 9.96002C154.41 9.56002 154.34 9.06002 154.3 8.63002C154.18 7.35002 154.1 6.23002 154.2 5.12002C153.69 5.53002 153.38 6.41002 152.77 6.82002C152.58 7.22002 152.36 7.59002 151.99 7.80002C151.97 7.97002 151.97 8.17002 151.8 8.19002C152.16 8.61002 152.63 8.91002 152.8 9.52002C152.7 10.12 152.98 10.75 152.9 11.57C152.8 12.67 151.99 13.5 151.24 14.09C151 14.28 150.66 14.57 150.43 14.65C149.98 14.79 149.58 14.69 149.16 14.85C149.17 15.32 149.02 15.82 149.03 16.35C149.04 16.61 149.14 16.89 149.13 17.13C149.12 17.28 148.99 17.42 148.97 17.59C148.79 18.73 148.98 20.11 148.97 21.27C148.96 21.93 148.85 22.87 148.38 22.93C148.16 22.96 147.87 22.8 147.7 22.61C146.83 21.65 146.94 19.98 146.95 18.13C146.95 17.35 147.06 16.58 147.05 15.92C147.05 15.78 146.99 15.64 146.99 15.53C146.99 14.79 147.16 13.99 147.18 13.19C147.2 12.63 147.05 12.07 147.08 11.5C147.14 10.32 147.27 9.15002 147.27 8.05002C147.28 7.15002 146.99 6.19002 147.34 5.51002C147.04 5.41002 146.87 5.16002 146.66 4.96002C146.38 4.15002 146.73 3.39002 147.01 2.87002C147.68 2.46002 148.27 1.84002 149.42 2.10002C150.2 2.39002 150.61 3.17002 151.3 3.62002C151.53 3.77002 151.95 3.99002 152.21 3.97002C152.72 3.94002 153.13 3.00002 153.81 3.01002C154.19 3.02002 154.8 3.78002 154.66 4.34002C155.07 3.93002 155.68 3.28002 156.71 3.48002C157.02 3.85002 157.68 4.42002 158.5 4.44002C159.1 4.46002 160.09 4.37002 160.13 3.75002C159.7 3.47002 159.12 3.32002 159.12 2.75002C159.12 2.17002 159.68 2.09002 159.84 1.58002C160.01 1.52002 160.14 1.40002 160.3 1.32002C160.56 1.18002 161.33 1.30002 161.6 1.41002C161.94 1.55002 162.42 2.18002 162.51 2.64002C162.61 3.20002 162.37 3.80002 162.27 4.35002Z" fill="#FEFEFE"/>
<path fill-rule="evenodd" clip-rule="evenodd" d="M157.81 7.60004C158.53 7.44004 159.02 7.79004 159.63 7.84004C160.3 8.27004 161.22 8.35004 162.3 8.34004C162.64 8.34004 162.99 8.26004 163.24 8.17004C163.53 8.07004 163.75 7.85004 164.03 7.83004C164.41 7.82004 164.74 8.05004 164.84 8.19004C164.95 8.35004 165.04 8.70004 165 8.90004C164.92 9.41004 164.21 9.64004 163.47 9.76004C162.82 9.86004 161.97 9.97004 161.35 10C160.83 10.02 160.27 10.07 159.86 10.04C159.28 10.01 158.6 9.94004 157.94 10.09C157.68 10.15 157.49 10.31 157.22 10.26C157.02 10.22 156.69 9.93004 156.64 9.74004C156.52 9.33004 156.78 8.54004 156.96 8.24004C157.14 7.97004 157.59 7.73004 157.81 7.60004ZM165.46 11.84C165.53 12.31 165.21 12.39 165.13 12.72C164.84 12.79 164.65 13.05 164.35 13.19C163.89 13.39 163.33 13.3 162.79 13.46C162.5 14.3 162.75 15.68 162.46 16.52C162.89 16.96 163.49 17.24 164.05 17.55C164.1 17.64 164.19 17.67 164.22 17.78C164.88 18.05 165.87 18.77 166.75 18.91C167.23 18.97 167.85 19.04 168.35 18.9C168.97 18.72 168.69 17.77 169.32 17.56C169.87 18.13 169.63 19.54 169.13 20.13C168.95 20.34 168.44 20.68 168.15 20.86C167.89 21.02 167.53 21.19 167.21 21.32C166.78 21.5 166.43 21.8 166.01 21.75C165.4 21.68 164.95 20.84 164.51 20.46C164.26 20.24 163.95 20.1 163.67 19.91C163.38 19.72 163.16 19.43 162.92 19.26C162.79 19.17 162.51 19.1 162.3 18.97C162 18.79 161.8 18.6 161.45 18.52C161.01 18.42 160.55 18.5 160.05 18.4C159.67 17.83 160.1 17.25 160.31 16.77C160.7 15.85 160.6 14.7 160.63 13.58C160.39 13.51 159.63 13.3 159.3 13.46C159.09 13.56 158.84 14.34 158.71 14.57C158.56 14.83 158.32 15.1 158.13 15.39C157.94 15.67 157.8 15.99 157.61 16.27C157.43 16.53 157.18 16.77 156.96 17.02C156.36 17.71 155.81 18.37 155.04 18.86C154.54 19.04 154.04 19.22 153.48 19.33C153.34 19.22 153.34 18.97 153.09 19.14C152.97 18.93 152.79 18.8 152.6 18.68C152.65 18.46 152.48 18.45 152.41 18.36C152.51 18.09 152.83 18.04 152.8 17.64C152.96 17.56 153.08 17.44 153.22 17.35C154.14 17.34 155.12 16.63 155.76 16.06C155.98 15.87 156.21 15.73 156.41 15.56C156.63 15.38 156.76 15.09 156.97 14.84C157.32 14.4 157.73 14.15 157.85 13.53C157.13 13.33 156.32 14.13 155.74 13.55C155.59 13.4 155.24 12.72 155.32 12.28C155.36 12.04 155.65 11.62 155.87 11.43C156.29 11.07 157.26 10.71 157.89 10.93C158.09 11 158.27 11.24 158.48 11.32C158.71 11.4 159.05 11.39 159.36 11.45C160.56 11.66 162.26 11.75 163.56 11.58C163.98 11.52 164.48 11.35 164.79 11.41C165.03 11.43 165.23 11.71 165.46 11.84ZM131.55 1.18004C131.82 1.18004 132.09 1.18004 132.37 1.17004C133.43 1.37004 134.01 1.95004 133.96 3.21004C133.95 3.46004 133.85 3.68004 133.86 3.92004C134.95 4.24004 136.19 4.08004 137.44 4.22004C137.95 4.28004 138.56 4.29004 139.13 4.40004C139.38 4.45004 139.69 4.52004 139.97 4.53004C140.29 4.54004 140.65 4.60004 140.82 4.56004C141.1 4.49004 141 4.37004 141.18 4.17004C141.61 3.67004 142.56 4.01004 142.71 4.52004C142.66 5.35004 142.2 6.08004 142 7.00004C141.8 7.87004 141.56 8.77004 141.31 9.48004C141.22 9.76004 141.09 9.99004 140.86 10.17C140.77 10.46 140.57 10.64 140.24 10.69C140.19 10.56 139.97 10.66 139.88 10.6C139.87 10.59 139.85 10.44 139.82 10.4C139.76 10.34 139.65 10.34 139.63 10.31C139 9.53004 139.6 8.89004 139.8 7.97004C139.93 7.32004 140.03 6.74004 139.99 6.12004C138.83 5.90004 137.25 5.86004 135.96 5.99004C135.85 6.74004 135.88 7.74004 135.6 8.27004C136.5 8.69004 137.74 8.21004 138.66 8.31004C138.76 8.76004 138.29 9.35004 137.94 9.55004C137.66 9.71004 137.2 9.93004 136.83 9.98004C136.08 10.09 135.12 9.81004 134.29 9.84004C133.92 9.85004 133.63 9.99004 133.32 9.98004C132.83 9.95004 131.96 9.65004 131.92 9.24004C131.89 8.94004 132.2 8.80004 132.28 8.62004C132.35 8.47004 132.42 8.12004 132.67 8.03004C132.92 7.94004 133.13 8.08004 133.38 7.96004C133.91 7.70004 134.14 6.63004 133.87 6.00004C133.42 5.81004 132.72 5.89004 132.21 5.98004C131.88 5.89004 131.53 5.88004 131.2 5.95004C130.99 6.43004 131.07 6.89004 130.98 7.35004C130.89 7.79004 130.61 8.13004 130.46 8.49004C130 9.57004 129.12 10.31 127.57 10.2C127.22 10.17 126.5 10.14 126.36 9.95004C126.03 9.49004 125.88 8.59004 126.59 8.35004C127.1 8.18004 127.68 8.50004 128.21 8.47004C128.65 8.44004 129.1 8.19004 129.29 7.74004C129.4 7.47004 129.63 6.63004 129.35 6.31004C129.1 6.03004 127.77 6.26004 127.23 6.19004C126.57 6.11004 125.92 5.98004 125.28 5.82004C125.49 6.42004 125.39 7.14004 125.38 7.93004C125.37 8.54004 125.39 9.29004 125.67 9.62004C126.03 10.03 125.19 10.63 124.73 10.6C124.34 10.57 124.02 10.21 123.75 9.76004C123.49 9.35004 123.33 8.88004 123.26 8.40004C123.18 7.84004 123.22 7.24004 123.1 6.71004C122.98 6.21004 122.66 5.80004 122.61 5.35004C122.56 4.88004 122.64 4.41004 122.84 3.98004C122.99 3.64004 123.27 3.17004 123.49 3.00004C123.87 2.72004 124.65 2.53004 125.28 2.67004C126.06 2.84004 126.4 3.69004 127.07 3.89004C127.77 4.09004 128.87 4.00004 129.64 4.16004C129.96 4.23004 130.23 4.51004 130.55 4.48004C130.97 4.43004 131.17 3.95004 131.33 3.56004C131 3.27004 130.43 3.35004 130.35 2.85004C130.25 2.15004 130.94 1.31004 131.55 1.18004Z" fill="#FEFEFE"/>
<path fill-rule="evenodd" clip-rule="evenodd" d="M132.39 12.98C132.87 13.28 133.83 13.18 134.6 13.29C134.84 13.33 135.14 13.45 135.28 13.41C135.5 13.35 135.5 12.99 135.8 13.11C136.12 12.77 136.39 12.01 137.04 12.09C137.24 12.12 137.55 12.51 137.59 12.74C137.65 13.12 137.34 13.41 137.19 13.75C136.97 14.29 136.91 14.99 136.74 15.64C136.7 15.82 136.5 16.01 136.48 16.23C136.41 16.9 136.09 17.88 136.25 18.32C136.37 18.64 136.69 18.61 136.83 18.9C137.43 19.18 138.17 19.6 139.01 19.9C139.81 20.18 140.78 20.5 141.58 20.5C141.85 20.5 142.21 20.46 142.46 20.36C142.59 20.31 142.63 20.19 142.75 20.13C142.86 20.08 143.02 20.09 143.14 20.03C143.34 19.93 143.67 19.6 143.79 19.38C143.91 19.15 143.86 18.53 144.12 18.5C144.44 18.47 144.47 19.53 144.41 20C144.3 20.86 143.49 21.96 142.85 22.39C142.53 22.59 142.11 22.73 141.65 22.89C141.24 23.03 140.77 23.31 140.32 23.25C139.87 23.2 139.16 22.46 138.76 22.26C138.33 22.04 137.86 21.93 137.43 21.65C136.33 20.94 134.34 20.1 134.21 18.52C134.13 17.48 134.36 16.46 134.66 15.65C134.75 15.43 134.95 15.22 134.83 14.94C133.98 14.94 132.58 15.07 131.6 14.93C131.22 15.57 131.06 16.27 130.66 16.86C130.48 17.12 130.2 17.34 129.98 17.61C129.76 17.87 129.59 18.2 129.36 18.43C128.79 18.99 127.56 19.48 126.66 19.69C125.92 19.86 125.1 19.97 124.29 20.04C123.55 20.09 122.83 20.11 122.34 19.89C121.93 19.71 121.61 19.54 121.43 19.08C121.24 18.61 121.21 17.75 121.85 17.84C121.75 17.51 122.48 17.15 122.92 17.44C123.05 17.53 123.05 17.73 123.18 17.83C123.38 17.98 123.58 17.9 123.73 18.05C124.14 17.9 124.61 18.07 125.09 18.04C125.25 18.03 125.41 17.93 125.58 17.91C125.93 17.87 126.35 17.88 126.75 17.81C127.17 17.73 127.47 17.62 127.63 17.31C127.99 17.19 128.21 16.96 128.51 16.68C128.67 16.53 128.88 16.39 128.97 16.26C129.06 16.12 129.06 15.94 129.13 15.8C129.3 15.48 129.61 15.23 129.65 14.86C129.42 14.81 129.22 14.75 129 14.76C128.59 14.78 128.12 15 127.76 14.96C127.59 14.94 127.46 14.78 127.3 14.74C126.97 14.63 126.62 14.69 126.33 14.52C125.73 14.78 124.8 14.53 125.13 13.78C124.34 13.29 125.24 12.33 125.74 12.05C126.1 11.85 126.81 11.7 127.37 11.85C127.73 11.94 127.9 12.27 128.31 12.46C128.97 12.76 129.81 12.45 130.36 12.71C130.35 12.44 130.38 12.22 130.3 12.06C130.09 11.64 129.29 11.74 129.22 11.25C129.2 11.09 129.29 10.9 129.42 10.73C129.65 10.41 129.98 10.05 130.3 9.84C130.38 9.78 131.08 9.83 131.34 9.9C131.97 10.06 132.64 10.84 132.64 11.48C132.64 11.65 132.54 11.79 132.51 11.97C132.46 12.27 132.51 12.64 132.39 12.98Z" fill="#FEFEFE"/>
</g>
<defs>
<clipPath id="clip0_324_1486">
<rect width="183" height="63" fill="white"/>
</clipPath>
</defs>
</svg>
