<svg xmlns="http://www.w3.org/2000/svg" width="294.822" height="53.557" viewBox="0 0 294.822 53.557"><g transform="translate(-261.891 -29.653)"><path d="M18.579-6.7V-17.556h.132A41.432,41.432,0,0,0,24.453-6.7Zm-10.23,0A40.7,40.7,0,0,0,14.19-17.556h.231V-6.7ZM31.02-17.556v-3.993H18.579v-6.369H14.421v6.369H2.046v3.993h8.085C8.085-12.573,4.719-7.854.891-5.214a17.762,17.762,0,0,1,2.871,3.2,27.587,27.587,0,0,0,3.729-3.63v2.937h6.93V2.871h4.158V-2.706h6.8V-5.577a22.609,22.609,0,0,0,3.5,3.4,16.151,16.151,0,0,1,3.1-3.432c-3.861-2.607-7.194-7.128-9.273-11.946ZM51.579-2.376V-13.86H62.337v-3.894H51.579V-27.885H47.355v10.131H36.762v3.894H47.355V-2.376H34.617V1.485h29.9V-2.376ZM91.9-18.315a37.2,37.2,0,0,1-1.749,7.689,40.934,40.934,0,0,1-2.013-7.689ZM79.992-14.586l-.693.2H76.56a18.739,18.739,0,0,0,1.551-1.683h4.62a16.915,16.915,0,0,1-1.584,2.409Zm-4.257-7.062h2.178a21.375,21.375,0,0,1-1.65,2.211h-.528Zm22.176,3.333v-3.63H89.133c.462-1.716.858-3.564,1.188-5.379l-3.993-.627a40.291,40.291,0,0,1-3.2,11.121v-2.607H80.784a35.549,35.549,0,0,0,3.63-6.633l-3.6-1.056a28.916,28.916,0,0,1-2.145,4.29v-2.112H75.735v-3h-3.63v3H68.343v3.3h3.762v2.211H67.089v3.366h5.874a28.226,28.226,0,0,1-6.27,4.125A24.005,24.005,0,0,1,69.3-8.976,30.658,30.658,0,0,0,73-11.352h3.432a24.244,24.244,0,0,1-2.739,2.31v1.815c-2.508.231-4.818.4-6.666.561l.4,3.5c1.815-.2,3.993-.4,6.27-.627V-.957c0,.33-.132.429-.561.462-.429,0-1.848,0-3.135-.033a11.359,11.359,0,0,1,1.122,3.333A12.147,12.147,0,0,0,75.9,2.244c1.155-.528,1.452-1.419,1.452-3.135V-4.158c1.914-.165,3.861-.363,5.775-.561V-8.052l-5.775.5v-.825a32.939,32.939,0,0,0,4.554-4.257,23.229,23.229,0,0,1,2.178,2.046c.528-.693,1.023-1.485,1.518-2.277A41.552,41.552,0,0,0,87.846-6.2a16.56,16.56,0,0,1-7.1,5.643A16.488,16.488,0,0,1,83,3a21.933,21.933,0,0,0,7-5.412,17.659,17.659,0,0,0,5.544,5.28A15.342,15.342,0,0,1,98.241-.561,15.252,15.252,0,0,1,92.4-6.039a37.99,37.99,0,0,0,3.564-12.276Zm11.583-.792c1.089-.792,2.178-1.65,3.3-2.607h7.029l-1.32.792c.627.462,1.287.99,1.98,1.518Zm20.592-6.039H116.424q.842-.842,1.584-1.683l-3.993-1.518a31.925,31.925,0,0,1-2.805,3.2H100.848v3.432h6.666a17.577,17.577,0,0,1-1.485,1.188,7.879,7.879,0,0,1-2.97,1.617c.4,1.023.99,2.838,1.188,3.6,1.419-.5,3.366-.528,19.47-1.155.627.627,1.188,1.221,1.617,1.749H104.511V-9.5c0,3.135-.264,7.392-2.97,10.428a14.075,14.075,0,0,1,3.234,2.31c3-3.432,3.6-8.811,3.6-12.672v-2.046h14.751v4.917l-2.574.4,1.023-2.145a48.519,48.519,0,0,0-11.253-2.706l-1.155,2.343a51.551,51.551,0,0,1,10.362,2.673c-4.29.66-8.382,1.254-11.121,1.617L109.56-.924c3.828-.792,8.712-1.782,13.563-2.838v2.376c0,.528-.2.693-.858.726-.561.033-3.267.033-5.082-.1a12.26,12.26,0,0,1,.924,3.333c3.2,0,5.61.033,7.161-.429,1.584-.5,2.145-1.353,2.145-3.465v-13.4h-1.386l3-1.881a40.635,40.635,0,0,0-5.808-5.115h6.864Zm12.507-1.188h-8.448v2.871h8.448ZM141.5-6.468h14.289v1.485H141.5Zm0-3.63h14.289v1.419H141.5Zm0-3.63h14.289v1.419H141.5ZM159.786-2.673v-13.4H137.709v13.4h4.752A37.631,37.631,0,0,1,133.452.066a26.554,26.554,0,0,1,2.9,2.871,42.823,42.823,0,0,0,10.3-4.29l-2.871-1.32h9.306l-2.013,1.617a60.748,60.748,0,0,1,8.58,3.894L163.185.726c-1.947-.957-5.181-2.277-8.217-3.4ZM154.077-22.44v-.66h3.663a19.516,19.516,0,0,1-1.155,1.914l3.036,1.122a28.91,28.91,0,0,0,3.036-5.214l-2.673-.825-.594.165h-9.372c.2-.462.4-.957.561-1.452l-3.432-.759a13.282,13.282,0,0,1-3.861,5.874,18.843,18.843,0,0,1,2.9,2.013A14.406,14.406,0,0,0,148.5-23.1h1.98v.5c0,1.221-.825,2.706-7.128,3.366v-2.013h-9.966v3h8.745a11.113,11.113,0,0,1,1.32,2.145c5.544-.627,8.283-1.914,9.537-3.366,2.079,1.815,4.95,2.871,8.646,3.333a12.722,12.722,0,0,1,2.178-3.135c-4.455-.231-7.953-1.056-9.735-2.805Zm21.252-2.046c-1.254-.891-3.828-2.31-5.478-3.234l-2.244,2.838a62.707,62.707,0,0,1,5.346,3.531Zm-1.584,8.679c-1.32-.858-3.828-2.211-5.511-3.036l-2.211,2.805a61.321,61.321,0,0,1,5.346,3.4Zm-2.706,5.544A94.059,94.059,0,0,1,166.419.33l3.6,2.112c1.452-3.267,3-7.029,4.257-10.56ZM181.467-6.7a23.434,23.434,0,0,1-3.4,5.907,20.818,20.818,0,0,1,3.069,1.914,42.235,42.235,0,0,0,3.8-6.8Zm2.9-5.94h7.623v1.848h-7.623Zm0-4.455h7.623v1.815h-7.623Zm11.253,9.108V-19.9h-6.3c.429-.693.858-1.419,1.287-2.145l-3.7-.66h9.669v-3.531H175.956v9.108c0,5.346-.33,12.837-4.026,17.919a16.6,16.6,0,0,1,3.3,2.112c3.927-5.478,4.521-14.19,4.521-20.031V-22.7h6.369a21.466,21.466,0,0,1-.792,2.8h-4.422V-7.986h5.214V-.957c0,.363-.132.462-.495.462-.4,0-1.716,0-2.871-.033a15.231,15.231,0,0,1,1.023,3.366,11.139,11.139,0,0,0,4.686-.561c1.155-.528,1.419-1.452,1.419-3.135V-7.986Zm-4.818,2.244a63.671,63.671,0,0,1,2.97,6.567l3.63-1.584c-.693-1.617-2.145-4.29-3.2-6.27Zm17.787-20.592h-8.448v2.871h8.448ZM207.5-6.468h14.289v1.485H207.5Zm0-3.63h14.289v1.419H207.5Zm0-3.63h14.289v1.419H207.5ZM225.786-2.673v-13.4H203.709v13.4h4.752A37.631,37.631,0,0,1,199.452.066a26.554,26.554,0,0,1,2.9,2.871,42.823,42.823,0,0,0,10.3-4.29l-2.871-1.32h9.306l-2.013,1.617a60.748,60.748,0,0,1,8.58,3.894L229.185.726c-1.947-.957-5.181-2.277-8.217-3.4ZM220.077-22.44v-.66h3.663a19.516,19.516,0,0,1-1.155,1.914l3.036,1.122a28.91,28.91,0,0,0,3.036-5.214l-2.673-.825-.594.165h-9.372c.2-.462.4-.957.561-1.452l-3.432-.759a13.282,13.282,0,0,1-3.861,5.874,18.843,18.843,0,0,1,2.9,2.013A14.406,14.406,0,0,0,214.5-23.1h1.98v.5c0,1.221-.825,2.706-7.128,3.366v-2.013h-9.966v3h8.745a11.113,11.113,0,0,1,1.32,2.145c5.544-.627,8.283-1.914,9.537-3.366,2.079,1.815,4.95,2.871,8.646,3.333a12.722,12.722,0,0,1,2.178-3.135c-4.455-.231-7.953-1.056-9.735-2.805Zm34.65.264a24.8,24.8,0,0,0-5.247-3.993l-1.881,2.64a26.55,26.55,0,0,1,5.115,4.29Zm-8.646,6.963a27.863,27.863,0,0,1,5.412,4.092l1.98-3.135a28.988,28.988,0,0,0-5.544-3.8Zm-2.97-10.857a50.86,50.86,0,0,1-1.848,7.656l2.508.693c.825-1.914,1.782-5.016,2.64-7.656Zm-6.369,7.722a30.387,30.387,0,0,0-1.716-7.557l-2.739.693a31.459,31.459,0,0,1,1.518,7.623Zm4.191,7.227v-2.244h4.884v-3.663h-4.884V-27.951H237.3v10.923H232.32v3.663H237.3v2.046l-2.277-.792a18.427,18.427,0,0,1-3.2,7.194,31.054,31.054,0,0,1,1.782,4.686c1.716-1.914,2.937-5.379,3.7-8.679V2.871h3.63V-8.547a57.162,57.162,0,0,1,2.178,5.511l2.706-2.937c-.495-1.023-2.97-5.148-3.63-6.039ZM263.175-6.8l-.594-3.663-3.366.627v-18.15h-3.7v18.81l-9.8,1.749.594,3.663,9.207-1.65v8.25h3.7v-8.91Zm8.25-15.279h24.024v-3.3H284.46c-.4-.891-.891-1.815-1.353-2.64l-3.762.99c.264.462.561,1.056.825,1.65H267.663v10.692c0,4.62-.2,10.956-2.9,15.312a12.254,12.254,0,0,1,3.135,2.211c3.036-4.752,3.531-12.309,3.531-17.523Zm5.61,14.289v-1.65h4.224v1.65Zm0-5.511h4.224v1.617h-4.224Zm12.441,0v1.617h-4.455V-13.3Zm0,5.511h-4.455v-1.65h4.455Zm6.237,3.96H285.021V-5.379h8.085V-15.708h-8.085v-1.386h9.57v-2.937h-9.57v-1.518h-3.762v1.518h-8.613v2.937h8.613v1.386H273.6V-5.379h7.656v1.551h-9.966V-.66h9.966V2.673h3.762V-.66h10.692Z" transform="translate(261 58)"/><path d="M1.365,0h2.22V-4.8h4.2V0h2.2V-11.1h-2.2v4.365h-4.2V-11.1H1.365Zm14.61.21a4.093,4.093,0,0,0,4.035-4.4A4.1,4.1,0,0,0,15.975-8.61,4.1,4.1,0,0,0,11.94-4.185,4.093,4.093,0,0,0,15.975.21Zm0-1.8c-1.14,0-1.785-1.02-1.785-2.6s.645-2.625,1.785-2.625S17.76-5.775,17.76-4.185,17.115-1.59,15.975-1.59ZM21.78,0h2.19V-5.775a2.451,2.451,0,0,1,1.62-.945c.795,0,1.17.465,1.17,1.755V0h2.205V-5.775a2.451,2.451,0,0,1,1.62-.945c.8,0,1.17.465,1.17,1.755V0h2.2V-5.235c0-2.115-.825-3.375-2.61-3.375a3.725,3.725,0,0,0-2.67,1.47,2.286,2.286,0,0,0-2.31-1.47,3.537,3.537,0,0,0-2.58,1.335h-.06L23.58-8.4h-1.8ZM39.81.21a5.3,5.3,0,0,0,2.94-.93L42-2.07a3.462,3.462,0,0,1-1.89.585,2.207,2.207,0,0,1-2.325-2.1H42.96a4.1,4.1,0,0,0,.105-1.005c0-2.325-1.2-4.02-3.51-4.02A4.112,4.112,0,0,0,35.64-4.185,4.07,4.07,0,0,0,39.81.21ZM37.755-5.04a1.894,1.894,0,0,1,1.83-1.86c1.08,0,1.59.72,1.59,1.86ZM46.875.21a3,3,0,0,0,1.14-.2l-.27-1.635a1.243,1.243,0,0,1-.3.03c-.21,0-.45-.165-.45-.66v-9.72h-2.19v9.615C44.805-.8,45.345.21,46.875.21Zm4.65,0A3.95,3.95,0,0,0,54.06-.9H54.1l.165.9h1.8V-4.905c0-2.43-1.095-3.7-3.225-3.7a6.711,6.711,0,0,0-3.51,1.11l.8,1.455a4.746,4.746,0,0,1,2.31-.8c1.035,0,1.395.63,1.425,1.455-3.375.36-4.83,1.3-4.83,3.105A2.386,2.386,0,0,0,51.525.21Zm.72-1.725c-.645,0-1.11-.285-1.11-.945,0-.75.69-1.305,2.73-1.575v1.7A2.227,2.227,0,0,1,52.245-1.515Zm6,1.515h2.19V-5.775A2.413,2.413,0,0,1,62.19-6.72c.825,0,1.185.465,1.185,1.755V0H65.58V-5.235c0-2.115-.78-3.375-2.6-3.375a3.872,3.872,0,0,0-2.73,1.32h-.06l-.15-1.11h-1.8ZM70.74.21A3.484,3.484,0,0,0,73.065-.87h.045l.18.87h1.785V-11.97H72.87v2.955l.09,1.32a2.891,2.891,0,0,0-2.13-.915c-1.815,0-3.525,1.68-3.525,4.425S68.655.21,70.74.21Zm.57-1.815c-1.11,0-1.74-.87-1.74-2.61,0-1.68.795-2.58,1.74-2.58a2.232,2.232,0,0,1,1.56.63v3.69A1.869,1.869,0,0,1,71.31-1.605ZM80.88,0h6.975V-1.86H83.1V-4.83H87V-6.69H83.1V-9.255h4.59V-11.1H80.88ZM92.625.21A3.484,3.484,0,0,0,94.95-.87H95l.18.87H96.96V-11.97H94.755v2.955l.09,1.32a2.891,2.891,0,0,0-2.13-.915c-1.815,0-3.525,1.68-3.525,4.425S90.54.21,92.625.21Zm.57-1.815c-1.11,0-1.74-.87-1.74-2.61,0-1.68.795-2.58,1.74-2.58a2.232,2.232,0,0,1,1.56.63v3.69A1.869,1.869,0,0,1,93.195-1.605ZM101.745.21A3.376,3.376,0,0,0,104.43-1.2h.06l.165,1.2h1.8V-8.4H104.25v5.67a2.024,2.024,0,0,1-1.71,1.05c-.81,0-1.17-.45-1.17-1.755V-8.4H99.165v5.25C99.165-1.05,99.945.21,101.745.21Zm10.56,0A4.167,4.167,0,0,0,115.05-.81l-.87-1.455a2.608,2.608,0,0,1-1.635.675c-1.215,0-2.085-1.02-2.085-2.6s.87-2.625,2.145-2.625a1.918,1.918,0,0,1,1.29.555l1.05-1.425a3.672,3.672,0,0,0-2.445-.93,4.194,4.194,0,0,0-4.29,4.425C108.21-1.41,109.98.21,112.305.21Zm6.15,0A3.95,3.95,0,0,0,120.99-.9h.045l.165.9H123V-4.905c0-2.43-1.1-3.7-3.225-3.7a6.71,6.71,0,0,0-3.51,1.11l.795,1.455a4.746,4.746,0,0,1,2.31-.8c1.035,0,1.4.63,1.425,1.455-3.375.36-4.83,1.3-4.83,3.105A2.386,2.386,0,0,0,118.455.21Zm.72-1.725c-.645,0-1.11-.285-1.11-.945,0-.75.69-1.305,2.73-1.575v1.7A2.227,2.227,0,0,1,119.175-1.515ZM127.965.21a5.428,5.428,0,0,0,1.77-.315l-.36-1.605a2.454,2.454,0,0,1-.825.18c-.75,0-1.14-.45-1.14-1.41V-6.66h2.07V-8.4h-2.07v-2.25h-1.845L125.31-8.4l-1.29.1V-6.66h1.185v3.72C125.205-1.05,125.97.21,127.965.21Zm3.15-.21h2.19V-8.4h-2.19Zm1.11-9.75a1.221,1.221,0,0,0,1.305-1.2,1.2,1.2,0,0,0-1.305-1.2,1.208,1.208,0,0,0-1.32,1.2A1.226,1.226,0,0,0,132.225-9.75ZM139.11.21a4.093,4.093,0,0,0,4.035-4.4A4.1,4.1,0,0,0,139.11-8.61a4.1,4.1,0,0,0-4.035,4.425A4.093,4.093,0,0,0,139.11.21Zm0-1.8c-1.14,0-1.785-1.02-1.785-2.6s.645-2.625,1.785-2.625S140.9-5.775,140.9-4.185,140.25-1.59,139.11-1.59Zm5.8,1.59h2.19V-5.775a2.413,2.413,0,0,1,1.755-.945c.825,0,1.185.465,1.185,1.755V0h2.205V-5.235c0-2.115-.78-3.375-2.6-3.375a3.872,3.872,0,0,0-2.73,1.32h-.06l-.15-1.11h-1.8Zm15.27-9.345h1.44c1.425,0,2.205.4,2.205,1.6s-.78,1.785-2.205,1.785h-1.44ZM166.485,0l-2.6-4.545a3.177,3.177,0,0,0,2.115-3.2c0-2.55-1.845-3.36-4.17-3.36h-3.87V0h2.22V-4.2h1.545L164.01,0Zm4.92.21a5.3,5.3,0,0,0,2.94-.93l-.75-1.35a3.462,3.462,0,0,1-1.89.585,2.207,2.207,0,0,1-2.325-2.1h5.175a4.1,4.1,0,0,0,.105-1.005c0-2.325-1.2-4.02-3.51-4.02a4.112,4.112,0,0,0-3.915,4.425A4.07,4.07,0,0,0,171.405.21ZM169.35-5.04a1.894,1.894,0,0,1,1.83-1.86c1.08,0,1.59.72,1.59,1.86ZM178.8.21c2.19,0,3.345-1.185,3.345-2.655,0-1.56-1.23-2.115-2.34-2.535-.885-.33-1.71-.555-1.71-1.17,0-.48.36-.81,1.11-.81a3.234,3.234,0,0,1,1.815.72l.99-1.335a4.7,4.7,0,0,0-2.865-1.035c-1.89,0-3.12,1.065-3.12,2.58,0,1.395,1.23,2.04,2.295,2.445.885.345,1.755.63,1.755,1.26,0,.525-.375.885-1.215.885a3.647,3.647,0,0,1-2.25-.915l-1.005,1.38A5.293,5.293,0,0,0,178.8.21Zm8.46,0a4.093,4.093,0,0,0,4.035-4.4A4.1,4.1,0,0,0,187.26-8.61a4.1,4.1,0,0,0-4.035,4.425A4.093,4.093,0,0,0,187.26.21Zm0-1.8c-1.14,0-1.785-1.02-1.785-2.6s.645-2.625,1.785-2.625,1.785,1.035,1.785,2.625S188.4-1.59,187.26-1.59Zm8.295,1.8A3.376,3.376,0,0,0,198.24-1.2h.06l.165,1.2h1.8V-8.4h-2.2v5.67a2.024,2.024,0,0,1-1.71,1.05c-.81,0-1.17-.45-1.17-1.755V-8.4h-2.205v5.25C192.975-1.05,193.755.21,195.555.21Zm6.99-.21h2.19V-5.01c.48-1.215,1.275-1.65,1.935-1.65a2.647,2.647,0,0,1,.87.135l.39-1.9a2.376,2.376,0,0,0-.99-.18,2.91,2.91,0,0,0-2.385,1.695h-.06l-.15-1.485h-1.8ZM212.4.21a4.167,4.167,0,0,0,2.745-1.02l-.87-1.455a2.608,2.608,0,0,1-1.635.675c-1.215,0-2.085-1.02-2.085-2.6s.87-2.625,2.145-2.625a1.918,1.918,0,0,1,1.29.555l1.05-1.425a3.672,3.672,0,0,0-2.445-.93,4.194,4.194,0,0,0-4.29,4.425C208.305-1.41,210.075.21,212.4.21Zm7.455,0a5.3,5.3,0,0,0,2.94-.93l-.75-1.35a3.462,3.462,0,0,1-1.89.585,2.207,2.207,0,0,1-2.325-2.1h5.175a4.1,4.1,0,0,0,.105-1.005c0-2.325-1.2-4.02-3.51-4.02a4.112,4.112,0,0,0-3.915,4.425A4.07,4.07,0,0,0,219.855.21ZM217.8-5.04a1.894,1.894,0,0,1,1.83-1.86c1.08,0,1.59.72,1.59,1.86ZM228.36,0h3.165c3.27,0,5.37-1.86,5.37-5.6s-2.1-5.505-5.49-5.505H228.36Zm2.22-1.785V-9.33h.69c2.07,0,3.36,1.02,3.36,3.735s-1.29,3.81-3.36,3.81Zm10.3,2A3.95,3.95,0,0,0,243.42-.9h.045l.165.9h1.8V-4.905c0-2.43-1.1-3.7-3.225-3.7A6.71,6.71,0,0,0,238.7-7.5l.795,1.455a4.746,4.746,0,0,1,2.31-.8c1.035,0,1.4.63,1.425,1.455-3.375.36-4.83,1.3-4.83,3.105A2.386,2.386,0,0,0,240.885.21Zm.72-1.725c-.645,0-1.11-.285-1.11-.945,0-.75.69-1.305,2.73-1.575v1.7A2.227,2.227,0,0,1,241.605-1.515ZM250.4.21a5.428,5.428,0,0,0,1.77-.315l-.36-1.605a2.454,2.454,0,0,1-.825.18c-.75,0-1.14-.45-1.14-1.41V-6.66h2.07V-8.4h-2.07v-2.25H248L247.74-8.4l-1.29.1V-6.66h1.185v3.72C247.635-1.05,248.4.21,250.4.21Zm4.875,0A3.95,3.95,0,0,0,257.805-.9h.045l.165.9h1.8V-4.905c0-2.43-1.1-3.7-3.225-3.7a6.71,6.71,0,0,0-3.51,1.11l.795,1.455a4.746,4.746,0,0,1,2.31-.8c1.035,0,1.395.63,1.425,1.455-3.375.36-4.83,1.3-4.83,3.105A2.386,2.386,0,0,0,255.27.21Zm.72-1.725c-.645,0-1.11-.285-1.11-.945,0-.75.69-1.305,2.73-1.575v1.7A2.227,2.227,0,0,1,255.99-1.515ZM266.205.21c1.845,0,3.57-1.665,3.57-4.56,0-2.565-1.245-4.26-3.315-4.26a3.584,3.584,0,0,0-2.325,1l.045-1.35V-11.97h-2.19V0h1.725l.2-.885h.045A3.268,3.268,0,0,0,266.205.21Zm-.495-1.815a2.322,2.322,0,0,1-1.53-.63v-3.69a2.368,2.368,0,0,1,1.665-.87c1.155,0,1.665.885,1.665,2.49C267.51-2.475,266.73-1.605,265.71-1.605ZM273.435.21A3.95,3.95,0,0,0,275.97-.9h.045l.165.9h1.8V-4.905c0-2.43-1.1-3.7-3.225-3.7a6.71,6.71,0,0,0-3.51,1.11l.795,1.455a4.746,4.746,0,0,1,2.31-.8c1.035,0,1.395.63,1.425,1.455-3.375.36-4.83,1.3-4.83,3.105A2.386,2.386,0,0,0,273.435.21Zm.72-1.725c-.645,0-1.11-.285-1.11-.945,0-.75.69-1.305,2.73-1.575v1.7A2.227,2.227,0,0,1,274.155-1.515Zm8.4,1.725c2.19,0,3.345-1.185,3.345-2.655,0-1.56-1.23-2.115-2.34-2.535-.885-.33-1.71-.555-1.71-1.17,0-.48.36-.81,1.11-.81a3.234,3.234,0,0,1,1.815.72l.99-1.335A4.7,4.7,0,0,0,282.9-8.61c-1.89,0-3.12,1.065-3.12,2.58,0,1.395,1.23,2.04,2.3,2.445.885.345,1.755.63,1.755,1.26,0,.525-.375.885-1.215.885a3.647,3.647,0,0,1-2.25-.915l-1,1.38A5.293,5.293,0,0,0,282.555.21Zm8.6,0a5.3,5.3,0,0,0,2.94-.93l-.75-1.35a3.462,3.462,0,0,1-1.89.585,2.207,2.207,0,0,1-2.325-2.1H294.3a4.1,4.1,0,0,0,.1-1.005c0-2.325-1.2-4.02-3.51-4.02a4.112,4.112,0,0,0-3.915,4.425A4.07,4.07,0,0,0,291.15.21ZM289.1-5.04a1.894,1.894,0,0,1,1.83-1.86c1.08,0,1.59.72,1.59,1.86Z" transform="translate(261 83)"/></g></svg>