<?xml version="1.0" encoding="utf-8"?>
<!-- Generator: Adobe Illustrator 26.3.1, SVG Export Plug-In . SVG Version: 6.00 Build 0)  -->
<svg version="1.2" baseProfile="tiny"
	 id="svg8" xmlns:dc="http://purl.org/dc/elements/1.1/" xmlns:cc="http://creativecommons.org/ns#" xmlns:svg="http://www.w3.org/2000/svg" xmlns:rdf="http://www.w3.org/1999/02/22-rdf-syntax-ns#"
	 xmlns="http://www.w3.org/2000/svg" xmlns:xlink="http://www.w3.org/1999/xlink" x="0px" y="0px" viewBox="0 0 175.7 89.6"
	 overflow="visible" xml:space="preserve">
<g id="layer1_1_" transform="translate(-25.348717,-38.291849)">
	<path id="path23_1_" fill="#FFFFFF" d="M115.8,92.8c-5.5-1.4-9.5-3.1-15.8-6.8c-3.1-1.8-3.1-1.8-11.2-1
		c-14.1,1.5-30.6-1.2-44.9-7.2c-12.8-5.4-23.3-12.5-12.5-8.4c14.2,5.4,25.5,6.3,36.6,2.9c9.7-2.9,17.8-6.4,28.5-12.5
		c30.4-17.2,40.2-20.7,57.6-20.5c11,0.1,20,2.2,29.8,7c6.9,3.4,15.8,9,15.3,9.6c-0.2,0.2-3-0.3-6.3-1.2c-20-5.1-35.6-1.3-60.9,14.5
		c-10.6,6.6-15.9,9.3-22.7,11.7c-4.8,1.6-5.1,1.8-3.4,2.5c1,0.4,4.3,1.1,7.2,1.5c10.1,1.5,19.9-1,32.7-8.6
		c9.1-5.4,14.1-7.6,19.7-8.7c8.7-1.7,19,0.6,29.1,6.6c5.7,3.4,5.6,4.2-0.3,2.5c-8.3-2.5-16.4-0.9-27.7,5.3
		c-19.5,10.8-23.9,12.3-37,12.2C124.2,94.2,119.7,93.7,115.8,92.8L115.8,92.8z"/>
</g>
<g>
	<path fill="#FFFFFF" d="M3.6,82V59.9h19.7v2.6H8.1v7h14.4v2.6H8.1V82H3.6z"/>
	<path fill="#FFFFFF" d="M28,82V59.1h4.4V82H28z"/>
	<path fill="#FFFFFF" d="M58.8,66.3l-10.3,17c-1.1,1.8-2.6,3.2-4.3,4.1s-3.8,1.4-6.3,1.7l-1-2.4c2.1-0.3,3.6-0.8,4.7-1.3
		c1.1-0.5,1.9-1.3,2.6-2.4l0.8-1.3l-9.2-15.4h4.7l6.9,12.2l7-12.2H58.8z"/>
	<path fill="#FFFFFF" d="M66.1,81.6c-2-0.5-3.7-1.1-5.2-2.1l1.6-2.4c1.5,0.9,3.1,1.5,4.7,1.9c1.6,0.4,3.5,0.6,5.5,0.6
		c2.3,0,4.1-0.3,5.4-0.9c1.3-0.6,1.9-1.5,1.9-2.6c0-1-0.6-1.7-1.8-2.2c-1.2-0.5-3.1-0.9-5.7-1.4c-2.5-0.4-4.5-0.8-6.1-1.3
		s-2.8-1.1-3.7-2c-0.9-0.8-1.4-1.9-1.4-3.2s0.5-2.4,1.4-3.4c1-1,2.3-1.8,4.1-2.3c1.8-0.6,3.8-0.8,6.1-0.8c2.2,0,4.2,0.2,6.1,0.7
		c1.9,0.5,3.5,1.2,4.8,2l-1.6,2.4c-1.4-0.9-2.9-1.5-4.4-1.9c-1.5-0.4-3.1-0.6-4.8-0.6c-2.2,0-4,0.3-5.3,1C66.6,63.9,66,64.8,66,66
		c0,1,0.6,1.8,1.7,2.3c1.1,0.5,2.9,1,5.4,1.4c2.6,0.4,4.7,0.9,6.3,1.3s2.9,1.1,3.8,1.9c1,0.8,1.4,1.8,1.4,3.1c0,1.3-0.5,2.4-1.4,3.4
		c-1,1-2.3,1.7-4.1,2.2c-1.8,0.5-3.9,0.8-6.3,0.8C70.3,82.3,68.1,82.1,66.1,81.6z"/>
	<path fill="#FFFFFF" d="M109.4,72.3V82H105v-9.6c0-1.4-0.4-2.4-1.1-3c-0.7-0.6-1.9-0.9-3.6-0.9c-1.9,0-3.4,0.4-4.5,1.2
		s-1.7,1.9-1.7,3.3V82h-4.4V59.1h4.4v9.7c0.7-0.9,1.7-1.6,3-2.1c1.3-0.5,2.7-0.7,4.3-0.7C106.8,66,109.4,68.1,109.4,72.3z"/>
	<path fill="#FFFFFF" d="M134.4,74.3h-15.7c0.1,3.7,2.5,5.5,7,5.5c2.5,0,4.8-0.6,6.9-1.8l1.4,2.2c-1,0.6-2.2,1.1-3.8,1.5
		c-1.5,0.4-3.1,0.5-4.6,0.5c-3.5,0-6.3-0.7-8.3-2.2c-2-1.4-3-3.4-3-5.9c0-1.6,0.4-3,1.3-4.3c0.9-1.2,2.1-2.2,3.7-2.9
		c1.6-0.7,3.4-1,5.5-1c3,0,5.3,0.7,7,2.1c1.7,1.4,2.6,3.3,2.6,5.7V74.3z M120.9,69.4c-1,0.7-1.7,1.7-2,3h11.6
		c-0.2-1.3-0.7-2.3-1.7-3c-1-0.7-2.3-1-3.9-1C123.3,68.3,121.9,68.7,120.9,69.4z"/>
	<path fill="#FFFFFF" d="M158.3,74.3h-15.7c0.1,3.7,2.5,5.5,7,5.5c2.5,0,4.8-0.6,6.9-1.8l1.4,2.2c-1,0.6-2.2,1.1-3.8,1.5
		c-1.5,0.4-3.1,0.5-4.6,0.5c-3.5,0-6.3-0.7-8.3-2.2c-2-1.4-3-3.4-3-5.9c0-1.6,0.4-3,1.3-4.3c0.9-1.2,2.1-2.2,3.7-2.9
		c1.6-0.7,3.4-1,5.5-1c3,0,5.3,0.7,7,2.1c1.7,1.4,2.6,3.3,2.6,5.7V74.3z M144.7,69.4c-1,0.7-1.7,1.7-2,3h11.6
		c-0.2-1.3-0.7-2.3-1.7-3c-1-0.7-2.3-1-3.9-1C147.1,68.3,145.8,68.7,144.7,69.4z"/>
	<path fill="#FFFFFF" d="M168.8,68.8v7.9c0,1.1,0.3,1.8,1,2.3c0.7,0.4,1.6,0.7,2.7,0.7c0.8,0,1.5-0.1,2.3-0.2v2.6
		c-1,0.2-2.1,0.3-3.3,0.3c-2.3,0-4-0.5-5.3-1.4c-1.3-0.9-1.9-2.2-1.9-4v-8.1h-4.3v-2.4h4.3v-3.9l4.4-1.1v5h6.1v2.4H168.8z"/>
</g>
</svg>
