<svg width="118" height="40" viewBox="0 0 118 40" fill="none" xmlns="http://www.w3.org/2000/svg">
<path fill-rule="evenodd" clip-rule="evenodd" d="M0.713973 25.8461C0.713973 22.604 0.733271 23.7684 0.720405 22.0251C0.720405 21.6777 0.746136 21.5748 0.816895 21.5748C0.887653 21.5748 1.04204 21.7742 1.13209 21.8643C1.26718 22.0187 2.60516 23.466 3.98818 24.9455C4.87588 25.8975 5.86007 26.9911 6.1431 27.2934L6.04661 22.7263C6.04018 22.1409 5.97585 21.9415 5.69925 21.8707C5.5706 21.845 5.44195 21.8257 5.31329 21.8257C5.2168 21.8257 5.18464 21.8 5.18464 21.7614C5.18464 21.7099 5.2554 21.697 5.36476 21.697C5.77001 21.697 6.201 21.7228 6.29749 21.7228C6.39397 21.7228 6.69631 21.697 7.06297 21.697C7.15946 21.697 7.22378 21.7035 7.22378 21.7614C7.22378 21.8 7.18519 21.8128 7.12729 21.8257C7.05653 21.8321 6.99864 21.845 6.89572 21.8643C6.64485 21.9158 6.58052 22.0508 6.58052 22.6748L6.56122 27.9238C6.56122 28.5156 6.54192 28.5607 6.48403 28.5607C6.41327 28.5607 6.30392 28.4642 5.8279 27.9882C5.73141 27.8981 4.43203 26.5794 3.48 25.5566C2.68879 24.7011 1.91044 23.8455 1.13853 22.9771L1.25431 27.2806C1.27361 28.0203 1.36367 28.2519 1.60811 28.3226C1.78179 28.3677 1.97477 28.3741 2.05839 28.3741C2.10342 28.3741 2.12915 28.3934 2.12915 28.4256C2.12915 28.477 2.07769 28.4963 1.96833 28.4963C1.46016 28.4963 1.09993 28.4706 1.01631 28.4706C0.932682 28.4706 0.55959 28.4963 0.154335 28.4963C0.0642783 28.4963 0.0128174 28.4899 0.0128174 28.4256C0.0128174 28.387 0.0385478 28.3741 0.0835762 28.3741C0.154335 28.3741 0.31515 28.3677 0.450235 28.3226C0.675377 28.2583 0.720405 28.001 0.720405 27.1841C0.713973 27.1776 0.713973 25.8461 0.713973 25.8461ZM11.1863 25.994C11.2249 25.994 11.2249 25.9683 11.212 25.9426L10.5044 23.9549C10.4594 23.8262 10.453 23.8262 10.4079 23.9549L9.7325 25.9426C9.71321 25.9747 9.7325 25.994 9.7518 25.994H11.1863ZM9.66174 26.3092C9.61672 26.3092 9.59099 26.335 9.57169 26.38L9.1793 27.5057C9.08924 27.7566 9.02491 28.001 9.02491 28.1425C9.02491 28.3033 9.1214 28.3741 9.32082 28.3741H9.38514C9.46877 28.3741 9.4945 28.3998 9.4945 28.4384C9.4945 28.4835 9.42374 28.5028 9.35941 28.5028C9.16 28.5028 8.74831 28.477 8.65182 28.477C8.56177 28.477 8.16938 28.5028 7.78985 28.5028C7.69336 28.5028 7.64833 28.4835 7.64833 28.4384C7.64833 28.3998 7.68693 28.3741 7.75769 28.3741C7.80272 28.3741 7.88634 28.3741 7.9378 28.3677C8.32376 28.3291 8.47814 28.0332 8.63253 27.6601L10.4272 22.9257C10.5237 22.6684 10.5559 22.6233 10.6138 22.6233C10.6588 22.6233 10.6974 22.6619 10.7939 22.9128C10.9225 23.2087 12.1447 26.3478 12.6207 27.4671C12.9166 28.1747 13.1804 28.2905 13.3026 28.3355C13.4184 28.3805 13.547 28.3805 13.6049 28.3805C13.6693 28.3805 13.7143 28.3998 13.7143 28.4449C13.7143 28.4899 13.6757 28.5092 13.5792 28.5092C13.4892 28.5092 12.8137 28.5092 12.2155 28.4899C12.0418 28.4835 11.9904 28.4706 11.9904 28.4256C11.9904 28.3998 12.0161 28.3741 12.0547 28.3612C12.0933 28.3419 12.1447 28.2969 12.0933 28.1618L11.3857 26.3543C11.3664 26.3285 11.3471 26.3092 11.3149 26.3092C11.2956 26.3092 9.66174 26.3092 9.66174 26.3092ZM16.2423 26.2771C16.2423 26.9718 16.2487 27.6086 16.2873 27.9367C16.3131 28.1554 16.3324 28.2776 16.5575 28.3291C16.6669 28.3548 16.8341 28.3677 16.9113 28.3677C16.9821 28.3677 17.0207 28.3934 17.0207 28.4191C17.0207 28.4642 16.9949 28.4899 16.9049 28.4899C16.4482 28.4899 15.9142 28.4642 15.8821 28.4642C15.8435 28.4642 15.316 28.4899 15.0844 28.4899C14.988 28.4899 14.9494 28.4706 14.9494 28.4256C14.9494 28.3998 14.9751 28.3612 15.0458 28.3612C15.1166 28.3612 15.1745 28.3612 15.2453 28.3548C15.4189 28.3291 15.4447 28.2197 15.4768 27.911C15.509 27.5893 15.509 26.9396 15.509 26.2642V23.0543C15.2131 23.0543 14.7371 23.0543 14.3769 23.0608C13.8043 23.0672 13.6757 23.1573 13.5535 23.3502C13.4699 23.4725 13.4377 23.5818 13.4184 23.6268C13.3927 23.6912 13.3734 23.6976 13.3348 23.6976C13.2962 23.6976 13.2897 23.659 13.2897 23.614C13.2833 23.5625 13.4184 22.9643 13.4699 22.7263C13.4956 22.6169 13.5213 22.5848 13.5535 22.5848C13.6178 22.5848 13.7851 22.6684 13.9459 22.6812C14.2611 22.7198 14.5119 22.7263 14.5184 22.7263H17.4645C17.7154 22.7263 17.9856 22.707 18.1142 22.6812C18.23 22.6555 18.2557 22.6426 18.2879 22.6426C18.3265 22.6426 18.3393 22.6877 18.3393 22.7263C18.3393 22.9771 18.32 23.5689 18.32 23.6461C18.32 23.7298 18.2815 23.7555 18.2557 23.7555C18.2107 23.7555 18.1914 23.7169 18.1914 23.6461C18.1914 23.6204 18.1914 23.6075 18.185 23.5175C18.1464 23.1573 18.0306 23.0672 17.1236 23.0608C16.7827 23.0608 16.5061 23.0543 16.2423 23.0543V26.2771ZM19.9282 24.9327C19.9282 23.7491 19.9282 23.5303 19.9089 23.2859C19.8896 23.0415 19.8381 22.9064 19.6452 22.8742C19.5551 22.8549 19.4908 22.8549 19.4393 22.8485C19.375 22.8421 19.3428 22.8228 19.3428 22.7842C19.3428 22.7391 19.3814 22.7198 19.4779 22.7198C19.7545 22.7198 20.2691 22.7456 20.2949 22.7456C20.3335 22.7456 20.8545 22.7198 21.1054 22.7198C21.1954 22.7198 21.2405 22.7391 21.2405 22.7842C21.2405 22.8228 21.2147 22.8356 21.144 22.8485C21.0925 22.8549 21.0475 22.8549 20.9832 22.8678C20.7258 22.9064 20.6937 23.0415 20.6808 23.2988C20.6615 23.5432 20.6744 23.7491 20.6744 24.9327V26.2835C20.6744 26.9782 20.668 27.6022 20.713 27.9303C20.7516 28.1876 20.7837 28.2905 21.0217 28.3419C21.1375 28.3677 21.3241 28.3805 21.3627 28.3805C21.4463 28.387 21.4592 28.4063 21.4592 28.4449C21.4592 28.4835 21.4206 28.5092 21.3305 28.5092C20.8738 28.5092 20.3528 28.4835 20.3077 28.4835C20.282 28.4835 19.7481 28.5092 19.4972 28.5092C19.4136 28.5092 19.3557 28.4899 19.3557 28.4449C19.3557 28.4063 19.3943 28.3805 19.4715 28.3805C19.5165 28.3805 19.613 28.3741 19.6902 28.3548C19.8446 28.3162 19.8703 28.1361 19.896 27.9238C19.9411 27.6022 19.9411 26.9654 19.9411 26.2899L19.9282 24.9327ZM27.6666 25.7046C27.6666 23.897 26.5538 22.8935 25.3187 22.8935C24.0708 22.8935 23.0609 23.6654 23.0609 25.3636C23.0609 27.1262 24.0386 28.2905 25.5503 28.2905C26.155 28.2905 27.6666 27.9882 27.6666 25.7046ZM22.2311 25.5952C22.2311 24.3987 23.1574 22.6105 25.3766 22.6105C27.1585 22.6105 28.5093 23.6719 28.5093 25.4794C28.5093 27.1969 27.2421 28.5992 25.3316 28.5992C23.1252 28.5992 22.2311 26.9654 22.2311 25.5952ZM29.9631 22.9836C29.9631 22.707 29.9888 22.6169 30.0596 22.6169C30.1239 22.6169 30.2783 22.797 30.3362 22.8614C30.4198 22.9514 31.6677 24.2251 32.9221 25.5116C33.6232 26.1934 34.5238 27.1197 34.7554 27.332L34.6589 23.5947C34.6525 23.1122 34.5946 22.945 34.3566 22.8871C34.2408 22.8678 34.125 22.8549 34.0092 22.8485C33.9191 22.8485 33.8998 22.8099 33.8998 22.7777C33.8998 22.7327 33.9706 22.7263 34.0607 22.7263C34.4466 22.7263 34.8261 22.752 34.9033 22.752C34.9934 22.752 35.27 22.7263 35.6238 22.7263C35.7203 22.7263 35.7524 22.7327 35.7524 22.7777C35.7524 22.8163 35.7267 22.8421 35.6688 22.8485C35.6174 22.8549 35.5402 22.8549 35.4437 22.8742C35.2378 22.9192 35.1735 23.0093 35.1735 23.5496L35.1542 28.0589C35.1542 28.5092 35.1349 28.5542 35.0706 28.5542C35.0063 28.5542 34.9162 28.4899 34.4788 28.0782C34.4402 28.0589 33.1923 26.8238 32.4139 26.0584C31.4812 25.087 30.5806 24.1543 30.3555 23.9227L30.4713 27.4349C30.4906 28.0525 30.542 28.2905 30.7672 28.3419C30.9087 28.3805 31.0631 28.3805 31.1338 28.3805C31.2046 28.3805 31.2432 28.4063 31.2432 28.4449C31.2432 28.4899 31.1981 28.5092 31.1017 28.5092C30.6192 28.5092 30.2911 28.4835 30.2268 28.4835C30.1625 28.4835 29.8344 28.5092 29.442 28.5092C29.3584 28.5092 29.307 28.5028 29.307 28.4449C29.307 28.4063 29.3391 28.3805 29.4356 28.3805C29.4999 28.3805 29.5964 28.3805 29.7122 28.3419C29.9116 28.2776 29.9567 28.0396 29.9567 27.3835C29.9631 23.0929 29.976 24.4759 29.9631 22.9836ZM39.6635 25.994C39.7021 25.994 39.7021 25.9683 39.6892 25.9426L38.9816 23.9549C38.9366 23.8262 38.9302 23.8262 38.8851 23.9549L38.2097 25.9426C38.1904 25.9747 38.2097 25.994 38.229 25.994H39.6635ZM38.1389 26.3092C38.0939 26.3092 38.0682 26.335 38.0489 26.38L37.6565 27.4993C37.5664 27.7501 37.5021 27.9946 37.5021 28.1361C37.5021 28.2969 37.5986 28.3677 37.798 28.3677H37.8623C37.946 28.3677 37.9717 28.3934 37.9717 28.432C37.9717 28.477 37.9009 28.4963 37.8366 28.4963C37.6372 28.4963 37.2255 28.4706 37.129 28.4706C37.039 28.4706 36.6466 28.4963 36.2671 28.4963C36.1706 28.4963 36.1255 28.477 36.1255 28.432C36.1255 28.3934 36.1641 28.3677 36.2349 28.3677C36.2799 28.3677 36.3635 28.3677 36.415 28.3612C36.801 28.3226 36.9553 28.0267 37.1097 27.6537L38.9044 22.9192C39.0009 22.6619 39.0331 22.6169 39.091 22.6169C39.136 22.6169 39.1746 22.6555 39.2711 22.9064C39.3997 23.2023 40.6219 26.3414 41.0979 27.4607C41.3938 28.1683 41.6576 28.2841 41.7798 28.3291C41.8956 28.3741 42.0242 28.3741 42.0821 28.3741C42.1465 28.3741 42.1915 28.3934 42.1915 28.4384C42.1915 28.4835 42.1529 28.5028 42.0564 28.5028C41.9664 28.5028 41.2909 28.5028 40.6927 28.4835C40.519 28.477 40.4676 28.4642 40.4676 28.4191C40.4676 28.3934 40.4933 28.3677 40.5319 28.3548C40.5705 28.3355 40.6219 28.2905 40.5705 28.1554L39.8629 26.3478C39.8436 26.3221 39.8243 26.3028 39.7921 26.3028H38.1389V26.3092ZM44.2306 26.2964C44.2306 27.332 44.2692 27.8531 44.4172 27.9946C44.5587 28.1232 44.7388 28.1747 45.3628 28.1747C45.7552 28.1747 46.1154 28.1747 46.3148 27.9238C46.4049 27.7887 46.4692 27.6086 46.4885 27.4735C46.4949 27.4028 46.5142 27.3642 46.5592 27.3642C46.5978 27.3642 46.6107 27.3899 46.6107 27.48C46.6107 27.57 46.5592 28.0846 46.5013 28.2905C46.4499 28.4706 46.4563 28.5156 46.0253 28.5156C45.4142 28.5156 44.7388 28.4706 43.8447 28.4706C43.5488 28.4706 43.3687 28.4963 43.0535 28.4963C42.9634 28.4963 42.9119 28.477 42.9119 28.4256C42.9119 28.3998 42.9377 28.3741 43.0084 28.3741C43.0792 28.3741 43.15 28.3741 43.2271 28.3548C43.3815 28.3291 43.433 28.149 43.4587 27.9303C43.5102 27.5893 43.4973 26.9718 43.4973 26.2771V24.9262C43.4973 23.7426 43.4973 23.5432 43.478 23.2988C43.4587 23.0479 43.4266 22.8871 43.1178 22.8485C43.0663 22.8421 42.9634 22.8421 42.8926 22.8421C42.8283 22.8421 42.7962 22.8163 42.7962 22.7777C42.7962 22.7327 42.8412 22.7134 42.9312 22.7134C43.3108 22.7134 43.8447 22.7391 43.864 22.7391C43.9926 22.7391 44.5394 22.7134 44.7903 22.7134C44.8803 22.7134 44.9061 22.7391 44.9061 22.7777C44.9061 22.8163 44.861 22.8421 44.8096 22.8421C44.7452 22.8421 44.6552 22.8485 44.5651 22.8614C44.3143 22.8999 44.2564 23.0415 44.2435 23.2988C44.2242 23.5432 44.2371 23.7362 44.2371 24.9262V26.2964H44.2306Z" fill="#981E32"/>
<path fill-rule="evenodd" clip-rule="evenodd" d="M53.5558 25.5278C53.6008 25.5278 53.6008 25.5021 53.5944 25.4635L52.7389 23.0384C52.6938 22.9033 52.6488 22.9033 52.6038 23.0384L51.8126 25.4635C51.7933 25.5085 51.8126 25.5278 51.8383 25.5278H53.5558ZM51.7418 25.8494C51.6968 25.8494 51.6711 25.8752 51.6518 25.9202L51.1114 27.509C51.0278 27.7342 50.9828 27.9465 50.9828 28.1137C50.9828 28.2938 51.1565 28.371 51.3044 28.371H51.388C51.4781 28.371 51.5038 28.3903 51.5038 28.4225C51.5038 28.4739 51.4202 28.4932 51.343 28.4932C51.1243 28.4932 50.7705 28.4675 50.6676 28.4675C50.5711 28.4675 50.0758 28.4932 49.6512 28.4932C49.5354 28.4932 49.4775 28.4739 49.4775 28.4225C49.4775 28.3839 49.5226 28.371 49.6062 28.371C49.6705 28.371 49.7477 28.3646 49.8249 28.3517C50.2366 28.3003 50.4167 27.9593 50.5775 27.509L52.6167 21.932C52.726 21.6361 52.7582 21.5846 52.8161 21.5846C52.8675 21.5846 52.9061 21.6296 53.0155 21.9062C53.1506 22.2472 54.5593 25.9588 55.1061 27.3225C55.4277 28.1201 55.6915 28.2681 55.878 28.3195C56.0131 28.3646 56.1546 28.371 56.2254 28.371C56.2768 28.371 56.3218 28.3774 56.3218 28.4225C56.3218 28.4739 56.2382 28.4932 56.1417 28.4932C56.0066 28.4932 55.3505 28.4932 54.733 28.4739C54.5593 28.4675 54.4628 28.4675 54.4628 28.4096C54.4628 28.371 54.4885 28.3581 54.5271 28.3453C54.5786 28.326 54.6365 28.2488 54.5786 28.1008L53.7424 25.888C53.7231 25.8494 53.7038 25.8366 53.6587 25.8366H51.7418V25.8494Z" fill="#981E32"/>
<path fill-rule="evenodd" clip-rule="evenodd" d="M57.2309 27.7306C56.4526 27.0552 56.2532 26.161 56.2532 25.402C56.2532 24.8874 56.4526 23.9868 57.173 23.2921C57.6684 22.8161 58.4081 22.4816 59.6303 22.4816C60.0484 22.4816 60.3893 22.5202 60.8332 22.5845C61.1227 22.6295 61.4186 22.6745 61.6373 22.6874C61.708 22.6874 61.7209 22.7324 61.7209 22.7775C61.7209 22.8482 61.6952 22.9318 61.6759 23.2213C61.6694 23.4786 61.6694 23.9546 61.6566 24.064C61.6501 24.1926 61.6308 24.2377 61.5858 24.2377C61.5215 24.2377 61.5151 24.1798 61.5151 24.064C61.5151 23.8003 61.3864 23.44 61.1613 23.2728C60.8847 23.0348 60.2478 22.8096 59.5467 22.8096C58.5303 22.8096 58.0672 23.0927 57.7906 23.3371C57.1988 23.8774 57.0573 24.5336 57.0573 25.3377C57.0573 26.8557 58.2923 28.1873 59.9005 28.1873C60.518 28.1873 60.9747 28.123 61.2963 27.8142C61.4572 27.6405 61.5536 27.4154 61.5987 27.1581C61.618 27.068 61.6437 27.023 61.7016 27.023C61.7466 27.023 61.7466 27.0873 61.7466 27.1516C61.7466 27.2224 61.6244 27.9622 61.5665 28.168C61.5151 28.316 61.4829 28.3417 61.3542 28.3931C61.0326 28.5282 60.4215 28.5733 59.9133 28.5733C58.704 28.5668 57.8806 28.2902 57.2309 27.7306Z" fill="#981E32"/>
<path fill-rule="evenodd" clip-rule="evenodd" d="M68.295 28.3353C68.2306 28.3353 68.102 28.3353 67.9862 28.2902C67.8575 28.2452 67.5938 28.123 67.2915 27.4025C66.809 26.2639 65.5675 23.0734 65.4389 22.771C65.3359 22.5137 65.3038 22.4816 65.2588 22.4816C65.1944 22.4816 65.1687 22.5266 65.0658 22.7903L63.2389 27.6019C63.0845 27.9879 62.9301 28.2902 62.5378 28.3224C62.4799 28.3288 62.4027 28.3288 62.3576 28.3288C62.2869 28.3288 62.2483 28.3545 62.2483 28.3931C62.2483 28.4382 62.2933 28.4575 62.3962 28.4575C62.7822 28.4575 63.181 28.4317 63.2711 28.4317C63.374 28.4317 63.7921 28.4575 63.9915 28.4575C64.0559 28.4575 64.1266 28.4382 64.1266 28.3931C64.1266 28.3545 64.1009 28.3288 64.0173 28.3288H63.9529C63.7535 28.3288 63.6506 28.2581 63.6506 28.0908C63.6506 27.9429 63.7149 27.6984 63.805 27.4411L64.2102 26.3025C64.2295 26.2575 64.2553 26.2318 64.3003 26.2318H65.9599C65.9985 26.2318 66.0114 26.2511 66.0307 26.2768L66.7511 28.1101C66.809 28.2452 66.7511 28.2902 66.7125 28.3095C66.6739 28.3224 66.6482 28.3481 66.6482 28.3738C66.6482 28.4189 66.6997 28.4317 66.8733 28.4382C67.4844 28.4575 68.1727 28.4575 68.2628 28.4575C68.3657 28.4575 68.3979 28.4382 68.3979 28.3931C68.4043 28.3545 68.3593 28.3353 68.295 28.3353ZM65.8441 25.9166H64.3839C64.3646 25.9166 64.3453 25.8973 64.3646 25.8651L65.0465 23.8453C65.0915 23.7166 65.0979 23.7166 65.1494 23.8453L65.8699 25.8651C65.8827 25.8909 65.8827 25.9166 65.8441 25.9166Z" fill="#981E32"/>
<path fill-rule="evenodd" clip-rule="evenodd" d="M74.4383 23.4854C73.4734 22.5076 71.9746 22.5913 71.1705 22.5913C70.6559 22.5913 70.1863 22.617 70.122 22.617C70.0963 22.617 69.5173 22.5913 69.1442 22.5913C69.0606 22.5913 69.0092 22.6106 69.0092 22.662C69.0092 22.6878 69.0542 22.7199 69.0992 22.7199C69.1893 22.7199 69.2729 22.7263 69.363 22.7392C69.6267 22.7907 69.7039 22.9193 69.7167 23.1702C69.736 23.4082 69.736 23.6333 69.736 24.8427V26.1935C69.736 26.9333 69.7425 27.5572 69.691 27.8917C69.6653 28.0912 69.6074 28.2841 69.453 28.3099C69.3822 28.3292 69.3179 28.3356 69.2407 28.3356C69.17 28.3356 69.1378 28.3742 69.1378 28.3999C69.1378 28.4449 69.1828 28.4642 69.2665 28.4642C69.4015 28.4642 69.6203 28.4449 69.7939 28.4449C69.9676 28.4385 70.0898 28.4385 70.1027 28.4385C70.1284 28.4385 70.4115 28.4642 70.7588 28.4835C71.1384 28.5157 71.5179 28.5286 71.9038 28.5286C73.2933 28.5286 73.988 27.9882 74.3418 27.6344C74.7921 27.1777 75.2102 26.4187 75.2102 25.4538C75.2166 24.5275 74.8435 23.8907 74.4383 23.4854ZM73.8272 27.5315C73.3512 28.0075 72.6757 28.2455 71.9296 28.2455C70.9775 28.2455 70.6881 28.0526 70.5851 27.8982C70.5208 27.8145 70.5015 27.5701 70.4951 27.2871C70.4951 27.152 70.4887 26.438 70.4887 25.6146V24.6947C70.4887 24.148 70.4887 23.3696 70.4951 23.1059C70.4951 23.0222 70.5208 22.9901 70.598 22.9515C70.6559 22.9129 70.9389 22.8872 71.0612 22.8872C71.9682 22.8872 72.8623 22.9772 73.6342 23.7556C73.943 24.0579 74.419 24.6883 74.419 25.7175C74.4254 26.4444 74.2324 27.1327 73.8272 27.5315Z" fill="#981E32"/>
<path fill-rule="evenodd" clip-rule="evenodd" d="M76.8054 24.8361C76.8054 23.6397 76.8054 23.4209 76.7861 23.1765C76.7668 22.9192 76.7024 22.7905 76.4387 22.7391C76.3679 22.7262 76.2908 22.7198 76.22 22.7198C76.1557 22.7198 76.0978 22.6941 76.0978 22.6619C76.0978 22.6104 76.1428 22.5911 76.2329 22.5911C76.413 22.5911 76.6638 22.6104 77.172 22.6169C77.2171 22.6169 78.8445 22.6169 79.0246 22.6104C79.2047 22.604 79.3077 22.5911 79.3784 22.5654C79.4299 22.5461 79.4427 22.5397 79.4813 22.5397C79.5006 22.5397 79.5199 22.559 79.5199 22.604C79.5199 22.6619 79.4685 22.7841 79.4492 23.0157C79.4363 23.1701 79.4299 23.318 79.4234 23.4917C79.4234 23.5753 79.4041 23.6268 79.3591 23.6268C79.3141 23.6268 79.2948 23.5882 79.2948 23.5239C79.2884 23.3888 79.2562 23.2987 79.2305 23.2344C79.179 23.0543 79.0954 22.99 78.6387 22.9578C78.5229 22.9514 77.6159 22.9385 77.5966 22.9385C77.5708 22.9385 77.5516 22.9578 77.5516 23.0093V25.0806C77.5516 25.1384 77.558 25.1706 77.603 25.1706C77.7124 25.1706 78.6451 25.1577 78.8381 25.1449C79.0504 25.1385 79.1854 25.1063 79.2562 25.0098C79.2948 24.9583 79.3205 24.939 79.3591 24.939C79.3784 24.939 79.3977 24.9455 79.3977 24.9905C79.3977 25.0355 79.3591 25.2092 79.3334 25.4729C79.3077 25.7303 79.3077 25.9104 79.2948 26.0326C79.2884 26.1033 79.2691 26.1355 79.2305 26.1355C79.1854 26.1355 79.179 26.0776 79.179 26.0197C79.179 25.9618 79.1726 25.8718 79.1533 25.801C79.1147 25.6852 79.0632 25.5566 78.7159 25.5244C78.5036 25.5051 77.7638 25.4858 77.6223 25.4858C77.5644 25.4858 77.558 25.5115 77.558 25.5501V26.2191C77.558 26.5022 77.5451 27.3062 77.558 27.4606C77.5773 27.8016 77.6223 27.9752 77.8153 28.0524C77.9504 28.1168 78.1691 28.1361 78.4843 28.1361C78.658 28.1361 78.9474 28.1425 79.179 28.0846C79.4556 28.001 79.5135 27.8209 79.5907 27.4799C79.61 27.3899 79.6357 27.3513 79.6743 27.3513C79.7258 27.3513 79.7258 27.4349 79.7258 27.4864C79.7258 27.5507 79.655 28.1232 79.6229 28.284C79.5843 28.4641 79.5199 28.4834 79.224 28.4834C78.6194 28.4834 78.3685 28.4641 78.0469 28.4641C77.7252 28.4577 77.3071 28.4384 76.9662 28.4384C76.7539 28.4384 76.5802 28.4641 76.3615 28.4641C76.2779 28.4641 76.2329 28.4448 76.2329 28.3998C76.2329 28.3612 76.2715 28.3355 76.3165 28.3355C76.3744 28.3355 76.4387 28.329 76.4966 28.3097C76.6639 28.2711 76.7732 28.1553 76.7861 27.5893C76.7925 27.2805 76.8054 26.9074 76.8054 26.2127V24.8361Z" fill="#981E32"/>
<path fill-rule="evenodd" clip-rule="evenodd" d="M87.7087 27.4607C87.7345 27.6794 87.7924 28.1941 88.1461 28.2712C88.3005 28.3098 88.4871 28.3291 88.6093 28.3356C88.6479 28.3356 88.7315 28.342 88.7315 28.3935C88.7315 28.4449 88.6929 28.4642 88.5964 28.4642C88.4292 28.4642 87.445 28.4256 87.1555 28.4128C86.9561 28.3935 86.8789 28.3742 86.8789 28.3291C86.8789 28.3034 86.9175 28.2648 86.9625 28.2455C87.0076 28.2262 87.0333 28.1169 87.014 27.9882L86.6152 24.0772L84.679 28.0011C84.5053 28.3549 84.4796 28.4385 84.3959 28.4385C84.338 28.4385 84.293 28.3549 84.1193 28.0461C83.9714 27.7824 83.2445 26.3222 83.1866 26.2385C83.1351 26.1292 82.2346 24.3602 82.1638 24.1672L81.8229 27.6859C81.8165 27.8145 81.8165 27.8982 81.8165 28.0332C81.8165 28.1362 81.8615 28.2712 82.0416 28.3098C82.1445 28.3291 82.2088 28.3291 82.2989 28.3356C82.3697 28.342 82.389 28.3742 82.389 28.3935C82.389 28.4578 82.3311 28.4642 82.2346 28.4642C81.9451 28.4642 81.5463 28.4385 81.4755 28.4385C81.3855 28.4385 80.9995 28.4642 80.7744 28.4642C80.6907 28.4642 80.6393 28.4578 80.6393 28.3935C80.6393 28.3742 80.6779 28.342 80.7615 28.342C80.8258 28.342 80.8323 28.342 80.9352 28.3356C81.1539 28.3163 81.2375 28.0976 81.2825 27.7309L81.8936 22.7199C81.9129 22.5655 81.9515 22.4948 81.9966 22.4948C82.0416 22.4948 82.0673 22.5205 82.1316 22.6427L84.5825 27.3835L86.9111 22.6556C86.9561 22.5526 86.9947 22.5012 87.0462 22.5012C87.0976 22.5012 87.1298 22.5848 87.1362 22.7263L87.7087 27.4607Z" fill="#981E32"/>
<path fill-rule="evenodd" clip-rule="evenodd" d="M90.8607 26.4767C90.8607 26.0393 90.7963 25.8721 90.6612 25.6341C90.6098 25.5311 89.5484 23.8072 89.2654 23.4148C89.0209 23.0674 88.9244 22.9581 88.8022 22.8552C88.6736 22.7651 88.5578 22.7265 88.3712 22.7201C88.3133 22.7201 88.2683 22.6944 88.2683 22.6493C88.2683 22.6236 88.3069 22.5914 88.3777 22.5914C88.5256 22.5914 89.2203 22.6172 89.2332 22.6172C89.2847 22.6172 89.587 22.5914 89.9279 22.5914C90.018 22.5914 90.0437 22.6172 90.0437 22.6429C90.0437 22.6815 90.018 22.6944 89.9408 22.7136C89.8121 22.7394 89.7928 22.7844 89.7928 22.8616C89.7928 22.9517 89.8507 23.0417 89.9151 23.1639C90.0308 23.3891 91.2402 25.3253 91.3753 25.5569C91.5232 25.2352 92.546 23.5692 92.6747 23.3376C92.8483 23.0353 92.8869 22.9517 92.8869 22.8552C92.8869 22.7394 92.7776 22.7394 92.6747 22.7201C92.6039 22.7137 92.5717 22.6815 92.5717 22.6493C92.5717 22.6236 92.591 22.5914 92.6811 22.5914C92.8998 22.5914 93.0928 22.6172 93.2407 22.6172C93.3629 22.6172 93.8904 22.5914 94.0448 22.5914C94.1284 22.5914 94.1542 22.6172 94.1542 22.6429C94.1542 22.6879 94.1091 22.7136 94.0448 22.7136C93.8518 22.7201 93.7167 22.7394 93.5881 22.8294C93.453 22.9195 93.3951 23.0031 93.2472 23.2025C92.7197 23.9358 91.832 25.4218 91.6969 25.7434C91.5875 26.0265 91.6068 26.2259 91.6068 26.4639V27.1329C91.6068 27.1972 91.6068 27.5317 91.6261 27.8662C91.6454 28.0849 91.6647 28.2393 91.9478 28.2972C92.0636 28.3229 92.2244 28.3358 92.2887 28.3358C92.3595 28.3358 92.3916 28.3615 92.3916 28.3937C92.3916 28.4387 92.3659 28.4644 92.2823 28.4644C91.8256 28.4644 91.2595 28.4387 91.2337 28.4387C91.2144 28.4387 90.6677 28.4644 90.4104 28.4644C90.3203 28.4644 90.2817 28.4387 90.2817 28.3937C90.2817 28.3679 90.3075 28.3358 90.3718 28.3358C90.4425 28.3358 90.5262 28.3293 90.6034 28.31C90.7577 28.2843 90.8221 28.0913 90.8414 27.8726C90.8671 27.5445 90.8671 27.2165 90.8671 27.1393L90.8607 26.4767Z" fill="#981E32"/>
<path fill-rule="evenodd" clip-rule="evenodd" d="M98.1167 24.4372C98.2261 23.9097 98.5091 22.9834 99.1009 22.4366C99.519 22.0378 99.9307 21.922 100.239 21.922C100.477 21.922 100.703 21.9863 100.831 22.1021C100.767 22.2951 100.593 22.7068 100.458 22.8869L100.323 22.9512C100.252 22.7582 100.188 22.4881 100.143 22.2629C100.117 22.2501 100.092 22.2436 100.059 22.2436C99.7313 22.2436 99.1652 22.4559 98.7085 24.4372H99.7056L99.5512 24.7138L98.6185 24.8488C98.3998 25.833 98.2711 26.457 97.9237 27.9108C97.6343 29.1265 97.3384 29.6926 96.7916 30.1815C96.4185 30.5095 96.0905 30.6446 95.7688 30.6446C95.4215 30.6446 95.1577 30.4452 95.0741 30.2715L95.4022 29.8148L95.4601 29.7955C95.6723 30.0979 95.9425 30.1686 96.1741 30.1686C96.4378 30.1686 96.798 30.1429 97.1583 28.6441C97.3963 27.6921 97.5892 26.8558 98.0138 24.8295L97.2998 24.6816L97.4542 24.4243H98.1167V24.4372Z" fill="#981E32"/>
<path fill-rule="evenodd" clip-rule="evenodd" d="M101.79 24.3278C100.503 24.3278 99.4096 25.6786 99.416 27.0681C99.416 28.0265 99.9821 28.554 100.658 28.554C101.918 28.554 103.025 27.1838 103.025 25.8587C103.025 25.0289 102.568 24.3278 101.79 24.3278ZM100.715 28.2645C100.362 28.2645 100.079 28.0008 100.079 27.2353C100.079 26.2382 100.735 24.6172 101.712 24.6172C102.156 24.6172 102.362 25.0289 102.362 25.6915C102.356 26.7915 101.571 28.2645 100.715 28.2645Z" fill="#981E32"/>
<path fill-rule="evenodd" clip-rule="evenodd" d="M103.887 24.6816C104.215 24.5272 104.807 24.3278 105.045 24.3278L105.064 24.3342C105.07 24.6365 105.006 25.164 104.774 26.026H104.813C105.559 24.6301 106.177 24.3278 106.601 24.3278C106.749 24.3278 106.859 24.3664 106.929 24.4307C106.923 24.5658 106.646 25.2991 106.498 25.5178L106.35 25.5886C106.305 25.3956 106.267 25.1511 106.222 24.8745C106.203 24.8681 106.183 24.8681 106.151 24.8681C105.932 24.8681 105.373 25.3312 104.723 26.8236C104.543 27.2353 104.421 27.6277 104.183 28.4382L103.559 28.509C104.054 26.9394 104.446 25.3827 104.472 24.9453L103.803 24.8745L103.887 24.6816Z" fill="#981E32"/>
<path fill-rule="evenodd" clip-rule="evenodd" d="M0.829808 35.0834C0.829808 33.5974 0.829808 33.3273 0.81051 33.0249C0.791212 32.7033 0.714021 32.5489 0.398822 32.4846C0.321631 32.4653 0.160815 32.4524 0.0771914 32.4524C0.0385957 32.4524 0 32.4331 0 32.3945C0 32.3366 0.0450283 32.3173 0.154383 32.3173C0.373092 32.3173 0.630396 32.3173 0.842673 32.3238L1.23506 32.3431C1.29939 32.3431 3.19701 32.3431 3.42215 32.3366C3.60227 32.3302 3.75665 32.3045 3.83384 32.2916C3.87887 32.2852 3.91746 32.2466 3.96892 32.2466C3.99466 32.2466 4.00752 32.2852 4.00752 32.3302C4.00752 32.3945 3.96249 32.5103 3.93033 32.7805C3.9239 32.877 3.9046 33.2951 3.8853 33.4109C3.87887 33.4559 3.85957 33.5138 3.82097 33.5138C3.76308 33.5138 3.74378 33.4688 3.74378 33.3916C3.74378 33.3273 3.73735 33.16 3.68589 33.0507C3.62156 32.8963 3.52507 32.7805 3.01046 32.729C2.84965 32.7097 1.80757 32.7033 1.70464 32.7033C1.66605 32.7033 1.64675 32.729 1.64675 32.7998V35.4307C1.64675 35.4951 1.65318 35.5272 1.70464 35.5272C1.82686 35.5272 3.00403 35.5272 3.22274 35.5079C3.45432 35.4886 3.58297 35.4693 3.67302 35.3728C3.73735 35.2956 3.77595 35.2506 3.81454 35.2506C3.84027 35.2506 3.85957 35.2699 3.85957 35.3278C3.85957 35.3857 3.81454 35.5465 3.78238 35.8617C3.76308 36.0547 3.74378 36.4085 3.74378 36.4728C3.74378 36.55 3.74378 36.6529 3.67946 36.6529C3.63443 36.6529 3.61513 36.6143 3.61513 36.5693C3.61513 36.4728 3.61513 36.3763 3.57654 36.2541C3.53794 36.119 3.45432 35.9582 3.08122 35.9196C2.82392 35.8939 1.87832 35.8746 1.71751 35.8746C1.67248 35.8746 1.65318 35.9003 1.65318 35.9389V36.7751C1.65318 37.0968 1.64675 38.2032 1.65318 38.409C1.67891 39.0652 1.82686 39.1938 2.75959 39.1938C3.01046 39.1938 3.42859 39.1938 3.67302 39.0909C3.9239 38.988 4.03325 38.795 4.10401 38.4026C4.12331 38.2997 4.14261 38.2611 4.18763 38.2611C4.24553 38.2611 4.24553 38.3383 4.24553 38.4026C4.24553 38.4798 4.16834 39.1295 4.12331 39.3289C4.05898 39.5798 3.98179 39.5798 3.6087 39.5798C2.89468 39.5798 2.3672 39.5605 1.99411 39.554C1.62102 39.5347 1.39588 39.5283 1.24793 39.5283C1.22863 39.5283 1.06781 39.5283 0.868403 39.5347C0.675425 39.5347 0.456716 39.554 0.315198 39.554C0.212276 39.554 0.160815 39.5347 0.160815 39.4768C0.160815 39.4511 0.180113 39.419 0.238007 39.419C0.321631 39.419 0.437418 39.3997 0.521042 39.3804C0.714021 39.3418 0.759049 39.1295 0.797645 38.8529C0.842673 38.4541 0.842673 37.7014 0.842673 36.7816L0.829808 35.0834Z" fill="#981E32"/>
<path fill-rule="evenodd" clip-rule="evenodd" d="M10.9225 34.3178C9.93193 33.3143 8.39453 33.3915 7.55829 33.3915C7.06298 33.3915 6.52907 33.4108 6.43258 33.4108C6.38755 33.4108 5.84078 33.3915 5.46126 33.3915C5.36477 33.3915 5.32617 33.4108 5.32617 33.4558C5.32617 33.4816 5.36477 33.5202 5.3905 33.5202C5.48699 33.5202 5.58348 33.5266 5.67353 33.5395C5.95014 33.5781 5.99516 33.7131 6.01446 33.9897C6.03376 34.247 6.03376 34.4786 6.03376 35.733V37.161C6.03376 37.9458 6.03376 38.5826 5.98873 38.9171C5.95014 39.1551 5.93084 39.3095 5.77002 39.3481C5.69283 39.3674 5.58991 39.3867 5.51272 39.3867C5.46769 39.3867 5.44839 39.4253 5.44839 39.451C5.44839 39.4961 5.49342 39.5154 5.58348 39.5154C5.71856 39.5154 5.91797 39.5089 6.09165 39.4961C6.26533 39.4961 6.41328 39.4896 6.43258 39.4896C6.47118 39.4896 6.75421 39.5089 7.12087 39.5347C7.4811 39.554 7.93138 39.5797 8.29161 39.5797C9.71965 39.5797 10.4787 39.0201 10.8389 38.647C11.3085 38.1709 11.7459 37.3862 11.7459 36.3698C11.7459 35.4178 11.3407 34.7359 10.9225 34.3178ZM10.2664 38.5505C9.75825 39.0265 9.07639 39.2838 8.30447 39.2838C7.31385 39.2838 7.01795 39.1101 6.91503 38.9622C6.8507 38.8785 6.8314 38.5826 6.81854 38.3832C6.81211 38.2288 6.81211 37.4762 6.81211 36.6207V33.9125C6.81211 33.8161 6.83784 33.7775 6.91503 33.7517C6.99222 33.7196 7.25596 33.6938 7.42321 33.6938C8.42669 33.6938 9.34656 33.7968 10.1442 34.6008C10.4851 34.9418 10.9354 35.6043 10.9354 36.6336C10.9225 37.3733 10.7038 38.1452 10.2664 38.5505Z" fill="#981E32"/>
<path fill-rule="evenodd" clip-rule="evenodd" d="M13.2127 35.7831C13.2127 34.5416 13.2127 34.3165 13.1934 34.0592C13.1741 33.8019 13.1291 33.6539 12.8525 33.6153C12.756 33.6025 12.6659 33.596 12.5695 33.596C12.5437 33.596 12.5051 33.5574 12.5051 33.5317C12.5051 33.4867 12.5437 33.4674 12.6338 33.4674C13.0133 33.4674 13.5086 33.4867 13.5858 33.4867C13.663 33.4867 14.1776 33.4674 14.422 33.4674C14.5185 33.4674 14.5636 33.4867 14.5636 33.5317C14.5636 33.5574 14.525 33.596 14.4864 33.596C14.4285 33.596 14.3835 33.596 14.2805 33.6153C14.0618 33.6539 14.0168 33.7954 13.9975 34.0592C13.9782 34.3165 13.9782 34.5416 13.9782 35.7831V36.9024C13.9782 38.0603 14.2355 38.5427 14.5893 38.8579C14.9946 39.2246 15.3548 39.2889 15.8244 39.2889C16.3325 39.2889 16.8214 39.0637 17.1044 38.7228C17.4904 38.2597 17.574 37.6035 17.574 36.7866V35.7767C17.574 34.5352 17.5676 34.31 17.5547 34.0527C17.5483 33.7954 17.4968 33.6475 17.2267 33.6089C17.1302 33.596 17.0401 33.5896 16.9436 33.5896C16.905 33.5896 16.8793 33.551 16.8793 33.5253C16.8793 33.4802 16.9179 33.4609 17.008 33.4609C17.3746 33.4609 17.8571 33.4802 17.9021 33.4802C17.96 33.4802 18.3524 33.4609 18.5968 33.4609C18.6933 33.4609 18.7255 33.4802 18.7255 33.5253C18.7255 33.551 18.6997 33.5896 18.6611 33.5896C18.6033 33.5896 18.5582 33.5896 18.4553 33.6089C18.2302 33.6539 18.1851 33.789 18.1658 34.0527C18.1465 34.31 18.1594 34.5352 18.1594 35.7767V36.6322C18.1594 37.5006 18.0436 38.4655 17.3875 39.0316C16.7828 39.5462 16.146 39.617 15.6571 39.617C15.3869 39.617 14.5185 39.5977 13.9332 39.0509C13.5279 38.6714 13.2063 38.1182 13.2063 36.9539L13.2127 35.7831Z" fill="#981E32"/>
<path fill-rule="evenodd" clip-rule="evenodd" d="M20.4364 38.7682C19.6259 38.0735 19.4265 37.1601 19.4265 36.3946C19.4265 35.8607 19.6259 34.928 20.3592 34.2139C20.861 33.7315 21.6136 33.3584 22.8808 33.3584C23.2089 33.3584 23.6785 33.3841 24.0837 33.4549C24.3925 33.5128 24.6562 33.5707 24.9328 33.5771C25.0165 33.5771 25.0358 33.6157 25.0358 33.6607C25.0358 33.7251 25.0165 33.8215 24.9972 34.111C24.9907 34.3748 24.9907 34.8186 24.9779 34.928C24.9714 35.0502 24.9328 35.0952 24.8814 35.0952C24.8235 35.0952 24.817 35.0373 24.817 34.928C24.817 34.6192 24.6884 34.2976 24.4697 34.1303C24.1802 33.8859 23.5756 33.6865 22.8422 33.6865C21.7809 33.6865 21.2727 33.9695 20.9768 34.2397C20.3657 34.8057 20.2306 35.5198 20.2306 36.3303C20.2306 37.8677 21.4464 39.2314 23.2153 39.2314C23.8393 39.2314 24.251 39.1864 24.579 38.8519C24.7592 38.6717 24.8685 38.3372 24.9007 38.1829C24.92 38.0992 24.9264 38.0671 24.9843 38.0671C25.0229 38.0671 25.0615 38.125 25.0615 38.1829C25.0615 38.2408 24.9457 38.9355 24.8621 39.2121C24.817 39.36 24.7977 39.3922 24.6562 39.4501C24.3153 39.5787 23.6978 39.6302 23.1574 39.6302C21.9224 39.6238 21.0861 39.3279 20.4364 38.7682Z" fill="#981E32"/>
<path fill-rule="evenodd" clip-rule="evenodd" d="M29.4359 36.9553C29.4745 36.9553 29.4745 36.936 29.4616 36.8974L28.6447 34.7039C28.5996 34.5817 28.5482 34.5817 28.5031 34.7039L27.7312 36.8974C27.7248 36.936 27.7312 36.9553 27.757 36.9553H29.4359ZM28.5096 33.6232C28.6125 33.3595 28.6511 33.3145 28.709 33.3145C28.7926 33.3145 28.8248 33.4302 28.9084 33.6039C29.0563 33.9448 30.3879 37.2448 30.8961 38.4606C31.1984 39.1746 31.4236 39.2775 31.6037 39.3354C31.713 39.3675 31.8224 39.3804 31.9317 39.3804C31.9768 39.3804 32.0347 39.3997 32.0347 39.4447C32.0347 39.4898 31.9382 39.5091 31.8481 39.5091C31.7259 39.5091 31.1148 39.5091 30.5423 39.4898C30.3815 39.4769 30.2528 39.4769 30.2528 39.4319C30.2528 39.3933 30.2721 39.3933 30.3107 39.374C30.3557 39.3547 30.4458 39.2904 30.3879 39.1553L29.6417 37.322C29.6224 37.2834 29.616 37.2769 29.5645 37.2769H27.654C27.6154 37.2769 27.5897 37.2962 27.5704 37.3413L27.1008 38.6214C27.0236 38.8208 26.9786 39.0138 26.9786 39.1553C26.9786 39.3161 27.1201 39.374 27.2616 39.374H27.3388C27.4032 39.374 27.4225 39.3997 27.4225 39.4383C27.4225 39.4833 27.3774 39.5026 27.3002 39.5026C27.1008 39.5026 26.6506 39.4769 26.5541 39.4769C26.4704 39.4769 26.0523 39.5026 25.7178 39.5026C25.6149 39.5026 25.557 39.4833 25.557 39.4383C25.557 39.3997 25.5956 39.374 25.6342 39.374C25.6921 39.374 25.8143 39.3675 25.8786 39.3547C26.2582 39.3097 26.4125 39.0266 26.5734 38.6214L28.5096 33.6232ZM34.5884 37.1933C34.5884 37.9652 34.5884 38.5956 34.627 38.9237C34.6527 39.1617 34.6913 39.3097 34.9486 39.3483C35.0644 39.3675 35.251 39.3868 35.3282 39.3868C35.386 39.3868 35.3925 39.4254 35.3925 39.4512C35.3925 39.4898 35.3539 39.5155 35.2638 39.5155C34.8135 39.5155 34.2861 39.4898 34.2346 39.4898C34.196 39.4898 33.6235 39.5155 33.3791 39.5155C33.2826 39.5155 33.244 39.4962 33.244 39.4512C33.244 39.4254 33.2633 39.3933 33.3083 39.3933C33.3855 39.3933 33.4756 39.374 33.5528 39.3547C33.72 39.3161 33.7715 39.1553 33.7972 38.9237C33.8358 38.5956 33.8358 37.9652 33.8358 37.1933V33.8355L32.6393 33.8548C32.1247 33.8612 31.9253 33.9191 31.8031 34.1121C31.7066 34.2536 31.7002 34.3115 31.6744 34.3694C31.6551 34.4337 31.6294 34.4466 31.5908 34.4466C31.5715 34.4466 31.5329 34.4273 31.5329 34.3823C31.5329 34.2986 31.7002 33.5846 31.713 33.5139C31.7323 33.4688 31.7709 33.3659 31.7966 33.3659C31.8545 33.3659 31.9382 33.4302 32.1633 33.4624C32.4013 33.4881 32.7165 33.501 32.813 33.501H35.9393C36.2094 33.501 36.4024 33.4817 36.5311 33.4624C36.6533 33.4431 36.7305 33.4238 36.7691 33.4238C36.8077 33.4238 36.8077 33.4688 36.8077 33.5203C36.8077 33.7647 36.7819 34.3372 36.7819 34.4337C36.7819 34.4981 36.7433 34.5366 36.7047 34.5366C36.6661 34.5366 36.6468 34.5109 36.6404 34.3951L36.634 34.3115C36.6082 34.0671 36.4281 33.887 35.6369 33.8677L34.6013 33.8484L34.5884 37.1933ZM39.1684 37.1933C39.1684 37.9652 39.1684 38.5956 39.207 38.9237C39.2327 39.1617 39.2649 39.3097 39.5094 39.3483C39.6316 39.3675 39.8117 39.3868 39.8889 39.3868C39.9339 39.3868 39.9532 39.4254 39.9532 39.4512C39.9532 39.4898 39.9146 39.5155 39.8246 39.5155C39.3614 39.5155 38.8275 39.4898 38.7889 39.4898C38.7439 39.4898 38.2228 39.5155 37.972 39.5155C37.8883 39.5155 37.8369 39.4962 37.8369 39.4512C37.8369 39.4254 37.8562 39.3868 37.9012 39.3868C37.9784 39.3868 38.0813 39.3675 38.1585 39.3483C38.3193 39.3097 38.345 39.1617 38.3772 38.9237C38.4158 38.5956 38.4222 37.9652 38.4222 37.1933V35.7846C38.4222 34.5431 38.4222 34.3179 38.4029 34.0606C38.3836 33.7905 38.3193 33.6682 38.1392 33.6297C38.0556 33.6104 37.972 33.6039 37.8819 33.6039C37.8433 33.6039 37.8176 33.5653 37.8176 33.5396C37.8176 33.4946 37.8562 33.4753 37.9527 33.4753C38.2228 33.4753 38.7439 33.4946 38.7889 33.4946C38.8275 33.4946 39.3614 33.4753 39.6187 33.4753C39.7152 33.4753 39.7474 33.4946 39.7474 33.5396C39.7474 33.5653 39.7088 33.6039 39.683 33.6039C39.6251 33.6039 39.5672 33.6039 39.4772 33.6232C39.252 33.6682 39.207 33.784 39.1877 34.0671C39.1813 34.3244 39.1813 34.5495 39.1813 35.791L39.1684 37.1933Z" fill="#981E32"/>
<path fill-rule="evenodd" clip-rule="evenodd" d="M44.2015 39.2953C44.9477 39.2953 46.4401 38.9029 46.4401 36.5872C46.4401 34.6638 45.2758 33.6603 43.9635 33.6603C42.5805 33.6603 41.5834 34.5287 41.5834 36.2655C41.5834 38.1246 42.7027 39.2953 44.2015 39.2953ZM44.015 33.3516C45.8804 33.3516 47.2892 34.4901 47.2892 36.3556C47.2892 38.1439 45.9641 39.6234 43.9635 39.6234C41.6928 39.6234 40.7279 37.9187 40.7279 36.4778C40.7279 35.1913 41.725 33.3516 44.015 33.3516Z" fill="#981E32"/>
<path fill-rule="evenodd" clip-rule="evenodd" d="M49.3381 38.4282C49.3574 39.0843 49.4346 39.2837 49.6597 39.3416C49.8077 39.3802 50.0006 39.3866 50.0714 39.3866C50.11 39.3866 50.1357 39.4123 50.1357 39.4509C50.1357 39.496 50.0778 39.5153 49.9878 39.5153C49.5182 39.5153 49.1901 39.4895 49.1129 39.4895C49.0358 39.4895 48.6884 39.5153 48.3153 39.5153C48.2317 39.5153 48.1866 39.5088 48.1866 39.4509C48.1866 39.4123 48.2124 39.3866 48.251 39.3866C48.3153 39.3866 48.4697 39.3802 48.5919 39.3416C48.7977 39.2837 48.8299 39.0714 48.8299 38.3445V33.7581C48.8299 33.4364 48.8749 33.3528 48.9457 33.3528C49.0422 33.3528 49.1837 33.5136 49.2673 33.5973C49.396 33.7259 50.6053 35.006 51.8854 36.3247C52.7023 37.1738 53.59 38.1194 53.8409 38.3831L53.7573 34.3756C53.7509 33.861 53.6994 33.6809 53.4485 33.6294C53.3134 33.6037 53.1784 33.5908 53.0433 33.5908C52.9854 33.5908 52.9789 33.5458 52.9789 33.5136C52.9789 33.4686 53.0433 33.4557 53.1398 33.4557C53.5193 33.4557 53.9117 33.475 54.0082 33.475C54.1047 33.475 54.3748 33.4557 54.7158 33.4557C54.7994 33.4557 54.8637 33.4622 54.8637 33.5136C54.8637 33.5394 54.8251 33.5908 54.7672 33.5908C54.7286 33.5908 54.6643 33.5908 54.5678 33.6101C54.2976 33.668 54.2783 33.8288 54.2783 34.3048L54.259 38.9942C54.259 39.5217 54.2526 39.5667 54.1947 39.5667C54.1111 39.5667 54.0275 39.5024 53.5643 39.0779C53.4807 39.0007 52.2842 37.8235 51.4094 36.9101C50.4509 35.9001 49.5182 34.9224 49.2609 34.6393L49.3381 38.4282ZM59.0256 36.9551C59.0642 36.9551 59.0642 36.9358 59.0513 36.8972L58.2344 34.7037C58.1894 34.5815 58.1379 34.5815 58.0929 34.7037L57.321 36.8972C57.3145 36.9358 57.321 36.9551 57.3467 36.9551H59.0256ZM58.1057 33.623C58.2087 33.3593 58.2473 33.3142 58.3052 33.3142C58.3888 33.3142 58.4209 33.43 58.5046 33.6037C58.6525 33.9446 59.9841 37.2446 60.4922 38.4603C60.7946 39.1743 61.0197 39.2773 61.1998 39.3352C61.3092 39.3673 61.4185 39.3802 61.5279 39.3802C61.5729 39.3802 61.6308 39.3995 61.6308 39.4445C61.6308 39.4895 61.5343 39.5088 61.4443 39.5088C61.3221 39.5088 60.711 39.5088 60.1385 39.4895C59.9776 39.4767 59.849 39.4767 59.849 39.4316C59.849 39.3931 59.8683 39.3931 59.9069 39.3738C59.9519 39.3545 60.042 39.2901 59.9841 39.155L59.2379 37.3217C59.2186 37.2832 59.2122 37.2767 59.1607 37.2767H57.2502C57.2116 37.2767 57.1859 37.296 57.1666 37.341L56.697 38.6211C56.6198 38.8205 56.5748 39.0135 56.5748 39.155C56.5748 39.3159 56.7163 39.3738 56.8578 39.3738H56.935C56.9993 39.3738 57.0186 39.3995 57.0186 39.4381C57.0186 39.4831 56.9736 39.5024 56.8964 39.5024C56.697 39.5024 56.2467 39.4767 56.1502 39.4767C56.0666 39.4767 55.6485 39.5024 55.314 39.5024C55.2111 39.5024 55.1532 39.4831 55.1532 39.4381C55.1532 39.3995 55.1918 39.3738 55.2304 39.3738C55.2883 39.3738 55.4105 39.3673 55.4748 39.3545C55.8479 39.3094 56.0087 39.0264 56.1695 38.6211L58.1057 33.623ZM63.6764 37.2124C63.6764 38.3896 63.6957 38.872 63.8436 39.0071C63.9723 39.1357 64.2939 39.1936 64.9436 39.1936C65.3746 39.1936 65.7413 39.1872 65.9407 38.9492C66.0436 38.827 66.1079 38.6597 66.1401 38.4989C66.1465 38.441 66.1787 38.396 66.2237 38.396C66.2623 38.396 66.2816 38.4346 66.2816 38.5182C66.2816 38.6018 66.2237 39.0843 66.1594 39.3159C66.1015 39.5024 66.0758 39.5346 65.6319 39.5346C65.0401 39.5346 64.577 39.5281 64.191 39.5088C63.8115 39.5024 63.5349 39.4895 63.2904 39.4895C63.2518 39.4895 63.1103 39.4895 62.9495 39.496C62.7823 39.5024 62.6021 39.5153 62.4671 39.5153C62.3834 39.5153 62.332 39.496 62.332 39.4509C62.332 39.4252 62.3513 39.3866 62.3963 39.3866C62.4735 39.3866 62.5764 39.3673 62.6536 39.348C62.8144 39.3094 62.8337 39.1615 62.8723 38.9235C62.9173 38.5954 62.9173 37.965 62.9173 37.1931V35.7844C62.9173 34.5429 62.9173 34.3177 62.898 34.0604C62.8787 33.7902 62.8337 33.6552 62.5571 33.6166C62.4606 33.6037 62.3706 33.5973 62.2741 33.5973C62.2483 33.5973 62.2097 33.5587 62.2097 33.5329C62.2097 33.4879 62.2483 33.4686 62.3384 33.4686C62.7179 33.4686 63.2325 33.4879 63.2776 33.4879C63.3162 33.4879 63.9337 33.4686 64.191 33.4686C64.2746 33.4686 64.3197 33.4879 64.3197 33.5329C64.3197 33.5587 64.2811 33.5908 64.2553 33.5908C64.1974 33.5908 64.0752 33.5973 63.9852 33.6101C63.7407 33.6552 63.6957 33.7774 63.6764 34.0604C63.67 34.3177 63.67 34.5429 63.67 35.7844L63.6764 37.2124ZM71.9873 35.9516C71.9873 35.9966 72.0066 36.0352 72.0517 36.0674C72.1932 36.151 72.6242 36.2153 73.0423 36.2153C73.2674 36.2153 73.5312 36.1896 73.7499 36.0352C74.0779 35.8101 74.3224 35.3019 74.3224 34.5879C74.3224 33.4107 73.6984 32.7031 72.6949 32.7031C72.4119 32.7031 72.161 32.7289 72.0645 32.761C72.0195 32.7803 71.9873 32.8189 71.9873 32.8768V35.9516ZM71.2347 35.1347C71.2347 33.668 71.2347 33.4043 71.2154 33.1019C71.1961 32.7803 71.1189 32.6324 70.8102 32.568C70.733 32.5487 70.5722 32.5423 70.4885 32.5423C70.4499 32.5423 70.4113 32.523 70.4113 32.4844C70.4113 32.4265 70.4564 32.4072 70.5593 32.4072C70.9838 32.4072 71.5756 32.433 71.6207 32.433C71.7236 32.433 72.4376 32.4072 72.7335 32.4072C73.3253 32.4072 73.9557 32.4651 74.4575 32.8189C74.6955 32.9862 75.1072 33.4493 75.1072 34.099C75.1072 34.7937 74.8177 35.4949 73.9686 36.2732C74.7405 37.2639 75.3773 38.1001 75.9241 38.6855C76.4323 39.2194 76.8375 39.3287 77.0755 39.3609C77.1978 39.3802 77.32 39.3866 77.4422 39.3866C77.4872 39.3866 77.5258 39.4123 77.5258 39.4445C77.5258 39.5024 77.4679 39.5217 77.3007 39.5217H76.6317C76.1042 39.5217 75.8662 39.4767 75.6218 39.3416C75.2165 39.1229 74.8884 38.6662 74.3481 37.9586C73.9557 37.444 73.5119 36.8136 73.3189 36.5627C73.2803 36.5241 73.2546 36.5048 73.1967 36.5048L72.0388 36.4855C71.9938 36.4855 71.9745 36.5112 71.9745 36.5627V36.7878C71.9745 37.6884 71.9745 38.4346 72.0195 38.8334C72.0452 39.1036 72.1031 39.3159 72.3862 39.348C72.5148 39.3673 72.7271 39.3866 72.8107 39.3866C72.8686 39.3866 72.8879 39.4123 72.8879 39.4445C72.8879 39.4895 72.8429 39.5217 72.7399 39.5217C72.2189 39.5217 71.6271 39.496 71.5821 39.496C71.5756 39.496 70.9774 39.5217 70.6944 39.5217C70.5915 39.5217 70.5464 39.5024 70.5464 39.4445C70.5464 39.4188 70.5657 39.3866 70.6236 39.3866C70.7072 39.3866 70.823 39.3673 70.9067 39.348C71.0932 39.3094 71.1447 39.1036 71.1768 38.8334C71.2218 38.441 71.2218 37.6948 71.2218 36.7878L71.2347 35.1347ZM78.6258 35.7844C78.6258 34.5429 78.6258 34.3177 78.6065 34.0604C78.5872 33.7902 78.5422 33.6552 78.2656 33.6166C78.1691 33.6037 78.079 33.5973 77.9825 33.5973C77.9568 33.5973 77.9182 33.5587 77.9182 33.5329C77.9182 33.4879 77.9568 33.4686 78.0469 33.4686C78.4264 33.4686 78.9603 33.4879 79.0053 33.4879C79.0632 33.4879 80.7936 33.5008 80.9801 33.4879C81.1409 33.4815 81.2889 33.4493 81.3597 33.4429C81.3983 33.4364 81.4368 33.4043 81.4754 33.4043C81.5012 33.4043 81.514 33.4429 81.514 33.4815C81.514 33.5394 81.469 33.6294 81.4497 33.8546C81.4433 33.9318 81.424 34.2856 81.4047 34.382C81.3983 34.4206 81.3661 34.4657 81.3275 34.4657C81.2825 34.4657 81.2632 34.4271 81.2632 34.3627C81.2632 34.3048 81.2567 34.1762 81.2181 34.0797C81.1602 33.9446 81.0766 33.8932 80.6263 33.8353C80.4848 33.816 79.5264 33.8095 79.4299 33.8095C79.3913 33.8095 79.3848 33.8353 79.3848 33.8932V36.0674C79.3848 36.1253 79.3848 36.151 79.4299 36.151C79.5328 36.151 80.6263 36.151 80.8129 36.1317C81.0123 36.1124 81.1345 36.106 81.2181 36.0159C81.276 35.958 81.3146 35.913 81.3404 35.913C81.3661 35.913 81.3854 35.9323 81.3854 35.9773C81.3854 36.0224 81.3404 36.1574 81.3211 36.4212C81.3018 36.582 81.2825 36.8843 81.2825 36.9358C81.2825 37.0001 81.2632 37.0837 81.2053 37.0837C81.1667 37.0837 81.1474 37.058 81.1474 37.0065C81.1474 36.9294 81.1474 36.8457 81.1088 36.7428C81.0831 36.627 81.0059 36.537 80.6842 36.4984C80.4591 36.4726 79.5714 36.4598 79.4299 36.4598C79.3848 36.4598 79.372 36.4855 79.372 36.5177V37.1867C79.372 37.4568 79.3591 38.3896 79.372 38.5504C79.3913 39.0843 79.5392 39.1936 80.3626 39.1936C80.5813 39.1936 80.9737 39.1936 81.1924 39.11C81.4111 39.0135 81.5205 38.872 81.5719 38.5568C81.5912 38.4603 81.6105 38.4346 81.6556 38.4346C81.7006 38.4346 81.7134 38.4989 81.7134 38.5568C81.7134 38.6147 81.6491 39.1615 81.5977 39.3287C81.5398 39.5346 81.4561 39.5346 81.1345 39.5346C80.5106 39.5346 80.0345 39.5153 79.6936 39.5088C79.3462 39.4895 79.1275 39.4895 79.0053 39.4895C78.986 39.4895 78.8252 39.4895 78.6451 39.496C78.4843 39.5024 78.2977 39.5153 78.1626 39.5153C78.079 39.5153 78.034 39.496 78.034 39.4509C78.034 39.4252 78.0533 39.3866 78.0983 39.3866C78.1755 39.3866 78.2784 39.3609 78.3556 39.348C78.5164 39.3223 78.5357 39.1615 78.5743 38.9235C78.6194 38.5954 78.6194 37.965 78.6194 37.1931L78.6258 35.7844Z" fill="#981E32"/>
<path fill-rule="evenodd" clip-rule="evenodd" d="M82.912 39.4047C82.7962 39.3469 82.7898 39.3211 82.7898 39.1024C82.7898 38.71 82.8284 38.3884 82.8348 38.2533C82.8348 38.1697 82.8541 38.1247 82.8992 38.1247C82.9442 38.1247 82.9763 38.1504 82.9763 38.2211C82.9763 38.2855 82.9764 38.4013 83.0021 38.5106C83.1307 39.096 83.7547 39.3018 84.3079 39.3018C85.1248 39.3018 85.5494 38.8387 85.5494 38.2404C85.5494 37.6679 85.2406 37.3913 84.5073 36.8446L84.1342 36.5615C83.2401 35.8925 82.9506 35.4037 82.9506 34.8504C82.9506 33.9113 83.6968 33.3452 84.7839 33.3452C85.112 33.3452 85.44 33.3902 85.6395 33.4417C85.8003 33.4803 85.8646 33.4803 85.9289 33.4803C85.9932 33.4803 86.0125 33.4867 86.0125 33.5382C86.0125 33.5768 85.9739 33.8405 85.9739 34.3873C85.9739 34.5095 85.9611 34.5674 85.9096 34.5674C85.8517 34.5674 85.8453 34.5288 85.8324 34.4645C85.826 34.368 85.7552 34.1557 85.7102 34.0721C85.6523 33.9756 85.3822 33.6797 84.636 33.6797C84.0313 33.6797 83.536 33.982 83.536 34.5481C83.536 35.0563 83.7933 35.3458 84.6102 35.9054L84.8482 36.0662C85.8582 36.7545 86.2055 37.3077 86.2055 37.996C86.2055 38.4656 86.0254 38.9738 85.4336 39.3597C85.0862 39.5849 84.5652 39.6428 84.1149 39.6428C83.7354 39.6235 83.2529 39.5656 82.912 39.4047Z" fill="#981E32"/>
<path fill-rule="evenodd" clip-rule="evenodd" d="M88.0626 35.7846C88.0626 34.5431 88.0626 34.3179 88.0433 34.0606C88.024 33.7905 87.9789 33.6554 87.7023 33.6168C87.6058 33.6039 87.5158 33.5975 87.4193 33.5975C87.3936 33.5975 87.355 33.5589 87.355 33.5332C87.355 33.4881 87.3936 33.4688 87.4836 33.4688C87.8632 33.4688 88.3971 33.4881 88.4421 33.4881C88.5 33.4881 90.2304 33.501 90.4169 33.4881C90.5777 33.4817 90.7257 33.4495 90.7964 33.4431C90.835 33.4367 90.8736 33.4045 90.9122 33.4045C90.9379 33.4045 90.9508 33.4431 90.9508 33.4817C90.9508 33.5396 90.9058 33.6297 90.8865 33.8548C90.8801 33.932 90.8608 34.2858 90.8415 34.3823C90.835 34.4209 90.8029 34.4659 90.7643 34.4659C90.7192 34.4659 90.6999 34.4273 90.6999 34.363C90.6999 34.3051 90.6935 34.1764 90.6549 34.0799C90.597 33.9448 90.5134 33.8934 90.0631 33.8355C89.9216 33.8162 88.9631 33.8098 88.8666 33.8098C88.8281 33.8098 88.8216 33.8355 88.8216 33.8934V36.0676C88.8216 36.1255 88.8216 36.1512 88.8666 36.1512C88.9696 36.1512 90.0631 36.1512 90.2497 36.1319C90.4491 36.1126 90.5713 36.1062 90.6549 36.0162C90.7128 35.9583 90.7514 35.9132 90.7771 35.9132C90.8029 35.9132 90.8222 35.9325 90.8222 35.9776C90.8222 36.0226 90.7771 36.1577 90.7578 36.4214C90.7385 36.5822 90.7192 36.8846 90.7192 36.936C90.7192 37.0003 90.6999 37.084 90.642 37.084C90.6035 37.084 90.5842 37.0582 90.5842 37.0068C90.5842 36.9296 90.5842 36.846 90.5456 36.743C90.5198 36.6273 90.4426 36.5372 90.121 36.4986C89.8959 36.4729 89.0082 36.46 88.8666 36.46C88.8216 36.46 88.8087 36.4857 88.8087 36.5179V37.1869C88.8087 37.4571 88.7959 38.3898 88.8087 38.5506C88.828 39.0845 88.976 39.1939 89.7994 39.1939C90.0181 39.1939 90.4105 39.1939 90.6292 39.1102C90.8479 39.0138 90.9572 38.8722 91.0087 38.557C91.028 38.4605 91.0473 38.4348 91.0923 38.4348C91.1374 38.4348 91.1502 38.4991 91.1502 38.557C91.1502 38.6149 91.0859 39.1617 91.0344 39.329C90.9765 39.5348 90.8929 39.5348 90.5713 39.5348C89.9473 39.5348 89.4713 39.5155 89.1304 39.5091C88.783 39.4898 88.5643 39.4898 88.4421 39.4898C88.4228 39.4898 88.262 39.4898 88.0819 39.4962C87.9211 39.5026 87.7345 39.5155 87.5994 39.5155C87.5158 39.5155 87.4708 39.4962 87.4708 39.4512C87.4708 39.4254 87.4901 39.3868 87.5351 39.3868C87.6123 39.3868 87.7152 39.3611 87.7924 39.3483C87.9532 39.3225 87.9725 39.1617 88.0111 38.9237C88.0561 38.5956 88.0561 37.9652 88.0561 37.1933L88.0626 35.7846ZM95.6402 36.9553C95.6788 36.9553 95.6788 36.936 95.6659 36.8974L94.849 34.7039C94.8039 34.5817 94.7525 34.5817 94.7075 34.7039L93.9355 36.8974C93.9291 36.936 93.9356 36.9553 93.9613 36.9553H95.6402ZM94.7203 33.6232C94.8232 33.3595 94.8618 33.3145 94.9197 33.3145C95.0034 33.3145 95.0355 33.4302 95.1191 33.6039C95.2671 33.9448 96.5987 37.2448 97.1068 38.4606C97.4092 39.1746 97.6343 39.2775 97.8144 39.3354C97.9238 39.3675 98.0331 39.3804 98.1425 39.3804C98.1875 39.3804 98.2454 39.3997 98.2454 39.4447C98.2454 39.4898 98.1489 39.5091 98.0589 39.5091C97.9366 39.5091 97.3255 39.5091 96.753 39.4898C96.5922 39.4769 96.4636 39.4769 96.4636 39.4319C96.4636 39.3933 96.4829 39.3933 96.5215 39.374C96.5665 39.3547 96.6501 39.2904 96.5986 39.1553L95.8525 37.322C95.8332 37.2834 95.8267 37.2769 95.7753 37.2769H93.8648C93.8262 37.2769 93.8005 37.2962 93.7812 37.3413L93.3116 38.6214C93.2344 38.8208 93.1894 39.0138 93.1894 39.1553C93.1894 39.3161 93.3309 39.374 93.4724 39.374H93.5496C93.6139 39.374 93.6332 39.3997 93.6332 39.4383C93.6332 39.4833 93.5882 39.5026 93.511 39.5026C93.3116 39.5026 92.8613 39.4769 92.7648 39.4769C92.6812 39.4769 92.2631 39.5026 91.9286 39.5026C91.8256 39.5026 91.7678 39.4833 91.7678 39.4383C91.7678 39.3997 91.8063 39.374 91.8449 39.374C91.9028 39.374 92.0251 39.3675 92.0894 39.3547C92.4689 39.3097 92.6233 39.0266 92.7841 38.6214L94.7203 33.6232ZM100.252 36.46C100.252 36.505 100.272 36.5372 100.31 36.5629C100.432 36.6273 100.857 36.6851 101.224 36.6851C101.423 36.6851 101.648 36.6787 101.848 36.5436C102.131 36.3571 102.349 35.9325 102.349 35.3214C102.349 34.3244 101.803 33.7519 100.921 33.7519C100.677 33.7519 100.413 33.7776 100.33 33.7969C100.291 33.8162 100.265 33.8419 100.265 33.8934V36.46H100.252ZM99.5319 35.7846C99.5319 34.5431 99.5319 34.3179 99.5126 34.0606C99.4933 33.7905 99.4483 33.6554 99.1717 33.6168C99.0752 33.6039 98.9851 33.5975 98.8887 33.5975C98.8629 33.5975 98.8243 33.5589 98.8243 33.5332C98.8243 33.4881 98.8629 33.4688 98.953 33.4688C99.3325 33.4688 99.8857 33.4881 99.9307 33.4881C100.014 33.4881 100.709 33.4688 100.966 33.4688C101.494 33.4688 102.079 33.5139 102.51 33.8162C102.716 33.9641 103.083 34.3501 103.083 34.9097C103.083 35.5015 102.838 36.074 102.066 36.7366C102.742 37.5857 103.321 38.3062 103.797 38.8079C104.241 39.2582 104.511 39.3354 104.717 39.3611C104.877 39.3868 104.961 39.3868 105.006 39.3868C105.051 39.3868 105.083 39.4254 105.083 39.4512C105.083 39.4962 105.038 39.5155 104.884 39.5155H104.369C103.9 39.5155 103.694 39.4705 103.482 39.3547C103.121 39.1681 102.825 38.7822 102.349 38.1775C102.002 37.7465 101.635 37.2255 101.455 37.0132C101.417 36.9746 101.397 36.9682 101.339 36.9682L100.285 36.9489C100.246 36.9489 100.227 36.9682 100.227 37.0132V37.1998C100.227 37.9717 100.227 38.5956 100.265 38.9237C100.291 39.1617 100.342 39.3097 100.593 39.3483C100.709 39.3675 100.883 39.3868 100.96 39.3868C101.018 39.3868 101.024 39.4254 101.024 39.4512C101.024 39.4898 100.986 39.5155 100.889 39.5155C100.439 39.5155 99.9115 39.4898 99.8729 39.4898C99.8664 39.4898 99.3068 39.5155 99.0559 39.5155C98.9723 39.5155 98.9273 39.4962 98.9273 39.4512C98.9273 39.4254 98.9466 39.3868 98.9916 39.3868C99.0688 39.3868 99.1717 39.3675 99.2425 39.3483C99.4033 39.3097 99.4226 39.1617 99.4612 38.9237C99.5062 38.5956 99.5062 37.9652 99.5062 37.1933L99.5319 35.7846Z" fill="#981E32"/>
<path fill-rule="evenodd" clip-rule="evenodd" d="M105.757 38.7682C104.947 38.0735 104.747 37.1601 104.747 36.3946C104.747 35.8607 104.947 34.928 105.68 34.2139C106.175 33.7315 106.935 33.3584 108.202 33.3584C108.53 33.3584 108.999 33.3841 109.405 33.4549C109.713 33.5128 109.977 33.5707 110.254 33.5771C110.337 33.5771 110.357 33.6157 110.357 33.6607C110.357 33.7251 110.337 33.8215 110.318 34.111C110.312 34.3748 110.312 34.8186 110.299 34.928C110.292 35.0502 110.254 35.0952 110.202 35.0952C110.144 35.0952 110.138 35.0373 110.138 34.928C110.138 34.6192 110.009 34.2976 109.791 34.1303C109.501 33.8859 108.896 33.6865 108.163 33.6865C107.102 33.6865 106.594 33.9695 106.298 34.2397C105.687 34.8057 105.552 35.5198 105.552 36.3303C105.552 37.8677 106.767 39.2314 108.536 39.2314C109.16 39.2314 109.572 39.1864 109.9 38.8519C110.08 38.6717 110.189 38.3372 110.222 38.1829C110.241 38.0992 110.247 38.0671 110.305 38.0671C110.344 38.0671 110.382 38.125 110.382 38.1829C110.382 38.2408 110.267 38.9355 110.183 39.2121C110.138 39.36 110.119 39.3922 109.977 39.4501C109.636 39.5787 109.019 39.6302 108.478 39.6302C107.243 39.6238 106.407 39.3279 105.757 38.7682Z" fill="#981E32"/>
<path fill-rule="evenodd" clip-rule="evenodd" d="M117.209 37.1933C117.209 37.9652 117.215 38.5956 117.254 38.9237C117.279 39.1617 117.299 39.3097 117.556 39.3482C117.672 39.3675 117.858 39.3868 117.923 39.3868C117.981 39.3868 118 39.4254 118 39.4512C118 39.4898 117.955 39.5155 117.858 39.5155C117.408 39.5155 116.881 39.4898 116.829 39.4898C116.791 39.4898 116.257 39.5155 116.012 39.5155C115.916 39.5155 115.877 39.4962 115.877 39.4512C115.877 39.4254 115.896 39.3868 115.942 39.3868C116.019 39.3868 116.109 39.3675 116.186 39.3482C116.353 39.3097 116.385 39.1488 116.411 38.9173C116.45 38.5892 116.45 37.9845 116.45 37.2126V36.415C116.45 36.3764 116.43 36.3699 116.405 36.3699H112.95C112.925 36.3699 112.905 36.3764 112.905 36.415V37.2126C112.905 37.9845 112.905 38.5956 112.944 38.9237C112.97 39.1617 113.002 39.3097 113.246 39.3482C113.368 39.3675 113.549 39.3868 113.626 39.3868C113.671 39.3868 113.69 39.4254 113.69 39.4512C113.69 39.4898 113.651 39.5155 113.561 39.5155C113.098 39.5155 112.571 39.4898 112.539 39.4898C112.494 39.4898 111.966 39.5155 111.709 39.5155C111.625 39.5155 111.58 39.4962 111.58 39.4512C111.58 39.4254 111.599 39.3868 111.645 39.3868C111.722 39.3868 111.825 39.3675 111.895 39.3482C112.056 39.3097 112.076 39.1617 112.114 38.9237C112.159 38.5956 112.159 37.9652 112.159 37.1933V35.7846C112.159 34.5431 112.159 34.3179 112.14 34.0606C112.121 33.7905 112.075 33.6554 111.799 33.6168C111.702 33.6039 111.612 33.5975 111.516 33.5975C111.49 33.5975 111.452 33.5589 111.452 33.5332C111.452 33.4881 111.49 33.4688 111.58 33.4688C111.96 33.4688 112.481 33.4881 112.532 33.4881C112.571 33.4881 113.098 33.4688 113.349 33.4688C113.446 33.4688 113.478 33.4881 113.478 33.5332C113.478 33.5589 113.439 33.5975 113.413 33.5975C113.356 33.5975 113.298 33.5975 113.208 33.6168C112.982 33.6618 112.937 33.7776 112.918 34.0606C112.912 34.3179 112.912 34.5624 112.912 35.8039V35.9711C112.912 36.0162 112.931 36.0162 112.957 36.0162H116.411C116.437 36.0162 116.456 36.0162 116.456 35.9711V35.7974C116.456 34.5559 116.45 34.3115 116.437 34.0542C116.418 33.784 116.379 33.6489 116.109 33.6104C116.012 33.5975 115.922 33.5911 115.826 33.5911C115.787 33.5911 115.761 33.5525 115.761 33.5267C115.761 33.4817 115.8 33.4624 115.896 33.4624C116.263 33.4624 116.797 33.4817 116.836 33.4817C116.881 33.4817 117.408 33.4624 117.653 33.4624C117.749 33.4624 117.794 33.4817 117.794 33.5267C117.794 33.5525 117.755 33.5911 117.717 33.5911C117.659 33.5911 117.614 33.5911 117.511 33.6104C117.292 33.6554 117.247 33.7712 117.228 34.0542C117.209 34.3115 117.209 34.5366 117.209 35.7781V37.1933Z" fill="#981E32"/>
<path fill-rule="evenodd" clip-rule="evenodd" d="M9.21151 9.27442C9.01853 9.52529 8.81269 9.7633 8.62614 10.027C9.01853 10.1428 9.6039 10.22 10.0477 10.1042C9.70682 9.89195 9.53314 9.51242 9.21151 9.27442ZM4.60575 7.55047C4.92095 7.65983 5.40983 7.85281 5.81509 7.81421C6.12385 7.78205 6.2525 7.51188 6.25894 7.20311C6.26537 6.68207 5.9952 6.14173 5.65427 6.03237C5.44199 6.67564 4.90809 6.99727 4.60575 7.55047ZM11.3471 3.40143C11.5015 3.62014 11.7717 3.86458 11.746 4.25697C11.7267 4.55287 11.5273 4.66866 11.4308 4.90667C11.6945 5.21543 11.1542 5.22187 11.3278 5.40841C10.7875 5.8394 9.8612 5.92945 8.96064 5.94875C8.99923 6.42477 9.15361 6.77213 9.27583 7.15808C9.77114 6.69493 10.1249 6.0774 10.9933 5.97448C11.4887 6.57915 10.8776 7.11949 10.5559 7.52474C10.3115 7.82708 10.1056 8.11011 9.90623 8.34812C10.2021 8.837 10.4916 9.33231 10.8904 9.71827C10.8132 9.79546 10.884 9.89195 10.9097 9.96914C10.9162 10.0463 10.7875 10.0013 10.8261 10.1171C11.0062 10.3101 11.3729 10.1621 11.6816 10.175C11.9454 10.1814 12.1769 10.2329 12.3506 10.3165C12.3056 10.4773 12.3571 10.6188 12.3506 10.7989C12.0676 10.8375 11.791 11.0498 11.4951 11.0756C11.3793 11.0884 11.2764 11.0498 11.1606 11.0563C10.884 11.0627 10.5881 11.1206 10.2858 11.127C9.17935 11.1399 8.13726 11.2364 7.10161 11.1913C6.75425 11.1785 6.47765 11.2492 6.16245 11.2621C5.26188 11.2878 4.39348 11.2106 3.56367 11.2171C3.08122 11.2235 2.62451 11.1849 2.24498 11.1849C2.17422 11.513 2.34791 11.7381 2.37364 12.0404C3.04263 11.8603 3.57654 12.2463 4.17477 12.2334C4.43851 12.2334 4.77943 12.1691 5.03031 12.1048C5.13966 12.0726 5.22972 12.0083 5.3455 11.9954C5.43556 11.989 5.53848 12.0404 5.64141 12.034C5.73789 12.0276 5.80222 11.9633 5.89228 11.9697C6.23321 11.9825 6.6063 12.2592 6.97939 12.2977C7.55189 12.3556 8.09223 12.1884 8.7162 12.3042C9.10215 12.0469 9.5653 12.3685 10.0156 12.3814C10.3887 12.3878 10.7746 12.2399 11.167 12.2656C11.2699 12.272 11.3857 12.3235 11.4822 12.3235C11.7717 12.3235 12.0676 12.1627 12.3635 12.1948C12.7494 11.2428 12.4986 10.0656 12.5114 8.92705C12.5179 8.01362 12.4214 7.04873 12.5114 6.14173C12.5436 5.82653 12.6208 5.56279 12.6144 5.28619C12.6015 4.85521 12.4664 4.44352 12.5114 3.9675C12.5307 3.75523 12.6272 3.54938 12.5951 3.33711C12.2348 3.4336 11.7395 3.4336 11.3471 3.40143ZM9.31443 3.16343C8.38813 3.16986 7.1981 3.18272 6.30396 3.395C6.13672 3.22132 5.84725 3.40143 5.63497 3.42073C5.33907 3.44003 5.03031 3.31138 4.71511 3.31781C4.5157 3.32424 4.31629 3.3757 4.12331 3.36927C3.8467 3.34997 3.57654 3.26635 3.28707 3.26635C2.84322 3.26635 2.41223 3.33067 1.99411 3.3757C2.07774 3.76809 2.18066 4.08972 2.14206 4.57217C2.1099 4.90023 1.88476 5.30549 1.89119 5.55636C1.89119 5.76221 2.05201 5.97448 2.0713 6.18676C2.08417 6.34757 2.08417 6.50839 2.0713 6.6692C2.02627 7.22884 2.03271 7.85281 1.98768 8.40601C1.97481 8.5218 1.92335 8.64402 1.92335 8.76624C1.92335 9.06214 2.0906 9.37734 1.98768 9.66681C2.30288 9.61535 2.55375 9.52529 2.88181 9.57675C3.11339 9.60248 3.30637 9.76973 3.49934 9.79546C3.71805 9.82762 3.95606 9.7633 4.19407 9.78903C4.35488 9.80832 4.52856 9.87908 4.69581 9.91125C5.58994 10.0721 6.47764 10.2071 7.26886 9.93698C7.57119 9.19722 8.09867 8.69548 8.48462 8.04578C8.19515 7.35106 7.85423 6.7078 7.62265 5.96162H7.28816C7.31389 6.50196 7.51973 7.19668 7.35248 7.71772C7.28816 7.9107 7.00512 8.39315 6.89577 8.49607C6.82501 8.55396 6.68349 8.57969 6.56127 8.64402C6.46478 8.69548 6.37472 8.81127 6.2911 8.83057C6.03379 8.88203 5.72503 8.75337 5.47416 8.77267C5.28118 8.79197 5.1075 8.86273 4.92095 8.86273C4.5157 8.86916 4.18763 8.74694 3.87887 8.62472C3.47361 8.90776 2.84965 8.66975 2.63737 8.38028C2.52802 8.07152 2.61808 7.75632 2.82392 7.60193C2.91398 7.54404 3.0169 7.54404 3.11339 7.49901C3.73092 7.21598 4.11688 6.65634 4.39348 6.02594C3.99466 5.73004 3.22274 5.94232 2.97187 5.53063C2.88825 5.38268 2.79176 4.99029 2.84965 4.75872C2.88181 4.61077 3.2935 4.21194 3.60227 4.08329C3.79524 4.01253 4.00109 3.99323 4.20693 4.01253C4.535 4.06399 4.61219 4.35346 4.91452 4.46925C5.18469 4.57217 5.48059 4.48855 5.77649 4.52714C6.08526 4.56574 6.37472 4.69439 6.69635 4.68796C6.94723 4.68796 7.1595 4.61077 7.38464 4.6172C7.50043 4.34703 7.38464 4.01897 7.48757 3.76166C7.53259 3.64587 7.68054 3.58155 7.77703 3.51079C8.13726 3.25992 8.26591 3.33067 8.47176 3.6716C8.639 3.9675 8.79339 4.23767 8.76766 4.69439C9.29513 4.72012 9.84834 4.8745 10.3758 4.76515C10.4659 4.56574 10.5881 4.3213 10.498 4.09616C10.4337 3.93534 10.1957 3.92891 10.1635 3.76166C10.26 3.65231 10.5431 3.45289 10.5173 3.36284C10.1378 3.27921 9.63606 3.31138 9.31443 3.16343ZM0 3.45933V2.95758C0.0450283 2.66811 0.167248 2.47514 0.315198 2.24356C0.456716 2.02485 0.54034 1.77398 0.694723 1.59387C0.95846 1.2658 1.42161 0.783357 1.92979 0.770491C2.50229 0.751194 2.62451 1.20791 3.0169 1.3044C3.23561 1.35586 3.48005 1.2851 3.71162 1.3237C4.10401 1.38159 4.4578 1.62603 4.86306 1.70965C5.32621 1.80614 5.75076 1.88977 6.18175 1.95409C7.20453 1.53597 8.44603 1.81901 9.63606 1.86404C10.2729 1.88977 10.8776 1.86404 11.4565 1.96053C12.0354 2.05702 12.5822 2.1535 13.1547 2.17924C13.2448 2.05058 13.4828 2.06345 13.4892 1.84474C13.6371 1.77398 13.7465 1.6003 13.9073 1.58743C14.2097 1.56814 14.6857 2.19853 14.6985 2.46227C14.7114 2.71958 14.4798 2.95758 14.4284 3.27921C14.4026 3.44003 14.4026 3.59441 14.364 3.73593C14.319 3.89675 14.2225 4.01253 14.2161 4.15405C14.1968 4.50784 14.2804 4.88094 14.2997 5.24116C14.319 5.56279 14.2354 5.89729 14.1775 6.25108C13.9909 7.3382 14.0167 8.47677 13.9523 9.53815C13.9266 9.86622 14.0167 10.2007 14.0167 10.5223C14.0167 10.6896 13.9781 10.8761 13.9523 11.0498C13.9395 11.1206 13.8945 11.2106 13.888 11.2814C13.8816 11.3586 13.933 11.4486 13.933 11.5323C13.9073 11.841 13.7336 12.1434 13.6629 12.3942C13.6757 12.5358 13.7272 12.6387 13.7015 12.8124C13.457 13.1147 13.2062 13.3784 12.8652 13.5071C12.2927 13.7258 11.4501 13.6422 10.7103 13.6679C10.3436 13.6808 9.97056 13.7001 9.6039 13.7194C9.20508 13.7387 8.83842 13.6357 8.47176 13.6422C8.13726 13.6486 7.80276 13.6486 7.48757 13.6486C7.42967 13.6486 7.37178 13.61 7.32032 13.61C7.26242 13.61 7.12734 13.6615 7.02442 13.6743C6.67706 13.7129 6.3297 13.7258 5.9759 13.7001C5.73146 13.6808 5.51275 13.5521 5.22329 13.5392C4.773 13.5199 4.44494 13.6293 4.03325 13.6936C3.48648 13.7837 2.83678 13.655 2.36077 13.7451C2.05844 13.803 1.88476 13.9316 1.67248 13.8995C1.36371 13.848 1.11928 13.5778 1.10641 13.2305C1.09998 13.1533 1.07425 13.1211 1.06138 13.0439C1.03565 12.8703 1.10641 12.7545 1.10641 12.6065C1.09998 12.4521 0.887701 12.1691 0.83624 12.0018C0.617531 11.3457 0.495312 10.6767 0.482446 9.84692C0.469581 9.32588 0.437418 8.81127 0.463148 8.27736C0.488879 7.74989 0.488879 7.21598 0.482446 6.66277C0.482446 6.37974 0.321631 6.07097 0.315198 5.78794C0.283035 5.49847 0.315198 5.24116 0.360227 4.91953C0.424553 4.3406 0.160815 3.92248 0 3.45933Z" fill="#981E32"/>
<path fill-rule="evenodd" clip-rule="evenodd" d="M36.6402 7.38443C36.7881 7.55167 36.8653 7.78968 37.0197 7.9505C37.1548 7.76395 37.2834 7.57097 37.3992 7.36513C37.1548 7.32653 36.8396 7.28794 36.6402 7.38443ZM36.9747 3.26111C36.8653 3.49912 36.7946 3.78216 36.7881 4.12309C36.9296 4.14882 37.039 4.21314 37.1805 4.23887C37.2577 3.88508 37.3671 3.55702 37.4121 3.17106C37.2706 3.20965 37.1226 3.23538 36.9747 3.26111ZM36.9747 1.98102C37.0454 2.01962 37.1162 2.05821 37.1805 2.10324C37.4185 2.10324 37.5279 1.96816 37.7466 1.95529C37.8366 1.74945 37.9846 1.61436 38.0168 1.36349C38.1776 1.31203 38.3577 1.2863 38.5828 1.29917C38.7887 1.40852 38.8916 1.5436 38.898 1.86524C38.898 2.05821 38.898 2.33482 38.8787 2.4892C38.8401 2.75294 38.6407 3.0617 38.5185 3.35117C38.3899 3.6728 38.2162 3.95584 38.184 4.23244C38.4863 4.41255 38.9559 4.04589 39.2068 4.30963C39.3998 4.9336 38.8852 5.28096 38.2226 5.34528C37.47 5.42248 36.5373 5.44177 36.0227 5.23593C35.8168 5.39675 35.5338 5.15874 35.3151 5.28096C35.2636 5.57686 35.3858 5.88562 35.3344 6.18153C35.3279 6.25228 35.27 6.32304 35.2507 6.3938C35.1414 6.81192 35.2057 7.24934 35.1414 7.66746C35.0835 8.10488 34.8069 8.51657 34.8905 8.98615C35.1735 8.86393 35.3537 8.65165 35.746 8.72884C35.9648 8.76744 36.1513 9.01831 36.3764 9.01831C36.2928 8.67095 36.0612 8.36862 35.849 8.03412C35.7396 7.86044 35.5531 7.72535 35.5145 7.53238C35.4373 7.14642 35.6367 6.77976 35.7267 6.43883C36.1963 5.73124 37.3606 6.22012 37.946 6.48386C38.0811 6.40667 38.1004 6.27158 38.2612 6.25228C38.5571 6.22012 38.8916 6.59321 38.8466 6.89555C38.8208 7.03706 38.6021 7.22361 38.4928 7.39729C38.4092 7.52594 38.3834 7.68676 38.3062 7.79611C38.2097 7.92477 38.0232 8.02125 37.9138 8.15634C37.8238 8.26569 37.7981 8.39435 37.7273 8.47154C37.6308 8.56803 37.4893 8.58733 37.4121 8.65808C37.3735 8.7996 37.425 8.99901 37.4507 9.14053C37.663 9.18556 37.8624 9.28848 38.0811 9.28205C38.3448 9.27562 38.5442 9.08907 38.7887 9.06977C38.8852 9.20486 38.9495 9.3721 39.0781 9.46216C39.091 9.57795 38.9495 9.56508 39.0203 9.668C38.7629 9.82239 38.57 10.0861 38.2419 10.1955C37.9975 10.2791 37.6823 10.2148 37.4443 10.3692C37.277 12.1446 36.6337 13.4568 34.7876 13.5662C34.5238 13.4697 34.0414 13.2831 34.1572 12.8393C34.1572 12.8393 34.2087 12.7492 34.2215 12.7364C34.3952 12.5498 34.8262 12.6656 35.1221 12.582C36.1063 12.3182 36.4858 11.5142 36.5051 10.292C35.9905 10.0282 35.1478 10.337 34.6847 10.0347C34.3116 10.9159 33.1151 11.5849 31.8414 11.1861C31.6292 10.961 31.2754 10.53 31.4233 10.1054C31.5005 9.87385 31.7771 9.82239 32.0087 9.70017C32.1245 9.79666 32.2403 9.89958 32.4075 9.95104C33.4625 10.1119 34.0478 9.44286 34.2087 8.38791C34.3566 7.39729 34.3502 6.23299 34.0414 5.44177C33.4689 5.2295 32.9736 5.40961 32.3689 5.45464C32.3303 5.39031 32.266 5.35172 32.221 5.28739C32.2982 4.82424 32.1181 4.34823 32.4075 4.03303C32.4783 3.95584 32.5876 3.9494 32.697 3.88508C32.9736 3.72426 33.4239 3.3769 33.8291 3.64707C33.9063 3.69853 33.9513 3.79502 34.0607 3.85292C34.1572 3.90438 34.3051 3.94297 34.4402 3.99443C34.7297 4.12309 34.9613 4.22601 35.4437 4.17455C35.5209 3.91081 35.508 3.54415 35.4823 3.23538C35.0835 3.19036 34.6654 3.12603 34.2923 3.07457C34.1508 3.05527 34.0028 3.07457 33.8935 3.03597C33.7777 2.99094 33.7198 2.86229 33.5976 2.84943C33.4946 2.83656 33.4174 2.92019 33.3274 2.91375C33.1923 2.91375 33.1408 2.83656 33.0315 2.79153C32.89 2.35412 32.9736 1.71729 33.218 1.38922C33.3338 1.23484 33.6554 1.02256 33.8484 0.983967C34.0414 0.951804 34.2215 1.05473 34.4145 1.04186C34.5367 1.03543 34.6075 0.958237 34.749 0.958237C34.8583 1.03543 34.8841 1.27343 34.9162 1.47928C35.0771 1.64009 35.3472 1.68512 35.5659 1.78804C35.5724 1.03543 35.6496 0.360003 36.1127 0.0641022C36.2156 0.0319391 36.2156 0.115563 36.3057 0.109131C36.4022 0.0962654 36.4665 -0.0516849 36.6402 0.0190739C36.8139 0.0962653 36.994 0.784556 37.0197 1.10619C37.0326 1.42782 36.9554 1.74945 36.9747 1.98102Z" fill="#981E32"/>
<path fill-rule="evenodd" clip-rule="evenodd" d="M41.5354 5.13308C41.3296 4.79858 40.7185 4.91437 40.4869 5.16524C40.7185 5.53833 40.9436 5.93716 41.1173 6.37458C41.2073 6.59972 41.2781 6.82486 41.3682 7.04357C41.4582 7.25584 41.5933 7.44239 41.6833 7.64823C41.7348 7.76402 41.7348 7.92484 41.8506 8.00203C41.9407 7.12719 42.2366 6.17516 42.0822 5.26173C41.8892 5.22314 41.7155 5.17168 41.5354 5.13308ZM41.9535 3.75007C42.095 3.89158 42.3137 3.94948 42.5196 4.0331C42.8605 4.17462 43.2529 4.3869 43.671 4.46409C43.9991 4.52841 44.4494 4.57987 44.7388 4.45765C44.8289 4.41906 44.9576 4.25181 45.054 4.24538C45.3692 4.21322 45.3435 4.65063 45.2213 4.85004C44.919 5.35822 44.2178 5.62196 43.4202 5.61553C43.3301 6.07224 43.0792 6.58042 43.1243 7.03714C43.1307 7.11433 43.0535 7.10789 43.0406 7.16579C43.0857 7.85408 42.6611 8.2529 42.7705 9.06984C42.4939 9.42364 42.719 9.7324 42.8927 10.157C43.1371 10.7423 43.5166 11.5593 43.8125 12.0353C44.0055 12.344 44.4301 12.6657 44.771 12.7622C45.1505 12.8715 45.5944 12.7879 45.7552 12.5692C45.8453 12.4405 45.8967 12.0803 46.0704 12.0803C46.3341 12.0803 46.2827 12.7622 46.1926 13.0002C46.0447 13.4119 45.8774 13.5598 45.5043 13.7399C44.9961 13.9779 43.8254 14.3253 43.3044 13.8621C42.9441 13.5341 42.8348 12.9294 42.6354 12.4019C42.4424 11.8809 42.1272 11.4692 42.005 10.9224C41.4196 11.2698 40.7828 11.8745 39.8758 11.9838C39.4705 12.0353 39.0846 11.9002 38.6214 11.9066C38.5249 11.8294 38.4156 11.7651 38.3062 11.7008C38.184 11.4628 38.2097 11.1862 38.1969 10.8645C38.2548 10.7488 38.3706 10.7037 38.4735 10.633C39.3354 10.8259 40.384 10.723 40.9436 10.2599C41.0787 10.1505 41.3874 9.8096 41.381 9.61018C41.381 9.4751 41.1301 9.13417 41.0272 8.92189C40.8921 8.66459 40.7956 8.43301 40.6927 8.21431C40.474 7.73186 40.3003 7.0886 40.1009 6.70907C39.9723 6.45177 39.8436 6.27165 39.7471 5.95646C39.715 5.82137 39.612 5.69272 39.612 5.60266C39.612 5.37752 39.8886 5.20384 39.9272 4.99156C39.8501 4.9208 39.6571 4.95297 39.5735 4.82431C39.477 4.69566 39.4834 4.39976 39.5477 4.23895C39.5799 4.17462 39.6442 4.15532 39.6957 4.091C39.7664 4.00737 39.7664 3.95591 39.8243 3.92375C39.9337 3.85942 40.043 3.87229 40.1395 3.84012C40.6799 3.63428 41.2524 2.90739 41.1044 2.1998C41.0787 2.07758 40.9565 1.9425 40.9822 1.78168C41.0015 1.57584 41.2652 1.54368 41.336 1.25421C41.8249 1.0162 42.4102 1.50508 42.526 1.93607C42.7061 2.63079 42.0886 3.31908 41.9535 3.75007ZM24.6369 2.18051C25.0486 2.13548 25.4989 2.19337 25.9299 2.19337C26.0392 2.19337 26.155 2.16121 26.2644 2.16764C26.4123 2.18051 26.5538 2.29629 26.7275 2.32846C26.9527 2.37349 27.2679 2.32202 27.5638 2.34132C27.9047 2.36705 28.1684 2.48927 28.445 2.41851C28.5158 2.39922 28.5544 2.34132 28.6316 2.31559C28.7088 2.28343 28.7924 2.29629 28.8631 2.27056C29.0947 2.18051 29.4292 1.87817 29.8473 2.05185C30.0532 2.14191 30.2912 2.52787 30.1818 2.8881C30.1239 3.07464 29.9117 3.17113 29.8023 3.37054C29.5193 3.92375 29.6672 4.6828 29.4871 5.30033C29.4807 5.39682 29.4292 5.24243 29.4035 5.33892C29.4035 6.04008 28.9661 6.54182 28.4386 6.70907C28.3357 6.65761 28.1813 6.65761 28.0784 6.60615C27.8082 6.37458 28.0462 5.93716 28.1234 5.66699C28.2971 5.02373 28.1556 4.23895 28.2713 3.48633C27.5573 3.37697 26.7532 3.37697 26.0521 3.25475C25.8205 3.21616 25.5889 3.1261 25.3831 3.11324C24.9135 3.08751 24.5018 3.26762 24.1287 3.41557C23.7942 3.43487 23.4404 3.22259 23.0609 3.26119C22.9516 3.27405 22.8808 3.35124 22.7715 3.38984C22.3533 3.53136 21.8194 3.56995 21.2405 3.60855C20.9124 3.63428 20.5265 3.73077 20.0955 3.69861C19.568 3.66644 19.0791 3.42844 18.5645 3.54422C18.6481 4.3676 18.4359 5.55763 18.7704 6.20089C18.6417 6.34885 18.6481 6.61902 18.4809 6.72837C18.4037 6.78626 18.5645 6.85059 18.5002 6.89562C18.4166 6.82486 18.2944 6.91492 18.1914 6.85702C17.9277 6.54182 17.4517 6.15587 17.3745 5.5898C17.3552 5.45471 17.3809 5.31963 17.3552 5.17168C17.3166 4.9594 17.2072 4.74712 17.2072 4.52198C17.2072 4.41906 17.2587 4.31614 17.2458 4.20678C17.2265 3.81439 16.7827 3.58925 16.6862 3.184C16.5382 2.61793 16.8406 1.97466 17.1879 1.75595C17.6254 1.47292 18.661 1.44076 18.8604 2.03899C19.2528 2.07758 19.5423 2.12905 19.8446 2.2384C20.1212 2.33489 20.3978 2.5343 20.7194 2.54717C20.951 2.5536 21.1569 2.46354 21.4142 2.45711C21.9223 2.45068 22.6557 2.46997 22.8165 2.13548C22.8872 1.98753 22.8679 1.77525 22.8165 1.67233C22.6878 1.41502 22.2504 1.50508 22.2054 1.19632C22.1861 1.06123 22.3019 0.836089 22.3919 0.713869C22.675 0.327912 23.0288 0.0127136 23.7106 0.263586C23.9229 0.34721 24.1995 0.49516 24.3603 0.61738C24.8235 0.958309 24.8235 1.68519 24.6369 2.18051Z" fill="#981E32"/>
<path fill-rule="evenodd" clip-rule="evenodd" d="M26.4767 4.95284C26.7984 5.06863 26.8241 5.54465 26.6054 5.78908C26.3095 5.78265 26.1358 6.02709 25.8528 6.11072C25.0744 6.32942 24.0516 6.00136 23.254 6.21364C23.299 6.86333 23.5627 7.29432 23.8393 7.71887C24.206 7.59665 24.4826 7.70601 24.7785 7.87969C24.9458 7.97618 25.0165 8.12413 25.1773 8.13056C25.3188 8.13056 25.4604 7.99547 25.5955 7.91828C25.9814 7.69957 26.3159 7.39724 26.5796 7.03058C26.5089 6.88906 26.5282 6.64462 26.5989 6.52884C26.9141 6.49667 26.9785 6.2265 27.3516 6.29726C27.6603 6.35515 28.2007 6.93409 28.1235 7.4873C28.0784 7.78963 27.8597 7.7832 27.6024 7.91185C27.3516 8.03407 27.1843 8.31067 26.9141 8.40073C26.7726 8.74166 26.1615 8.79955 25.8849 9.07615C25.9364 9.39779 26.168 9.66152 26.3674 9.93169C26.7533 10.4592 27.1521 10.9802 27.5638 11.4948C27.8276 11.8229 28.0463 12.1574 28.3808 12.3439C28.7989 12.5819 29.6094 12.8392 30.1819 12.5176C30.2977 12.4533 30.4263 12.1831 30.5614 12.1831C30.748 12.1831 30.9345 12.5755 30.8959 12.8521C30.8766 12.9743 30.7737 13.0708 30.6644 13.1866C30.4263 13.4568 30.0147 13.8878 29.5386 13.9264C29.4293 13.9328 29.3071 13.8878 29.2041 13.8878C28.9661 13.8813 28.7539 13.9521 28.5352 13.9521C28.3808 13.9521 28.2457 13.8492 28.0784 13.8942C27.8855 13.7398 27.596 13.7076 27.403 13.5468C27.2551 13.4182 27.1714 13.1802 27.0492 13.0001C26.9206 12.8135 26.7919 12.627 26.6697 12.479C26.2709 12.003 25.9042 11.482 25.5376 10.9416C25.1902 10.427 24.7335 9.94456 24.4697 9.33989C24.7463 10.5364 24.4697 11.7393 24.0259 12.524C23.5627 13.341 22.8616 13.9907 21.9353 14.2094C21.6973 14.0872 21.4464 13.817 21.5622 13.4568C21.5815 13.3924 21.6587 13.341 21.768 13.2445C21.8967 13.1351 21.9417 13.0065 22.1476 13.0129C22.8938 12.2732 23.685 11.1217 23.2797 9.67439C23.0996 9.80304 22.9388 10.0089 22.778 10.2019C22.6107 10.3948 22.4692 10.5943 22.3405 10.813C21.9739 10.9738 21.6587 11.2697 21.292 11.527C20.6166 12.003 19.8254 12.4211 18.9892 12.7556C18.3909 12.9936 17.8184 13.3345 16.9822 13.2316C16.7828 13.2059 16.2939 12.717 16.3325 12.4404C16.3518 12.3182 16.5769 12.1188 16.712 12.0802C16.86 12.0352 17.0401 12.0738 17.1945 12.0545C17.6512 12.003 17.9664 11.8357 18.3459 11.7135C19.1628 11.4498 19.9026 11.2954 20.5844 10.8194C20.8032 10.665 21.009 10.4656 21.2148 10.2919C21.4143 10.1182 21.6523 9.94456 21.8259 9.74515C22.0253 9.51357 22.1733 9.24984 22.347 9.0054C22.4885 8.81242 22.8294 8.55511 22.6815 8.20775C22.4628 8.20775 22.2827 8.32354 22.1154 8.46505C22.0189 8.54868 21.9739 8.6709 21.8838 8.76096C21.7809 8.85744 21.5751 8.9282 21.4014 9.03756C21.2406 9.13405 21.0926 9.28843 20.964 9.35276C20.8932 9.39135 20.8096 9.38492 20.7324 9.41708C20.4751 9.53287 20.2242 9.71942 19.9605 9.86093C19.433 10.1504 18.9634 10.4334 18.3073 10.6457C17.857 10.7937 17.3424 10.8194 16.9243 10.7808C16.7635 10.6521 16.5383 10.6007 16.4418 10.427C16.2939 10.1504 16.474 9.93813 16.6927 9.73228C17.6576 9.76444 18.3909 9.41708 19.0792 9.10832C19.4266 8.95393 19.7932 8.85744 20.0634 8.70306C20.2821 8.58727 20.488 8.40716 20.7131 8.27851C20.9382 8.14986 21.202 8.03407 21.4014 7.89898C21.5365 7.8025 21.6394 7.64811 21.7552 7.51946C21.8774 7.39081 22.0189 7.27502 22.0704 7.12064C22.0382 7.01772 21.9868 6.92766 21.9417 6.82474C21.4014 6.97269 20.9511 7.43584 20.4558 7.69314C19.9862 7.93758 19.4459 8.18845 18.8669 8.3557C18.3974 8.49079 18.0307 8.58728 17.5482 8.49079C17.0787 8.3943 16.6541 8.23991 16.6927 7.61595C16.8407 7.44227 17.0658 7.34578 17.233 7.1914C18.7511 7.31362 20.295 6.95982 21.0669 6.13645C20.8353 6.13001 20.6037 5.94347 20.3336 5.9113C20.2178 5.89844 20.0891 5.9499 19.9798 5.9113C19.4394 5.73119 19.8769 5.05577 20.0634 4.69554C20.3014 4.65051 20.5201 4.45753 20.771 4.41894C21.0669 4.37391 21.2985 4.54116 21.6072 4.53472C21.723 4.68267 21.8388 4.83706 21.9868 4.95284C22.4113 4.99787 22.9066 5.18442 23.4405 5.18442C23.6721 5.18442 23.8908 5.11366 24.1288 5.09436C24.4697 5.0622 24.8493 5.06863 25.1773 5.08793C25.3703 5.09436 25.5633 5.17155 25.7434 5.16512C26.0071 5.15225 26.2516 4.97214 26.4767 4.95284ZM64.6414 3.78211C64.6414 4.21953 64.5128 4.68911 64.4871 5.08793C64.4613 5.42886 64.5385 5.84055 64.5064 6.16861C64.4935 6.32299 64.4356 6.46451 64.4163 6.61889C64.3648 7.04988 64.397 7.46157 64.3262 7.87969C64.2684 8.24635 64.1976 8.67733 64.1011 9.03113C64.0432 9.23697 63.9081 9.42352 63.7859 9.62293C63.5222 10.0539 63.3871 10.3112 63.0204 10.665C62.866 10.8194 62.7245 11.0124 62.5701 11.141C62.3772 11.3018 61.8754 11.6878 61.5538 11.6685C61.1936 11.6556 60.9363 11.2697 60.7883 10.9287C60.7304 10.7937 60.6661 10.6264 60.6982 10.5235C60.7561 10.3369 61.0392 10.4013 61.1292 10.2083C61.3479 10.1826 61.6374 10.1761 61.8304 10.0925C62.4865 9.80304 63.1362 9.07615 63.2906 8.18845C63.4643 7.22999 63.5929 6.11715 63.4964 5.0815C63.445 4.50899 63.1105 4.00082 62.9111 3.57626C62.7374 2.64997 63.252 1.92951 63.8116 1.67864C64.3841 1.42134 64.6736 2.17395 65.0081 2.3219C65.1689 2.39909 65.4712 2.38623 65.7286 2.45055C65.8443 2.48272 65.9473 2.56634 66.0438 2.58564C66.2689 2.6371 66.5648 2.58564 66.8092 2.5985C67.1244 2.63067 67.4075 2.70143 67.7098 2.52775C67.8127 2.46985 67.9156 2.22541 68.1151 2.3026C68.2373 2.34763 68.263 2.68856 68.2051 2.86224C68.1794 2.9523 68.0636 3.02306 67.9607 3.13241C67.8642 3.2289 67.8127 3.36399 67.7355 3.42831C67.6648 3.48621 67.5233 3.5441 67.4203 3.60843C67.2274 3.73708 67.0665 3.8593 66.7449 3.88503C66.0116 3.94292 65.3104 3.75638 64.6414 3.78211Z" fill="#981E32"/>
<path fill-rule="evenodd" clip-rule="evenodd" d="M71.7751 3.93649C71.7365 4.66338 71.7687 5.33237 71.64 5.9885C71.8395 6.04639 72.0517 6.09142 72.2704 6.14288C72.74 6.23937 73.0552 6.27796 73.4669 6.13001C73.4669 5.85984 73.5956 5.6154 73.5827 5.34523C73.5634 5.11366 73.4412 4.88209 73.4219 4.62478C73.4026 4.32245 73.4669 4.16806 73.4862 3.96865C72.8622 3.96865 72.2769 3.8207 71.7751 3.93649ZM74.7341 3.98152C74.7534 4.21309 74.6312 4.43823 74.6183 4.68267C74.6055 4.87565 74.7148 5.08793 74.7341 5.31307C74.7534 5.6154 74.6827 5.90487 74.6891 6.23294C74.8628 6.2651 75.03 6.38732 75.3195 6.40662C75.7891 6.43878 76.3294 6.07855 76.4195 6.5996C76.4838 6.95982 76.1686 7.22356 75.8984 7.32648C75.5639 7.45513 75.0751 7.41654 74.6634 7.47443C74.5283 9.25627 74.6248 11.3533 74.6634 13.2188C74.6698 13.6626 74.8371 14.2866 74.7084 14.6146C74.6441 14.7883 74.1166 15.0006 73.8722 14.8912C73.6406 14.7883 73.7049 14.3573 73.647 13.9907C73.6149 13.8041 73.557 13.6626 73.557 13.5404C73.557 13.4117 73.602 13.2445 73.602 13.1544C73.602 13.0129 73.5505 12.8778 73.5312 12.7299C73.5119 12.4919 73.5505 12.2346 73.557 11.9644C73.557 11.4627 73.4862 10.9095 73.4862 10.3691C73.4862 9.80304 73.3768 9.2434 73.4219 8.76739C73.4605 8.28494 73.5698 7.81536 73.4412 7.37151C72.7915 7.37151 72.3283 7.18496 71.6851 7.17853C71.3763 8.17559 71.312 9.37206 70.8295 10.2276C70.7523 10.3627 70.6494 10.4785 70.5594 10.6136C70.4757 10.7422 70.4178 10.9159 70.3342 11.0188C69.8904 11.5591 69.2407 11.9644 68.3723 12.1638C67.9606 12.2539 67.5811 12.2732 67.2659 12.0352C67.0407 11.8679 66.9314 11.5077 66.9507 11.1796C67.105 10.9223 67.4331 11.1024 67.7612 11.1089C68.1471 11.1153 68.443 10.9995 68.7325 10.8773C68.8483 10.8258 68.8612 10.7229 69.0027 10.7422C69.1313 10.6007 69.3436 10.5557 69.4787 10.427C69.6331 10.2662 69.7617 9.97672 69.9032 9.74515C70.3085 9.09545 70.3792 8.23991 70.5143 7.24286C70.36 7.22999 70.257 7.25572 70.1284 7.24929C69.9161 7.22999 69.7038 7.08847 69.498 7.09491C69.2149 7.10777 69.0992 7.51303 68.7775 7.41654C68.6296 7.35864 68.546 6.8955 68.5588 6.63819C68.5781 6.14931 69.1763 5.40313 69.7038 5.40956C70.0255 5.41599 70.2506 5.64113 70.5143 5.85341C70.6559 5.28091 70.6816 4.30958 70.3985 3.84643C70.0705 3.74994 69.7296 3.65345 69.4594 3.47977C69.1249 3.64059 68.7003 3.71778 68.6038 3.26106C68.546 3.00376 68.6231 2.3605 68.7389 2.24471C68.919 2.0646 69.1635 1.7108 69.4594 1.65291C69.7617 1.58858 69.974 1.69151 70.2956 1.73653C70.6108 2.35407 71.5821 2.3026 72.2318 2.57921C72.6886 2.36693 73.216 2.6371 73.7371 2.6371C73.9301 2.6371 74.123 2.57921 74.3224 2.59207C74.7985 2.6178 75.2487 2.75289 75.6476 2.6757C75.847 2.6371 76.0528 2.45699 76.2329 2.44412C76.4774 2.43126 76.6189 2.6178 76.6832 2.79792C76.4323 3.5827 75.7826 3.98152 74.7341 3.98152Z" fill="#981E32"/>
<path fill-rule="evenodd" clip-rule="evenodd" d="M66.1273 7.21733C66.0501 7.7641 65.9536 8.28514 65.8828 8.77402C66.1723 8.89624 66.6419 8.9863 66.9892 8.85765C67.0342 8.32374 67.0728 7.7834 67.0793 7.2109C66.7576 7.21733 66.436 7.21733 66.1273 7.21733ZM65.0659 10.2021C64.6027 9.86114 64.9758 9.25647 65.0916 8.82548C65.1881 8.43309 65.2524 7.81556 65.1559 7.38458C65.1173 7.1916 64.9758 7.05008 64.9308 6.81851C64.7893 6.03373 65.1624 5.45479 65.6512 5.37117C66.1594 5.28111 66.2881 5.66707 66.481 5.9501C66.8091 6.02729 66.9892 6.16238 67.2916 6.03373C67.5424 5.93081 67.5939 5.60917 67.8319 5.60274C68.0056 5.60274 68.0828 5.75069 68.1921 5.89221C68.25 6.39395 68.0506 6.86353 68.0377 7.31382C68.0313 7.44247 68.0763 7.57112 68.057 7.69334C68.0442 7.79627 67.9541 7.86059 67.922 7.96351C67.8898 8.07287 67.8834 8.26585 67.8576 8.4138C67.8319 8.56818 67.7676 8.74186 67.7676 8.81905C67.7611 9.04419 67.8705 9.22431 67.8126 9.40442C67.7547 9.58453 67.5553 9.73248 67.388 9.79038C66.867 9.97692 66.0436 9.81611 65.5162 9.96406C65.3232 10.0284 65.2524 10.1506 65.0659 10.2021ZM54.2269 3.0104C53.931 3.3063 53.7252 3.69225 53.5515 4.12324C53.9374 4.37411 54.7608 4.44487 55.2883 4.25832C55.4748 3.83377 55.1918 3.42852 54.9088 3.28057C54.9474 3.18408 54.9795 3.08759 54.9667 2.94607C54.7029 2.93964 54.4456 2.9525 54.2269 3.0104ZM55.0246 1.81393C55.3205 1.91042 55.6485 2.0455 55.9894 2.05837C56.3561 2.07123 56.6777 1.94901 57.0122 1.94901C57.321 1.94901 57.6298 2.01334 57.9128 2.09053C58.6075 2.27064 59.5081 2.23848 60.1771 2.41216C60.3508 2.34784 60.6081 2.25778 60.7817 2.26421C61.0133 2.10983 61.1741 1.88469 61.4121 1.73674C61.618 1.85252 61.6309 2.09053 61.5987 2.30281C61.1934 2.91391 60.4987 3.31916 59.5467 3.42852C59.0964 3.47998 58.7748 3.35132 58.3759 3.2677C57.9964 3.19051 57.604 3.17121 57.3274 3.02326C57.0122 3.07472 56.6456 2.9332 56.3432 3.02969C56.4526 3.2484 56.4269 3.40279 56.4462 3.67939C56.4526 3.75658 56.5105 3.8402 56.5105 3.91096C56.5169 4.37411 56.0602 5.101 55.655 5.25538C55.3848 5.3583 54.8316 5.44836 54.5035 5.47409C54.1883 5.49982 53.8281 5.48052 53.5193 5.46122C53.3328 5.44836 53.1591 5.3583 52.9726 5.339C52.6252 5.30684 52.2971 5.57701 51.9884 5.53198C51.9047 5.51912 51.7761 5.44193 51.6539 5.39046C51.3129 5.24251 51.0106 4.89515 51.3194 4.4706C51.3773 4.41914 51.4609 4.42557 51.5509 4.44487C52.0462 4.12324 52.4772 3.73085 52.741 3.17764C52.4515 3.15835 52.1878 3.33203 51.9047 3.35132C51.3515 3.38992 50.7726 3.18408 50.2065 3.17121C49.9814 3.17121 49.7948 3.27413 49.5761 3.32559C48.875 3.47998 48.2446 3.14548 47.6914 2.98466C47.4984 3.04256 46.9774 3.37062 46.8358 3.19694C46.7715 3.11975 46.8165 3.01683 46.8165 2.88174C46.8101 2.70806 46.7393 2.46362 46.7779 2.27064C46.8037 2.12269 46.9838 1.87825 47.0931 1.7496C47.299 1.49873 47.6399 1.1771 48.058 1.1964C48.2188 1.20283 48.3604 1.32505 48.534 1.38294C48.6691 1.42797 48.8106 1.40224 48.9136 1.44084C49.1001 1.51803 49.2159 1.7496 49.396 1.81393C49.7241 1.85252 50.02 1.8075 50.3352 1.82679C50.9334 1.87182 51.4223 2.16772 52.072 2.17415C52.593 2.17415 53.3456 2.23848 53.3714 1.70457C53.3392 1.58235 53.1398 1.51159 53.1141 1.35078C53.0819 1.16423 53.1848 0.887631 53.2427 0.784709C53.5965 0.109284 55.0117 0.270099 55.1082 1.12564C55.1275 1.31862 55.0824 1.52446 55.0246 1.81393ZM52.934 9.10852C52.9147 9.26933 52.8889 9.41085 52.8696 9.57167C53.1076 9.62956 53.3842 9.64243 53.6673 9.65529C54.1626 9.67459 54.6708 9.70032 55.0503 9.68746C55.0889 9.46875 55.0503 9.21144 55.0503 9.01846C54.3298 9.15998 53.5 8.64537 52.934 9.10852ZM52.9726 7.80913C53.3006 7.99568 53.7702 7.87989 54.1883 7.92492C54.4456 7.95065 54.7865 8.1179 55.0889 8.02141C55.076 7.79627 55.1982 7.51323 55.2175 7.24949C54.4006 7.22376 53.6608 7.01149 52.8117 7.10154C52.8825 7.32025 52.934 7.55826 52.9726 7.80913ZM55.1725 10.7038C54.8444 10.826 54.3427 10.6909 53.8795 10.6909C53.6415 10.6909 53.41 10.7939 53.2106 10.8003C53.0433 10.8067 52.8696 10.7167 52.7281 10.781C52.6574 10.8132 52.4515 11.1477 52.3743 11.2892C52.2585 11.495 52.1813 11.7909 52.0784 11.9582C51.9112 12.2476 51.5123 12.7301 51.2615 12.9295C51.1586 13.0067 51.0556 13.0646 50.9463 13.1611C50.7662 13.3283 50.5925 13.4956 50.3223 13.5663C50.11 13.6178 49.8077 13.6371 49.6083 13.5277C49.544 13.4956 49.2738 13.1932 49.2738 13.0453C49.2738 12.7172 49.8527 12.6658 50.11 12.5371C50.3352 12.4278 50.5539 12.2348 50.7597 12.0482C51.1907 11.6687 51.3515 11.1927 51.5574 10.5752C51.6474 10.305 51.8018 10.022 51.8533 9.75821C51.9369 9.30793 51.9176 8.79332 51.8919 8.3559C51.879 8.0986 51.7954 7.84773 51.7053 7.64188C51.5509 7.30739 51.0814 6.8764 51.3708 6.36822C51.4609 6.20741 52.0205 5.70566 52.2071 5.6735C52.5158 5.61561 52.9211 5.77642 53.2299 5.85361C53.5643 5.94367 53.9181 5.9694 54.2591 6.01443C54.9667 6.10449 55.6421 6.54834 55.9701 5.85361C56.2017 5.89221 56.2853 5.4162 56.6198 5.51269C56.8771 5.58344 56.8064 6.47758 56.7292 6.70915C56.6906 6.81207 56.6005 6.90213 56.5619 7.00505C56.4783 7.2109 56.4848 7.4489 56.414 7.67405C56.3754 7.8027 56.2853 7.93135 56.2468 8.07287C56.1567 8.40093 56.176 8.84478 56.2017 9.28863C56.2532 10.0027 56.1889 10.7617 56.1824 11.4243C56.176 11.5851 56.2403 11.7652 56.2468 11.9453C56.2468 12.0868 56.2082 12.2476 56.2017 12.402C56.1953 12.7429 56.2725 13.0967 56.2853 13.4055C56.2918 13.5728 56.2596 13.7143 56.266 13.8429C56.266 14.0552 56.3111 14.216 56.266 14.3447C56.2017 14.5184 55.9509 14.6792 55.745 14.6663C55.1982 14.6277 55.1725 13.3669 55.1339 12.743C55.0889 12.0354 55.1339 11.3985 55.1725 10.7038ZM96.457 8.25941C96.5214 8.24655 96.5021 8.32374 96.5793 8.29801C96.7337 8.22725 96.8559 8.01497 97.0231 7.87989C97.0681 7.84129 97.1325 7.83486 97.1711 7.79626C97.6085 7.36528 97.557 6.37466 97.0231 6.07875C96.888 6.19454 96.5342 6.22027 96.3348 6.14951C96.1933 6.90213 96.1676 7.66761 96.2512 8.42666C96.3348 8.38163 96.3477 8.26585 96.457 8.25941ZM96.5021 3.25483C96.2512 3.73085 96.5085 4.34838 96.3734 4.95305C96.8173 4.81796 97.036 4.34195 97.274 4.00102C97.4284 3.78874 97.5763 3.61506 97.5699 3.31273C97.2032 3.38349 96.8237 3.29343 96.5021 3.25483ZM104.665 2.50865C104.98 2.64374 105.263 2.54725 105.624 2.60514C105.836 2.6373 106.074 2.71449 106.318 2.74666C106.569 2.78525 106.852 2.90747 107.007 2.88818C107.232 2.85601 107.322 2.56011 107.508 2.48292C107.888 2.33497 108.139 2.72736 108.287 2.87531C108.254 3.42852 108.248 3.95599 108.203 4.50276C108.177 4.84369 108.177 5.33257 108.055 5.6349C107.984 5.81502 107.83 5.9694 107.74 6.13665C107.643 6.31033 107.54 6.47758 107.367 6.5612H107.052C106.968 6.49688 106.891 6.41968 106.82 6.32963C106.691 5.89221 106.923 5.58988 106.987 5.26181C107.084 4.75364 106.987 4.23259 106.904 3.75658C105.759 3.69869 104.723 3.70512 103.617 3.67296C103.276 3.66652 102.941 3.75658 102.594 3.78874C102.504 3.79518 102.414 3.76301 102.324 3.76944C102.163 3.77588 102.015 3.8595 101.841 3.8788C101.526 3.91096 101.204 3.86593 100.876 3.86593C100.844 4.28405 100.703 4.8051 100.709 5.29398C100.709 5.60917 100.87 5.85361 100.831 6.09162C100.825 6.15595 100.799 6.11735 100.748 6.19454C100.625 6.38109 100.458 6.97932 100.059 6.78634C99.9628 6.74132 99.7634 6.2846 99.7055 6.11735C99.609 5.86005 99.564 5.53841 99.5383 5.26181C99.4611 4.43844 99.4096 3.71798 99.4739 3.00396C99.1459 3.2677 98.9465 3.83377 98.5541 4.09751C98.4319 4.35481 98.2903 4.59282 98.0523 4.7279C98.0395 4.83726 98.0395 4.96591 97.9301 4.97878C98.1617 5.24895 98.464 5.44193 98.5734 5.83432C98.5091 6.22027 98.6892 6.62553 98.6377 7.153C98.5734 7.86059 98.0523 8.3945 97.5699 8.77402C97.4155 8.89624 97.1968 9.08279 97.0488 9.13425C96.7594 9.22431 96.5021 9.15998 96.2319 9.2629C96.2383 9.56524 96.1418 9.88687 96.1483 10.2278C96.1547 10.395 96.219 10.5752 96.2126 10.7295C96.2062 10.826 96.1226 10.9161 96.1097 11.0254C95.9939 11.7588 96.1161 12.6465 96.1097 13.3926C96.1033 13.8172 96.0325 14.4219 95.7302 14.4605C95.5886 14.4798 95.4021 14.3768 95.2927 14.2546C94.7331 13.6371 94.8039 12.5628 94.8103 11.3728C94.8103 10.8711 94.8811 10.3757 94.8746 9.95119C94.8746 9.86114 94.836 9.77108 94.836 9.70032C94.836 9.22431 94.9454 8.7097 94.9582 8.19509C94.9711 7.83486 94.8746 7.47463 94.8939 7.10797C94.9325 6.34893 95.0161 5.59631 95.0161 4.88872C95.0226 4.30978 94.836 3.69225 95.0612 3.25483C94.8682 3.19051 94.7588 3.02969 94.6238 2.90104C94.4436 2.38 94.6688 1.89112 94.8489 1.55662C95.2799 1.29289 95.6594 0.894063 96.3992 1.06131C96.9009 1.24786 97.1646 1.7496 97.6085 2.03907C97.7564 2.13556 98.0266 2.27708 98.1939 2.26421C98.5219 2.24491 98.7857 1.64025 99.2231 1.64668C99.4675 1.65311 99.8599 2.14199 99.7698 2.50222C100.034 2.23848 100.426 1.82036 101.089 1.94901C101.288 2.18702 101.712 2.55368 102.24 2.56654C102.626 2.57941 103.263 2.52152 103.288 2.12269C103.012 1.94258 102.639 1.84609 102.639 1.47943C102.639 1.10634 102.999 1.05488 103.102 0.726815C103.211 0.688219 103.295 0.611028 103.398 0.559567C103.565 0.46951 104.06 0.546702 104.234 0.61746C104.453 0.707517 104.762 1.11277 104.819 1.40867C104.884 1.7689 104.729 2.15486 104.665 2.50865Z" fill="#981E32"/>
<path fill-rule="evenodd" clip-rule="evenodd" d="M101.796 4.59907C102.259 4.49614 102.574 4.72129 102.967 4.75345C103.398 5.03005 103.99 5.08151 104.684 5.07508C104.903 5.07508 105.128 5.02362 105.289 4.96573C105.476 4.9014 105.617 4.75988 105.797 4.74702C106.042 4.74058 106.254 4.88853 106.318 4.97859C106.389 5.08151 106.447 5.30665 106.421 5.43531C106.37 5.76337 105.913 5.91132 105.437 5.98851C105.019 6.05284 104.472 6.1236 104.073 6.1429C103.739 6.15576 103.378 6.18792 103.115 6.16863C102.742 6.14933 102.304 6.1043 101.88 6.20079C101.712 6.23938 101.59 6.34231 101.417 6.31014C101.288 6.28441 101.076 6.09787 101.043 5.97565C100.966 5.71191 101.134 5.20373 101.249 5.01075C101.365 4.83707 101.655 4.68269 101.796 4.59907ZM106.717 7.3265C106.762 7.62883 106.556 7.68029 106.505 7.89257C106.318 7.9376 106.196 8.10484 106.003 8.1949C105.707 8.32355 105.347 8.26566 105 8.36858C104.813 8.90892 104.974 9.79662 104.787 10.337C105.064 10.62 105.45 10.8001 105.81 10.9995C105.842 11.0574 105.9 11.0767 105.919 11.1475C106.344 11.3212 106.981 11.7843 107.547 11.8744C107.856 11.913 108.254 11.958 108.576 11.8679C108.975 11.7521 108.795 11.141 109.2 11.006C109.554 11.3726 109.399 12.2796 109.078 12.6591C108.962 12.7942 108.634 13.0129 108.447 13.1287C108.28 13.2316 108.049 13.341 107.843 13.4246C107.566 13.5404 107.341 13.7334 107.071 13.7012C106.678 13.6562 106.389 13.1159 106.106 12.8714C105.945 12.7299 105.746 12.6398 105.566 12.5176C105.379 12.3954 105.238 12.2089 105.083 12.0995C105 12.0416 104.819 11.9966 104.684 11.913C104.491 11.7972 104.363 11.6749 104.138 11.6235C103.854 11.5592 103.559 11.6106 103.237 11.5463C102.993 11.1796 103.269 10.8065 103.404 10.4978C103.655 9.90598 103.591 9.16623 103.61 8.44577C103.456 8.40075 102.967 8.26566 102.755 8.36858C102.619 8.43291 102.459 8.93465 102.375 9.0826C102.279 9.24985 102.124 9.42353 102.002 9.61008C101.88 9.79019 101.79 9.99604 101.667 10.1761C101.552 10.3434 101.391 10.4978 101.249 10.6586C100.863 11.1024 100.51 11.527 100.014 11.8422C99.6926 11.958 99.371 12.0738 99.0107 12.1445C98.9207 12.0738 98.9207 11.913 98.7599 12.0223C98.6827 11.8872 98.5669 11.8036 98.4447 11.7264C98.4768 11.5849 98.3675 11.5785 98.3224 11.5206C98.3868 11.3469 98.5926 11.3147 98.5733 11.0574C98.6762 11.006 98.7534 10.9288 98.8435 10.8709C99.4353 10.8644 100.066 10.4077 100.477 10.0411C100.619 9.91884 100.767 9.82879 100.895 9.71943C101.037 9.60365 101.121 9.4171 101.256 9.25628C101.481 8.97325 101.745 8.81243 101.822 8.41361C101.359 8.28496 100.838 8.79957 100.465 8.42648C100.368 8.32999 100.143 7.89257 100.194 7.60953C100.22 7.45515 100.407 7.18498 100.548 7.06276C100.818 6.83119 101.442 6.59961 101.848 6.74113C101.976 6.78616 102.092 6.94054 102.227 6.992C102.375 7.04346 102.594 7.03703 102.793 7.07563C103.565 7.21071 104.659 7.2686 105.495 7.15925C105.765 7.12065 106.087 7.0113 106.286 7.04989C106.44 7.06276 106.569 7.24287 106.717 7.3265ZM84.904 0.469323C85.0777 0.469323 85.2514 0.469323 85.4315 0.462891C86.1133 0.591543 86.4864 0.964635 86.4543 1.77515C86.4478 1.93596 86.3835 2.07748 86.3899 2.23186C87.0911 2.43771 87.8887 2.33478 88.6928 2.42484C89.0209 2.46344 89.4133 2.46987 89.7799 2.54063C89.9407 2.57279 90.1402 2.61782 90.3203 2.62425C90.5261 2.63068 90.7577 2.66928 90.867 2.64355C91.0472 2.59852 90.9828 2.52133 91.0986 2.39268C91.3752 2.07105 91.9863 2.28976 92.0828 2.61782C92.0506 3.15173 91.7547 3.62131 91.6261 4.21311C91.4974 4.77275 91.3431 5.35168 91.1822 5.8084C91.1243 5.98851 91.0407 6.13646 90.8928 6.25225C90.8349 6.4388 90.7062 6.55458 90.494 6.58675C90.4618 6.50312 90.3203 6.56745 90.2624 6.52885C90.2559 6.52242 90.2431 6.42593 90.2238 6.4002C90.1852 6.3616 90.1144 6.3616 90.1016 6.34231C89.6963 5.84056 90.0823 5.42887 90.2109 4.83707C90.2945 4.41895 90.3589 4.04586 90.3331 3.64704C89.587 3.50552 88.5706 3.47979 87.7408 3.56341C87.67 4.04586 87.6893 4.68912 87.5092 5.03005C88.0882 5.30022 88.8858 4.99146 89.4776 5.05578C89.5419 5.34525 89.2396 5.72477 89.0145 5.85343C88.8343 5.95635 88.5384 6.09787 88.3004 6.13003C87.818 6.20079 87.2004 6.02068 86.6665 6.03997C86.4285 6.04641 86.242 6.13646 86.0426 6.13003C85.7274 6.11073 85.1677 5.91775 85.142 5.65402C85.1227 5.46104 85.3221 5.37098 85.3736 5.25519C85.4186 5.1587 85.4636 4.93356 85.6245 4.87567C85.7853 4.81778 85.9204 4.90783 86.0812 4.83064C86.4221 4.66339 86.5701 3.9751 86.3964 3.56985C86.1069 3.44763 85.6566 3.49909 85.3286 3.55698C85.1163 3.49909 84.8911 3.49266 84.6789 3.53768C84.5438 3.84645 84.5952 4.14235 84.5373 4.43825C84.4795 4.72129 84.2993 4.93999 84.2029 5.17157C83.907 5.86629 83.3409 6.34231 82.3438 6.27155C82.1187 6.25225 81.6555 6.23295 81.5655 6.11073C81.3532 5.81483 81.2567 5.2359 81.7134 5.08151C82.0415 4.97216 82.4146 5.178 82.7555 5.1587C83.0386 5.13941 83.328 4.97859 83.4502 4.68912C83.521 4.51544 83.6689 3.9751 83.4888 3.76926C83.328 3.58914 82.4725 3.73709 82.1251 3.69207C81.7006 3.64061 81.2824 3.55698 80.8708 3.45406C81.0058 3.84002 80.9415 4.30317 80.9351 4.81134C80.9286 5.20373 80.9415 5.68618 81.1216 5.89846C81.3532 6.16219 80.8129 6.54815 80.517 6.52885C80.2661 6.50955 80.0602 6.27798 79.8866 5.98851C79.7193 5.72478 79.6164 5.42244 79.5714 5.11368C79.5199 4.75345 79.5456 4.36749 79.4684 4.02656C79.3913 3.70493 79.1854 3.44119 79.1532 3.15173C79.1211 2.84939 79.1725 2.54706 79.3012 2.27046C79.3977 2.05175 79.5778 1.74941 79.7193 1.64006C79.9638 1.45995 80.4655 1.33773 80.8708 1.42778C81.3725 1.53714 81.5912 2.08391 82.0222 2.21256C82.4725 2.34122 83.1801 2.28332 83.6754 2.38624C83.8812 2.43127 84.0549 2.61139 84.2607 2.59209C84.5309 2.55993 84.6596 2.25116 84.7625 2.00029C84.5502 1.81374 84.1836 1.8652 84.1321 1.54357C84.0678 1.09329 84.5116 0.552947 84.904 0.469323Z" fill="#981E32"/>
<path fill-rule="evenodd" clip-rule="evenodd" d="M85.4444 8.06001C85.7532 8.25299 86.3707 8.18866 86.866 8.25942C87.0204 8.28515 87.2134 8.36235 87.3035 8.33662C87.445 8.29802 87.445 8.06644 87.638 8.14364C87.8438 7.92493 88.0175 7.43605 88.4356 7.48751C88.5642 7.50681 88.7637 7.75768 88.7894 7.90563C88.828 8.15007 88.6286 8.33662 88.5321 8.55532C88.3906 8.90269 88.352 9.35297 88.2426 9.77109C88.2169 9.88688 88.0882 10.0091 88.0754 10.1506C88.0303 10.5816 87.8245 11.212 87.9274 11.495C88.0046 11.7009 88.2105 11.6816 88.3005 11.8681C88.6865 12.0482 89.1625 12.3184 89.7028 12.5114C90.2174 12.6915 90.8414 12.8973 91.356 12.8973C91.5297 12.8973 91.7613 12.8716 91.9221 12.8073C92.0057 12.7751 92.0314 12.6979 92.1086 12.6593C92.1794 12.6272 92.2823 12.6336 92.3595 12.595C92.4881 12.5307 92.7004 12.3184 92.7776 12.1769C92.8548 12.0289 92.8226 11.6301 92.9899 11.6108C93.1957 11.5915 93.215 12.2734 93.1764 12.5757C93.1057 13.1289 92.5846 13.8365 92.173 14.1131C91.9671 14.2418 91.6969 14.3318 91.401 14.4347C91.1373 14.5248 90.835 14.7049 90.5455 14.6663C90.256 14.6342 89.7993 14.1581 89.542 14.0295C89.2654 13.888 88.9631 13.8172 88.6865 13.6371C87.9789 13.1804 86.6988 12.64 86.6152 11.6237C86.5637 10.9547 86.7117 10.2986 86.9046 9.77752C86.9625 9.636 87.0912 9.50092 87.014 9.32081C86.4672 9.32081 85.5667 9.40443 84.9363 9.31437C84.6918 9.72606 84.5889 10.1763 84.3316 10.5559C84.2158 10.7231 84.0357 10.8646 83.8942 11.0383C83.7527 11.2056 83.6433 11.4178 83.4954 11.5658C83.1287 11.926 82.3375 12.2412 81.7585 12.3763C81.2825 12.4857 80.7551 12.5564 80.234 12.6014C79.758 12.6336 79.2948 12.6465 78.9797 12.505C78.7159 12.3892 78.5101 12.2798 78.3943 11.9839C78.2721 11.6816 78.2528 11.1284 78.6645 11.1863C78.6001 10.974 79.0697 10.7424 79.3527 10.929C79.4364 10.9869 79.4364 11.1155 79.52 11.1798C79.6486 11.2763 79.7773 11.2249 79.8738 11.3214C80.1375 11.2249 80.4399 11.3342 80.7486 11.3149C80.8515 11.3085 80.9545 11.2442 81.0638 11.2313C81.289 11.2056 81.5591 11.212 81.8164 11.167C82.0866 11.1155 82.2796 11.0447 82.3825 10.8453C82.6141 10.7681 82.7556 10.6202 82.9486 10.4401C83.0515 10.3436 83.1866 10.2535 83.2445 10.1699C83.3024 10.0799 83.3024 9.96407 83.3474 9.87401C83.4568 9.66817 83.6562 9.50735 83.6819 9.26935C83.5339 9.23718 83.4053 9.19859 83.2638 9.20502C83 9.21788 82.6977 9.3594 82.4661 9.33367C82.3568 9.32081 82.2732 9.21788 82.1702 9.19215C81.958 9.12139 81.7328 9.15999 81.5463 9.05064C81.1603 9.21788 80.5621 9.05707 80.7744 8.57462C80.2662 8.25942 80.8451 7.64189 81.1667 7.46178C81.3983 7.33313 81.855 7.23664 82.2153 7.33313C82.4468 7.39102 82.5562 7.6033 82.8199 7.72552C83.2445 7.91849 83.7848 7.71908 84.1386 7.88633C84.1322 7.71265 84.1515 7.57113 84.1 7.46821C83.9649 7.19804 83.4503 7.26237 83.4053 6.94717C83.3924 6.84425 83.4503 6.72203 83.5339 6.61267C83.6819 6.40683 83.8942 6.17525 84.1 6.04017C84.1515 6.00157 84.6018 6.03374 84.769 6.07876C85.1743 6.18169 85.6052 6.68343 85.6052 7.09512C85.6052 7.20447 85.5409 7.29453 85.5216 7.41032C85.4895 7.6033 85.5216 7.8413 85.4444 8.06001Z" fill="#981E32"/>
</svg>
