<svg width="188" height="52" viewBox="0 0 188 52" fill="none" xmlns="http://www.w3.org/2000/svg">
<circle cx="26" cy="26" r="26" fill="white"/>
<path d="M69.24 9.94H86.84V11.48H69.24V9.94ZM78.98 10.56C79.4333 12.1733 80.0267 13.68 80.76 15.08C81.5067 16.4667 82.4133 17.68 83.48 18.72C84.56 19.76 85.7867 20.5733 87.16 21.16C87.04 21.2667 86.9067 21.4 86.76 21.56C86.6267 21.7333 86.4933 21.9067 86.36 22.08C86.2267 22.2533 86.12 22.4133 86.04 22.56C84.6 21.8667 83.3267 20.9533 82.22 19.82C81.1267 18.6867 80.1933 17.3667 79.42 15.86C78.6467 14.3533 78.0067 12.7067 77.5 10.92L78.98 10.56ZM77.22 4.22H78.84C78.84 5.08667 78.8133 6.05333 78.76 7.12C78.72 8.17333 78.62 9.27333 78.46 10.42C78.3 11.5533 78.0333 12.7 77.66 13.86C77.3 15.0067 76.7933 16.12 76.14 17.2C75.5 18.2667 74.68 19.26 73.68 20.18C72.68 21.1 71.4533 21.8933 70 22.56C69.88 22.36 69.7067 22.14 69.48 21.9C69.2667 21.6733 69.06 21.48 68.86 21.32C70.2733 20.7067 71.46 19.9733 72.42 19.12C73.3933 18.2667 74.1867 17.3333 74.8 16.32C75.4133 15.3067 75.8867 14.26 76.22 13.18C76.5533 12.1 76.7867 11.0267 76.92 9.96C77.0533 8.88 77.1333 7.85333 77.16 6.88C77.2 5.90667 77.22 5.02 77.22 4.22ZM89.24 17.4H106.78V18.66H89.24V17.4ZM92.78 13.88H102.04V15.02H92.78V13.88ZM97.26 16.3H98.74V21.04C98.74 21.4267 98.68 21.72 98.56 21.92C98.4533 22.1333 98.24 22.2933 97.92 22.4C97.6133 22.4933 97.1933 22.5467 96.66 22.56C96.14 22.5867 95.4733 22.6 94.66 22.6C94.6333 22.4 94.5667 22.18 94.46 21.94C94.3667 21.7133 94.2733 21.5067 94.18 21.32C94.58 21.3333 94.96 21.34 95.32 21.34C95.6933 21.34 96.0133 21.34 96.28 21.34C96.56 21.34 96.7467 21.34 96.84 21.34C97 21.3267 97.1067 21.2933 97.16 21.24C97.2267 21.2 97.26 21.12 97.26 21V16.3ZM101.7 13.88H102.06L102.38 13.8L103.26 14.56C102.82 14.92 102.32 15.2733 101.76 15.62C101.213 15.9533 100.647 16.2667 100.06 16.56C99.4733 16.8533 98.9 17.1133 98.34 17.34C98.2467 17.2067 98.1267 17.06 97.98 16.9C97.8333 16.74 97.7067 16.62 97.6 16.54C98.1067 16.3533 98.6133 16.1267 99.12 15.86C99.64 15.5933 100.127 15.3067 100.58 15C101.033 14.6933 101.407 14.4133 101.7 14.16V13.88ZM89.5 11.36H106.58V15.02H105.08V12.52H90.94V15.02H89.5V11.36ZM90.7 5.06L92.56 5.52C92.5067 5.65333 92.3733 5.73333 92.16 5.76L92.54 11.96H91.14L90.7 5.06ZM104.02 4.96H105.46C105.42 5.72 105.373 6.53333 105.32 7.4C105.267 8.25333 105.207 9.08667 105.14 9.9C105.073 10.7133 105 11.4133 104.92 12H103.48C103.573 11.4 103.653 10.6933 103.72 9.88C103.787 9.05333 103.847 8.21333 103.9 7.36C103.953 6.49333 103.993 5.69333 104.02 4.96ZM100.76 4.96H104.6V6H100.76V4.96ZM94.6 4.38L95.38 5.22C94.8333 5.46 94.2133 5.67333 93.52 5.86C92.84 6.04667 92.2267 6.2 91.68 6.32L91 5.52C91.3733 5.44 91.78 5.33333 92.22 5.2C92.66 5.06667 93.0867 4.92667 93.5 4.78C93.9267 4.62 94.2933 4.48667 94.6 4.38ZM91.56 7.08H95.22V8.12H91.56V7.08ZM91.66 9.22H95.3V10.24H91.66V9.22ZM100.84 7.08H104.42V8.12H100.84V7.08ZM100.74 9.22H104.3V10.24H100.74V9.22ZM98.94 4.4L99.98 4.72C99.5267 5.32 98.96 5.89333 98.28 6.44C97.6 6.97333 96.92 7.42 96.24 7.78C96.1467 7.68667 96.0133 7.56667 95.84 7.42C95.6667 7.26 95.5133 7.13333 95.38 7.04C96.06 6.72 96.72 6.32667 97.36 5.86C98.0133 5.39333 98.54 4.90667 98.94 4.4ZM95.94 5.24L96.68 4.6C97.08 4.78667 97.4933 5.01333 97.92 5.28C98.3467 5.53333 98.74 5.79333 99.1 6.06C99.4733 6.32667 99.7733 6.58 100 6.82L99.24 7.54C99.0133 7.3 98.7133 7.04667 98.34 6.78C97.98 6.5 97.5867 6.22667 97.16 5.96C96.7467 5.68 96.34 5.44 95.94 5.24ZM99.12 7.7L100.2 8.02C99.7333 8.64667 99.14 9.24667 98.42 9.82C97.7133 10.3933 97.0067 10.8733 96.3 11.26C96.2067 11.1533 96.0733 11.0267 95.9 10.88C95.7267 10.72 95.5667 10.5933 95.42 10.5C96.14 10.1667 96.8333 9.76 97.5 9.28C98.1667 8.78667 98.7067 8.26 99.12 7.7ZM96.08 8.64L96.84 8C97.24 8.2 97.6533 8.43333 98.08 8.7C98.5067 8.96667 98.9067 9.24667 99.28 9.54C99.6667 9.82 99.98 10.0867 100.22 10.34L99.4 11.06C99.1867 10.8067 98.8933 10.54 98.52 10.26C98.1467 9.96667 97.7467 9.68 97.32 9.4C96.8933 9.10667 96.48 8.85333 96.08 8.64ZM121.22 5.64C120.86 6.24 120.4 6.87333 119.84 7.54C119.28 8.20667 118.66 8.85333 117.98 9.48C117.313 10.0933 116.613 10.6333 115.88 11.1C115.8 10.9267 115.68 10.72 115.52 10.48C115.373 10.24 115.233 10.0467 115.1 9.9C115.833 9.44667 116.54 8.90667 117.22 8.28C117.913 7.64 118.54 6.97333 119.1 6.28C119.66 5.57333 120.113 4.89333 120.46 4.24H121.86C122.313 4.94667 122.847 5.64 123.46 6.32C124.087 7 124.74 7.62667 125.42 8.2C126.1 8.77333 126.78 9.25333 127.46 9.64C127.313 9.81333 127.16 10.02 127 10.26C126.853 10.5 126.72 10.7267 126.6 10.94C125.947 10.5 125.28 9.98667 124.6 9.4C123.933 8.81333 123.307 8.19333 122.72 7.54C122.133 6.87333 121.633 6.24 121.22 5.64ZM116.38 12.7H125.9V13.96H117.68V22.54H116.38V12.7ZM124.98 12.7H126.32V21.14C126.32 21.46 126.28 21.7133 126.2 21.9C126.133 22.0867 126 22.2333 125.8 22.34C125.6 22.4333 125.347 22.4933 125.04 22.52C124.733 22.5467 124.367 22.56 123.94 22.56C123.913 22.4 123.86 22.2 123.78 21.96C123.7 21.7333 123.62 21.5333 123.54 21.36C123.833 21.3733 124.087 21.38 124.3 21.38C124.527 21.38 124.68 21.38 124.76 21.38C124.907 21.38 124.98 21.2933 124.98 21.12V12.7ZM119.34 13.06H120.42V22.32H119.34V13.06ZM122.12 13.06H123.22V22.32H122.12V13.06ZM117.86 9.7H124.76V10.98H117.86V9.7ZM116.98 16.8H125.76V18.04H116.98V16.8ZM109.62 10.26H115.02V11.44H109.62V10.26ZM109.74 4.9H114.96V6.1H109.74V4.9ZM109.62 12.92H115.02V14.12H109.62V12.92ZM108.76 7.52H115.62V8.78H108.76V7.52ZM110.32 15.62H115.04V21.44H110.32V20.2H113.76V16.86H110.32V15.62ZM109.6 15.62H110.88V22.38H109.6V15.62ZM142.5 8.34L144.08 8.82C143.24 11.26 142.16 13.3667 140.84 15.14C139.533 16.9133 137.96 18.4067 136.12 19.62C134.293 20.8333 132.167 21.8333 129.74 22.62C129.687 22.4867 129.6 22.3333 129.48 22.16C129.373 21.9867 129.253 21.8067 129.12 21.62C129 21.4333 128.887 21.2867 128.78 21.18C131.153 20.4867 133.227 19.58 135 18.46C136.773 17.3267 138.28 15.9333 139.52 14.28C140.76 12.6133 141.753 10.6333 142.5 8.34ZM133.4 8.46C134.133 10.5933 135.12 12.5133 136.36 14.22C137.613 15.9133 139.147 17.3467 140.96 18.52C142.773 19.6933 144.887 20.5667 147.3 21.14C147.18 21.2467 147.047 21.3867 146.9 21.56C146.767 21.7467 146.633 21.9333 146.5 22.12C146.38 22.3067 146.28 22.4667 146.2 22.6C143.733 21.96 141.58 21.0133 139.74 19.76C137.913 18.4933 136.36 16.9533 135.08 15.14C133.8 13.3133 132.747 11.2333 131.92 8.9L133.4 8.46ZM129 7.6H147.08V9.06H129V7.6ZM137.2 4.2H138.74V8.48H137.2V4.2ZM153.36 17.18L154.9 17.74C154.487 18.2867 154.007 18.8333 153.46 19.38C152.927 19.9267 152.367 20.44 151.78 20.92C151.207 21.4 150.653 21.82 150.12 22.18C150.027 22.0733 149.893 21.9533 149.72 21.82C149.56 21.7 149.393 21.5733 149.22 21.44C149.047 21.32 148.893 21.2267 148.76 21.16C149.333 20.8267 149.9 20.4467 150.46 20.02C151.02 19.5933 151.553 19.14 152.06 18.66C152.567 18.1667 153 17.6733 153.36 17.18ZM160.84 17.92L162.04 17.1C162.613 17.5 163.213 17.9467 163.84 18.44C164.48 18.9333 165.08 19.4267 165.64 19.92C166.213 20.4 166.68 20.8267 167.04 21.2L165.74 22.16C165.393 21.7733 164.947 21.3333 164.4 20.84C163.867 20.3333 163.28 19.8267 162.64 19.32C162.013 18.8133 161.413 18.3467 160.84 17.92ZM150.6 9.98L151.62 9.04C152.233 9.38667 152.867 9.77333 153.52 10.2C154.173 10.6267 154.787 11.0667 155.36 11.52C155.947 11.96 156.427 12.3733 156.8 12.76L155.7 13.82C155.353 13.4467 154.893 13.0333 154.32 12.58C153.76 12.1133 153.153 11.6533 152.5 11.2C151.847 10.7333 151.213 10.3267 150.6 9.98ZM161.04 12.54L162.26 11.76C162.847 12.2133 163.453 12.7267 164.08 13.3C164.707 13.8733 165.293 14.4467 165.84 15.02C166.4 15.58 166.847 16.0867 167.18 16.54L165.86 17.44C165.54 16.9867 165.113 16.4733 164.58 15.9C164.047 15.3133 163.473 14.7267 162.86 14.14C162.247 13.5533 161.64 13.02 161.04 12.54ZM157.18 15.34H158.76V22.6H157.18V15.34ZM149.12 14.74C150.08 14.74 151.18 14.7333 152.42 14.72C153.66 14.6933 154.973 14.6733 156.36 14.66C157.76 14.6333 159.2 14.6067 160.68 14.58C162.16 14.54 163.62 14.5067 165.06 14.48L164.98 15.84C163.1 15.9067 161.2 15.9667 159.28 16.02C157.36 16.06 155.54 16.1 153.82 16.14C152.1 16.18 150.58 16.22 149.26 16.26L149.12 14.74ZM161.34 7.48L162.78 8.26C162.167 8.9 161.507 9.56667 160.8 10.26C160.093 10.94 159.36 11.6133 158.6 12.28C157.84 12.9333 157.087 13.56 156.34 14.16C155.607 14.7467 154.913 15.2733 154.26 15.74L153.1 14.98C153.767 14.5133 154.467 13.98 155.2 13.38C155.947 12.7667 156.693 12.1267 157.44 11.46C158.187 10.78 158.893 10.1 159.56 9.42C160.227 8.74 160.82 8.09333 161.34 7.48ZM156.16 6.14L157.6 6.86C157.213 7.34 156.787 7.83333 156.32 8.34C155.867 8.84667 155.407 9.33333 154.94 9.8C154.487 10.2667 154.053 10.6733 153.64 11.02L152.44 10.36C152.853 10 153.287 9.58 153.74 9.1C154.193 8.60667 154.633 8.1 155.06 7.58C155.487 7.06 155.853 6.58 156.16 6.14ZM164.52 4.48L165.6 5.76C164.587 5.94667 163.46 6.12 162.22 6.28C160.98 6.42667 159.673 6.56 158.3 6.68C156.927 6.78667 155.54 6.88 154.14 6.96C152.753 7.02667 151.407 7.07333 150.1 7.1C150.087 6.9 150.04 6.67333 149.96 6.42C149.893 6.15333 149.82 5.92667 149.74 5.74C151.033 5.7 152.36 5.64667 153.72 5.58C155.093 5.5 156.44 5.41333 157.76 5.32C159.08 5.21333 160.32 5.09333 161.48 4.96C162.64 4.81333 163.653 4.65333 164.52 4.48ZM180.52 4.2H182.04V7.44H180.52V4.2ZM179.38 7.74L180.96 8.18C180.747 8.7 180.513 9.24 180.26 9.8C180.02 10.36 179.78 10.8933 179.54 11.4C179.3 11.9067 179.073 12.3533 178.86 12.74L177.58 12.32C177.807 11.92 178.027 11.4533 178.24 10.92C178.467 10.3733 178.68 9.82 178.88 9.26C179.093 8.7 179.26 8.19333 179.38 7.74ZM182.8 9.6L183.96 8.96C184.373 9.42667 184.793 9.94 185.22 10.5C185.647 11.0467 186.033 11.5867 186.38 12.12C186.74 12.6533 187.02 13.14 187.22 13.58L185.94 14.3C185.753 13.8733 185.493 13.3867 185.16 12.84C184.827 12.2933 184.453 11.74 184.04 11.18C183.627 10.6067 183.213 10.08 182.8 9.6ZM175.96 6.84H186.9V8.2H175.96V6.84ZM176.04 11.98C176.813 11.94 177.707 11.8933 178.72 11.84C179.747 11.7867 180.827 11.72 181.96 11.64C183.107 11.56 184.253 11.4867 185.4 11.42V12.72C184.293 12.8 183.18 12.88 182.06 12.96C180.953 13.04 179.893 13.12 178.88 13.2C177.88 13.2667 176.973 13.3267 176.16 13.38L176.04 11.98ZM182.34 14.08H183.76V20.54C183.76 20.7933 183.787 20.9533 183.84 21.02C183.893 21.0867 184.033 21.12 184.26 21.12C184.327 21.12 184.453 21.12 184.64 21.12C184.827 21.12 185.013 21.12 185.2 21.12C185.4 21.12 185.54 21.12 185.62 21.12C185.767 21.12 185.873 21.06 185.94 20.94C186.007 20.82 186.053 20.58 186.08 20.22C186.12 19.86 186.147 19.32 186.16 18.6C186.267 18.68 186.393 18.76 186.54 18.84C186.687 18.92 186.84 18.9867 187 19.04C187.173 19.0933 187.327 19.14 187.46 19.18C187.42 20.0467 187.34 20.72 187.22 21.2C187.113 21.68 186.94 22.0133 186.7 22.2C186.473 22.3867 186.16 22.48 185.76 22.48C185.693 22.48 185.58 22.48 185.42 22.48C185.26 22.48 185.087 22.48 184.9 22.48C184.713 22.48 184.54 22.48 184.38 22.48C184.22 22.48 184.107 22.48 184.04 22.48C183.587 22.48 183.233 22.42 182.98 22.3C182.74 22.1933 182.573 21.9933 182.48 21.7C182.387 21.42 182.34 21.0333 182.34 20.54V14.08ZM171.9 4.2L173.22 4.74C172.967 5.20667 172.7 5.70667 172.42 6.24C172.14 6.77333 171.853 7.28667 171.56 7.78C171.28 8.27333 171.007 8.7 170.74 9.06L169.72 8.6C169.973 8.21333 170.233 7.76667 170.5 7.26C170.767 6.74 171.027 6.21333 171.28 5.68C171.533 5.13333 171.74 4.64 171.9 4.2ZM174.16 6.48L175.42 7.06C174.967 7.82 174.46 8.62667 173.9 9.48C173.353 10.3333 172.8 11.1533 172.24 11.94C171.68 12.7267 171.147 13.42 170.64 14.02L169.72 13.5C170.093 13.0467 170.48 12.5333 170.88 11.96C171.293 11.3733 171.693 10.7667 172.08 10.14C172.48 9.5 172.853 8.86667 173.2 8.24C173.56 7.6 173.88 7.01333 174.16 6.48ZM168.76 8.42L169.52 7.42C169.893 7.72667 170.267 8.07333 170.64 8.46C171.027 8.83333 171.38 9.20667 171.7 9.58C172.02 9.94 172.267 10.2667 172.44 10.56L171.62 11.7C171.447 11.3933 171.2 11.0467 170.88 10.66C170.573 10.26 170.233 9.86667 169.86 9.48C169.487 9.09333 169.12 8.74 168.76 8.42ZM173.44 11.14L174.5 10.7C174.78 11.1267 175.047 11.5933 175.3 12.1C175.553 12.5933 175.773 13.08 175.96 13.56C176.16 14.0267 176.307 14.4467 176.4 14.82L175.26 15.32C175.18 14.9467 175.04 14.52 174.84 14.04C174.653 13.56 174.44 13.0667 174.2 12.56C173.96 12.04 173.707 11.5667 173.44 11.14ZM168.68 13.16C169.56 13.1333 170.593 13.0933 171.78 13.04C172.967 12.9867 174.193 12.9333 175.46 12.88L175.44 14.1C174.253 14.18 173.08 14.26 171.92 14.34C170.76 14.4067 169.727 14.4733 168.82 14.54L168.68 13.16ZM173.96 15.84L175.06 15.5C175.327 16.06 175.58 16.6867 175.82 17.38C176.073 18.06 176.247 18.6467 176.34 19.14L175.2 19.54C175.107 19.0333 174.94 18.44 174.7 17.76C174.473 17.0667 174.227 16.4267 173.96 15.84ZM169.82 15.64L171.1 15.86C170.967 16.8067 170.78 17.74 170.54 18.66C170.3 19.5667 170.02 20.34 169.7 20.98C169.607 20.9133 169.487 20.8467 169.34 20.78C169.207 20.7133 169.06 20.6467 168.9 20.58C168.753 20.5 168.62 20.44 168.5 20.4C168.847 19.7867 169.12 19.06 169.32 18.22C169.533 17.3667 169.7 16.5067 169.82 15.64ZM171.96 13.72H173.3V22.64H171.96V13.72ZM178.62 14.1H180.06C180.02 15.1933 179.933 16.1867 179.8 17.08C179.667 17.9733 179.44 18.7733 179.12 19.48C178.813 20.1733 178.38 20.7867 177.82 21.32C177.273 21.8533 176.553 22.3067 175.66 22.68C175.58 22.5067 175.453 22.3067 175.28 22.08C175.107 21.8667 174.94 21.6933 174.78 21.56C175.58 21.24 176.227 20.8533 176.72 20.4C177.213 19.9467 177.587 19.42 177.84 18.82C178.107 18.2067 178.293 17.5133 178.4 16.74C178.52 15.9533 178.593 15.0733 178.62 14.1Z" fill="white"/>
<path d="M73.584 40.736H83.296V41.728H73.584V40.736ZM74.848 43.264L75.488 42.544C75.7653 42.6933 76.0587 42.8693 76.368 43.072C76.6773 43.2747 76.9653 43.4773 77.232 43.68C77.5093 43.8827 77.7387 44.064 77.92 44.224L77.248 45.056C77.0773 44.8853 76.8533 44.6933 76.576 44.48C76.3093 44.2667 76.0213 44.0533 75.712 43.84C75.4133 43.6267 75.1253 43.4347 74.848 43.264ZM80.032 39.808L80.608 39.232C80.9067 39.392 81.216 39.5787 81.536 39.792C81.8667 40.0053 82.1227 40.2027 82.304 40.384L81.696 41.008C81.5147 40.8267 81.264 40.624 80.944 40.4C80.624 40.176 80.32 39.9787 80.032 39.808ZM74.752 41.2H75.856C75.792 42.0213 75.68 42.8107 75.52 43.568C75.3707 44.3253 75.1307 45.0187 74.8 45.648C74.4693 46.2667 74 46.8 73.392 47.248C73.3173 47.12 73.2053 46.976 73.056 46.816C72.9173 46.6667 72.784 46.544 72.656 46.448C73.2 46.0747 73.6107 45.6107 73.888 45.056C74.176 44.5013 74.384 43.8933 74.512 43.232C74.64 42.5707 74.72 41.8933 74.752 41.2ZM77.632 32.576H78.704C78.6933 34.1653 78.7307 35.6587 78.816 37.056C78.9013 38.4427 79.0293 39.7013 79.2 40.832C79.3707 41.952 79.5893 42.9227 79.856 43.744C80.1333 44.5547 80.448 45.1787 80.8 45.616C81.152 46.0427 81.5413 46.256 81.968 46.256C82.2027 46.256 82.368 46.1333 82.464 45.888C82.56 45.6427 82.6293 45.1573 82.672 44.432C82.7893 44.5493 82.928 44.656 83.088 44.752C83.248 44.848 83.392 44.9227 83.52 44.976C83.456 45.5733 83.3653 46.0373 83.248 46.368C83.1307 46.7093 82.9653 46.9493 82.752 47.088C82.5387 47.2373 82.2507 47.312 81.888 47.312C81.248 47.312 80.688 47.0613 80.208 46.56C79.7387 46.0693 79.3387 45.376 79.008 44.48C78.688 43.5733 78.4267 42.5067 78.224 41.28C78.0213 40.0533 77.872 38.704 77.776 37.232C77.6907 35.7493 77.6427 34.1973 77.632 32.576ZM81.216 41.968L82.256 42.352C81.7333 43.4613 80.9973 44.432 80.048 45.264C79.0987 46.0853 78.0053 46.752 76.768 47.264C76.6933 47.1573 76.592 47.0293 76.464 46.88C76.336 46.7307 76.2187 46.6027 76.112 46.496C77.3067 46.0267 78.3467 45.4027 79.232 44.624C80.1173 43.8453 80.7787 42.96 81.216 41.968ZM78.784 35.344L79.28 34.688C79.632 34.9333 79.984 35.2213 80.336 35.552C80.6987 35.872 80.976 36.1653 81.168 36.432L80.64 37.184C80.4587 36.9173 80.192 36.6133 79.84 36.272C79.488 35.92 79.136 35.6107 78.784 35.344ZM81.776 37.296L82.512 36.992C82.7467 37.3653 82.9547 37.7707 83.136 38.208C83.328 38.6347 83.456 39.0027 83.52 39.312L82.736 39.68C82.6613 39.36 82.5333 38.976 82.352 38.528C82.1813 38.0693 81.9893 37.6587 81.776 37.296ZM78.992 38.4C79.4933 38.3787 80.064 38.3467 80.704 38.304C81.344 38.2613 82.016 38.2187 82.72 38.176L82.736 38.992C82.096 39.056 81.4773 39.12 80.88 39.184C80.2827 39.2373 79.712 39.2907 79.168 39.344L78.992 38.4ZM80.64 32.72L81.584 33.088C81.3493 33.5253 81.104 33.984 80.848 34.464C80.592 34.9333 80.352 35.3333 80.128 35.664L79.456 35.344C79.5947 35.1093 79.7333 34.8373 79.872 34.528C80.0213 34.2187 80.1653 33.904 80.304 33.584C80.4427 33.264 80.5547 32.976 80.64 32.72ZM81.968 34.32L82.848 34.736C82.5813 35.1947 82.288 35.68 81.968 36.192C81.648 36.6933 81.328 37.184 81.008 37.664C80.688 38.1333 80.3787 38.5493 80.08 38.912L79.408 38.528C79.696 38.1653 79.9947 37.7387 80.304 37.248C80.624 36.7467 80.928 36.24 81.216 35.728C81.5147 35.216 81.7653 34.7467 81.968 34.32ZM73.376 35.344L73.872 34.688C74.224 34.9333 74.576 35.2213 74.928 35.552C75.2907 35.872 75.5627 36.1653 75.744 36.432L75.232 37.184C75.0507 36.9173 74.7787 36.6133 74.416 36.272C74.064 35.92 73.7173 35.6107 73.376 35.344ZM76.144 37.392L76.88 37.12C77.0933 37.4827 77.2853 37.8827 77.456 38.32C77.6267 38.7573 77.7387 39.1307 77.792 39.44L76.992 39.776C76.9493 39.456 76.848 39.072 76.688 38.624C76.528 38.176 76.3467 37.7653 76.144 37.392ZM73.424 38.592C73.9253 38.56 74.496 38.5227 75.136 38.48C75.7867 38.4267 76.464 38.3787 77.168 38.336L77.184 39.184C76.544 39.2587 75.92 39.3227 75.312 39.376C74.704 39.4293 74.1333 39.4827 73.6 39.536L73.424 38.592ZM75.232 32.72L76.16 33.088C75.9253 33.5253 75.68 33.9893 75.424 34.48C75.168 34.96 74.9333 35.3653 74.72 35.696L74.032 35.376C74.1707 35.1307 74.3147 34.8533 74.464 34.544C74.6133 34.2347 74.7573 33.92 74.896 33.6C75.0347 33.2693 75.1467 32.976 75.232 32.72ZM76.56 34.32L77.424 34.736C77.1467 35.2053 76.8427 35.7067 76.512 36.24C76.192 36.7627 75.8613 37.2693 75.52 37.76C75.1893 38.2507 74.8693 38.6827 74.56 39.056L73.888 38.688C74.1867 38.304 74.5013 37.856 74.832 37.344C75.1627 36.832 75.4773 36.3093 75.776 35.776C76.0853 35.2427 76.3467 34.7573 76.56 34.32ZM68.832 36.032H73.68V37.152H68.832V36.032ZM70.848 32.56H71.936V47.264H70.848V32.56ZM70.816 36.704L71.52 36.928C71.4133 37.5467 71.2747 38.2027 71.104 38.896C70.9333 39.5787 70.7413 40.2507 70.528 40.912C70.3147 41.5733 70.0853 42.1867 69.84 42.752C69.6053 43.3173 69.3547 43.8027 69.088 44.208C69.024 44.0587 68.928 43.888 68.8 43.696C68.6827 43.504 68.5813 43.3387 68.496 43.2C68.7413 42.8373 68.976 42.4053 69.2 41.904C69.4347 41.4027 69.6533 40.8587 69.856 40.272C70.0693 39.6853 70.256 39.088 70.416 38.48C70.5867 37.8613 70.72 37.2693 70.816 36.704ZM71.872 37.76C71.9573 37.8667 72.08 38.0533 72.24 38.32C72.4107 38.576 72.5973 38.864 72.8 39.184C73.0027 39.4933 73.184 39.7867 73.344 40.064C73.5147 40.3307 73.632 40.5227 73.696 40.64L73.072 41.52C72.9973 41.328 72.8853 41.0773 72.736 40.768C72.5867 40.4587 72.4213 40.1387 72.24 39.808C72.0693 39.4667 71.904 39.1573 71.744 38.88C71.584 38.592 71.4613 38.368 71.376 38.208L71.872 37.76ZM90.672 35.824H98.8V36.704H90.672V35.824ZM89.984 37.792H99.344V38.704H89.984V37.792ZM89.696 43.712H99.536V44.656H89.696V43.712ZM91.376 41.68H97.84V42.544H91.376V41.68ZM90.368 33.872H99.024V34.768H90.368V33.872ZM92.208 32.56H93.328V38.24H92.208V32.56ZM94.032 38.352H95.136V44.112H94.032V38.352ZM95.904 32.56H97.024V38.208H95.904V32.56ZM90.784 39.664H97.84V40.56H91.888V47.232H90.784V39.664ZM97.392 39.664H98.512V46C98.512 46.2987 98.4693 46.528 98.384 46.688C98.3093 46.848 98.1707 46.9707 97.968 47.056C97.744 47.1307 97.4507 47.1787 97.088 47.2C96.736 47.2213 96.2987 47.232 95.776 47.232C95.7547 47.0933 95.7067 46.928 95.632 46.736C95.568 46.544 95.4987 46.3787 95.424 46.24C95.808 46.2507 96.16 46.256 96.48 46.256C96.8 46.2667 97.008 46.2667 97.104 46.256C97.296 46.2453 97.392 46.16 97.392 46V39.664ZM84.832 36.032H90.032V37.152H84.832V36.032ZM87.072 32.56H88.176V47.264H87.072V32.56ZM87.04 36.704L87.792 36.944C87.664 37.584 87.504 38.2453 87.312 38.928C87.1307 39.6107 86.9227 40.2827 86.688 40.944C86.4533 41.6053 86.2027 42.2187 85.936 42.784C85.6693 43.3493 85.392 43.8347 85.104 44.24C85.0507 44.08 84.96 43.904 84.832 43.712C84.704 43.5093 84.592 43.3387 84.496 43.2C84.7627 42.8373 85.024 42.4053 85.28 41.904C85.536 41.4027 85.776 40.8587 86 40.272C86.224 39.6853 86.4267 39.088 86.608 38.48C86.7893 37.8613 86.9333 37.2693 87.04 36.704ZM88.096 38.16C88.192 38.2667 88.3307 38.4587 88.512 38.736C88.704 39.0027 88.9067 39.296 89.12 39.616C89.344 39.936 89.5467 40.2347 89.728 40.512C89.9093 40.7787 90.032 40.9707 90.096 41.088L89.44 41.984C89.344 41.7813 89.2107 41.5253 89.04 41.216C88.88 40.9067 88.704 40.5867 88.512 40.256C88.32 39.9253 88.1387 39.6213 87.968 39.344C87.7973 39.056 87.6587 38.832 87.552 38.672L88.096 38.16ZM108.976 39.072L110.08 39.408C109.728 40.0373 109.301 40.6347 108.8 41.2C108.299 41.7653 107.765 42.288 107.2 42.768C106.635 43.248 106.059 43.6693 105.472 44.032C105.419 43.9467 105.344 43.8507 105.248 43.744C105.152 43.6267 105.051 43.5093 104.944 43.392C104.837 43.2747 104.741 43.184 104.656 43.12C105.509 42.6613 106.325 42.08 107.104 41.376C107.893 40.672 108.517 39.904 108.976 39.072ZM109.072 32.56L110.144 33.104C109.739 33.584 109.301 34.08 108.832 34.592C108.373 35.0933 107.947 35.5253 107.552 35.888L106.688 35.392C106.955 35.136 107.232 34.8427 107.52 34.512C107.819 34.1813 108.107 33.8453 108.384 33.504C108.661 33.1627 108.891 32.848 109.072 32.56ZM112.176 33.776L113.264 34.368C112.731 34.944 112.139 35.5467 111.488 36.176C110.848 36.7947 110.197 37.3973 109.536 37.984C108.885 38.56 108.267 39.0613 107.68 39.488L106.864 38.96C107.301 38.6293 107.76 38.2507 108.24 37.824C108.72 37.3973 109.195 36.9547 109.664 36.496C110.144 36.0267 110.597 35.5627 111.024 35.104C111.461 34.6347 111.845 34.192 112.176 33.776ZM105.376 35.152L106.112 34.368C106.507 34.6347 106.923 34.928 107.36 35.248C107.808 35.568 108.224 35.8933 108.608 36.224C108.992 36.544 109.296 36.8427 109.52 37.12L108.768 37.984C108.533 37.7173 108.229 37.4133 107.856 37.072C107.483 36.7307 107.077 36.3947 106.64 36.064C106.213 35.7227 105.792 35.4187 105.376 35.152ZM111.968 37.04L112.912 36.544C113.253 36.8853 113.595 37.264 113.936 37.68C114.277 38.096 114.592 38.5067 114.88 38.912C115.179 39.3173 115.408 39.6853 115.568 40.016L114.56 40.608C114.411 40.2773 114.192 39.9093 113.904 39.504C113.627 39.088 113.317 38.6667 112.976 38.24C112.645 37.8027 112.309 37.4027 111.968 37.04ZM104.832 38.64C105.6 38.6293 106.491 38.6133 107.504 38.592C108.528 38.5707 109.616 38.5493 110.768 38.528C111.931 38.496 113.088 38.464 114.24 38.432L114.192 39.424C113.083 39.456 111.968 39.4933 110.848 39.536C109.728 39.5787 108.661 39.616 107.648 39.648C106.635 39.68 105.733 39.7067 104.944 39.728L104.832 38.64ZM107.936 41.568C108.405 42.336 109.019 43.04 109.776 43.68C110.544 44.3093 111.419 44.848 112.4 45.296C113.392 45.7333 114.453 46.0587 115.584 46.272C115.499 46.3573 115.408 46.4587 115.312 46.576C115.216 46.704 115.125 46.8267 115.04 46.944C114.965 47.072 114.901 47.1893 114.848 47.296C113.696 47.0293 112.619 46.6453 111.616 46.144C110.613 45.6427 109.717 45.0347 108.928 44.32C108.139 43.6053 107.483 42.8 106.96 41.904L107.936 41.568ZM108.304 40.864H113.072V41.824H107.472L108.304 40.864ZM112.688 40.864H112.928L113.136 40.816L113.904 41.184C113.531 42.048 113.04 42.816 112.432 43.488C111.824 44.1493 111.131 44.7307 110.352 45.232C109.584 45.7333 108.763 46.1547 107.888 46.496C107.013 46.8373 106.117 47.1147 105.2 47.328C105.147 47.1787 105.061 46.9973 104.944 46.784C104.827 46.5813 104.715 46.416 104.608 46.288C105.461 46.1173 106.299 45.8827 107.12 45.584C107.952 45.2853 108.731 44.9227 109.456 44.496C110.181 44.0587 110.821 43.552 111.376 42.976C111.941 42.4 112.379 41.76 112.688 41.056V40.864ZM104.288 35.824L105.36 36.208C104.997 36.848 104.576 37.4827 104.096 38.112C103.627 38.7307 103.125 39.3173 102.592 39.872C102.069 40.4267 101.547 40.9173 101.024 41.344C100.981 41.2587 100.917 41.152 100.832 41.024C100.757 40.8853 100.672 40.7467 100.576 40.608C100.491 40.4693 100.411 40.3627 100.336 40.288C100.827 39.9147 101.312 39.4933 101.792 39.024C102.283 38.544 102.741 38.032 103.168 37.488C103.595 36.9333 103.968 36.3787 104.288 35.824ZM103.904 32.56L104.992 32.992C104.683 33.4293 104.315 33.8827 103.888 34.352C103.472 34.8213 103.029 35.264 102.56 35.68C102.101 36.096 101.643 36.4693 101.184 36.8C101.141 36.7147 101.077 36.6187 100.992 36.512C100.917 36.4053 100.837 36.2987 100.752 36.192C100.667 36.0747 100.592 35.984 100.528 35.92C100.944 35.632 101.365 35.3013 101.792 34.928C102.229 34.544 102.635 34.1493 103.008 33.744C103.381 33.3387 103.68 32.944 103.904 32.56ZM102.832 38.8L103.808 37.808L103.968 37.888V47.328H102.832V38.8ZM119.456 45.408H128.464V46.56H119.456V45.408ZM118.896 40.448H129.104V47.248H127.824V41.6H120.128V47.28H118.896V40.448ZM122.112 32.496L123.44 32.96C123.12 33.5787 122.763 34.224 122.368 34.896C121.984 35.5573 121.595 36.1973 121.2 36.816C120.805 37.424 120.427 37.9627 120.064 38.432L119.008 37.984C119.371 37.5147 119.744 36.9653 120.128 36.336C120.512 35.696 120.875 35.04 121.216 34.368C121.568 33.696 121.867 33.072 122.112 32.496ZM125.968 35.088L126.912 34.4C127.456 34.8267 128.011 35.3067 128.576 35.84C129.141 36.3627 129.659 36.896 130.128 37.44C130.608 37.9733 130.987 38.4587 131.264 38.896L130.224 39.696C129.968 39.2587 129.605 38.768 129.136 38.224C128.677 37.68 128.171 37.136 127.616 36.592C127.061 36.0373 126.512 35.536 125.968 35.088ZM117.008 37.472C117.765 37.4507 118.629 37.424 119.6 37.392C120.571 37.3493 121.605 37.3067 122.704 37.264C123.813 37.2213 124.944 37.1733 126.096 37.12C127.259 37.0667 128.405 37.0187 129.536 36.976L129.472 38.128C128.352 38.192 127.221 38.2507 126.08 38.304C124.949 38.3467 123.84 38.3947 122.752 38.448C121.664 38.5013 120.64 38.5493 119.68 38.592C118.72 38.624 117.861 38.656 117.104 38.688L117.008 37.472ZM136.288 42.944L137.52 43.392C137.189 43.8293 136.805 44.2667 136.368 44.704C135.941 45.1413 135.493 45.552 135.024 45.936C134.565 46.32 134.123 46.656 133.696 46.944C133.621 46.8587 133.515 46.7627 133.376 46.656C133.248 46.56 133.115 46.4587 132.976 46.352C132.837 46.256 132.715 46.1813 132.608 46.128C133.067 45.8613 133.52 45.5573 133.968 45.216C134.416 44.8747 134.843 44.512 135.248 44.128C135.653 43.7333 136 43.3387 136.288 42.944ZM142.272 43.536L143.232 42.88C143.691 43.2 144.171 43.5573 144.672 43.952C145.184 44.3467 145.664 44.7413 146.112 45.136C146.571 45.52 146.944 45.8613 147.232 46.16L146.192 46.928C145.915 46.6187 145.557 46.2667 145.12 45.872C144.693 45.4667 144.224 45.0613 143.712 44.656C143.211 44.2507 142.731 43.8773 142.272 43.536ZM134.08 37.184L134.896 36.432C135.387 36.7093 135.893 37.0187 136.416 37.36C136.939 37.7013 137.429 38.0533 137.888 38.416C138.357 38.768 138.741 39.0987 139.04 39.408L138.16 40.256C137.883 39.9573 137.515 39.6267 137.056 39.264C136.608 38.8907 136.123 38.5227 135.6 38.16C135.077 37.7867 134.571 37.4613 134.08 37.184ZM142.432 39.232L143.408 38.608C143.877 38.9707 144.363 39.3813 144.864 39.84C145.365 40.2987 145.835 40.7573 146.272 41.216C146.72 41.664 147.077 42.0693 147.344 42.432L146.288 43.152C146.032 42.7893 145.691 42.3787 145.264 41.92C144.837 41.4507 144.379 40.9813 143.888 40.512C143.397 40.0427 142.912 39.616 142.432 39.232ZM139.344 41.472H140.608V47.28H139.344V41.472ZM132.896 40.992C133.664 40.992 134.544 40.9867 135.536 40.976C136.528 40.9547 137.579 40.9387 138.688 40.928C139.808 40.9067 140.96 40.8853 142.144 40.864C143.328 40.832 144.496 40.8053 145.648 40.784L145.584 41.872C144.08 41.9253 142.56 41.9733 141.024 42.016C139.488 42.048 138.032 42.08 136.656 42.112C135.28 42.144 134.064 42.176 133.008 42.208L132.896 40.992ZM142.672 35.184L143.824 35.808C143.333 36.32 142.805 36.8533 142.24 37.408C141.675 37.952 141.088 38.4907 140.48 39.024C139.872 39.5467 139.269 40.048 138.672 40.528C138.085 40.9973 137.531 41.4187 137.008 41.792L136.08 41.184C136.613 40.8107 137.173 40.384 137.76 39.904C138.357 39.4133 138.955 38.9013 139.552 38.368C140.149 37.824 140.715 37.28 141.248 36.736C141.781 36.192 142.256 35.6747 142.672 35.184ZM138.528 34.112L139.68 34.688C139.371 35.072 139.029 35.4667 138.656 35.872C138.293 36.2773 137.925 36.6667 137.552 37.04C137.189 37.4133 136.843 37.7387 136.512 38.016L135.552 37.488C135.883 37.2 136.229 36.864 136.592 36.48C136.955 36.0853 137.307 35.68 137.648 35.264C137.989 34.848 138.283 34.464 138.528 34.112ZM145.216 32.784L146.08 33.808C145.269 33.9573 144.368 34.096 143.376 34.224C142.384 34.3413 141.339 34.448 140.24 34.544C139.141 34.6293 138.032 34.704 136.912 34.768C135.803 34.8213 134.725 34.8587 133.68 34.88C133.669 34.72 133.632 34.5387 133.568 34.336C133.515 34.1227 133.456 33.9413 133.392 33.792C134.427 33.76 135.488 33.7173 136.576 33.664C137.675 33.6 138.752 33.5307 139.808 33.456C140.864 33.3707 141.856 33.2747 142.784 33.168C143.712 33.0507 144.523 32.9227 145.216 32.784ZM158.016 32.56H159.232V35.152H158.016V32.56ZM157.104 35.392L158.368 35.744C158.197 36.16 158.011 36.592 157.808 37.04C157.616 37.488 157.424 37.9147 157.232 38.32C157.04 38.7253 156.859 39.0827 156.688 39.392L155.664 39.056C155.845 38.736 156.021 38.3627 156.192 37.936C156.373 37.4987 156.544 37.056 156.704 36.608C156.875 36.16 157.008 35.7547 157.104 35.392ZM159.84 36.88L160.768 36.368C161.099 36.7413 161.435 37.152 161.776 37.6C162.117 38.0373 162.427 38.4693 162.704 38.896C162.992 39.3227 163.216 39.712 163.376 40.064L162.352 40.64C162.203 40.2987 161.995 39.9093 161.728 39.472C161.461 39.0347 161.163 38.592 160.832 38.144C160.501 37.6853 160.171 37.264 159.84 36.88ZM154.368 34.672H163.12V35.76H154.368V34.672ZM154.432 38.784C155.051 38.752 155.765 38.7147 156.576 38.672C157.397 38.6293 158.261 38.576 159.168 38.512C160.085 38.448 161.003 38.3893 161.92 38.336V39.376C161.035 39.44 160.144 39.504 159.248 39.568C158.363 39.632 157.515 39.696 156.704 39.76C155.904 39.8133 155.179 39.8613 154.528 39.904L154.432 38.784ZM159.472 40.464H160.608V45.632C160.608 45.8347 160.629 45.9627 160.672 46.016C160.715 46.0693 160.827 46.096 161.008 46.096C161.061 46.096 161.163 46.096 161.312 46.096C161.461 46.096 161.611 46.096 161.76 46.096C161.92 46.096 162.032 46.096 162.096 46.096C162.213 46.096 162.299 46.048 162.352 45.952C162.405 45.856 162.443 45.664 162.464 45.376C162.496 45.088 162.517 44.656 162.528 44.08C162.613 44.144 162.715 44.208 162.832 44.272C162.949 44.336 163.072 44.3893 163.2 44.432C163.339 44.4747 163.461 44.512 163.568 44.544C163.536 45.2373 163.472 45.776 163.376 46.16C163.291 46.544 163.152 46.8107 162.96 46.96C162.779 47.1093 162.528 47.184 162.208 47.184C162.155 47.184 162.064 47.184 161.936 47.184C161.808 47.184 161.669 47.184 161.52 47.184C161.371 47.184 161.232 47.184 161.104 47.184C160.976 47.184 160.885 47.184 160.832 47.184C160.469 47.184 160.187 47.136 159.984 47.04C159.792 46.9547 159.659 46.7947 159.584 46.56C159.509 46.336 159.472 46.0267 159.472 45.632V40.464ZM151.12 32.56L152.176 32.992C151.973 33.3653 151.76 33.7653 151.536 34.192C151.312 34.6187 151.083 35.0293 150.848 35.424C150.624 35.8187 150.405 36.16 150.192 36.448L149.376 36.08C149.579 35.7707 149.787 35.4133 150 35.008C150.213 34.592 150.421 34.1707 150.624 33.744C150.827 33.3067 150.992 32.912 151.12 32.56ZM152.928 34.384L153.936 34.848C153.573 35.456 153.168 36.1013 152.72 36.784C152.283 37.4667 151.84 38.1227 151.392 38.752C150.944 39.3813 150.517 39.936 150.112 40.416L149.376 40C149.675 39.6373 149.984 39.2267 150.304 38.768C150.635 38.2987 150.955 37.8133 151.264 37.312C151.584 36.8 151.883 36.2933 152.16 35.792C152.448 35.28 152.704 34.8107 152.928 34.384ZM148.608 35.936L149.216 35.136C149.515 35.3813 149.813 35.6587 150.112 35.968C150.421 36.2667 150.704 36.5653 150.96 36.864C151.216 37.152 151.413 37.4133 151.552 37.648L150.896 38.56C150.757 38.3147 150.56 38.0373 150.304 37.728C150.059 37.408 149.787 37.0933 149.488 36.784C149.189 36.4747 148.896 36.192 148.608 35.936ZM152.352 38.112L153.2 37.76C153.424 38.1013 153.637 38.4747 153.84 38.88C154.043 39.2747 154.219 39.664 154.368 40.048C154.528 40.4213 154.645 40.7573 154.72 41.056L153.808 41.456C153.744 41.1573 153.632 40.816 153.472 40.432C153.323 40.048 153.152 39.6533 152.96 39.248C152.768 38.832 152.565 38.4533 152.352 38.112ZM148.544 39.728C149.248 39.7067 150.075 39.6747 151.024 39.632C151.973 39.5893 152.955 39.5467 153.968 39.504L153.952 40.48C153.003 40.544 152.064 40.608 151.136 40.672C150.208 40.7253 149.381 40.7787 148.656 40.832L148.544 39.728ZM152.768 41.872L153.648 41.6C153.861 42.048 154.064 42.5493 154.256 43.104C154.459 43.648 154.597 44.1173 154.672 44.512L153.76 44.832C153.685 44.4267 153.552 43.952 153.36 43.408C153.179 42.8533 152.981 42.3413 152.768 41.872ZM149.456 41.712L150.48 41.888C150.373 42.6453 150.224 43.392 150.032 44.128C149.84 44.8533 149.616 45.472 149.36 45.984C149.285 45.9307 149.189 45.8773 149.072 45.824C148.965 45.7707 148.848 45.7173 148.72 45.664C148.603 45.6 148.496 45.552 148.4 45.52C148.677 45.0293 148.896 44.448 149.056 43.776C149.227 43.0933 149.36 42.4053 149.456 41.712ZM151.168 40.176H152.24V47.312H151.168V40.176ZM156.496 40.48H157.648C157.616 41.3547 157.547 42.1493 157.44 42.864C157.333 43.5787 157.152 44.2187 156.896 44.784C156.651 45.3387 156.304 45.8293 155.856 46.256C155.419 46.6827 154.843 47.0453 154.128 47.344C154.064 47.2053 153.963 47.0453 153.824 46.864C153.685 46.6933 153.552 46.5547 153.424 46.448C154.064 46.192 154.581 45.8827 154.976 45.52C155.371 45.1573 155.669 44.736 155.872 44.256C156.085 43.7653 156.235 43.2107 156.32 42.592C156.416 41.9627 156.475 41.2587 156.496 40.48Z" fill="white"/>
</svg>
