<svg id="圖層_1" data-name="圖層 1" xmlns="http://www.w3.org/2000/svg" viewBox="0 0 342.28 61.08"><defs><style>.cls-1{fill:#0096df;}.cls-2{fill:#008f8a;}.cls-3{fill:#1a1a1a;}</style></defs><path class="cls-1" d="M49,0H14.26V.05a10.27,10.27,0,0,1,1.13,5.08,10.19,10.19,0,0,1-1.13,5.06H49a7.57,7.57,0,0,0,1.91-5.1A7.54,7.54,0,0,0,49,0Z"/><path class="cls-1" d="M16.17,15.28H50.93v.05a10.16,10.16,0,0,0-1.14,5.08,10,10,0,0,0,1.14,5.05H16.17a7.74,7.74,0,0,1,0-10.18Z"/><path class="cls-1" d="M0,23.55V0H.05A10.27,10.27,0,0,0,5.13,1.13,10.19,10.19,0,0,0,10.19,0V23.55a7.57,7.57,0,0,1-5.1,1.91A7.54,7.54,0,0,1,0,23.55Z"/><path class="cls-2" d="M1.91,56H36.67V56a10.16,10.16,0,0,1-1.13-5.08,10,10,0,0,1,1.13-5H1.91A7.74,7.74,0,0,0,1.91,56Z"/><path class="cls-2" d="M34.76,40.74H0v-.05a10.27,10.27,0,0,0,1.13-5.08A10.15,10.15,0,0,0,0,30.56H34.76a7.74,7.74,0,0,1,0,10.18Z"/><path class="cls-2" d="M50.93,32.47V56h0a10.27,10.27,0,0,0-5.08-1.13A10.19,10.19,0,0,0,40.74,56V32.47a7.75,7.75,0,0,1,10.19,0Z"/><path class="cls-3" d="M164.47,41.77h-5.56V40h13.54v1.74h-5.59V55.9h-2.39Z"/><path class="cls-3" d="M183,53.17a17.28,17.28,0,0,0,.19,2.73H181l-.19-1.44h-.08a5.18,5.18,0,0,1-4,1.7c-2.66,0-4-1.63-4-3.27,0-2.76,2.82-4.27,7.89-4.24v-.24c0-.92-.3-2.63-3-2.61a7.11,7.11,0,0,0-3.45.85l-.54-1.39a9.53,9.53,0,0,1,4.34-1c4,0,5,2.38,5,4.64Zm-2.3-3.08c-2.61-.05-5.56.35-5.56,2.56a2,2,0,0,0,2.22,2,3.32,3.32,0,0,0,3.23-1.91,2.07,2.07,0,0,0,.11-.66Z"/><path class="cls-3" d="M188.76,41.3a1.36,1.36,0,0,1-1.45,1.4,1.34,1.34,0,0,1-1.37-1.4,1.39,1.39,0,0,1,1.43-1.42A1.36,1.36,0,0,1,188.76,41.3Zm-2.59,14.6V44.5h2.39V55.9Z"/><path class="cls-3" d="M220.4,53.17a17.28,17.28,0,0,0,.19,2.73h-2.14l-.19-1.44h-.08a5.15,5.15,0,0,1-4,1.7c-2.65,0-4-1.63-4-3.27,0-2.76,2.82-4.27,7.89-4.24v-.24c0-.92-.3-2.63-3-2.61a7.11,7.11,0,0,0-3.45.85l-.54-1.39a9.53,9.53,0,0,1,4.34-1c4,0,5,2.38,5,4.64Zm-2.3-3.08c-2.61-.05-5.56.35-5.56,2.56a2,2,0,0,0,2.22,2A3.31,3.31,0,0,0,218,52.72a2.07,2.07,0,0,0,.11-.66Z"/><path class="cls-3" d="M223.61,44.5h2.18v1.89a5,5,0,0,1,4.35-2.12c1.82,0,4.64.94,4.64,4.85V55.9h-2.39V49.33c0-1.84-.79-3.37-3-3.37A3.62,3.62,0,0,0,226,49.05V55.9H223.6Z"/><polygon class="cls-3" points="207.29 44.5 204.02 53.92 200.71 44.5 198.92 44.5 195.61 53.92 192.34 44.5 190.38 44.5 194.34 55.9 196.51 55.9 199.81 46.72 203.12 55.9 205.29 55.9 209.25 44.5 207.29 44.5"/><path class="cls-3" d="M63.65,55.9V40h2.61l9,13.19V40h2.13V55.9H75L65.84,42.55V55.9Z"/><path class="cls-3" d="M90,53.17a16.17,16.17,0,0,0,.19,2.73H88l-.19-1.44h-.08a5.18,5.18,0,0,1-4,1.7c-2.66,0-4-1.63-4-3.27,0-2.76,2.82-4.27,7.89-4.24v-.24c0-.92-.3-2.63-3-2.61a7.08,7.08,0,0,0-3.45.85l-.54-1.39a9.46,9.46,0,0,1,4.34-1c4,0,5,2.38,5,4.64Zm-2.31-3.08c-2.6-.05-5.56.35-5.56,2.56a2,2,0,0,0,2.23,2,3.32,3.32,0,0,0,3.23-1.91,2,2,0,0,0,.1-.66Z"/><path class="cls-3" d="M96.07,41.77V44.5h3.41v1.58H96.07v6.15c0,1.41.46,2.21,1.79,2.21a5.25,5.25,0,0,0,1.38-.14l.11,1.58a7.52,7.52,0,0,1-2.12.28,3.71,3.71,0,0,1-2.58-.87,4.05,4.05,0,0,1-.92-3V46.08h-2V44.5h2V41.77Z"/><path class="cls-3" d="M104.1,41.3a1.35,1.35,0,0,1-1.44,1.39,1.33,1.33,0,0,1-1.36-1.39,1.4,1.4,0,1,1,2.8,0Zm-2.58,14.6V44.5h2.38V55.9Z"/><path class="cls-3" d="M119.09,50.11c0,4.21-3.39,6-6.53,6-3.53,0-6.3-2.26-6.3-5.86,0-3.8,2.91-6,6.51-6C116.54,44.27,119.09,46.65,119.09,50.11Zm-10.39.12c0,2.49,1.63,4.38,4,4.38s4-1.86,4-4.43c0-1.93-1.11-4.36-3.93-4.36S108.7,48.08,108.7,50.23Z"/><path class="cls-3" d="M145.08,53.17a16.17,16.17,0,0,0,.19,2.73h-2.15l-.19-1.44h-.08a5.14,5.14,0,0,1-4,1.7c-2.66,0-4-1.63-4-3.27,0-2.76,2.83-4.27,7.9-4.24v-.24c0-.92-.3-2.63-3-2.61a7.07,7.07,0,0,0-3.44.85l-.54-1.39a9.46,9.46,0,0,1,4.34-1c4,0,5,2.38,5,4.64Zm-2.31-3.08c-2.6-.05-5.56.35-5.56,2.56a2,2,0,0,0,2.23,2,3.31,3.31,0,0,0,3.22-1.91,2.07,2.07,0,0,0,.11-.66Z"/><path class="cls-3" d="M148.28,39.18h2.38V55.9h-2.38Z"/><path class="cls-3" d="M121.46,44.5h2.18v1.89A5,5,0,0,1,128,44.27c1.82,0,4.64.94,4.64,4.85V55.9h-2.39V49.33c0-1.84-.79-3.37-3-3.37a3.62,3.62,0,0,0-3.36,3.09V55.9h-2.39Z"/><path class="cls-3" d="M243.45,40h2.39V54.18h7.81V55.9h-10.2Z"/><path class="cls-3" d="M257.92,41.3a1.35,1.35,0,0,1-1.44,1.4,1.34,1.34,0,0,1-1.37-1.4,1.39,1.39,0,0,1,1.42-1.42A1.36,1.36,0,0,1,257.92,41.3Zm-2.58,14.6V44.5h2.38V55.9Z"/><path class="cls-3" d="M261,39.18h2.36v7.16a5.67,5.67,0,0,1,4.53-2.07,5.41,5.41,0,0,1,5.56,5.79,5.78,5.78,0,0,1-5.91,6.1A5,5,0,0,1,263.22,54V55.9H261Zm2.36,12.15a2.41,2.41,0,0,0,.11.76,3.6,3.6,0,0,0,3.58,2.42c2.52,0,4-1.76,4-4.38,0-2.28-1.36-4.24-3.93-4.24a3.76,3.76,0,0,0-3.61,2.55,2.88,2.88,0,0,0-.14.87Z"/><path class="cls-3" d="M293.25,53.17a17.28,17.28,0,0,0,.19,2.73H291.3l-.19-1.44H291a5.14,5.14,0,0,1-4,1.7c-2.66,0-4-1.63-4-3.27,0-2.76,2.82-4.27,7.89-4.24v-.24c0-.92-.29-2.63-3-2.61a7,7,0,0,0-3.44.85l-.55-1.39a9.53,9.53,0,0,1,4.34-1c4,0,5,2.38,5,4.64ZM291,50.09c-2.61-.05-5.56.35-5.56,2.56a2,2,0,0,0,2.22,2,3.31,3.31,0,0,0,3.23-1.91,2.07,2.07,0,0,0,.11-.66Z"/><path class="cls-3" d="M295.76,44.5H298v2.26a5,5,0,0,1,4.27-2.44v2c-2.25,0-4.09,1.72-4.09,3.23v6.4h-2.44Z"/><path class="cls-3" d="M305.14,44.5,309.36,54l4.23-9.52h1.9l-3.58,8.13c-1.71,3.91-2.87,5.88-4.5,7.13a7.14,7.14,0,0,1-2.93,1.32l-.59-1.72a6.47,6.47,0,0,0,2.08-1,6,6,0,0,0,2.12-2.52c.08-.23-4.94-11.33-4.94-11.33Z"/><path class="cls-3" d="M275.6,44.5h2.26v2.26a5,5,0,0,1,4.28-2.44v2c-2.25,0-4.1,1.72-4.1,3.23v6.4H275.6Z"/><path class="cls-3" d="M130.28,28.42h-8.55l4-21.55h-3.5l-4,21.55h-5.85l-4-21.55h-3.49l4,21.55h-8.54v1.83h29.94Zm0-25.23h-12.9V.31h-4.16V3.19H100.33V5h30Z"/><path class="cls-3" d="M252.76,21.08a7.23,7.23,0,0,0,0,9.48h25.76a7.23,7.23,0,0,0,0-9.48Zm23.69,7.64H254.83a5.22,5.22,0,0,1-.75-2h23.13A5.24,5.24,0,0,1,276.45,28.72ZM254.07,24.9a5.27,5.27,0,0,1,.76-2h21.62a5.11,5.11,0,0,1,.76,2Zm24-13.83a7,7,0,0,0,1.71-3.82h1.17V5.41h-1.17a6.84,6.84,0,0,0-1.71-3.79H267.18V0h-3.05V1.62H251.51V3.43h12.62v2H250.38V7.25h13.75v2H251.51v1.84h12.62v2.1H251.51V15h12.62v2.11H250.38V19h30.55V17.11H267.18V15H279.8V13.17H267.18v-2.1ZM267.18,3.43H276a5.17,5.17,0,0,1,.76,2h-9.55Zm0,3.82h9.55a5.24,5.24,0,0,1-.76,2h-8.79Z"/><path class="cls-3" d="M289.15.77,285.8,6.69h3L291,2.89H296l2.15,3.8h3L297.83.77ZM304.71,3.9h9.2V6.69H317V2.06h-6V.31h-3.32V2.06h-6V6.69h3.06Zm10.58,15.8h-10V16.92h9.34a6.35,6.35,0,0,0,1.68-4.49A6.64,6.64,0,0,0,314.63,8H302.27V30.25h13a8,8,0,0,0,0-10.55Zm-10-9.91h7.17a4.69,4.69,0,0,1,.79,2.64,5.48,5.48,0,0,1-.79,2.65h-7.17Zm8,18.63h-8V21.53h8a7.06,7.06,0,0,1,.94,3.43A7.78,7.78,0,0,1,313.28,28.42Zm-17.41-5.29.69,2.21-6.33,2.9V21.6h7.27a2.36,2.36,0,0,0,2.55-2.26V8h-4.42V5.82h-4V8h-4.42V28c0,1.65.84,2.18,2,2.26a4.8,4.8,0,0,0,2.28-.55c2.09-.94,4.57-2.09,5.66-2.6l1,3.16h2.84l-2.22-7.12ZM290.23,9.79H297v4h-6.76Zm0,5.86H297v2.74s0,1.37-1.22,1.37h-5.54Z"/><path class="cls-3" d="M180.27,15.82h2.14V13.68h-2.14Zm5.81,0h2.14V13.68h-2.14Zm-5.77-4.08h2.87v5.07h2.13V11.74H187c1.42,0,1.29-1,1.06-1.6L187.22,8h-2l1.13,2.19h-2.89l4.14-7h-2.25l-1.91,3.24-1.15-.82L185.63,0h-2.41l-3.4,5.75,2.83,2ZM179.55,8l-3.46-6.72h-2.94L176.61,8Zm0,8.8-3.46-6.72h-2.94l3.46,6.72Zm5.34,8v-1.5h20a4,4,0,0,0,0-5.16H181.31v1.82H203a1.52,1.52,0,0,1,.15.78,1.57,1.57,0,0,1-.15.73H182.31v5.17h21.06a2.33,2.33,0,0,1,.24,1.06,2.27,2.27,0,0,1-.24,1h-23v1.84h24.86a4.8,4.8,0,0,0,1.1-2.88,4.25,4.25,0,0,0-1.1-2.9Zm14.52-9h2.14V13.68h-2.14Zm.05-4.08h2.86v5.07h2.13V11.74h1.72c1.42,0,1.29-1,1.07-1.6-.12-.27-.88-2.11-.88-2.11h-2l1.13,2.19h-2.89l4.14-7h-2.24l-1.92,3.24-1.15-.82L204.77,0h-2.41L199,5.75l2.82,2Zm5.76,4.08h2.14V13.68h-2.14Zm-6.29-14h-3.39V0h-3.67V1.77h-3.38V3.3h10.44Zm-10,8.25v4.74a1.9,1.9,0,0,0,2,2h5.59a1.9,1.9,0,0,0,2-2V10h-2.14v1.16H191V10Zm7.49,2.69v2.57H191V12.71Zm2.14-5.22h-9.63V9h9.63Zm0-2.86h-9.63V6.16h9.63ZM177.73,18.15l-4.58,12.41H176l4.58-12.41Z"/><path class="cls-3" d="M153.65,27H165.9V25.15H153.65V23.42h7.18a1.89,1.89,0,0,0,2-2.05V19.54h.92V17.7H140.54v1.84h.91v1.83a1.89,1.89,0,0,0,2,2.05h7.12v1.73H138.4V27h12.19v1.73H137.37v1.84h29.56V28.72H153.65Zm-9.45-5.1V19.54h15.89v2.35Zm9.45-20.25V0h-3.06V1.64H136.71V3.48h13.88V4.89H138.06V6.73h28.18V4.89H153.65V3.48h13.93V1.64ZM136.71,23.42h2.76V16.09h25.36v7.33h2.75V14.25H136.71ZM166.24,12.9a4.81,4.81,0,0,1-.55-2.42A4.86,4.86,0,0,1,166.24,8V8H138.06V8a4.87,4.87,0,0,1,.54,2.44,4.82,4.82,0,0,1-.54,2.42ZM163,9.85a1.5,1.5,0,0,0-.11.63,1.33,1.33,0,0,0,.11.59H141.29a1.35,1.35,0,0,0,.12-.59,1.51,1.51,0,0,0-.12-.63Z"/><path class="cls-3" d="M63.66.31V30.25h28A2.36,2.36,0,0,0,94.21,28V.31Zm3.06,1.83H81.16c0,1.24.11,2.45.23,3.64H66.72Zm13.5,26.27H66.72V25.86H81.14ZM66.72,24V7.61H81.61a48.5,48.5,0,0,0,2.51,9.93L81.8,24Zm22.77,4.4H82.83l2.69-7.5A36.25,36.25,0,0,0,90,28.36,3,3,0,0,1,89.49,28.41Zm1.66-2.76a44.26,44.26,0,0,1-4.32-8.35l2.81-7.78H87L85.55,13.6a42.27,42.27,0,0,1-1.34-6h6.94Zm0-19.87H88.8V3.33H86.35V5.78H84c-.12-1.19-.19-2.41-.2-3.64h7.38Zm-22.53,14A2.35,2.35,0,0,0,71.15,22h6.17a2.35,2.35,0,0,0,2.53-2.26v-10H68.62Zm2.76-.94V11.65h5.71v7.19s0,1.37-1.22,1.37H72.59C71.35,20.21,71.38,18.84,71.38,18.84Z"/><path class="cls-3" d="M234.7,21.77V18H222.82v5.86h9.34A2.24,2.24,0,0,0,234.7,21.77ZM231.64,21c0,.53-.11.94-1,.94h-4.81V19.79h5.77Zm7.58,3.64v-10H218.3V27h18.26C238.66,27,239.22,25.71,239.22,24.68Zm-3.06-.76A1.1,1.1,0,0,1,235,25.11h-13.6V16.55h14.81ZM213.49,0V30.56h28a2.37,2.37,0,0,0,2.54-2.27V0ZM241,27.34c0,.62-.42,1.37-1.66,1.37H216.55V13.1H241Zm0-16.08H230.38V9.47h9.45a6.59,6.59,0,0,1-.55-2.88,6.67,6.67,0,0,1,.55-2.89v0H217.7v0a6.84,6.84,0,0,1,.54,2.89,6.76,6.76,0,0,1-.54,2.88h9.49v1.79H216.55V1.84H241Zm-20-5.41h15.66a2.08,2.08,0,0,0-.11.74,1.87,1.87,0,0,0,.11.71H220.93a1.87,1.87,0,0,0,.11-.71A2.08,2.08,0,0,0,220.93,5.85Z"/></svg>