<?xml version="1.0" encoding="utf-8"?>
<!-- Generator: Adobe Illustrator 26.3.1, SVG Export Plug-In . SVG Version: 6.00 Build 0)  -->
<svg version="1.2" baseProfile="tiny"
	 id="svg8" xmlns:dc="http://purl.org/dc/elements/1.1/" xmlns:cc="http://creativecommons.org/ns#" xmlns:svg="http://www.w3.org/2000/svg" xmlns:rdf="http://www.w3.org/1999/02/22-rdf-syntax-ns#"
	 xmlns="http://www.w3.org/2000/svg" xmlns:xlink="http://www.w3.org/1999/xlink" x="0px" y="0px" viewBox="0 0 206.2 49"
	 overflow="visible" xml:space="preserve">
<line fill="none" stroke="#000000" stroke-miterlimit="10" x1="0.5" y1="0" x2="0.5" y2="49"/>
<g>
	<path d="M19,45c0,1-0.2,1.7-0.6,2c-0.6,0.4-1.4,0.7-2.5,0.7c-0.6,0-1.1-0.1-1.5-0.5c-0.2-0.2-0.3-0.6-0.3-1.2V18.7l-2.4,1.6
		c-0.2,0.1-0.4,0-0.4-0.1c-0.1-0.1,0-0.3,0.1-0.5c2.9-3.3,5.1-7.3,6.6-11.9l1.1-5.4c0-0.2,0.2-0.3,0.4-0.4C21.3,2.1,23,2.5,24.7,3
		c0.7,0.2,1.1,0.6,1.1,1c0,0.3-0.4,0.6-1.1,0.7l-0.2,0.1c3.2,0.8,5.4,2.3,6.5,4.4c0.5,0.8,0.6,1.6,0.4,2.6c-0.1,0.8-0.6,1.4-1.4,1.7
		c-1.6,0.6-2.7-0.1-3.3-2.2c-0.5-2.3-1.6-4-3-5.2c-1.5,3.1-3.1,5.7-4.9,8h3c0.3,0,0.5-0.1,0.6-0.3l1.9-2.4c0.2-0.3,0.5-0.4,0.9-0.1
		c0.9,0.7,1.7,1.7,2.4,2.8c0.3,0.3,0.4,0.6,0.2,0.9c-0.1,0.2-0.3,0.4-0.7,0.4h-9.3l-2.5,2.3c1.2,0.3,2.6,0.8,4,1.6h5.4
		c0.2,0,0.4-0.1,0.5-0.3l1.2-1.2c0.1-0.1,0.2-0.1,0.5,0c1.6,0.5,3,1.2,4.3,2.3c1,0.6,0.9,1.2-0.3,1.8c-0.3,0.1-0.4,0.4-0.4,0.8v8.2
		c0,0.6-0.3,1-0.8,1.4c-0.5,0.3-1.3,0.5-2.4,0.5c-0.7,0-1.1-0.2-1.4-0.5c-0.2-0.3-0.3-0.8-0.3-1.4H19v5.4h4.8c0.3,0,0.6-0.1,0.7-0.3
		l2.2-2.7c0.2-0.2,0.5-0.2,0.8,0c1.4,0.9,2.6,2,3.5,3.4c0.2,0.2,0.3,0.4,0.2,0.6c-0.1,0.2-0.4,0.3-0.8,0.3H19v5.2h5
		c0.3,0,0.5-0.1,0.7-0.3l2.2-2.7c0.2-0.2,0.5-0.2,0.8,0c1.4,0.9,2.6,2,3.5,3.4c0.2,0.2,0.3,0.4,0.2,0.6C31.2,43.9,31,44,30.6,44H19
		V45z M25.5,24.5v-3.7c-0.1-0.2-0.3-0.3-0.5-0.2h-5.2L19,20.7v3.8H25.5z M25.5,29.5v-3.7H19v3.7H25.5z M39.5,45c0,1-0.2,1.7-0.7,2.1
		c-0.5,0.4-1.4,0.7-2.4,0.7c-0.6,0-1.2-0.2-1.5-0.5c-0.2-0.2-0.4-0.6-0.4-1.3V17.5c-1.4,0.2-2.4,0-3-0.6c-0.5-0.5-0.7-1.3-0.6-2.3
		c0.1-0.9,0.6-1.7,1.5-2.3c1.3-1.1,2.1-2.8,2.4-5c0-0.2,0-0.3,0.1-0.4c0.1,0,0.3,0,0.4,0.3l0.6,1.4l2.9,0.1h2.1V2.1
		c0-0.1,0-0.2,0.3-0.2c1.9,0,3.7,0.2,5.3,0.7c0.6,0.2,1,0.5,1,0.8c0,0.4-0.3,0.7-0.8,0.9C46.2,4.4,46,4.6,46.1,5v3.8h3.6l0.7-0.4
		L52,6.9c0.2-0.1,0.5-0.1,0.8,0c1.7,0.7,3.3,1.6,4.8,2.7c0.4,0.3,0.5,0.6,0.5,0.9c-0.2,0.3-0.5,0.5-1,0.5l-0.6,0.2
		c-2.1,1.9-4,3.5-5.7,4.8c-0.4,0.1-0.6,0.2-0.8,0.1l-0.1-0.7c0.6-1.9,1-3.7,1.2-5.4H38.8l-2.4,0.1c0.7,3,0.5,5.1-0.6,6.3
		c1.2,0.3,2.6,0.9,4,1.7h6.9l1.8-1.7c0.1-0.1,0.3-0.1,0.5,0c1.6,0.5,3.1,1.4,4.5,2.4c0.9,0.7,0.8,1.3-0.3,1.9
		c-0.3,0.1-0.5,0.4-0.5,0.9v7.1c0,0.6-0.3,1-0.8,1.4s-1.3,0.5-2.5,0.6c-0.7,0-1.2-0.2-1.5-0.6c-0.2-0.3-0.4-0.8-0.3-1.4v-0.1h-7.9
		v5.6H48l1.8-1.7c0.1-0.1,0.3-0.1,0.5,0c1.6,0.5,3.1,1.3,4.5,2.4c0.9,0.6,0.7,1.3-0.4,1.9c-0.3,0.1-0.5,0.4-0.5,0.8v7.8
		c0,0.6-0.3,1.1-0.8,1.4c-0.5,0.3-1.4,0.5-2.5,0.6c-0.7,0-1.3-0.1-1.6-0.5c-0.2-0.3-0.3-0.8-0.3-1.5v-1h-9.3V45z M47.4,27.1v-7.4
		c-0.1-0.3-0.3-0.4-0.5-0.3h-6.3l-1.1,0.1v7.5H47.4z M48.8,42.9v-7.3c-0.1-0.3-0.3-0.4-0.5-0.2h-8.7v7.4H48.8z"/>
	<path d="M104.9,15.4c0.3,0.3,0.4,0.7,0.2,0.9c-0.1,0.2-0.3,0.4-0.7,0.4h-8.5c0.1,5.7,0.6,10.1,1.5,13.4c1.1-3.2,2-6.1,2.4-8.8
		c0-0.2,0.2-0.3,0.4-0.3l4.4,1.4c0.7,0.2,1,0.5,0.9,0.8c0,0.3-0.3,0.5-1,0.7c-0.2,0-0.3,0.1-0.3,0.2c-1.3,4.4-3,8.2-4.9,11.2
		c0.5,1,1,1.9,1.6,2.7c0.7,0.9,1.2,1.4,1.4,1.4c0.6-0.1,1.5-1.3,2.7-3.7c0.1-0.3,0.3-0.4,0.5-0.3c0.2,0,0.3,0.2,0.2,0.5l-0.8,4.6
		c-0.1,0.7,0,1.4,0.3,2.2c1.1,1.5,1.3,2.7,0.7,3.7c-0.7,0.7-1.7,0.9-3,0.5c-2.9-0.9-5.4-3.2-7.4-6.8c-3.3,3.2-6.9,5.4-10.6,6.5
		c-0.2,0-0.3,0-0.3-0.1l0.1-0.3c2-1.3,3.8-2.9,5.5-4.7H79.7v0.5c0,0.7-0.2,1.2-0.7,1.5c-0.6,0.3-1.3,0.5-2,0.6c-0.5,0-1-0.1-1.4-0.4
		c-0.2-0.2-0.3-0.6-0.2-1.1V19.6c0-0.2,0-0.4,0.1-0.3c1.7,0.3,3.2,0.9,4.4,1.6h2.2c0.5,0,0.8-0.1,0.9-0.3l1.3-2.3
		c0.3-0.4,0.6-0.5,1-0.2c1.6,0.9,2.9,2.1,4.2,3.3c0.2,0.2,0.2,0.4,0.2,0.6c-0.1,0.1-0.3,0.2-0.7,0.2h-3.6v5.3h0.1l1.4-1.4h0.5
		c1.3,0.4,2.5,1.1,3.6,1.9l0.3,0.4c0.1,0.2-0.3,0.8-1.1,1.8V35c0,0.5-0.2,0.9-0.6,1.1c-0.4,0.2-1.1,0.4-2,0.5c-0.6,0-1-0.1-1.2-0.4
		c-0.2-0.2-0.3-0.7-0.3-1.2v-0.4h-0.8v5.8l0.3-0.2l1.8-2.3c0.2-0.3,0.5-0.4,0.8-0.1c0.9,0.7,1.6,1.6,2.2,2.7
		c0.2,0.2,0.3,0.5,0.3,0.7l3.1-4.2v-0.1c-1.8-5-2.7-11.7-2.8-20H74.5v5.6l-0.2,6.3c-0.7,9.1-3.3,15.3-8,18.6c-0.3,0.2-0.5,0.2-0.7,0
		c-0.1-0.1-0.1-0.3,0.1-0.6c2.1-4.1,3.4-9.6,3.7-16.2h-1.2l-0.3,4.4c-0.6,4.6-2.6,7.7-5.8,9.2c-0.2,0.1-0.4,0.1-0.5,0
		c-0.1-0.1,0-0.3,0.1-0.5c1.5-2.6,2.2-7,2.2-12.7h-1.2c-0.2,0-0.4,0-0.4-0.1L61.8,29c0-0.2,0.1-0.2,0.5-0.2l3.2,0.3h3.9l0.1-5.6
		h-1.9v1c0,0.7-0.3,1.2-0.9,1.5c-1,0.4-2,0.4-3,0c-0.5-0.3-0.8-0.8-0.8-1.4V13.7c0-0.2,0.1-0.3,0.3-0.3l4.3,0.7
		c0.8,0.1,1.3,0.4,1.3,0.8l-1.2,1.5v5.7h1.9v-8.5c0-0.3,0.1-0.5,0.3-0.4c1.4,0.5,3,1.2,4.9,2.2h16.3v-2.9c0-0.3,0.1-0.4,0.4-0.3
		c1.4,0,2.9,0.1,4.4,0.4c0.8,0.1,1.2,0.4,1.2,0.9c0,0.4-0.3,0.7-0.9,0.9c-0.2,0.1-0.3,0.3-0.3,0.8v0.3h2.1c0.2,0,0.7-0.5,1.3-1.3
		c-0.3-0.1-0.6-0.3-0.9-0.7C98,12.9,98,12.4,98,12c0-0.8-0.3-1.6-0.9-2.4c-0.1-0.1-0.2-0.3-0.1-0.5C97,9,97.1,8.9,97.3,9
		c1,0,2,0.2,2.8,0.6c0.9,0.4,1.5,0.9,1.7,1.7l0.1,0.9C103,12.9,104,14.1,104.9,15.4z M79.8,8.2v2.2c0,0.7-0.3,1.3-0.9,1.6
		c-1,0.4-2,0.3-3.1,0c-0.6-0.3-0.9-0.8-0.9-1.4V8.2h-8.6l-2.8,0.4C63.2,8.7,63,8.7,63,8.4l-0.5-1.7c0-0.2,0.1-0.3,0.5-0.2l3.3,0.3
		h8.6V2.2c0-0.2,0.1-0.3,0.3-0.2c1.4,0.1,2.9,0.3,4.5,0.6C80.6,2.7,81,3,81,3.5L79.8,5v1.8h7.8V2c0-0.2,0.1-0.3,0.3-0.3
		c1.4,0.1,2.9,0.3,4.5,0.6c0.9,0.1,1.3,0.5,1.3,0.9l-1.3,1.6v2h3.5c0.3,0,0.6-0.1,0.8-0.4l2.5-3.1c0.2-0.3,0.6-0.3,0.9-0.1
		c1.8,1,3.2,2.4,4.3,4c0.2,0.2,0.3,0.5,0.2,0.7c-0.1,0.2-0.4,0.3-0.8,0.3H92.4V10c0,0.7-0.3,1.2-0.9,1.6c-1,0.4-2,0.4-3.1,0
		c-0.6-0.3-0.9-0.8-0.9-1.4v-2H79.8z M81.2,27.4v-5.3h-1.5v5.3h0.9H81.2z M86.2,33.4v-4.7c-0.1-0.2-0.2-0.2-0.4,0h-6v4.7H86.2z
		 M81.2,40.4v-5.9h-1.5v5.9H81.2z"/>
	<path d="M119,9.3c-2.3,3.4-5.1,6-8.4,7.6c-0.2,0.1-0.4,0-0.4-0.1c0-0.1,0-0.3,0.1-0.5c1.4-1.6,2.7-3.7,3.9-6.1
		c1.1-2.6,1.9-5.2,2.1-7.8l0.1-0.7c0-0.2,0.2-0.4,0.5-0.4c1.8,0.1,3.5,0.5,5.3,1.1c0.8,0.2,1.2,0.6,1.1,1.1c0,0.4-0.4,0.6-1.1,0.7
		L119.9,8h4.7c0.3,0,0.6-0.1,0.8-0.4l2.5-3.2c0.2-0.3,0.6-0.3,0.9-0.1c1.8,1.1,3.2,2.4,4.3,4c0.2,0.2,0.3,0.5,0.2,0.7
		c-0.1,0.2-0.4,0.3-0.8,0.3h-9.8l0.2,0.1c2.1,1,3.4,2.5,4,4.5c0.1,1-0.2,2-0.8,2.8c-0.5,0.8-1.3,1.2-2.2,1.2c-0.9,0-1.6-0.5-2-1.2
		c-0.4-0.6-0.5-1.5-0.3-2.5c0.2-0.8,0.3-1.7,0.2-2.4c0-0.9-0.3-1.7-0.8-2.4H119z M135.1,45.5c0,0.9-0.4,1.5-1.2,1.9
		c-1.1,0.4-2.2,0.4-3.2-0.1c-0.5-0.3-0.8-0.8-0.8-1.5V35.1c-1.6,2.1-3.6,4-6,5.8c-3.4,2.6-6.9,4.6-10.3,5.8
		c-0.3,0.1-0.5,0.1-0.6-0.1c-0.1-0.2,0-0.5,0.2-0.6c3.1-2.1,6.5-5.1,10-9.3c2.8-3.5,5-7,6.6-10.4h-7.9v8.5c0,0.9-0.3,1.5-0.9,1.9
		c-0.7,0.4-1.5,0.6-2.5,0.6c-0.7,0-1.2-0.1-1.7-0.5c-0.2-0.1-0.4-0.6-0.3-1.3V23.5c0-0.3,0-0.5,0.2-0.4c2.2,0.6,3.9,1.3,5.2,2h7.9
		V21h-15.3l-2.8,0.4c-0.3,0.1-0.5,0.1-0.5-0.1l-0.5-1.7c0-0.2,0.1-0.3,0.5-0.2l3.3,0.3h15.3v-3.6h-0.2c-0.2,0-0.4,0-0.5-0.1
		c0-0.2,0-0.4,0.2-0.5l0.5-0.5v0l0.2-0.2c3.1-3.7,5.2-8.1,6.3-13.1c0-0.3,0.2-0.4,0.5-0.4c1.8,0.3,3.5,0.9,5.2,1.6
		c0.8,0.3,1.1,0.7,1,1.2c0,0.3-0.4,0.5-1.1,0.6c-0.1,0-1,1.2-2.6,3.6h6.8c0.3,0,0.6-0.1,0.8-0.4l2.5-3.2c0.2-0.3,0.6-0.3,0.9-0.1
		c1.7,1.1,3.1,2.4,4.3,4c0.2,0.2,0.3,0.5,0.2,0.7c-0.1,0.2-0.4,0.3-0.8,0.3h-10.7c2,0.9,3.3,2.4,4,4.2c0.2,1,0,2-0.5,2.9
		c-0.5,0.9-1.2,1.3-2.1,1.4c-2,0-2.9-1.3-2.6-3.6c0.3-1.9,0-3.6-0.9-4.9h-2.8c-2,2.3-4,4.2-6.1,5.5l3.2,0.5c1,0.2,1.4,0.6,1.4,1.1
		c0,0.5-0.3,0.9-1.2,1.2c-0.3,0.1-0.5,0.3-0.5,0.8v1.4h11.4c0.3,0,0.6-0.1,0.8-0.4l2.5-3.1c0.2-0.3,0.6-0.3,0.9-0.1
		c1.7,1,3.1,2.4,4.3,4c0.2,0.2,0.2,0.5,0.1,0.6c-0.1,0.2-0.3,0.3-0.8,0.3h-19.3V25h7.9c0.4,0,0.8-0.2,0.9-0.4l1.2-1.9
		c0.2-0.3,0.6-0.3,1.2-0.1c2,1,3.4,2,4.2,2.7c0.9,0.9,0.7,1.7-0.6,2.2c-0.4,0.1-0.6,0.4-0.6,0.9v3.4c0,2-0.6,3.3-1.9,4.1
		c-1.1,0.6-2.3,0.9-3.3,0.9c-0.2,0-0.3-0.2-0.3-0.6c-0.1-1.1-0.5-1.9-1-2.4c-0.6-0.5-1.5-0.9-2.5-1c-0.3-0.1-0.5-0.4-0.4-0.8
		c0.1-0.3,0.4-0.4,0.9-0.3c1.5,0,2.4,0,2.6-0.2c0.4-0.2,0.6-0.6,0.6-1.1v-2.9c0-0.6-0.1-0.9-0.5-0.9h-8.4V28
		c1.6,2.7,3.8,5.1,6.8,7.5c3.8,3,7.8,4.9,12,5.7c0.3,0,0.5,0.2,0.5,0.4c0,0.1-0.1,0.3-0.3,0.4c-1,0.3-1.9,0.8-2.6,1.7
		c-0.6,0.9-1,1.7-1.2,2.5c0,0.4-0.3,0.5-0.8,0.3c-6.1-2.7-10.8-7.8-14.3-15.3V45.5z"/>
	<path d="M194.1,30.7l0.2-0.4c0-0.1,0.1-0.1,0.4-0.1c1.5,0.5,3,1.1,4.5,2c0.7,0.5,0.9,0.9,0.8,1.3c-0.1,0.4-0.5,0.6-1.2,0.4
		c-0.2,0-0.5,0.1-0.7,0.3c-0.8,0.5-2.7,1.8-5.6,3.4c3,1.7,6.6,2.9,10.7,3.4c0.4,0,0.6,0.2,0.7,0.4c0,0.2-0.1,0.4-0.4,0.5
		c-1.8,0.7-3.1,2.3-3.8,4.5c-0.1,0.3-0.4,0.4-0.8,0.3c-4.1-1.1-7.7-3.4-10.9-6.9c-2.5,1.2-8.1,3.3-16.6,6.2
		c-0.8,0.2-1.3,0.5-1.4,0.8c-0.1,0.4-0.3,0.7-0.6,0.7s-0.6-0.1-0.8-0.5c-0.8-1.5-1.5-3.1-1.9-4.7c0-0.3,0.1-0.5,0.4-0.5l5.9-0.5
		V28.7h-5.1l-0.1,0.8c-1.1,8.1-4,14-8.3,17.7c-0.3,0.2-0.5,0.2-0.7,0l1.5-4.2c2.1-6.2,3.2-16.2,3.2-29.9V1.6c0-0.4,0.1-0.5,0.4-0.4
		c1.6,0.6,3.5,1.4,5.5,2.5H193l1.8-1.8c0.1-0.1,0.3-0.1,0.6,0c1.6,0.5,3.1,1.4,4.7,2.4c0.9,0.7,0.8,1.4-0.4,2
		c-0.3,0.1-0.5,0.4-0.5,0.9v5.3c0,0.6-0.3,1.1-0.8,1.5c-0.5,0.3-1.4,0.5-2.5,0.6c-0.7,0-1.3-0.1-1.6-0.5c-0.2-0.3-0.3-0.9-0.3-1.6
		v-0.5h-24.9v1.3c0,5.1-0.3,9.8-0.8,14.3h7.3v-7.5h-1.9l-2.8,0.4c-0.3,0.1-0.5,0.1-0.5-0.1l-0.5-1.7c0-0.2,0.1-0.3,0.5-0.2l3.3,0.3
		h1.9v-5.6c0-0.1,0-0.2,0.2-0.1c1.9,0,3.5,0.2,5.1,0.7c0.6,0.2,1,0.4,1,0.8c0,0.4-0.3,0.7-0.9,0.9c-0.3,0.1-0.5,0.3-0.5,0.6v2.8h5.2
		v-5.2c0-0.1,0-0.2,0.3-0.1c1.8,0,3.5,0.2,5,0.7c0.6,0.2,1,0.4,1,0.7c0,0.4-0.3,0.7-0.9,0.9c-0.3,0.1-0.5,0.3-0.5,0.6v2.4h2.1
		c0.3,0,0.6-0.1,0.8-0.3l2.4-3.1c0.2-0.2,0.5-0.3,0.8-0.1c1.6,1,3,2.3,4.1,3.8c0.2,0.2,0.3,0.5,0.2,0.7c-0.1,0.2-0.4,0.3-0.8,0.3
		h-9.7v7.5h3.7c0.4,0,0.7-0.1,0.9-0.4l2.6-3.3c0.2-0.3,0.5-0.3,0.9-0.1c1.8,1.1,3.3,2.5,4.5,4.1c0.2,0.2,0.3,0.5,0.2,0.7
		c-0.1,0.2-0.4,0.3-0.8,0.3H184c1,2.5,3.2,5.2,6.5,7.7C192.2,34.4,193.4,32.5,194.1,30.7z M168.9,10.5h24.9V5.2
		c-0.1-0.3-0.3-0.4-0.5-0.3h-24.4v0.6V10.5z M183,28.7h-4.9v12.1l9.2-1.8c-1-1.4-1.9-2.9-2.6-4.6C183.8,32.2,183.2,30.3,183,28.7z
		 M185.5,27.3v-7.5h-5.2v7.5H185.5z"/>
</g>
</svg>
