<svg xmlns="http://www.w3.org/2000/svg" width="46.018" height="48.296" viewBox="0 0 46.018 48.296"><g transform="translate(-6532.982 -7960)"><g transform="translate(293.441 -1504.509)"><g transform="translate(6240.691 9505.905)"><path d="M0-29.546v-6.9H3.294L6.526-31.91v-4.535H8.969v6.9H6.031L2.505-34.336v4.791Z" transform="translate(0 36.445)" fill="#393536"/></g><g transform="translate(6253.371 9505.905)"><path d="M-10.251-6.62h-2.394V-8.165h7.6V-6.62H-7.472v5.354h-2.779Z" transform="translate(12.645 8.165)" fill="#393536"/></g><g transform="translate(6265.299 9505.905)"><path d="M0,0H2.78V5.354H6.44V6.9H0Z" fill="#393536"/></g><g transform="translate(6248.556 9464.509)"><path d="M-94.1,0h-21.974V.033a6.463,6.463,0,0,1,.716,3.211,6.394,6.394,0,0,1-.716,3.2H-94.1a4.774,4.774,0,0,0,1.208-3.22A4.773,4.773,0,0,0-94.1,0" transform="translate(116.073)" fill="#05a1e6"/></g><g transform="translate(6248.556 9474.168)"><path d="M-5.173,0H16.8V.033a6.455,6.455,0,0,0-.717,3.211,6.385,6.385,0,0,0,.717,3.2H-5.173A4.774,4.774,0,0,1-6.381,3.22,4.774,4.774,0,0,1-5.173,0" transform="translate(6.381)" fill="#05a1e6"/></g><g transform="translate(6239.541 9464.509)"><path d="M0-63.767V-78.657H.033a6.462,6.462,0,0,0,3.212.716,6.39,6.39,0,0,0,3.2-.716v14.891a4.774,4.774,0,0,1-3.22,1.208A4.773,4.773,0,0,1,0-63.767" transform="translate(0 78.657)" fill="#05a1e6"/></g><g transform="translate(6239.541 9493.486)"><path d="M-5.172-27.576H16.8v-.033a6.465,6.465,0,0,1-.716-3.212,6.4,6.4,0,0,1,.716-3.2H-5.172A4.774,4.774,0,0,0-6.38-30.8a4.773,4.773,0,0,0,1.208,3.22" transform="translate(6.38 34.016)" fill="#229791"/></g><g transform="translate(6239.541 9483.827)"><path d="M-94.1-27.576h-21.974v-.034a6.459,6.459,0,0,0,.716-3.211,6.39,6.39,0,0,0-.716-3.195H-94.1a4.773,4.773,0,0,1,1.208,3.22,4.774,4.774,0,0,1-1.208,3.22" transform="translate(116.074 34.016)" fill="#229791"/></g><g transform="translate(6265.299 9483.827)"><path d="M-27.577-5.173V9.717h-.034A6.457,6.457,0,0,0-30.822,9a6.392,6.392,0,0,0-3.2.716V-5.173A4.774,4.774,0,0,1-30.8-6.381a4.774,4.774,0,0,1,3.22,1.208" transform="translate(34.017 6.381)" fill="#229791"/></g></g><rect width="14" height="48" transform="translate(6565 7960)" fill="none"/></g></svg>