<svg id="圖層_1" data-name="圖層 1" xmlns="http://www.w3.org/2000/svg" viewBox="0 0 332.32 60"><path d="M322.24,24.7c.39-.72.64-1.56.87-1.55a3.81,3.81,0,0,0,2.72-.88c1.71-1.76,3.3-3.73,3.58-6.31a2.13,2.13,0,0,0-.71-1.75,5.77,5.77,0,0,0-2.86-.76,11,11,0,0,0-2.82.84c-.42-1.64.49-1.73,1.62-1.71a8.21,8.21,0,0,0,1.74-.33c-.48-1.46-1-2.76-2.6-3.13L321,8.51l.09-.49c.59-.12,1.17-.26,1.76-.34,1.92-.28,3.85-.49,5.75-.84.35-.07.89-.7.84-1-.18-1.06-2.14-2.19-3.17-1.93-1.83.46-3.65,1-5.52,1.44-.06-2.52-2.13-4.46-6-4.92.6,2.08.86,4.15,3.34,5.19l-10.4,3.29a10.89,10.89,0,0,1,1.43,1.33c.84,1.18,1.8,1.2,3.05.65,1.6-.71,3.27-1.27,4.93-1.84a5.92,5.92,0,0,1,1.41-.15,4.55,4.55,0,0,1,0,1.8c-.19.44-.84.74-1.34,1s-1.28.49-2.25.85c1.46.89,2.64,1.55,3.74,2.34.18.13.13.85-.05,1.16s-.68.54-1.07.82c1.93,1,1.91,1.15-.17,2.82,1.49,1.6,1.4,2.26-.51,3,.16-2.83.1-5.55-3.42-6.52a11.15,11.15,0,0,0,1.31,7.1c.37.67,1.69.9,2.62,1.13a4.54,4.54,0,0,0,1.69-.3c.37,1.26,0,1.62-1,1.91-2.74.8-5.44,1.77-8.2,2.69,1.81,2.77,2.13,2.85,4.94,1.37.6-.31,1.2-.62,1.82-.9s1.29-.54,2.19-.92a3.66,3.66,0,0,1,.43,1.31c-.14,3.74.9,7.26,1.91,11,.23-.42.41-.62.43-.82.31-3.47.64-6.94.88-10.41.13-1.87.41-2.27,2.3-2.22a36,36,0,0,0,4.74.18,9.72,9.72,0,0,0,2.89-1.36v-.29C329.38,22.78,325.93,24.15,322.24,24.7Zm3.66-10,.42.43-2.7,5.68-.62-.22c-.93-1.46,1.25-1.61,1.23-2.74L322,16.92Z"/><path d="M311.89,11.6c-2.51,4-4.79,7.93-7.29,11.69-2,2.94-4.21,5.71-6.31,8.56a1.73,1.73,0,0,0-.47,1,2.83,2.83,0,0,0,.51,1.36c.09.13.68.12.87,0a25.28,25.28,0,0,0,4.1-3.43,66.7,66.7,0,0,0,5.33-7.37c1.89-3,3.53-6.15,5.47-9.57Z"/><path d="M296.89,17.83q-2.4-1.51-4.78-3l-.14.3L293.44,18l-4,1c.1-1.07.19-2,.26-2.84.32-3.8.54-7.62,1-11.41.31-2.6-.13-3.66-2.43-4.3a7.48,7.48,0,0,0-2.16-.26,1.29,1.29,0,0,0-1,.48c-.14.28,0,.75.15,1.11a13,13,0,0,1,1,2.94c.22,3.08.23,6.18.34,9.27.07,1.76.21,3.53.23,5.29a1.23,1.23,0,0,1-.65.88c-2.14,1-4.31,1.86-6.47,2.77a11.09,11.09,0,0,1,4.61-4.52c.69-.38,1.09-.6.43-1.45a5.91,5.91,0,0,0-3.9-2.32,10,10,0,0,1,2.44-.86c.85-.22,2.1-.2,2.05-1.32,0-.78-.8-1.56-1.35-2.25a1.72,1.72,0,0,0-1.16-.47c-1.51,0-3,0-4.94,0,1,1.29,1.79,2.24,2.6,3.26-.25.26-.5.55-.77.81-1.34,1.29-1.35,2.31-.23,3.86a1.76,1.76,0,0,1,0,1.49,10.3,10.3,0,0,1-1.3,1.69,8.29,8.29,0,0,0-1.71,2.3,8.15,8.15,0,0,0,0,3.23,1.42,1.42,0,0,0,1,.89c.39.05.84-.36,1.26-.59,2.26-1.2,4.53-2.39,6.77-3.63.93-.52,1.28-.22,1.34.73.11,1.73.29,3.46.33,5.2.05,2.35,0,4.71,0,7.1l-.77-.09c-.1,1.35,1.2,3.32,3.11,4.76h.29c1.29-4.51.17-9,0-13.53a30.7,30.7,0,0,1,0-5.34c.2-1.4,1.79-1,2.78-1.4,1.66-.62,3.35-1.17,5-1.75v-.58A5.07,5.07,0,0,1,296.89,17.83Z"/><path d="M274.93,20.43a7.34,7.34,0,0,0-2.76-1.05c-1.1-.1-1.18-.78-1.11-1.44,0-.35.63-.75,1.06-.91,1.69-.64,3.41-1.2,5.2-1.81-1.28-2.3-3-2.61-5.09-2.24a19.87,19.87,0,0,1,2.42-1.38A8,8,0,0,0,278,8.44a2,2,0,0,0-.14-1.83,20.28,20.28,0,0,0-3.4-1.95,1.38,1.38,0,0,0-.47.69c-.06.52.24,1.15,0,1.58-.68,1.43-1.52,2.8-2.29,4.18l-.56-.16c.26-2.16.53-4.32.77-6.48a1.21,1.21,0,0,0-.11-.73,3.44,3.44,0,0,0-3.8-1.15c-.61.3-1.12.76-.43,1.59,1.62,2,1.28,3.92-.86,5.28L266,10a16.13,16.13,0,0,0-1.82-1.41,1.7,1.7,0,0,0-1.37-.17c-.94.56-2.21,4.23-1.86,5.24a10.16,10.16,0,0,0,.87,1.62c.27.48,2.53,1.22,2.93.86a6.59,6.59,0,0,0,1.39-1.68c.73-1.24,1.36-2.53,2-3.81a27.31,27.31,0,0,1,.07,3.59c0,.82-.33,1.1-1.06,1.39-3,1.18-5.92,2.47-8.93,3.74a14.1,14.1,0,0,0,1,2.18c.61.89,1.24,1.56,2.43.42a17.44,17.44,0,0,1,2.33-1.6l.28.28a17.62,17.62,0,0,1-2.71,3c-1.95,1.38-1.28,3.2-1.2,4.94a1.18,1.18,0,0,0,.95.27c1.09-.51,2.12-1.12,3.16-1.69,1.41,2.17,2,4.92,4.78,6.14,1.55-3.57,1.19-7.26,1.29-11.31.75.8,1.21,1.34,1.73,1.82a2.06,2.06,0,0,0,2.86-.06C275.91,22.75,275.87,21,274.93,20.43ZM267.78,29l-3-2.2,3-3.82Z"/><path d="M16.51,16.58a6.51,6.51,0,0,0-1.31.51c-1.22.85-2.4,1.77-3.61,2.62a.7.7,0,0,1-.66,0A10,10,0,0,1,8,15.92.67.67,0,0,0,8,15.77c-.76-1.19-.79-1.26.42-1.86a27.19,27.19,0,0,1,3-1.14c1-.38,2.09-.74,3.14-1.11.76-.27,1.51-.56,2.28-.81a1.23,1.23,0,0,0,.72-1.38.78.78,0,0,1-.06-.4c.09-.67.23-1.33.3-2,.13-1.39.23-2.79.33-4.19a2.08,2.08,0,0,0-.11-.74c-.2-.51-.44-1-.74-1.71L21.66,0c-.09.38-.14.57-.18.77s-.24.67-.13.83c.73,1,0,1.84-.2,2.73-.12.68-.4,1.33-.51,2-.14.91-.17,1.84-.27,2.89A13.17,13.17,0,0,0,25,7.38a7,7,0,0,1,4,4.67l-1.58.39a11.21,11.21,0,0,1-1.09.32,20.85,20.85,0,0,0-2.87.37,14,14,0,0,0-2.59,1.18,2.23,2.23,0,0,0-1.31,2.32,7.71,7.71,0,0,1-.27,1.77c1.36.41,2.67.74,3.93,1.21a11.68,11.68,0,0,1,1.91,1.13l4,2.43a26.68,26.68,0,0,0,2.43,1.39,9.88,9.88,0,0,0,1.88.53l2,.53c.54.14,1.08.31,1.63.44a29.15,29.15,0,0,1,4,1.21,7.71,7.71,0,0,1,3.19,2A5.35,5.35,0,0,1,45,30.58l-.75.05-8.56.43,0,.53c-.94-.19-1.82.08-2.84-.38-.73-.33-1.05-1-1.82-1.29a7,7,0,0,1-2-1.37c-1.84-1.49-3.64-3-5.49-4.5C22.26,23,20.88,22,19.43,20.87v5.85A4.68,4.68,0,0,0,22.25,26a1.43,1.43,0,0,1,.85-.2,7.09,7.09,0,0,1,1.65.39c.17.06.22.44.4.86a2.19,2.19,0,0,1,1.25,1.6,1.05,1.05,0,0,1-.67.68c-.89.28-1.81.47-2.72.67-.55.13-1.11.23-1.66.34l-2,.4.35,10.23c-.71.08-1.14.26-1.51-.49-.26-.54-1-.83-1.51-1.27a7.31,7.31,0,0,1-1.46-1.48,28.76,28.76,0,0,1-1.42-2.83c0-.06,0-.16.07-.31,1.23.75,1.81,2.35,3.57,2.47l-.36-5.78c-.85.3-1.58.5-2.26.8a2.13,2.13,0,0,1-2.42-.39c-.74-.69-1.52-1.34-2.21-1.94L7.17,32.82l-.32-.21c0,.06-.1.1-.1.14a2,2,0,0,1-1.17,1.66,10.53,10.53,0,0,0-2.39,1.83A3.58,3.58,0,0,1,.53,37.43l-.16-.06L0,35.88l.71-1.71.49,1.62.32.08c.71-.88,1.39-1.79,2.14-2.65a26,26,0,0,0,3.77-4.78c.09-.16.29-.26.41-.41,1.23-1.42,2.49-2.82,3.66-4.29.89-1.12,1.68-2.32,2.51-3.5S15.58,17.94,16.51,16.58ZM11,29.2c2.19.1,3.93-1.43,6-1.57V21.94A42.18,42.18,0,0,1,11,29.2Z"/><path d="M61.87,14.3l.48-.2c.43-.22.95-.72,1.28-.62a19.2,19.2,0,0,1,3.73,1.59,2.94,2.94,0,0,1,1,1.6c.1.32-.07,1-.29,1.09-.64.23-.69,1-1.61,1.16s-2,.14-2.68,1.07a1.5,1.5,0,0,1-.93.5c-1.4.21-1.3,1.39-1.3,2.26a22.13,22.13,0,0,0,0,3.26c.09.69-.58,1.48-.95,2.32l1.34-.19a37,37,0,0,1,4.86-.7,11.49,11.49,0,0,1,3.38.81c.22.06.37.44.52.69a6.5,6.5,0,0,1,.25.61c.29.69.59,1.38.89,2a8.76,8.76,0,0,1-2,1,7,7,0,0,1-2.08-.15,11.1,11.1,0,0,1-3.09-.36c-1.38-.57-2.65,0-4,0a10.06,10.06,0,0,0-3.19.81c-1.69.55-3.37,1.15-5.05,1.76a1.6,1.6,0,0,1-1.78-.38,5.67,5.67,0,0,1-.78-1.6c-.09-.2-.11-.46-.25-.59a1,1,0,0,1-.22-1.44,1.67,1.67,0,0,1,1.51-.38,3,3,0,0,0,2,.15,4.78,4.78,0,0,0,3.73-2.38,1.37,1.37,0,0,1,.34-.38,3.76,3.76,0,0,0,1.49-3.52c0-.56,0-1.12,0-1.79-.49.18-1,.21-1.23.49-.79,1.12-1.87.63-2.79.52-.52-.07-1-.65-1.46-1.08s-.76-1.38-1.55-1.87c-.56-.34-.77-1.29-1-2,0-.14.34-.6.59-.67,2.14-.58,4.29-1.12,6.45-1.65a1.17,1.17,0,0,0,.93-1.47c-.17-1-.24-2-.33-3s-.09-1.86-.24-2.77c-.08-.47-.16-1.06-.86-1.19a.71.71,0,0,1-.4-.55.81.81,0,0,1,.42-.57,2.73,2.73,0,0,1,2.63,0,6.45,6.45,0,0,0,1.18.35,2.31,2.31,0,0,1,1.85,3c-.19,1.11-.47,2.21-.67,3.32A7,7,0,0,0,61.87,14.3Z"/><path d="M96.3,33.94c0-2.11,0-4.21,0-6.31,0-.49-.22-1-.23-1.45a2.43,2.43,0,0,1,.2-1.34c.92-1.23,1.92-2.39,2.92-3.56.42-.5.47-1.19,0-1.46-1.21-.63-2.4-1.45-3.83-.34a30.77,30.77,0,0,1-2.74,1.72l-.17-.05a3.47,3.47,0,0,1,.41-.7c.74-.76,1.52-1.49,2.26-2.25.23-.24.36-.7.62-.78a23.54,23.54,0,0,1,3.1-.7c.85-.13,1.72-.13,2.75-.19-.22-.62-.37-1.07-.52-1.51l-3.13-.45.52-.75c.38-.57.71-1.17,1.54-1.24a.67.67,0,0,0,.41-1.14,22.31,22.31,0,0,0-1.8-1.86l-1.47,2.26c-.81-1.4-1.4-2.8-3.16-2.89.11-1,.2-1.86.32-2.75a7.89,7.89,0,0,1,.28-1.26,1,1,0,0,0-1-1.38,4.47,4.47,0,0,0-1.27,0,1.54,1.54,0,0,0-.66.64c.47.65.11,1.22,0,1.86-.22,1.31-.24,2.66-.35,4,0,.23,0,.56-.2.66a17.47,17.47,0,0,1-1.6,1c-1,.52-1.92,1-2.85,1.56-.32.18-.58.46-.21.89A15.36,15.36,0,0,0,88,16.09c.47.38,1.36.82,1.76.62.88-.43.88.12,1.08.6-1.66.72-3.31,1.45-5,2.16s-3.32,1.39-5.12,2.15a4.33,4.33,0,0,0,.39.8,5.64,5.64,0,0,0,.83.93c.36.33.77.84,1.16.84s1.24.25,1.27-.69c0-.12.2-.26.34-.35l5.52-3.28a1.26,1.26,0,0,1-.35.77c-.39.43-.83.81-1.21,1.24s-.57.81-.89,1.18-.94,1-1.37,1.46c-.66.79-1.26,1.63-1.93,2.42-.37.44-1,.75-1.21,1.25-.7,1.42-2.17,1.95-3.19,3-.34.35-1.07.81-1,1a.72.72,0,0,1-.54,1c-.63.18-.53.51-.4,1a2,2,0,0,0,.6,0c.55-.16,1.08-1,1.64,0a1.22,1.22,0,0,0,.42-.18,15.62,15.62,0,0,0,3.29-3c1.51-1.75,3.06-3.46,4.59-5.18.49-.56.69-.08,1,.22a2.87,2.87,0,0,0,1.27.56c.12,0,.34-.37.51-.58s.26-.33.43-.54l1.26,1.89a14.57,14.57,0,0,0-1.27.92c-1,.79-1.8,1.71-2.81,2.41-.66.47-1.39,1.23-2.39.56-.12-.08-.37,0-.63.06a3.54,3.54,0,0,0,.14,1,15.91,15.91,0,0,1,1,1.67c.24.7,1,.36,1.3.79.31-.25.63-.5.93-.76s.67-.62.82-.76a5.27,5.27,0,0,1,.39-1.09,12.77,12.77,0,0,1,1.23-1.52c.6-.64,1.24-1.23,1.86-1.84l.2.11v5.4l-3.67-.52c.24.87.55,1.77,1.75,2l-.2.43c1.36.45,2.49,1.51,4,1.24,0-.22-.1-.43,0-.56A5.89,5.89,0,0,0,96.3,33.94ZM94.81,13.2c.48-.25.92-.59,1.38-.88l.2.19c-1,1.22-1.9,2.45-2.94,3.77C93.16,14.53,93.48,13.89,94.81,13.2Zm-.89,11.05a1.33,1.33,0,0,1-1.66.89c-.11-.33-.21-.66-.29-.93A12.44,12.44,0,0,1,95.55,21C95,22.1,94.44,23.17,93.92,24.25Z"/><path d="M118.66,33.59a19.56,19.56,0,0,0-5.74-1.84,9.26,9.26,0,0,1-2.43-.65A38.92,38.92,0,0,1,107,28.85a1.13,1.13,0,0,1-.52-1.31,18.77,18.77,0,0,1,.75-2.06c.23-.55.13-.94-.4-1.18s-1.21-.47-1.82-.7l-.84-.28-.21.17a3,3,0,0,1,.24,3.23l-3.84-1.43,1.32-2.13,1.1-.15c1.7-.28,3.39-.6,5.1-.82,1.28-.17,2.59-.19,3.88-.33,1-.11,1.23-.55.73-1.29a1,1,0,0,1,0-.16,1.8,1.8,0,0,0-1.92-1.52.81.81,0,0,1-.41-.07,2.18,2.18,0,0,0-2.51.29,4.72,4.72,0,0,1-.55.36,21,21,0,0,0-2,1,3.37,3.37,0,0,1-2,.72L105,17.09l.28,0c.57-1.07,1-2,1.55-2.87s.68-2.28-.18-2.72a6.82,6.82,0,0,0-3.45-.94,4,4,0,0,0-.91.3c.35.51.83.88.84,1.26a9.1,9.1,0,0,1-.36,2.53,19,19,0,0,1-1.1,3.13c-.6,1.35-.88,2.84-2,4a3.2,3.2,0,0,0-.87,3.35c.19.56-.1.54-.33.69-.51.33-1,.63-1.67,1a4.77,4.77,0,0,0,1.29.51,8.08,8.08,0,0,1,3.66,1.22c.82.45,1.14,1.21.55,1.6-1.29.85-2.37,2.12-4.16,2,.26.54.47,1,.65,1.38.26-.07.55-.26.74-.19a3.77,3.77,0,0,0,2.14-.09,3,3,0,0,0,2.16-1.56c.17-.37.49-.68,1-.2.67.65,1.41,1.24,2.13,1.84.95.78,1.89,1.57,2.88,2.29a2.22,2.22,0,0,0,1.23.37c.64,0,1.27-.21,1.92-.27a7.33,7.33,0,0,0,2.12-.14,8.67,8.67,0,0,1,3.18-.46,10.06,10.06,0,0,0,1.47-.29C119.31,34.3,119.06,33.82,118.66,33.59Z"/><path d="M139.8,25.37c-.1-1.47-.38-2.93-.46-4.4a1.13,1.13,0,0,0-.83-1.18c-.57-.2-1.13-.43-1.71-.59a4,4,0,0,0-1.51-.22,4,4,0,0,0-1.21.64c-1,.53-1.92,1.05-2.87,1.59-.31.18-.6.39-1,.64l2.44.81,3.22-2.17c.63,2.87.19,5.48.37,8.33-1.46-1.78-2.93-1-4.38-.41l-.17-.28,3.8-3.39c-1.24-1.68-2.61-2.24-4.15,0-.11-.63-.19-1.07-.3-1.68l-3.25-1.93c-.12,1.27-.24,2.52-.36,3.76-.06.55-.12,1.09-.17,1.63-.12,1.19-.24,2.38-.33,3.57,0,.58,0,1.17,0,1.75,0,1.22-.38,2.49.5,3.57a14,14,0,0,0,1.68,1.76c.14.12.63-.16,1-.25a1.2,1.2,0,0,1,.2,0c.08-.63-.22-1.51.95-1.28.08,0,.33-.27.31-.32-.34-.79-.07-1.64-.2-2.36-.16-.94.19-1.73,0-2.77,1.91,1.25,3.42,0,5.07-.37V34l-3.32-.83,2.84,2.55-.73.41,2.61,2.42c.27-.63.36-1.36.66-1.47a1.48,1.48,0,0,0,1-1.41,26.42,26.42,0,0,0,.33-3.17c0-1.51-.07-3-.08-4.53C139.7,27.07,139.86,26.21,139.8,25.37Z"/><path d="M145.68,8.67c-.64-.51-1.32-1.23-2-1.32a8.58,8.58,0,0,0-3.71.32c-1.23.43-2.51.49-3.73.89a23,23,0,0,1-3.23.6,2.18,2.18,0,0,0-.95.22c-1,.72-2.14.41-3.18.8s-2.25.5-3.36.8c-1.34.37-2.66.81-4,1.21l-5.33,1.6A27.77,27.77,0,0,0,117.87,16c.51.54,1.26.51,1.49,0,.52-1.22,1.76-1.27,2.7-1.69a46.7,46.7,0,0,1,5.2-1.75c.86-.26,1.76-.43,2.79-.68a4.35,4.35,0,0,1-.64,1c-.93.83-1.91,1.6-2.84,2.43a5.56,5.56,0,0,1-2.36,1.62c-.16,0-.27.49-.34.77a5,5,0,0,0,0,.67c-.08.75-.2,1.49-.24,2.25s.19.9.89.6,1.7-.74,2.58-1a44.16,44.16,0,0,0,7.44-3.31c.68-.38,1.37-.73,2.05-1.09l.12.19-1,.7c.39.51.59,1.15,1.44,1a1.74,1.74,0,0,1,1,.29c.55.3,1.18.39,1.49-.14a3.19,3.19,0,0,0,.49-2c-.09-.58-.69-1.07-1.06-1.61a2.83,2.83,0,0,0-2.1-1.07c-.69-.1-1.38-.17-2.07-.25l-.1.29,1.48,1.69-5.56,1.81c.1-.55.15-.84.17-1a2.72,2.72,0,0,0,.93-.11,9,9,0,0,0,1.35-1c.34-.3.62-.64.93-1-.48-.4.07-1.29-.77-1.56-.28-.09-.47-.47-.74-.76a3.77,3.77,0,0,1,.75-.38,21.68,21.68,0,0,1,5.94-.78c.26,0,.53-.17.8-.17a31.59,31.59,0,0,1,3.51,0,4.61,4.61,0,0,0,2.95-.19A7.25,7.25,0,0,0,145.68,8.67Z"/><path d="M129,6.7a7.2,7.2,0,0,0-1.3.94,2.35,2.35,0,0,0,2.46.21,1.08,1.08,0,0,1,.41,0,20.84,20.84,0,0,0,2.86-.3,1.29,1.29,0,0,0,.68-1,4.59,4.59,0,0,0-2-3,6.18,6.18,0,0,0-4.27-.9c.53,1,1,1.93,1.47,2.85C129.49,5.9,129.77,6.38,129,6.7Z"/><path d="M181.19,19.7a14.47,14.47,0,0,1-1.58-2.06,4.9,4.9,0,0,0-3.25-2.34c-2.4-.74-4.91-1.11-7.36-1.69-.32-.07-.56-.46-.84-.7.37-.31.08-1.2,1.09-1a2.93,2.93,0,0,0,1.93-.49,4.64,4.64,0,0,1,2.17-1.16.7.7,0,0,0,.39-.28c.75-.87,1.49-1.75,2.23-2.64a4.08,4.08,0,0,0-3.85-1.71,15.07,15.07,0,0,0-2.64.86c-.59.21-1.17.45-1.75.67a1.19,1.19,0,0,1,.18-.72c1.06-2,1.05-2-.58-3.66-.35-.36-.56-.49-.88,0-.79,1.18-1.6,2.34-2.39,3.52-.11.16-.1.42-.23.56-.43.46-.9.88-1.34,1.33-.75.76-1.45,1.59-2.26,2.28-.38.32-.42.48-.17.87.38.62.72,1.27,1.08,1.9.08.15.15.3.29.58a8.92,8.92,0,0,1,2.15-2.52c.82-.66,1.56-1.42,2.33-2.14l.33.22a7.81,7.81,0,0,1-.66,2,16.49,16.49,0,0,1-2.12,2.46c-1.19,1.17-2.43,2.31-3.72,3.39-.3.26-.85.24-1.38.36.07.37,0,1.06.33,1.45.94,1.18.1,2.34.06,3.47-.07,1.63-.52,3.24-.64,4.86-.11,1.46-.22,3,.85,4.35-1.19,0-2.08,1.48-3.22.08.07.35.21.58.26.83a2,2,0,0,0,3.08,1.49c.82-.45,1.6-1,2.41-1.46.45-.25.92-.44,1.39-.65a17.64,17.64,0,0,1-2.38,2.68c-.84.76-1.58,1.74-2.91,1.68.53,1.57.74,1.79,1.85,1.61a4.4,4.4,0,0,0,2.66-1.26c1.26-1.32,2.58-2.58,4-3.93a21.48,21.48,0,0,1,2.36,2.62,7,7,0,0,0,3.48,3.14,1.3,1.3,0,0,0,1.7-1,3,3,0,0,0-.53-2.53c-.56-.56-.87-1.41-1.77-1.61s-1.64-.45-2.47-.63-1.6-.29-2.49-.44l1.48-2a20.58,20.58,0,0,0,2,1.82,1.1,1.1,0,0,0,1.05-.28,7.72,7.72,0,0,0,.61-2.57c0-1.85-.14-3.71-.23-5.57-.08-1.51-.18-3-.25-4.54a1.92,1.92,0,0,0-1.72-2,4.13,4.13,0,0,1-.45-.17c-.58-.15-1.22-.52-1.71-.37A14.3,14.3,0,0,0,164.36,18c-.74.42-1.42.93-2.18,1.43a2.08,2.08,0,0,0,2.75.94l3.15-1.68c.21,3.54.41,7,.61,10.36H167a3.51,3.51,0,0,0-3.55.48,14,14,0,0,1-2.05.8c.09-1.23.16-2.13.23-3.13,2.39,1.43,4-.14,5.83-1.12-.51-.25-.91-.48-1.35-.65a2.1,2.1,0,0,0-2.42.21,3.05,3.05,0,0,1-1,.59,4.85,4.85,0,0,1-.94.15c0-.27-.05-.55-.06-.82a3.45,3.45,0,0,1,0-.85,4.6,4.6,0,0,1,.32-.86c1.11,1,1.73,1.06,2.83.4s2-1.09,3-1.63a2.36,2.36,0,0,0-3-1.15c-.93.52-1.85,1.07-2.88,1.66,0-.55-.15-1,0-1.32.43-.66-.11-.87-.43-1.15s-1-.78-1.57-1.25a5,5,0,0,1,.71-.35,8,8,0,0,0,2-.8,19.49,19.49,0,0,0,2.86-2.54,10.79,10.79,0,0,1,1-.92c.69-.5.76.44,1.2.55a.49.49,0,0,1,.16,0c1.23.58,2.43,1.23,3.68,1.74,1.09.45,2.23.77,3.35,1.12.68.2,1.39.31,2.06.52,1.27.41,2.52.86,3.79,1.28a.49.49,0,0,0,.38-.09C181.25,20,181.24,19.77,181.19,19.7ZM167.72,9.85l2.72-.61.13.16L169,11Z"/><path d="M156.7,19.23c.36-.54.63-1.14,1-1.7.81-1.31,1.66-2.6,2.45-3.92.11-.17,0-.47,0-.7-.2.07-.46.09-.6.23-.51.49-.95,1.07-1.48,1.52-.76.64-1.61,1.18-2.38,1.81a31.35,31.35,0,0,1-2.41,2.07c-.67.44-1.22,1.49-2.44.88a10.38,10.38,0,0,1,.5,1.14,4.86,4.86,0,0,0,2.33,2.67c.58.35.87.17,1.09-.47a15.74,15.74,0,0,1,1-2.38A14.47,14.47,0,0,1,156.7,19.23Z"/><path d="M155.56,9.25c-.27.59-.63,1.14-.91,1.72a1.68,1.68,0,0,0-.1.77c0,.07.27.2.38.17.74-.18,1.47-.43,2.21-.58a13.18,13.18,0,0,1,1.55-.08.88.88,0,0,0,.45-.14A1.51,1.51,0,0,0,159.28,9C157.89,7.4,156,6.82,154,6.24c.51.76,1,1.52,1.5,2.3A.91.91,0,0,1,155.56,9.25Z"/><path d="M254.18,20a13.21,13.21,0,0,1-1.57-2.06,5,5,0,0,0-3.25-2.34c-2.4-.74-4.92-1.11-7.37-1.68-.32-.08-.56-.46-.84-.7.37-.32.08-1.2,1.09-1a2.91,2.91,0,0,0,1.93-.49,4.55,4.55,0,0,1,2.17-1.16.75.75,0,0,0,.39-.28c.75-.87,1.49-1.76,2.23-2.64a4.11,4.11,0,0,0-3.85-1.72,16.31,16.31,0,0,0-2.64.87c-.59.2-1.17.44-1.75.67a1.17,1.17,0,0,1,.18-.72c1.06-2,1-2-.58-3.66-.35-.36-.56-.49-.88,0-.78,1.18-1.6,2.34-2.39,3.51-.11.17-.1.43-.23.57-.43.46-.9.88-1.34,1.33-.75.76-1.45,1.59-2.26,2.28-.38.32-.41.48-.17.87.38.61.72,1.26,1.08,1.9l.3.58a8.66,8.66,0,0,1,2.15-2.53c.81-.66,1.55-1.41,2.32-2.13l.33.22a7.81,7.81,0,0,1-.66,2,15.93,15.93,0,0,1-2.12,2.45c-1.19,1.18-2.43,2.32-3.71,3.4-.31.26-.85.23-1.39.36a3.31,3.31,0,0,0,.33,1.45c.95,1.18.11,2.34.06,3.47-.07,1.63-.52,3.23-.64,4.86-.11,1.46-.21,3,.85,4.35-1.19,0-2.08,1.48-3.21.08.07.35.2.58.25.83a2,2,0,0,0,3.08,1.48c.83-.44,1.6-1,2.41-1.45.45-.25.93-.44,1.39-.65a17.56,17.56,0,0,1-2.38,2.67c-.84.77-1.58,1.75-2.91,1.69.53,1.57.74,1.79,1.85,1.61a4.51,4.51,0,0,0,2.66-1.26c1.26-1.32,2.58-2.58,3.95-3.94a21.48,21.48,0,0,1,2.36,2.62,7,7,0,0,0,3.48,3.15,1.31,1.31,0,0,0,1.7-1,3,3,0,0,0-.53-2.53c-.56-.56-.86-1.41-1.76-1.61s-1.65-.45-2.48-.63-1.6-.29-2.49-.44l1.48-2a20.75,20.75,0,0,0,2,1.83,1.13,1.13,0,0,0,1-.28,7.78,7.78,0,0,0,.61-2.57c0-1.86-.14-3.71-.23-5.57-.08-1.51-.18-3-.25-4.54a1.91,1.91,0,0,0-1.71-1.95,4.28,4.28,0,0,1-.46-.17c-.58-.15-1.22-.52-1.71-.37a13.75,13.75,0,0,0-2.79,1.34c-.74.42-1.42.93-2.18,1.43a2.08,2.08,0,0,0,2.75.94L241.07,19c.21,3.53.41,6.94.61,10.36H240a3.53,3.53,0,0,0-3.55.47,13.1,13.1,0,0,1-2,.81c.08-1.23.15-2.13.22-3.13,2.39,1.43,4-.14,5.83-1.12a14.72,14.72,0,0,0-1.35-.65,2.1,2.1,0,0,0-2.42.21,3,3,0,0,1-1,.58,4.11,4.11,0,0,1-.94.16c0-.27-.05-.55-.06-.82a4,4,0,0,1,0-.85,4.6,4.6,0,0,1,.32-.86c1.11,1,1.73,1.06,2.84.4s2-1.09,3-1.64a2.36,2.36,0,0,0-3-1.14c-.93.51-1.85,1.06-2.88,1.66,0-.55-.15-1,0-1.32.43-.66-.11-.87-.42-1.15-.46-.42-1-.78-1.58-1.25a4.07,4.07,0,0,1,.71-.35,8,8,0,0,0,2-.8A20.09,20.09,0,0,0,238.57,16a9.75,9.75,0,0,1,1-.92c.68-.5.75.44,1.19.55l.16,0c1.23.59,2.43,1.23,3.68,1.75,1.09.45,2.23.77,3.35,1.11.68.21,1.39.31,2.06.53,1.27.4,2.53.86,3.79,1.28a.46.46,0,0,0,.38-.1C254.24,20.24,254.23,20,254.18,20Zm-13.47-9.84,2.72-.61.13.16L242,11.31Z"/><path d="M229.69,19.5c.36-.55.63-1.15,1-1.7.82-1.31,1.66-2.6,2.46-3.93.1-.16,0-.46,0-.7-.2.08-.46.1-.6.24-.51.49-1,1.06-1.48,1.52-.76.64-1.61,1.18-2.38,1.81a31.35,31.35,0,0,1-2.41,2.07c-.67.44-1.22,1.49-2.44.88a10.38,10.38,0,0,1,.5,1.14,4.84,4.84,0,0,0,2.33,2.66c.59.36.88.18,1.09-.46a15.74,15.74,0,0,1,1-2.38C229,20.22,229.42,19.91,229.69,19.5Z"/><path d="M228.55,9.52c-.26.59-.63,1.13-.91,1.72a1.64,1.64,0,0,0-.1.77c0,.07.27.2.38.17.74-.18,1.47-.43,2.21-.58a13.17,13.17,0,0,1,1.55-.09,1,1,0,0,0,.45-.13,1.52,1.52,0,0,0,.14-2.13C230.89,7.66,229,7.09,227,6.51c.51.76,1,1.52,1.5,2.3A.9.9,0,0,1,228.55,9.52Z"/><path d="M213.9,21.48c0-.05.17-.06.26-.07l1.09-.08a11.74,11.74,0,0,1-.49-1.09c-.07-.21-.12-.62,0-.65.67-.32.86-.76.43-1.44a1.27,1.27,0,0,0,1.56-1c.34-1.15.82-2.25,1.16-3.4a1.91,1.91,0,0,0-.42-2,7,7,0,0,0-2.7-1.55,2.33,2.33,0,0,0-2,0,32,32,0,0,1-3,1.21,1.47,1.47,0,0,1-1.11-.2c-.55-.35-1-.86-1.52-1.23s-1-.41-1.29.38c-.32,1-.69,1.91-1.09,2.84-1,2.29-.84,1.89-2.55.89a.23.23,0,0,1-.08-.11,2.49,2.49,0,0,0,.1-.47,4.69,4.69,0,0,0-2.22-3.05.55.55,0,0,0-.48.26c-.4.86-.8,1.73-1.12,2.62-.55,1.5-1,3-1.57,4.55-.61,1.67-1.29,3.33-2,5-.41,1-.83,2-1.3,3-.38.81-.86,1.58-1.26,2.39s-.13,1.74-1.16,2.08c-.08,0-.08.29-.1.44-.18,1.75-1.48,2.44-2.9,3-.67.25-1.28,1.64-.85,2.23s.88,1.08,1.36,1.66a20.15,20.15,0,0,0,2.67-2.48A22.24,22.24,0,0,0,193,33.35c.95-1.61,1.81-3.28,2.61-5,1.24-2.61,2.41-5.25,3.6-7.88.56-1.26,1.09-2.54,1.71-4,.72,1.88,1.38,3.58,2.06,5.33L200.59,23l2.9,1.85c.75-.38,1.47-.75,2.19-1.1s1.29-.12,1.33.84c0,.53.14,1.06.15,1.58,0,1.79,0,3.57,0,5.45l-2.26-.29a13.7,13.7,0,0,0,2.58,2.63,8.66,8.66,0,0,0,2,.82c.17-.51.34-1,.52-1.51,0-.09.11-.16.13-.25a10.51,10.51,0,0,0,.65-3.8,26.24,26.24,0,0,1,.18-3.74,2.16,2.16,0,0,0-.28-1.15,19.5,19.5,0,0,0-1.27-1.68,4,4,0,0,0,1.36-.32C211.74,21.67,213.08,22.62,213.9,21.48Zm-8.78-.61c-.26-.95.1-1.26,1.16-1.59a29.36,29.36,0,0,0,4-1.64,2.94,2.94,0,0,0,.95-1c.3-.42.52-.87-.26-1.13-.37-.12-.63-.56-1-.69-1.5-.54-2.54.55-3.7,1.15a12.2,12.2,0,0,0-1.51,1.09c-.08-.4-.26-.72-.18-1s.49-.77.6-.73c1,.35,1.4-.36,1.8-1,1.08-1.64,1.07-1.69,2.81-.78a1.71,1.71,0,0,0,2.25-.22,4.63,4.63,0,0,1,.95-.52,18.23,18.23,0,0,1-.43,2.22c-.32,1-.73,2-1.14,3a1.83,1.83,0,0,1-1.35,1.27C208.4,19.83,206.76,20.38,205.12,20.87Zm-.41-3.24,1.5.28.1.23-1.13.78Z"/><path d="M187.48,24.73c-.37,1.08-1.09,2-.15,3.1.5.59.75,1.4,1.26,2a1,1,0,0,0,1.64,0,3.78,3.78,0,0,0,.78-1.46,12.49,12.49,0,0,0,1.12-3.12c.25-1.36.83-2.65,1.21-4,.09-.34-.11-.76-.07-1.13.07-.73.22-1.45.35-2.27l-4.35,7.31-.44-.19c.16-.57.3-1.15.49-1.71.32-1,.64-1.92,1.05-2.84.28-.64-.06-1.86,1.33-1.6-.08-.25-.13-.41-.17-.56-.11-.47-.07-1.06-.35-1.38-1-1.2-2.49-1.21-3.91-1.27-.5,0-1,0-1.5,0-.18,0-.49,0-.51,0a.69.69,0,0,0,0,.6,9.64,9.64,0,0,0,2.05,2c.91.5,1.43.83,1.08,2C188,21.74,188,23.31,187.48,24.73Z"/><path d="M212.6,5c.07-.7-1-.61-.59-1.36,0,0-.17-.21-.26-.21-1.19,0-2.52-.26-3.54.18-2.52,1.08-4.9,2.48-7.53,3.85l3.73,3.07Z"/><path d="M213.09,25.41c.43.67.85,1.35,1.31,2.06l-2.21.68c.39.35.66.78,1,.83a27.34,27.34,0,0,1,3.55.75,10.57,10.57,0,0,0,2.87.05C220,27.3,216.07,24.73,213.09,25.41Z"/><path d="M206.5,26.23a15.39,15.39,0,0,0-1.71.89c-1,.66-1.22.67-2-.22a9.92,9.92,0,0,1-.62-.87,18.8,18.8,0,0,0-1.65,2.7,7.61,7.61,0,0,0-.44,2.61c0,.53.45.85,1,1.05a1.55,1.55,0,0,0,1.93-.77,12.25,12.25,0,0,1,1.15-1.86c.83-1.11,1.71-2.18,2.57-3.26Z"/><path d="M189.92,9.64a3.37,3.37,0,0,0,1.46.47c.58,0,1.16-.22,1.74-.23s1.21,0,1.42-.77a1.86,1.86,0,0,0-.74-2.22c-1.5-.69-3-1.33-4.55-2l-.31.23c.38.78.7,1.6,1.14,2.34S190.81,8.86,189.92,9.64Z"/><path d="M2.34,59.75V44.92H4.79v5.83H9.61V44.92h2.45V59.75H9.61V53.26H4.79v6.49Z"/><path d="M14,54.22a6.46,6.46,0,0,1,.63-2.87,4.57,4.57,0,0,1,1.64-2,4.12,4.12,0,0,1,2.27-.65,3.91,3.91,0,0,1,3.34,1.67,6.43,6.43,0,0,1,1.21,3.9,6.93,6.93,0,0,1-.63,3,4.69,4.69,0,0,1-1.66,2,4,4,0,0,1-2.25.67,4.1,4.1,0,0,1-3.25-1.5A6.33,6.33,0,0,1,14,54.22Zm2.39.16a4,4,0,0,0,.64,2.47,1.89,1.89,0,0,0,1.54.83,1.84,1.84,0,0,0,1.51-.84,4.1,4.1,0,0,0,.63-2.48,4,4,0,0,0-.64-2.45,1.89,1.89,0,0,0-1.53-.84,1.86,1.86,0,0,0-1.52.84A4.07,4.07,0,0,0,16.42,54.38Z"/><path d="M24.77,49h2.15v1.47a4.32,4.32,0,0,1,1.26-1.29,2.75,2.75,0,0,1,1.49-.43,2.48,2.48,0,0,1,1.47.43,3,3,0,0,1,1,1.28,4.39,4.39,0,0,1,1.26-1.28,2.57,2.57,0,0,1,1.43-.43,2.71,2.71,0,0,1,1.55.43,2.64,2.64,0,0,1,1,1.23,6.64,6.64,0,0,1,.34,2.46v6.88H35.4V53.6a5.2,5.2,0,0,0-.29-2.14,1,1,0,0,0-1-.53,1.41,1.41,0,0,0-1.25.74,6,6,0,0,0-.48,2.91v5.17H30.1v-5.9a7.94,7.94,0,0,0-.2-2.26,1,1,0,0,0-1-.66,1.5,1.5,0,0,0-.95.34,2,2,0,0,0-.63,1,9,9,0,0,0-.19,2.24v5.23H24.77Z"/><path d="M45.18,56.34l2.31.47a4.66,4.66,0,0,1-1.44,2.41,3.75,3.75,0,0,1-2.39.78,3.67,3.67,0,0,1-3-1.31,6.47,6.47,0,0,1-1.26-4.25,6.85,6.85,0,0,1,1.26-4.32,3.38,3.38,0,0,1,2.78-1.37,3.52,3.52,0,0,1,3,1.4,7.66,7.66,0,0,1,1.23,4.72v.32H41.77a3.21,3.21,0,0,0,.57,2,1.67,1.67,0,0,0,1.34.7C44.43,57.88,44.93,57.36,45.18,56.34Zm.12-2.88a3.11,3.11,0,0,0-.54-1.9,1.51,1.51,0,0,0-1.2-.63,1.53,1.53,0,0,0-1.25.66,3,3,0,0,0-.5,1.87Z"/><path d="M49.51,59.75V44.92h2.33V59.75Z"/><path d="M56,52.27l-2.11-.46a4.11,4.11,0,0,1,1.27-2.35,4,4,0,0,1,2.54-.71,4.89,4.89,0,0,1,2.26.42A2.38,2.38,0,0,1,61,50.3a6.91,6.91,0,0,1,.33,2.59l0,3.32a14.66,14.66,0,0,0,.11,2.08,7.79,7.79,0,0,0,.42,1.46H59.57l-.3-1.18A4.32,4.32,0,0,1,58,59.64a3.08,3.08,0,0,1-1.45.36,2.77,2.77,0,0,1-2.11-.87,3.22,3.22,0,0,1-.82-2.3A3.45,3.45,0,0,1,54,55.24a2.66,2.66,0,0,1,.94-1.08,5.94,5.94,0,0,1,1.94-.72,11.65,11.65,0,0,0,2.26-.7A3.56,3.56,0,0,0,59,51.56a1,1,0,0,0-.47-.46,2.18,2.18,0,0,0-1-.17,1.55,1.55,0,0,0-1,.28A2,2,0,0,0,56,52.27Zm3.12,2.32A12,12,0,0,1,57.7,55a3.32,3.32,0,0,0-1.42.63,1.25,1.25,0,0,0-.33.9,1.51,1.51,0,0,0,.37,1,1.18,1.18,0,0,0,.92.42,1.76,1.76,0,0,0,1-.34,1.9,1.9,0,0,0,.67-.81,5.25,5.25,0,0,0,.19-1.69Z"/><path d="M71.69,59.75H69.35V54.26a11.47,11.47,0,0,0-.13-2.2,1.48,1.48,0,0,0-.49-.84,1.22,1.22,0,0,0-.81-.29,1.61,1.61,0,0,0-1.06.38,2,2,0,0,0-.67,1A10.8,10.8,0,0,0,66,54.88v4.87H63.66V49h2.16v1.57a4.37,4.37,0,0,1,1.3-1.36,2.93,2.93,0,0,1,1.61-.46,2.79,2.79,0,0,1,1.72.53,2.73,2.73,0,0,1,1,1.37,8.27,8.27,0,0,1,.27,2.41Z"/><path d="M82.13,59.75H80V58.17a3.93,3.93,0,0,1-1.27,1.37,2.72,2.72,0,0,1-1.5.46,3.17,3.17,0,0,1-2.57-1.47,7,7,0,0,1-1.1-4.21,6.8,6.8,0,0,1,1.07-4.16,3.21,3.21,0,0,1,2.64-1.41,2.71,2.71,0,0,1,1.38.38,3.85,3.85,0,0,1,1.17,1.12V44.92h2.34Zm-6.21-5.61a7,7,0,0,0,.25,2.18,2.23,2.23,0,0,0,.7,1.07,1.64,1.64,0,0,0,1,.36,1.6,1.6,0,0,0,1.33-.83,4.45,4.45,0,0,0,.56-2.5,4.94,4.94,0,0,0-.55-2.68,1.62,1.62,0,0,0-1.39-.81,1.65,1.65,0,0,0-1.38.8A4.25,4.25,0,0,0,75.92,54.14Z"/><path d="M89.18,59.75V44.92h9v2.51H91.63v3.28h6.11v2.5H91.63v4h6.8v2.51Z"/><path d="M108.56,59.75H106.4V58.17a3.93,3.93,0,0,1-1.27,1.37,2.71,2.71,0,0,1-1.49.46,3.17,3.17,0,0,1-2.58-1.47,7,7,0,0,1-1.1-4.21A6.8,6.8,0,0,1,101,50.16a3.23,3.23,0,0,1,2.64-1.41,2.71,2.71,0,0,1,1.38.38,3.88,3.88,0,0,1,1.18,1.12V44.92h2.33Zm-6.21-5.61a7,7,0,0,0,.25,2.18,2.23,2.23,0,0,0,.7,1.07,1.66,1.66,0,0,0,1,.36,1.6,1.6,0,0,0,1.33-.83,4.44,4.44,0,0,0,.57-2.5,5,5,0,0,0-.55-2.68,1.65,1.65,0,0,0-1.4-.81,1.62,1.62,0,0,0-1.37.8A4.16,4.16,0,0,0,102.35,54.14Z"/><path d="M116.64,59.75V58.14a3.65,3.65,0,0,1-1.27,1.37,3,3,0,0,1-1.64.49,2.72,2.72,0,0,1-1.56-.46,2.64,2.64,0,0,1-1-1.29,6.74,6.74,0,0,1-.34-2.44V49h2.33v4.94a19.83,19.83,0,0,0,.11,2.69,1.48,1.48,0,0,0,.47.88,1.28,1.28,0,0,0,.88.31,1.66,1.66,0,0,0,1.08-.4,2,2,0,0,0,.65-1.06,16,16,0,0,0,.15-2.82V49h2.34V59.75Z"/><path d="M128.94,52.17l-2.3.51c-.17-1.13-.7-1.69-1.6-1.69a1.63,1.63,0,0,0-1.39.73,4.25,4.25,0,0,0-.53,2.46,5,5,0,0,0,.53,2.71,1.61,1.61,0,0,0,1.41.79,1.41,1.41,0,0,0,1.08-.45,3,3,0,0,0,.61-1.59l2.3.48C128.57,58.71,127.22,60,125,60a3.54,3.54,0,0,1-3.2-1.64,7.27,7.27,0,0,1-1-4,6.48,6.48,0,0,1,1.18-4.21,4.14,4.14,0,0,1,5.62-.63A4.76,4.76,0,0,1,128.94,52.17Z"/><path d="M132.44,52.27l-2.12-.46a4.16,4.16,0,0,1,1.27-2.35,4,4,0,0,1,2.55-.71,4.84,4.84,0,0,1,2.25.42,2.38,2.38,0,0,1,1.11,1.13,6.65,6.65,0,0,1,.34,2.59l0,3.32a13.28,13.28,0,0,0,.11,2.08,7,7,0,0,0,.41,1.46H136l-.31-1.18a4.09,4.09,0,0,1-1.28,1.07A3.05,3.05,0,0,1,133,60a2.75,2.75,0,0,1-2.1-.87,3.18,3.18,0,0,1-.82-2.3,3.58,3.58,0,0,1,.33-1.59,2.82,2.82,0,0,1,.94-1.08,6.11,6.11,0,0,1,2-.72,11.5,11.5,0,0,0,2.25-.7,3.65,3.65,0,0,0-.12-1.18,1,1,0,0,0-.47-.46,2.23,2.23,0,0,0-1-.17,1.54,1.54,0,0,0-1,.28A2,2,0,0,0,132.44,52.27Zm3.11,2.32a12.3,12.3,0,0,1-1.38.42,3.2,3.2,0,0,0-1.42.63,1.25,1.25,0,0,0-.33.9,1.55,1.55,0,0,0,.36,1,1.2,1.2,0,0,0,.93.42,1.74,1.74,0,0,0,1-.34,1.83,1.83,0,0,0,.67-.81,5,5,0,0,0,.19-1.69Z"/><path d="M144.17,49v2.27h-1.59v4.34a10.46,10.46,0,0,0,.07,1.63.56.56,0,0,0,.58.4,2.5,2.5,0,0,0,.93-.27l.2,2.21a3.92,3.92,0,0,1-1.83.42,2.17,2.17,0,0,1-1.42-.43,2.06,2.06,0,0,1-.72-1.22,12.19,12.19,0,0,1-.14-2.39V51.27h-1.08V49h1.08V46.87l2.33-1.66V49Z"/><path d="M145.8,47.55V44.92h2.33v2.63Zm0,12.2V49h2.33V59.75Z"/><path d="M150,54.22a6.6,6.6,0,0,1,.62-2.87,4.64,4.64,0,0,1,1.64-2,4.18,4.18,0,0,1,2.28-.65,3.92,3.92,0,0,1,3.34,1.67,6.43,6.43,0,0,1,1.21,3.9,6.93,6.93,0,0,1-.63,3,4.76,4.76,0,0,1-1.66,2,4,4,0,0,1-2.25.67,4.12,4.12,0,0,1-3.26-1.5A6.38,6.38,0,0,1,150,54.22Zm2.38.16a4.09,4.09,0,0,0,.64,2.47,1.91,1.91,0,0,0,1.54.83,1.83,1.83,0,0,0,1.51-.84,4.1,4.1,0,0,0,.63-2.48,4,4,0,0,0-.64-2.45,1.8,1.8,0,0,0-3,0A4.07,4.07,0,0,0,152.36,54.38Z"/><path d="M168.91,59.75h-2.33V54.26a12.4,12.4,0,0,0-.13-2.2,1.55,1.55,0,0,0-.5-.84,1.22,1.22,0,0,0-.81-.29,1.62,1.62,0,0,0-1.06.38,2,2,0,0,0-.67,1,10.8,10.8,0,0,0-.19,2.53v4.87h-2.34V49h2.17v1.57a4.15,4.15,0,0,1,1.3-1.36,2.88,2.88,0,0,1,1.6-.46,2.77,2.77,0,0,1,1.72.53,2.67,2.67,0,0,1,1,1.37,8.27,8.27,0,0,1,.27,2.41Z"/><path d="M176,59.75V44.92h5.17a7.16,7.16,0,0,1,2.84.4,3.13,3.13,0,0,1,1.39,1.38,4.77,4.77,0,0,1,.55,2.37,4.4,4.4,0,0,1-.84,2.8,3.7,3.7,0,0,1-2.37,1.33,6.24,6.24,0,0,1,1.31,1.24,17.73,17.73,0,0,1,1.4,2.41l1.48,2.9H184l-1.78-3.23a20.58,20.58,0,0,0-1.3-2.19,1.94,1.94,0,0,0-.73-.61,3.36,3.36,0,0,0-1.23-.16h-.51v6.19Zm2.45-8.56h1.82a9,9,0,0,0,2.13-.15,1.32,1.32,0,0,0,.74-.59,2.17,2.17,0,0,0,.28-1.18,2,2,0,0,0-.28-1.14,1.45,1.45,0,0,0-.77-.59,9.41,9.41,0,0,0-2-.11h-1.92Z"/><path d="M193.38,56.34l2.32.47a4.6,4.6,0,0,1-1.45,2.41,4.1,4.1,0,0,1-5.41-.53,6.52,6.52,0,0,1-1.25-4.25,6.85,6.85,0,0,1,1.26-4.32,3.38,3.38,0,0,1,2.77-1.37,3.55,3.55,0,0,1,3,1.4,7.66,7.66,0,0,1,1.23,4.72v.32H190a3.27,3.27,0,0,0,.58,2,1.67,1.67,0,0,0,1.33.7C192.63,57.88,193.13,57.36,193.38,56.34Zm.13-2.88a3.18,3.18,0,0,0-.54-1.9,1.49,1.49,0,0,0-2.45,0,3,3,0,0,0-.51,1.87Z"/><path d="M196.89,56.69l2.34-.43A1.78,1.78,0,0,0,201.11,58a2,2,0,0,0,1.26-.33,1,1,0,0,0,.41-.84.79.79,0,0,0-.18-.55,1.62,1.62,0,0,0-.76-.36,10.34,10.34,0,0,1-3.65-1.45,3,3,0,0,1-1-2.36,3.16,3.16,0,0,1,.95-2.41,3.85,3.85,0,0,1,2.76-.9,4.42,4.42,0,0,1,2.63.67,3.69,3.69,0,0,1,1.26,2.17l-2.19.5a1.54,1.54,0,0,0-1.66-1.3,2.29,2.29,0,0,0-1.22.25.75.75,0,0,0-.37.65.7.7,0,0,0,.34.59,9.48,9.48,0,0,0,2.07.73,5.72,5.72,0,0,1,2.65,1.33,3,3,0,0,1,.69,2.08A3.4,3.4,0,0,1,204.06,59a4.12,4.12,0,0,1-2.95,1,4.41,4.41,0,0,1-2.79-.84A4.11,4.11,0,0,1,196.89,56.69Z"/><path d="M206.61,54.22a6.46,6.46,0,0,1,.63-2.87,4.64,4.64,0,0,1,1.64-2,4.13,4.13,0,0,1,2.28-.65,3.89,3.89,0,0,1,3.33,1.67,6.44,6.44,0,0,1,1.22,3.9,6.93,6.93,0,0,1-.63,3,4.76,4.76,0,0,1-1.66,2,4,4,0,0,1-2.25.67,4.12,4.12,0,0,1-3.26-1.5A6.38,6.38,0,0,1,206.61,54.22Zm2.39.16a4,4,0,0,0,.64,2.47,1.91,1.91,0,0,0,1.54.83,1.84,1.84,0,0,0,1.51-.84,4.1,4.1,0,0,0,.63-2.48,4,4,0,0,0-.64-2.45,1.86,1.86,0,0,0-1.53-.84,1.84,1.84,0,0,0-1.51.84A4,4,0,0,0,209,54.38Z"/><path d="M223.32,59.75V58.14A3.76,3.76,0,0,1,222,59.51a3,3,0,0,1-1.64.49,2.72,2.72,0,0,1-1.56-.46,2.64,2.64,0,0,1-1-1.29,6.74,6.74,0,0,1-.34-2.44V49h2.34v4.94a20.52,20.52,0,0,0,.1,2.69,1.48,1.48,0,0,0,.47.88,1.3,1.3,0,0,0,.88.31,1.66,1.66,0,0,0,1.08-.4,2,2,0,0,0,.65-1.06,16,16,0,0,0,.15-2.82V49h2.34V59.75Z"/><path d="M230.15,59.75h-2.33V49H230v1.53a4.47,4.47,0,0,1,1-1.42,1.54,1.54,0,0,1,1-.36,2.51,2.51,0,0,1,1.53.54l-.73,2.48a1.78,1.78,0,0,0-1.09-.47,1.17,1.17,0,0,0-.85.36,2.29,2.29,0,0,0-.53,1.3,23.62,23.62,0,0,0-.17,3.47Z"/><path d="M242.21,52.17l-2.29.51c-.17-1.13-.71-1.69-1.6-1.69a1.65,1.65,0,0,0-1.4.73,4.33,4.33,0,0,0-.53,2.46,5.14,5.14,0,0,0,.53,2.71,1.62,1.62,0,0,0,1.41.79,1.45,1.45,0,0,0,1.09-.45,3.14,3.14,0,0,0,.61-1.59l2.29.48q-.7,3.89-4.07,3.88a3.53,3.53,0,0,1-3.2-1.64,7.27,7.27,0,0,1-1-4,6.48,6.48,0,0,1,1.18-4.21,4.14,4.14,0,0,1,5.62-.63A4.69,4.69,0,0,1,242.21,52.17Z"/><path d="M249.09,56.34l2.32.47A4.67,4.67,0,0,1,250,59.22a3.73,3.73,0,0,1-2.39.78,3.68,3.68,0,0,1-3-1.31,6.47,6.47,0,0,1-1.26-4.25,6.85,6.85,0,0,1,1.27-4.32,3.37,3.37,0,0,1,2.77-1.37,3.55,3.55,0,0,1,3,1.4,7.66,7.66,0,0,1,1.23,4.72v.32h-5.84a3.27,3.27,0,0,0,.58,2,1.65,1.65,0,0,0,1.33.7C248.34,57.88,248.84,57.36,249.09,56.34Zm.12-2.88a3.18,3.18,0,0,0-.53-1.9,1.49,1.49,0,0,0-2.45,0,3,3,0,0,0-.51,1.87Z"/><path d="M258.14,44.92h4.48a6.5,6.5,0,0,1,2.56.38,4.19,4.19,0,0,1,1.59,1.28,6.6,6.6,0,0,1,1.15,2.33,13.38,13.38,0,0,1,.41,3.57,11.5,11.5,0,0,1-.43,3.35,6.65,6.65,0,0,1-1.11,2.25,4.26,4.26,0,0,1-1.61,1.25,6,6,0,0,1-2.43.42h-4.61Zm2.45,2.51v9.81h1.84a5.06,5.06,0,0,0,1.72-.22,2.15,2.15,0,0,0,.87-.68,4,4,0,0,0,.56-1.42,11.64,11.64,0,0,0,.22-2.55,11.16,11.16,0,0,0-.23-2.6,3.49,3.49,0,0,0-.7-1.5,2.23,2.23,0,0,0-1.17-.71,9.65,9.65,0,0,0-2-.13Z"/><path d="M272.14,52.27,270,51.81a4.16,4.16,0,0,1,1.27-2.35,4,4,0,0,1,2.54-.71,4.86,4.86,0,0,1,2.26.42,2.38,2.38,0,0,1,1.11,1.13,6.65,6.65,0,0,1,.34,2.59l0,3.32a13.28,13.28,0,0,0,.11,2.08,7,7,0,0,0,.41,1.46h-2.3l-.31-1.18a4.2,4.2,0,0,1-1.28,1.07,3.05,3.05,0,0,1-1.45.36,2.74,2.74,0,0,1-2.1-.87,3.18,3.18,0,0,1-.82-2.3,3.58,3.58,0,0,1,.33-1.59,2.74,2.74,0,0,1,.94-1.08,6,6,0,0,1,1.94-.72,11.42,11.42,0,0,0,2.26-.7,3.3,3.3,0,0,0-.13-1.18,1,1,0,0,0-.46-.46,2.26,2.26,0,0,0-1-.17,1.52,1.52,0,0,0-1,.28A2.05,2.05,0,0,0,272.14,52.27Zm3.12,2.32a12,12,0,0,1-1.39.42,3.2,3.2,0,0,0-1.41.63,1.25,1.25,0,0,0-.34.9,1.56,1.56,0,0,0,.37,1,1.2,1.2,0,0,0,.93.42,1.74,1.74,0,0,0,1-.34,1.83,1.83,0,0,0,.67-.81,5,5,0,0,0,.19-1.69Z"/><path d="M283.88,49v2.27h-1.59v4.34a9.22,9.22,0,0,0,.07,1.63.56.56,0,0,0,.58.4,2.6,2.6,0,0,0,.93-.27l.2,2.21a3.92,3.92,0,0,1-1.83.42,2.22,2.22,0,0,1-1.43-.43,2.1,2.1,0,0,1-.71-1.22A11.93,11.93,0,0,1,280,56V51.27h-1.07V49H280V46.87l2.34-1.66V49Z"/><path d="M287.25,52.27l-2.12-.46a4.16,4.16,0,0,1,1.27-2.35,4,4,0,0,1,2.55-.71,4.84,4.84,0,0,1,2.25.42,2.45,2.45,0,0,1,1.12,1.13,6.91,6.91,0,0,1,.33,2.59l0,3.32a14.66,14.66,0,0,0,.11,2.08,7,7,0,0,0,.41,1.46h-2.3l-.31-1.18a4.17,4.17,0,0,1-1.27,1.07,3.09,3.09,0,0,1-1.46.36,2.77,2.77,0,0,1-2.1-.87,3.18,3.18,0,0,1-.82-2.3,3.58,3.58,0,0,1,.33-1.59,2.82,2.82,0,0,1,.94-1.08,6.11,6.11,0,0,1,1.95-.72,11.27,11.27,0,0,0,2.25-.7,3.65,3.65,0,0,0-.12-1.18,1,1,0,0,0-.47-.46,2.2,2.2,0,0,0-1-.17,1.54,1.54,0,0,0-1,.28A2,2,0,0,0,287.25,52.27Zm3.11,2.32A11.66,11.66,0,0,1,289,55a3.26,3.26,0,0,0-1.42.63,1.25,1.25,0,0,0-.33.9,1.51,1.51,0,0,0,.37,1,1.16,1.16,0,0,0,.92.42,1.74,1.74,0,0,0,1-.34,1.86,1.86,0,0,0,.68-.81,5.33,5.33,0,0,0,.18-1.69Z"/><path d="M294.84,59.75V44.92h2.34v5.33a3.88,3.88,0,0,1,1.18-1.12,2.65,2.65,0,0,1,1.38-.38,3.22,3.22,0,0,1,2.63,1.41,6.82,6.82,0,0,1,1.07,4.16,6.92,6.92,0,0,1-1.1,4.21A3.17,3.17,0,0,1,299.76,60a2.78,2.78,0,0,1-1.5-.47A3.84,3.84,0,0,1,297,58.17v1.58Zm2.32-5.61a6.7,6.7,0,0,0,.26,2.12,2.43,2.43,0,0,0,.75,1.11,1.62,1.62,0,0,0,1,.38,1.55,1.55,0,0,0,1.32-.8,4.69,4.69,0,0,0,.55-2.55,4.87,4.87,0,0,0-.56-2.66,1.6,1.6,0,0,0-2.77,0A4.15,4.15,0,0,0,297.16,54.14Z"/><path d="M307.07,52.27,305,51.81a4.16,4.16,0,0,1,1.27-2.35,4,4,0,0,1,2.54-.71,4.86,4.86,0,0,1,2.26.42,2.38,2.38,0,0,1,1.11,1.13,6.86,6.86,0,0,1,.34,2.59l0,3.32a13.28,13.28,0,0,0,.11,2.08,7,7,0,0,0,.41,1.46h-2.31l-.3-1.18a4.2,4.2,0,0,1-1.28,1.07,3.05,3.05,0,0,1-1.45.36,2.74,2.74,0,0,1-2.1-.87,3.18,3.18,0,0,1-.82-2.3,3.58,3.58,0,0,1,.33-1.59,2.74,2.74,0,0,1,.94-1.08,6,6,0,0,1,1.94-.72,11.42,11.42,0,0,0,2.26-.7,3.3,3.3,0,0,0-.13-1.18,1,1,0,0,0-.46-.46,2.26,2.26,0,0,0-1-.17,1.52,1.52,0,0,0-1,.28A2.05,2.05,0,0,0,307.07,52.27Zm3.12,2.32a12,12,0,0,1-1.39.42,3.2,3.2,0,0,0-1.41.63,1.25,1.25,0,0,0-.34.9,1.56,1.56,0,0,0,.37,1,1.2,1.2,0,0,0,.93.42,1.74,1.74,0,0,0,1-.34,1.83,1.83,0,0,0,.67-.81,5,5,0,0,0,.19-1.69Z"/><path d="M314,56.69l2.34-.43A1.78,1.78,0,0,0,318.18,58a2,2,0,0,0,1.26-.33,1,1,0,0,0,.41-.84.79.79,0,0,0-.18-.55,1.62,1.62,0,0,0-.76-.36,10.34,10.34,0,0,1-3.65-1.45,3,3,0,0,1-1-2.36,3.16,3.16,0,0,1,.95-2.41,3.85,3.85,0,0,1,2.76-.9,4.42,4.42,0,0,1,2.63.67,3.69,3.69,0,0,1,1.26,2.17l-2.19.5a1.54,1.54,0,0,0-1.66-1.3,2.29,2.29,0,0,0-1.22.25.75.75,0,0,0-.37.65.7.7,0,0,0,.34.59,9.48,9.48,0,0,0,2.07.73,5.72,5.72,0,0,1,2.65,1.33,3,3,0,0,1,.69,2.08A3.4,3.4,0,0,1,321.13,59a4.12,4.12,0,0,1-2.95,1,4.41,4.41,0,0,1-2.79-.84A4.11,4.11,0,0,1,314,56.69Z"/><path d="M329.35,56.34l2.32.47a4.67,4.67,0,0,1-1.45,2.41,3.73,3.73,0,0,1-2.39.78,3.67,3.67,0,0,1-3-1.31,6.47,6.47,0,0,1-1.26-4.25,6.79,6.79,0,0,1,1.27-4.32,3.37,3.37,0,0,1,2.77-1.37,3.52,3.52,0,0,1,3,1.4,7.59,7.59,0,0,1,1.24,4.72v.32h-5.84a3.21,3.21,0,0,0,.57,2,1.68,1.68,0,0,0,1.34.7C328.6,57.88,329.1,57.36,329.35,56.34Zm.12-2.88a3.11,3.11,0,0,0-.54-1.9,1.48,1.48,0,0,0-1.2-.63,1.5,1.5,0,0,0-1.24.66,2.89,2.89,0,0,0-.51,1.87Z"/></svg>