<svg id="圖層_1" data-name="圖層 1" xmlns="http://www.w3.org/2000/svg" xmlns:xlink="http://www.w3.org/1999/xlink" viewBox="0 0 229.93 48.1" preserveAspectRatio="xMinYMid"><defs><style>.cls-1{fill:#fff;}.cls-2{fill:url(#未命名漸層_13);}.cls-3{fill:url(#未命名漸層_2);}</style><linearGradient id="未命名漸層_13" x1="-2.09" y1="43.28" x2="28.09" y2="13.1" gradientUnits="userSpaceOnUse"><stop offset="0" stop-color="#004987"/><stop offset="1" stop-color="#45a041"/></linearGradient><linearGradient id="未命名漸層_2" x1="3.82" y1="35" x2="34" y2="4.82" gradientUnits="userSpaceOnUse"><stop offset="0" stop-color="#f18a00"/><stop offset="1" stop-color="#ca003d"/></linearGradient></defs><path class="cls-1" d="M215.14,37.14A40,40,0,0,1,213.41,45L212,44.34a32.18,32.18,0,0,0,1.77-7.48Zm3.19-1.78V45.2c0,.92.23,1.1,1.35,1.1h3.76c1.22,0,1.4-.7,1.55-4.13a4.46,4.46,0,0,0,1.38.65c-.22,3.78-.67,4.88-2.85,4.88h-4c-2.13,0-2.72-.54-2.72-2.52V35.36Zm.41-4.83A35.33,35.33,0,0,1,224,34.94L223,36a37.45,37.45,0,0,0-5.21-4.54Zm8.55,5.81a36.06,36.06,0,0,1,2.64,7.48l-1.44.58a36.11,36.11,0,0,0-2.55-7.52Z"/><path class="cls-2" d="M6.26,35.07a26.65,26.65,0,0,1,18-25.18.34.34,0,0,0,.21-.38.33.33,0,0,0-.36-.26A27.3,27.3,0,0,0,2.56,47.9a.33.33,0,0,0,.3.2H9.11a.34.34,0,0,0,.28-.17.33.33,0,0,0,0-.32A26.68,26.68,0,0,1,6.26,35.07Z"/><path class="cls-3" d="M29.35.19a.35.35,0,0,0-.3-.19H22.8a.33.33,0,0,0-.28.16.35.35,0,0,0,0,.33A26.64,26.64,0,0,1,25.64,13,26.66,26.66,0,0,1,7.7,38.21a.33.33,0,0,0,.15.64,27.28,27.28,0,0,0,24.06-27.1A27.05,27.05,0,0,0,29.35.19Z"/><path class="cls-1" d="M50.8,32.1A32.8,32.8,0,0,1,56,37.89l-1.24.9a15.72,15.72,0,0,0-1.2-1.72c-11.23.64-12.37.68-13.14,1a11.08,11.08,0,0,0-.47-1.46,3.63,3.63,0,0,0,1.59-1.17,33.46,33.46,0,0,0,4.53-5.63l1.43.66a43.79,43.79,0,0,1-5,5.87l10-.5a38.08,38.08,0,0,0-2.85-2.94Zm-9.34,7.61H54V48H52.43V47h-9.5v1.08H41.46Zm1.47,1.42v4.41h9.5V41.13Z"/><path class="cls-1" d="M83.41,37.06c1.38,4.39,3.93,8,7.73,9.58A7.6,7.6,0,0,0,90,48c-3.77-1.82-6.27-5.35-7.82-9.89A13.94,13.94,0,0,1,74.36,48a4.07,4.07,0,0,0-1.1-1.22,12.92,12.92,0,0,0,7.65-9.76H73.66V35.54h7.49a44.11,44.11,0,0,0,.29-5.67H83a46.39,46.39,0,0,1-.32,5.67h8.12v1.52Z"/><path class="cls-1" d="M126.56,31.76V33H112.78v5.07c0,3.06-.39,7.27-2.81,10a4.6,4.6,0,0,0-1-1,10.78,10.78,0,0,0,2.32-6c-.8.52-1.61,1-2.35,1.44l-.52-1.32c.79-.38,1.85-.94,3-1.56,0-.54,0-1,0-1.54V31.76h7.28a12,12,0,0,0-1-1.63l1.28-.44a9.67,9.67,0,0,1,1.22,2.07ZM110,37.81a15.48,15.48,0,0,0-1.24-3.89l1.1-.44a13.93,13.93,0,0,1,1.3,3.8Zm3.69.76h5.45v3.84h-5.45Zm10.68,4.88h1.38v4.61h-1.38v-.7H113.84V43.45h1.36v2.67H119V42.71h1.4v3.41h3.89Zm-9.55-2.08h3.16V39.59h-3.16Zm9.14-3.78h-8.22V34h8.22ZM122.61,35H117v1.53h5.66Zm-2.22,3.55h5.68v3.84h-5.68Zm1.12,2.8h3.36V39.59h-3.36Z"/><path class="cls-1" d="M155.17,40.45v.9h4.67V48h-1.37v-.78H147.18V48h-1.34V41.35h4.92v-.9h-6.92v-1h17.85v1ZM145,31.38h-.61v-.95H153v.95h-6.86V36.8c0,.71.2,1,.9,1h4.15a11.8,11.8,0,0,0,1.75-.1c0,.32.08.72.14,1a8.48,8.48,0,0,1-1.81.12H147c-1.54,0-2-.54-2-2Zm5.07,3.76,0,0a15.78,15.78,0,0,1,2.46,1.7l-.63.7A15.91,15.91,0,0,0,149.7,36a4.72,4.72,0,0,1-2.36,1.74,3.16,3.16,0,0,0-.65-.76,3.26,3.26,0,0,0,2.32-1.8h-2.46v-.86h2.62V33.2H148a5.6,5.6,0,0,1-.75.9,4.84,4.84,0,0,0-.8-.48,6.25,6.25,0,0,0,1.43-2.18l.92.24a4.78,4.78,0,0,1-.29.68h3.91v.84h-2.22v1.08h2.58v.86Zm8.42,11.2V44.08h-2.73c-1.4,0-1.75-.22-1.75-1.26v-.57h-2.11c-.22,1-1.14,1.75-3.93,2.21a4,4,0,0,0-.65-.88c2.28-.25,3.11-.77,3.36-1.33h-3.48v4.09Zm-9.6-1.6h8.18v.86h-8.18ZM154,40.45h-2.07v.9H154Zm-.44-6.17a3.79,3.79,0,0,0-.8-.92c1.47-.6,1.75-1.28,1.75-2v-1h4.68v1.85c0,.38,0,.48.27.48h.87a5.19,5.19,0,0,0,.8-.06c0,.28.06.72.1,1a3.65,3.65,0,0,1-.86.08h-1.08c-1.07,0-1.28-.42-1.28-1.52v-.76h-2.32a2.91,2.91,0,0,1-1.79,2.68h5.34l.24-.06.73.34a7.22,7.22,0,0,1-2,2.67c1,.44,1.83.9,2.46,1.26l-.57.9c-.69-.4-1.71-1-2.81-1.5a12.46,12.46,0,0,1-3.52,1.5,5,5,0,0,0-.63-1,12.15,12.15,0,0,0,3-1.08c-.81-.39-1.63-.77-2.36-1.07l.53-.78c.87.34,1.85.78,2.83,1.21a6.54,6.54,0,0,0,1.5-1.47h-4.94v-.84Zm1.62,8v.57c0,.4.09.47.68.47h2.24a1.85,1.85,0,0,0,.38,0v-1Z"/><path class="cls-1" d="M194.68,33.38v9.35h-1.49V41.59h-5.65v6.47H186V41.59h-5.62v1.23H179V33.38H186V29.83h1.51v3.55ZM186,40.13V34.84h-5.62v5.29Zm7.16,0V34.84h-5.65v5.29Z"/><path class="cls-1" d="M39.88,17.13,43.08.27h4.23L49.53,6.7c.68,2.15,1.13,3.9,1.53,5.75h.07a41.06,41.06,0,0,1,.78-6L53.06.27h3.35L53.23,17.13H49.51L47.16,10.4a52.33,52.33,0,0,1-1.65-5.88l-.08,0c-.2,1.63-.6,4-1.1,6.68l-1.1,5.9Z"/><path class="cls-1" d="M62.55,3.43H58.1L58.73.27H71.25l-.6,3.16h-4.5l-2.57,13.7H60Z"/><path class="cls-1" d="M77.18.27,75.33,10a9.22,9.22,0,0,0-.18,2,2.26,2.26,0,0,0,2.45,2.4c1.88,0,3.13-1.25,3.73-4.38L83.18.27h3.6L85,9.85c-1,5.1-3.22,7.55-7.8,7.55-3.47,0-5.6-1.77-5.6-5.37a13.15,13.15,0,0,1,.25-2.35L73.58.27Z"/><path class="cls-1" d="M104.82,16.65a11.49,11.49,0,0,1-4.45.73c-4.45,0-7.45-2.71-7.45-7.15A9.82,9.82,0,0,1,97.17,1.8a10.58,10.58,0,0,1,6.2-1.8,8,8,0,0,1,3.68.73l-1,2.92a7.45,7.45,0,0,0-3-.55,6,6,0,0,0-3.85,1.3,6.84,6.84,0,0,0-2.32,5.43c0,2.67,1.5,4.47,4.47,4.47a8.81,8.81,0,0,0,3.2-.55Z"/><path class="cls-1" d="M110.23,14.06l-1.4,3.07h-2.67l5.74-11.8h3.23l1.39,11.8h-2.64l-.25-3.07Zm3.29-1.92L113.3,9.6c0-.65-.12-1.59-.18-2.31h0c-.3.72-.63,1.63-1,2.31L111,12.14Z"/><path class="cls-1" d="M118.05,17.13l2.25-11.8h3l1.56,4.5c.47,1.5.79,2.73,1.07,4h.05a28.54,28.54,0,0,1,.54-4.23l.81-4.29h2.34l-2.22,11.8h-2.61l-1.64-4.71A37.66,37.66,0,0,1,122,8.31h0c-.14,1.14-.42,2.82-.77,4.67l-.77,4.14Z"/><path class="cls-1" d="M138.83,16.79a8.08,8.08,0,0,1-3.12.51c-3.11,0-5.21-1.89-5.21-5a6.88,6.88,0,0,1,3-5.9,7.37,7.37,0,0,1,4.34-1.26,5.59,5.59,0,0,1,2.57.5l-.68,2.05a5.31,5.31,0,0,0-2.13-.38,4.2,4.2,0,0,0-2.7.91A4.75,4.75,0,0,0,133.24,12a2.87,2.87,0,0,0,3.14,3.14,6.1,6.1,0,0,0,2.24-.39Z"/><path class="cls-1" d="M148.1,12.12h-4.2L143.36,15h4.71l-.41,2.16h-7.23l2.24-11.8h7l-.42,2.15h-4.45L144.3,10h4.2Z"/><path class="cls-1" d="M152,5.56a14.49,14.49,0,0,1,3.15-.32,6.13,6.13,0,0,1,3.09.68,2.57,2.57,0,0,1,1.32,2.31,3.47,3.47,0,0,1-2.68,3.33v.07c.7.3,1,1.09,1.12,2.15a20.69,20.69,0,0,0,.45,3.35h-2.59a21.38,21.38,0,0,1-.35-2.79c-.1-1.43-.59-1.87-1.59-1.87h-.77l-.88,4.66h-2.5Zm1.52,5h1a2.12,2.12,0,0,0,2.36-2c0-.94-.81-1.36-1.8-1.36a4.38,4.38,0,0,0-1,.08Z"/><path class="cls-1" d="M178,16.65a11.49,11.49,0,0,1-4.45.73c-4.45,0-7.45-2.71-7.45-7.15a9.82,9.82,0,0,1,4.25-8.43,10.58,10.58,0,0,1,6.2-1.8,7.92,7.92,0,0,1,3.67.73l-1,2.92a7.45,7.45,0,0,0-3.05-.55,6,6,0,0,0-3.85,1.3A6.84,6.84,0,0,0,170,9.83c0,2.67,1.5,4.47,4.47,4.47a8.85,8.85,0,0,0,3.2-.55Z"/><path class="cls-1" d="M187.79,12.12h-4.2L183.05,15h4.71l-.4,2.16h-7.23l2.24-11.8h7l-.42,2.15h-4.45L184,10h4.19Z"/><path class="cls-1" d="M189.44,17.13l2.24-11.8h2.95l1.56,4.5c.47,1.5.79,2.73,1.07,4h.05a28.54,28.54,0,0,1,.54-4.23l.81-4.29H201l-2.22,11.8h-2.61l-1.64-4.71a35.4,35.4,0,0,1-1.15-4.11h-.06c-.14,1.14-.42,2.82-.77,4.67l-.77,4.14Z"/><path class="cls-1" d="M205.31,7.53h-3.12l.44-2.2h8.77L211,7.53h-3.15l-1.8,9.6H203.5Z"/><path class="cls-1" d="M218.5,12.12h-4.2L213.76,15h4.7l-.4,2.16h-7.22l2.24-11.8h7l-.42,2.15h-4.45L214.7,10h4.2Z"/><path class="cls-1" d="M222.37,5.56a14.56,14.56,0,0,1,3.15-.32,6.13,6.13,0,0,1,3.09.68,2.57,2.57,0,0,1,1.32,2.31,3.46,3.46,0,0,1-2.68,3.33v.07c.7.3,1,1.09,1.12,2.15a19.38,19.38,0,0,0,.46,3.35h-2.6a21.38,21.38,0,0,1-.35-2.79c-.1-1.43-.59-1.87-1.59-1.87h-.77l-.87,4.66h-2.5Zm1.52,5h1.05a2.11,2.11,0,0,0,2.36-2c0-.94-.8-1.36-1.8-1.36a4.38,4.38,0,0,0-1,.08Z"/></svg>