<svg width="104" height="40" viewBox="0 0 104 40" fill="none" xmlns="http://www.w3.org/2000/svg">
<line x1="0.25" y1="-1.09279e-08" x2="0.250002" y2="40" stroke="#444444" stroke-width="0.5"/>
<path d="M21.4721 6.4H27.4001V7.744H21.4721V6.4ZM21.1601 10.708H27.6401V12.064H21.1601V10.708ZM25.0121 6.988H26.3801V17.08H25.0121V6.988ZM22.3121 7.024H23.6561V11.092C23.6561 11.588 23.6361 12.112 23.5961 12.664C23.5561 13.208 23.4761 13.752 23.3561 14.296C23.2441 14.832 23.0761 15.348 22.8521 15.844C22.6361 16.34 22.3401 16.78 21.9641 17.164C21.8841 17.076 21.7801 16.98 21.6521 16.876C21.5241 16.772 21.3881 16.668 21.2441 16.564C21.1081 16.468 20.9881 16.392 20.8841 16.336C21.2041 15.984 21.4561 15.592 21.6401 15.16C21.8321 14.728 21.9761 14.276 22.0721 13.804C22.1681 13.324 22.2321 12.852 22.2641 12.388C22.2961 11.924 22.3121 11.488 22.3121 11.08V7.024ZM16.5161 6.376H20.8961V7.672H16.5161V6.376ZM17.8721 10.072H20.7521V15.616H17.8721V14.356H19.5281V11.344H17.8721V10.072ZM17.9201 7.012L19.2161 7.3C19.0721 8.06 18.8881 8.816 18.6641 9.568C18.4401 10.32 18.1721 11.024 17.8601 11.68C17.5481 12.336 17.1841 12.912 16.7681 13.408C16.7521 13.28 16.7161 13.108 16.6601 12.892C16.6041 12.676 16.5401 12.46 16.4681 12.244C16.3961 12.02 16.3281 11.84 16.2641 11.704C16.6881 11.136 17.0321 10.44 17.2961 9.616C17.5601 8.792 17.7681 7.924 17.9201 7.012ZM17.2481 10.072H18.4361V16.504H17.2481V10.072ZM29.9441 12.148H36.9521V13.48H29.9441V12.148ZM36.1601 12.148H37.6721V15.148C37.6721 15.34 37.6921 15.46 37.7321 15.508C37.7721 15.556 37.8521 15.58 37.9721 15.58C38.0041 15.58 38.0481 15.58 38.1041 15.58C38.1601 15.58 38.2201 15.58 38.2841 15.58C38.3561 15.58 38.4201 15.58 38.4761 15.58C38.5401 15.58 38.5881 15.58 38.6201 15.58C38.7081 15.58 38.7761 15.544 38.8241 15.472C38.8721 15.392 38.9041 15.228 38.9201 14.98C38.9441 14.732 38.9641 14.356 38.9801 13.852C39.0841 13.94 39.2161 14.024 39.3761 14.104C39.5361 14.184 39.7041 14.256 39.8801 14.32C40.0561 14.384 40.2081 14.436 40.3361 14.476C40.2961 15.132 40.2161 15.644 40.0961 16.012C39.9841 16.38 39.8241 16.636 39.6161 16.78C39.4081 16.924 39.1281 16.996 38.7761 16.996C38.7121 16.996 38.6321 16.996 38.5361 16.996C38.4401 16.996 38.3401 16.996 38.2361 16.996C38.1321 16.996 38.0321 16.996 37.9361 16.996C37.8401 16.996 37.7641 16.996 37.7081 16.996C37.3161 16.996 37.0041 16.94 36.7721 16.828C36.5481 16.716 36.3881 16.528 36.2921 16.264C36.2041 16 36.1601 15.632 36.1601 15.16V12.148ZM33.8801 5.788H35.3681V7.696H33.8801V5.788ZM32.4281 7.816H33.9401C33.8841 8.328 33.7921 8.792 33.6641 9.208C33.5361 9.616 33.3321 9.98 33.0521 10.3C32.7721 10.62 32.3841 10.9 31.8881 11.14C31.3921 11.372 30.7481 11.564 29.9561 11.716C29.8921 11.54 29.7881 11.336 29.6441 11.104C29.5001 10.872 29.3561 10.688 29.2121 10.552C29.8921 10.44 30.4321 10.304 30.8321 10.144C31.2401 9.984 31.5521 9.796 31.7681 9.58C31.9841 9.356 32.1361 9.1 32.2241 8.812C32.3201 8.516 32.3881 8.184 32.4281 7.816ZM35.2361 7.876H36.6641V9.748C36.6641 9.908 36.6881 10.008 36.7361 10.048C36.7841 10.08 36.8961 10.096 37.0721 10.096C37.1121 10.096 37.1721 10.096 37.2521 10.096C37.3401 10.096 37.4361 10.096 37.5401 10.096C37.6441 10.096 37.7401 10.096 37.8281 10.096C37.9241 10.096 37.9961 10.096 38.0441 10.096C38.1401 10.096 38.2121 10.08 38.2601 10.048C38.3081 10.008 38.3441 9.928 38.3681 9.808C38.3921 9.688 38.4121 9.508 38.4281 9.268C38.5161 9.34 38.6321 9.412 38.7761 9.484C38.9281 9.548 39.0841 9.608 39.2441 9.664C39.4041 9.712 39.5481 9.748 39.6761 9.772C39.6281 10.196 39.5481 10.524 39.4361 10.756C39.3321 10.98 39.1801 11.14 38.9801 11.236C38.7801 11.324 38.5201 11.368 38.2001 11.368C38.1281 11.368 38.0281 11.368 37.9001 11.368C37.7801 11.368 37.6521 11.368 37.5161 11.368C37.3801 11.368 37.2521 11.368 37.1321 11.368C37.0121 11.368 36.9161 11.368 36.8441 11.368C36.4121 11.368 36.0761 11.32 35.8361 11.224C35.6041 11.12 35.4441 10.952 35.3561 10.72C35.2761 10.48 35.2361 10.16 35.2361 9.76V7.876ZM29.4521 6.844H39.8681V9.196H38.3561V8.128H30.9041V9.304H29.4521V6.844ZM33.1121 10.828H34.5521V12.4C34.5521 12.744 34.5201 13.092 34.4561 13.444C34.3921 13.796 34.2681 14.148 34.0841 14.5C33.9001 14.852 33.6401 15.192 33.3041 15.52C32.9681 15.84 32.5281 16.136 31.9841 16.408C31.4481 16.688 30.7841 16.928 29.9921 17.128C29.8881 16.952 29.7401 16.752 29.5481 16.528C29.3641 16.304 29.1921 16.112 29.0321 15.952C29.7441 15.776 30.3401 15.576 30.8201 15.352C31.3081 15.128 31.7041 14.896 32.0081 14.656C32.3121 14.408 32.5401 14.156 32.6921 13.9C32.8521 13.636 32.9601 13.376 33.0161 13.12C33.0801 12.856 33.1121 12.604 33.1121 12.364V10.828ZM43.3841 10.324H46.1561V11.632H43.3841V10.324ZM45.6041 10.324H46.9961C46.9961 10.324 46.9961 10.356 46.9961 10.42C46.9961 10.484 46.9961 10.56 46.9961 10.648C46.9961 10.728 46.9961 10.796 46.9961 10.852C46.9801 11.7 46.9601 12.396 46.9361 12.94C46.9121 13.476 46.8721 13.896 46.8161 14.2C46.7681 14.496 46.7001 14.704 46.6121 14.824C46.4921 14.976 46.3641 15.084 46.2281 15.148C46.1001 15.212 45.9481 15.26 45.7721 15.292C45.6121 15.324 45.4081 15.344 45.1601 15.352C44.9201 15.352 44.6561 15.348 44.3681 15.34C44.3601 15.132 44.3201 14.9 44.2481 14.644C44.1761 14.388 44.0881 14.172 43.9841 13.996C44.2001 14.012 44.4001 14.024 44.5841 14.032C44.7761 14.04 44.9201 14.044 45.0161 14.044C45.0961 14.044 45.1641 14.036 45.2201 14.02C45.2841 13.996 45.3361 13.956 45.3761 13.9C45.4321 13.828 45.4721 13.68 45.4961 13.456C45.5281 13.224 45.5521 12.876 45.5681 12.412C45.5841 11.94 45.5961 11.316 45.6041 10.54V10.324ZM49.2041 6.556L50.0801 5.692C50.3041 5.804 50.5401 5.936 50.7881 6.088C51.0361 6.24 51.2721 6.392 51.4961 6.544C51.7281 6.696 51.9161 6.844 52.0601 6.988L51.1361 7.948C51.0001 7.812 50.8241 7.66 50.6081 7.492C50.3921 7.324 50.1601 7.16 49.9121 7C49.6641 6.832 49.4281 6.684 49.2041 6.556ZM50.6201 9.652L52.0841 10C51.5801 11.56 50.8921 12.94 50.0201 14.14C49.1481 15.332 48.1161 16.296 46.9241 17.032C46.8601 16.928 46.7641 16.8 46.6361 16.648C46.5081 16.504 46.3761 16.356 46.2401 16.204C46.1041 16.06 45.9841 15.94 45.8801 15.844C47.0321 15.22 48.0081 14.38 48.8081 13.324C49.6081 12.26 50.2121 11.036 50.6201 9.652ZM43.4561 7.6H52.7201V9.016H43.4561V7.6ZM42.4961 7.6H44.0081V11.14C44.0081 11.588 43.9921 12.08 43.9601 12.616C43.9281 13.144 43.8681 13.688 43.7801 14.248C43.6921 14.8 43.5601 15.332 43.3841 15.844C43.2161 16.356 42.9961 16.816 42.7241 17.224C42.6441 17.12 42.5241 17.004 42.3641 16.876C42.2121 16.748 42.0561 16.62 41.8961 16.492C41.7441 16.372 41.6121 16.288 41.5001 16.24C41.8041 15.76 42.0241 15.224 42.1601 14.632C42.3041 14.032 42.3961 13.428 42.4361 12.82C42.4761 12.212 42.4961 11.648 42.4961 11.128V7.6ZM47.3681 5.812H48.8801C48.8641 6.796 48.8921 7.76 48.9641 8.704C49.0361 9.648 49.1401 10.532 49.2761 11.356C49.4201 12.172 49.5881 12.896 49.7801 13.528C49.9721 14.152 50.1841 14.64 50.4161 14.992C50.6481 15.344 50.8841 15.52 51.1241 15.52C51.2601 15.52 51.3641 15.356 51.4361 15.028C51.5161 14.7 51.5721 14.16 51.6041 13.408C51.7721 13.568 51.9681 13.724 52.1921 13.876C52.4241 14.028 52.6361 14.14 52.8281 14.212C52.7561 14.956 52.6481 15.532 52.5041 15.94C52.3601 16.34 52.1681 16.616 51.9281 16.768C51.6881 16.92 51.3801 16.996 51.0041 16.996C50.5721 16.996 50.1801 16.848 49.8281 16.552C49.4841 16.256 49.1761 15.844 48.9041 15.316C48.6401 14.788 48.4121 14.168 48.2201 13.456C48.0281 12.744 47.8681 11.972 47.7401 11.14C47.6201 10.308 47.5281 9.444 47.4641 8.548C47.4081 7.644 47.3761 6.732 47.3681 5.812ZM54.4481 12.124H65.1881V13.432H54.4481V12.124ZM59.0681 6.844H60.5921V17.08H59.0681V6.844ZM58.6721 12.76L59.8601 13.276C59.4841 13.772 59.0361 14.244 58.5161 14.692C58.0041 15.14 57.4521 15.54 56.8601 15.892C56.2681 16.244 55.6681 16.532 55.0601 16.756C54.9881 16.636 54.8921 16.5 54.7721 16.348C54.6601 16.204 54.5441 16.064 54.4241 15.928C54.3041 15.784 54.1881 15.66 54.0761 15.556C54.5241 15.42 54.9681 15.256 55.4081 15.064C55.8481 14.872 56.2721 14.652 56.6801 14.404C57.0881 14.156 57.4601 13.896 57.7961 13.624C58.1401 13.344 58.4321 13.056 58.6721 12.76ZM60.8561 12.676C61.1041 12.964 61.4041 13.248 61.7561 13.528C62.1081 13.8 62.4921 14.06 62.9081 14.308C63.3241 14.548 63.7561 14.768 64.2041 14.968C64.6521 15.168 65.0961 15.332 65.5361 15.46C65.4321 15.556 65.3161 15.676 65.1881 15.82C65.0681 15.964 64.9521 16.112 64.8401 16.264C64.7281 16.416 64.6361 16.556 64.5641 16.684C64.1161 16.508 63.6681 16.296 63.2201 16.048C62.7721 15.8 62.3361 15.524 61.9121 15.22C61.4881 14.916 61.0921 14.592 60.7241 14.248C60.3561 13.904 60.0281 13.548 59.7401 13.18L60.8561 12.676ZM57.1241 9.436V10.204H62.5001V9.436H57.1241ZM57.1241 7.564V8.32H62.5001V7.564H57.1241ZM55.6241 6.364H64.0721V11.404H55.6241V6.364ZM73.2161 15.1L74.2361 14.152C74.6601 14.352 75.0921 14.564 75.5321 14.788C75.9721 15.012 76.3881 15.236 76.7801 15.46C77.1801 15.684 77.5161 15.884 77.7881 16.06L76.4561 17.032C76.2161 16.848 75.9161 16.644 75.5561 16.42C75.2041 16.196 74.8241 15.968 74.4161 15.736C74.0161 15.504 73.6161 15.292 73.2161 15.1ZM66.7721 12.94H78.0161V14.296H66.7721V12.94ZM68.6681 10.024H76.0601V11.344H68.6681V10.024ZM70.4561 5.764H71.8001V13.54H70.4561V5.764ZM72.9641 5.764H74.3321V13.552H72.9641V5.764ZM67.9601 7.18H76.9361V13.444H75.4721V8.512H69.3521V13.444H67.9601V7.18ZM70.3121 14.164L71.6321 15.052C71.3201 15.3 70.9521 15.552 70.5281 15.808C70.1121 16.056 69.6761 16.288 69.2201 16.504C68.7641 16.728 68.3281 16.916 67.9121 17.068C67.7841 16.916 67.6081 16.736 67.3841 16.528C67.1681 16.328 66.9681 16.16 66.7841 16.024C67.2161 15.888 67.6561 15.716 68.1041 15.508C68.5521 15.292 68.9681 15.068 69.3521 14.836C69.7441 14.596 70.0641 14.372 70.3121 14.164ZM79.6481 6.52H90.3761V7.708H79.6481V6.52ZM82.1681 8.728H90.4841V9.94H82.1681V8.728ZM80.4041 10.696H82.0001V11.848H80.4041V10.696ZM79.3721 12.556H81.9401V13.732H79.3721V12.556ZM83.5961 14.896H86.7041V15.796H83.5961V14.896ZM82.3001 5.8H83.7281V8.32H82.3001V5.8ZM86.2481 5.8H87.6881V8.356H86.2481V5.8ZM84.7961 10.936H85.7321V12.28H84.7961V10.936ZM79.8641 8.872H80.8961V12.088H79.8641V8.872ZM84.7961 13.864H85.7321V15.232H84.7961V13.864ZM83.7161 11.872H86.6561V14.272H83.7161V13.42H85.6721V12.724H83.7161V11.872ZM83.1281 10.408H86.6201V11.308H84.1361V16.456H83.1281V10.408ZM81.5441 8.728H82.7201V12.352C82.7201 12.84 82.7041 13.372 82.6721 13.948C82.6401 14.524 82.5641 15.088 82.4441 15.64C82.3321 16.192 82.1641 16.68 81.9401 17.104C81.8681 17.048 81.7641 16.98 81.6281 16.9C81.5001 16.82 81.3641 16.744 81.2201 16.672C81.0841 16.608 80.9641 16.56 80.8601 16.528C81.0761 16.128 81.2281 15.688 81.3161 15.208C81.4121 14.728 81.4721 14.24 81.4961 13.744C81.5281 13.248 81.5441 12.78 81.5441 12.34V8.728ZM86.6561 8.044H87.9281C87.9281 9.3 87.9761 10.412 88.0721 11.38C88.1681 12.348 88.2921 13.164 88.4441 13.828C88.6041 14.484 88.7681 14.984 88.9361 15.328C89.1121 15.664 89.2801 15.832 89.4401 15.832C89.5121 15.832 89.5721 15.788 89.6201 15.7C89.6681 15.604 89.7081 15.444 89.7401 15.22C89.7721 14.996 89.7961 14.692 89.8121 14.308C89.9401 14.436 90.0921 14.56 90.2681 14.68C90.4441 14.792 90.6081 14.876 90.7601 14.932C90.7121 15.532 90.6281 15.988 90.5081 16.3C90.3961 16.612 90.2441 16.82 90.0521 16.924C89.8681 17.036 89.6281 17.092 89.3321 17.092C88.9081 17.092 88.5361 16.876 88.2161 16.444C87.8961 16.02 87.6241 15.412 87.4001 14.62C87.1841 13.82 87.0121 12.868 86.8841 11.764C86.7641 10.652 86.6881 9.412 86.6561 8.044ZM88.3961 8.236L89.2481 7.612C89.4321 7.724 89.6241 7.864 89.8241 8.032C90.0241 8.192 90.1761 8.34 90.2801 8.476L89.3801 9.16C89.2921 9.016 89.1521 8.86 88.9601 8.692C88.7681 8.516 88.5801 8.364 88.3961 8.236ZM88.8521 10.384L90.1241 10.588C89.8201 12.028 89.3721 13.3 88.7801 14.404C88.1961 15.508 87.4561 16.412 86.5601 17.116C86.4961 17.036 86.4001 16.94 86.2721 16.828C86.1521 16.724 86.0201 16.616 85.8761 16.504C85.7401 16.392 85.6241 16.308 85.5281 16.252C86.4161 15.644 87.1321 14.836 87.6761 13.828C88.2201 12.82 88.6121 11.672 88.8521 10.384ZM79.9361 13H80.9561V14.02C80.9561 14.3 80.9361 14.624 80.8961 14.992C80.8561 15.36 80.7721 15.728 80.6441 16.096C80.5161 16.464 80.3241 16.792 80.0681 17.08C79.9801 16.984 79.8521 16.88 79.6841 16.768C79.5161 16.656 79.3721 16.568 79.2521 16.504C79.4521 16.256 79.6001 15.984 79.6961 15.688C79.8001 15.384 79.8641 15.084 79.8881 14.788C79.9201 14.484 79.9361 14.22 79.9361 13.996V13ZM94.7441 8.656H102.748V9.736H94.7441V8.656ZM94.2281 14.632H103.168V15.784H94.2281V14.632ZM97.8761 7.984H99.2441V17.092H97.8761V7.984ZM96.3401 12.58V13.168H100.888V12.58H96.3401ZM96.3401 11.164V11.752H100.888V11.164H96.3401ZM95.0801 10.288H102.208V14.056H95.0801V10.288ZM97.2281 5.8H98.7281V7.504H97.2281V5.8ZM93.5801 6.736H103.072V7.996H93.5801V6.736ZM92.9081 6.736H94.2761V10.648C94.2761 11.128 94.2601 11.652 94.2281 12.22C94.2041 12.78 94.1441 13.352 94.0481 13.936C93.9601 14.512 93.8321 15.068 93.6641 15.604C93.4961 16.14 93.2721 16.628 92.9921 17.068C92.9121 16.98 92.8001 16.88 92.6561 16.768C92.5201 16.664 92.3761 16.56 92.2241 16.456C92.0801 16.36 91.9521 16.292 91.8401 16.252C92.0881 15.852 92.2841 15.416 92.4281 14.944C92.5721 14.472 92.6761 13.988 92.7401 13.492C92.8121 12.988 92.8561 12.496 92.8721 12.016C92.8961 11.528 92.9081 11.072 92.9081 10.648V6.736Z" fill="#444444"/>
<path d="M17.0729 24.7578H20.1324C20.8265 24.7578 21.4126 24.8636 21.8907 25.0752C22.3732 25.2868 22.7392 25.5999 22.9889 26.0146C23.2428 26.4251 23.3698 26.9308 23.3698 27.5317C23.3698 27.9549 23.283 28.3421 23.1095 28.6934C22.9402 29.0404 22.6948 29.3366 22.3732 29.582C22.0558 29.8232 21.6749 30.0031 21.2306 30.1216L20.8878 30.2549H18.0123L17.9996 29.2583H20.1705C20.6106 29.2583 20.9767 29.1821 21.2687 29.0298C21.5607 28.8732 21.7807 28.6637 21.9288 28.4014C22.0769 28.139 22.151 27.8491 22.151 27.5317C22.151 27.1763 22.0812 26.8652 21.9415 26.5986C21.8019 26.332 21.5818 26.1268 21.2814 25.9829C20.9851 25.8348 20.6022 25.7607 20.1324 25.7607H18.298V34H17.0729V24.7578ZM22.4747 34L20.2277 29.8105L21.5035 29.8042L23.7823 33.9238V34H22.4747ZM28.256 34.127C27.7778 34.127 27.344 34.0465 26.9547 33.8857C26.5696 33.7207 26.2374 33.4901 25.9581 33.1938C25.6831 32.8976 25.4715 32.5464 25.3234 32.1401C25.1753 31.7339 25.1012 31.2896 25.1012 30.8071V30.5405C25.1012 29.9819 25.1837 29.4847 25.3488 29.0488C25.5138 28.6087 25.7381 28.2363 26.0216 27.9316C26.3051 27.627 26.6267 27.3963 26.9865 27.2397C27.3462 27.0832 27.7185 27.0049 28.1036 27.0049C28.5945 27.0049 29.0177 27.0895 29.3732 27.2588C29.7329 27.4281 30.027 27.665 30.2555 27.9697C30.484 28.2702 30.6533 28.6257 30.7633 29.0361C30.8733 29.4424 30.9283 29.8867 30.9283 30.3691V30.896H25.7994V29.9375H29.754V29.8486C29.7371 29.5439 29.6736 29.2477 29.5636 28.96C29.4578 28.6722 29.2885 28.4352 29.0558 28.249C28.823 28.0628 28.5057 27.9697 28.1036 27.9697C27.837 27.9697 27.5916 28.0269 27.3673 28.1411C27.143 28.2511 26.9505 28.4162 26.7897 28.6362C26.6289 28.8563 26.504 29.125 26.4152 29.4424C26.3263 29.7598 26.2819 30.1258 26.2819 30.5405V30.8071C26.2819 31.133 26.3263 31.4398 26.4152 31.7275C26.5083 32.0111 26.6416 32.2607 26.8151 32.4766C26.9928 32.6924 27.2065 32.8617 27.4562 32.9844C27.7101 33.1071 27.9978 33.1685 28.3195 33.1685C28.7342 33.1685 29.0854 33.0838 29.3732 32.9146C29.6609 32.7453 29.9127 32.5189 30.1285 32.2354L30.8395 32.8003C30.6914 33.0246 30.5031 33.2383 30.2745 33.4414C30.046 33.6445 29.7646 33.8096 29.4303 33.9365C29.1002 34.0635 28.7088 34.127 28.256 34.127ZM36.7985 32.1782C36.7985 32.009 36.7604 31.8524 36.6842 31.7085C36.6123 31.5604 36.462 31.4271 36.2335 31.3086C36.0092 31.1859 35.6707 31.0801 35.2179 30.9912C34.837 30.9108 34.4921 30.8156 34.1832 30.7056C33.8785 30.5955 33.6183 30.4622 33.4025 30.3057C33.1909 30.1491 33.028 29.965 32.9137 29.7534C32.7994 29.5418 32.7423 29.2943 32.7423 29.0107C32.7423 28.7399 32.8016 28.4839 32.92 28.2427C33.0428 28.0015 33.2142 27.7878 33.4342 27.6016C33.6585 27.4154 33.9272 27.2694 34.2404 27.1636C34.5535 27.0578 34.9026 27.0049 35.2877 27.0049C35.8378 27.0049 36.3076 27.1022 36.6969 27.2969C37.0862 27.4915 37.3846 27.7518 37.5919 28.0776C37.7993 28.3993 37.903 28.7568 37.903 29.1504H36.7286C36.7286 28.96 36.6715 28.7759 36.5573 28.5981C36.4472 28.4162 36.2843 28.266 36.0685 28.1475C35.8569 28.029 35.5966 27.9697 35.2877 27.9697C34.9619 27.9697 34.6974 28.0205 34.4943 28.1221C34.2954 28.2194 34.1494 28.3442 34.0563 28.4966C33.9674 28.6489 33.923 28.8097 33.923 28.979C33.923 29.106 33.9441 29.2202 33.9865 29.3218C34.033 29.4191 34.1134 29.5101 34.2277 29.5947C34.3419 29.6751 34.5027 29.7513 34.7101 29.8232C34.9174 29.8952 35.1819 29.9671 35.5035 30.0391C36.0664 30.166 36.5297 30.3184 36.8937 30.4961C37.2576 30.6738 37.5284 30.8918 37.7062 31.1499C37.8839 31.408 37.9728 31.7212 37.9728 32.0894C37.9728 32.3898 37.9093 32.6649 37.7823 32.9146C37.6596 33.1642 37.4798 33.38 37.2428 33.562C37.0101 33.7397 36.7308 33.8794 36.4049 33.981C36.0833 34.0783 35.7215 34.127 35.3195 34.127C34.7143 34.127 34.2023 34.019 33.7833 33.8032C33.3644 33.5874 33.047 33.3081 32.8312 32.9653C32.6154 32.6226 32.5074 32.2607 32.5074 31.8799H33.6881C33.705 32.2015 33.7981 32.4575 33.9674 32.6479C34.1367 32.8341 34.344 32.9674 34.5895 33.0479C34.8349 33.124 35.0782 33.1621 35.3195 33.1621C35.6411 33.1621 35.9098 33.1198 36.1256 33.0352C36.3457 32.9505 36.5128 32.8341 36.6271 32.686C36.7413 32.5379 36.7985 32.3687 36.7985 32.1782ZM42.8654 34.127C42.3872 34.127 41.9534 34.0465 41.5641 33.8857C41.179 33.7207 40.8468 33.4901 40.5675 33.1938C40.2924 32.8976 40.0809 32.5464 39.9327 32.1401C39.7846 31.7339 39.7106 31.2896 39.7106 30.8071V30.5405C39.7106 29.9819 39.7931 29.4847 39.9581 29.0488C40.1232 28.6087 40.3475 28.2363 40.631 27.9316C40.9145 27.627 41.2361 27.3963 41.5958 27.2397C41.9555 27.0832 42.3279 27.0049 42.713 27.0049C43.2039 27.0049 43.6271 27.0895 43.9825 27.2588C44.3422 27.4281 44.6364 27.665 44.8649 27.9697C45.0934 28.2702 45.2627 28.6257 45.3727 29.0361C45.4827 29.4424 45.5377 29.8867 45.5377 30.3691V30.896H40.4088V29.9375H44.3634V29.8486C44.3465 29.5439 44.283 29.2477 44.173 28.96C44.0672 28.6722 43.8979 28.4352 43.6652 28.249C43.4324 28.0628 43.115 27.9697 42.713 27.9697C42.4464 27.9697 42.201 28.0269 41.9767 28.1411C41.7524 28.2511 41.5599 28.4162 41.399 28.6362C41.2382 28.8563 41.1134 29.125 41.0245 29.4424C40.9357 29.7598 40.8912 30.1258 40.8912 30.5405V30.8071C40.8912 31.133 40.9357 31.4398 41.0245 31.7275C41.1176 32.0111 41.2509 32.2607 41.4244 32.4766C41.6022 32.6924 41.8159 32.8617 42.0656 32.9844C42.3195 33.1071 42.6072 33.1685 42.9288 33.1685C43.3435 33.1685 43.6948 33.0838 43.9825 32.9146C44.2703 32.7453 44.5221 32.5189 44.7379 32.2354L45.4489 32.8003C45.3007 33.0246 45.1124 33.2383 44.8839 33.4414C44.6554 33.6445 44.374 33.8096 44.0397 33.9365C43.7096 34.0635 43.3182 34.127 42.8654 34.127ZM51.4586 32.8257V29.29C51.4586 29.0192 51.4036 28.7843 51.2936 28.5854C51.1878 28.3823 51.027 28.2257 50.8112 28.1157C50.5953 28.0057 50.3287 27.9507 50.0114 27.9507C49.7151 27.9507 49.4549 28.0015 49.2306 28.103C49.0105 28.2046 48.837 28.3379 48.7101 28.5029C48.5874 28.668 48.526 28.8457 48.526 29.0361H47.3517C47.3517 28.7907 47.4152 28.5474 47.5421 28.3062C47.6691 28.0649 47.851 27.847 48.088 27.6523C48.3292 27.4535 48.617 27.2969 48.9513 27.1826C49.2898 27.0641 49.6665 27.0049 50.0812 27.0049C50.5805 27.0049 51.0206 27.0895 51.4015 27.2588C51.7866 27.4281 52.087 27.6841 52.3029 28.0269C52.5229 28.3654 52.6329 28.7907 52.6329 29.3027V32.502C52.6329 32.7305 52.652 32.9738 52.6901 33.2319C52.7324 33.4901 52.7937 33.7122 52.8741 33.8984V34H51.649C51.5898 33.8646 51.5433 33.6847 51.5094 33.4604C51.4755 33.2319 51.4586 33.0203 51.4586 32.8257ZM51.6617 29.8359L51.6744 30.6611H50.4874C50.1531 30.6611 49.8548 30.6886 49.5924 30.7437C49.33 30.7944 49.11 30.8727 48.9323 30.9785C48.7545 31.0843 48.6191 31.2176 48.526 31.3784C48.4329 31.535 48.3864 31.7191 48.3864 31.9307C48.3864 32.1465 48.435 32.3433 48.5323 32.521C48.6297 32.6987 48.7757 32.8405 48.9703 32.9463C49.1692 33.0479 49.4126 33.0986 49.7003 33.0986C50.06 33.0986 50.3774 33.0225 50.6525 32.8701C50.9275 32.7178 51.1455 32.5316 51.3063 32.3115C51.4713 32.0915 51.5602 31.8778 51.5729 31.6704L52.0743 32.2354C52.0447 32.4131 51.9643 32.6099 51.8331 32.8257C51.7019 33.0415 51.5263 33.2489 51.3063 33.4478C51.0905 33.6424 50.8323 33.8053 50.5319 33.9365C50.2356 34.0635 49.9013 34.127 49.5289 34.127C49.0634 34.127 48.6551 34.036 48.3038 33.854C47.9568 33.672 47.686 33.4287 47.4913 33.124C47.3009 32.8151 47.2057 32.4702 47.2057 32.0894C47.2057 31.7212 47.2776 31.3975 47.4215 31.1182C47.5654 30.8346 47.7727 30.5998 48.0436 30.4136C48.3144 30.2231 48.6403 30.0793 49.0211 29.9819C49.402 29.8846 49.8273 29.8359 50.297 29.8359H51.6617ZM56.1544 28.2109V34H54.9801V27.1318H56.1227L56.1544 28.2109ZM58.2999 27.0938L58.2936 28.1855C58.1962 28.1644 58.1031 28.1517 58.0143 28.1475C57.9296 28.139 57.8323 28.1348 57.7223 28.1348C57.4515 28.1348 57.2124 28.1771 57.005 28.2617C56.7976 28.3464 56.622 28.4648 56.4781 28.6172C56.3343 28.7695 56.22 28.9515 56.1354 29.1631C56.055 29.3704 56.0021 29.599 55.9767 29.8486L55.6466 30.0391C55.6466 29.6243 55.6868 29.235 55.7672 28.8711C55.8518 28.5072 55.9809 28.1855 56.1544 27.9062C56.3279 27.6227 56.548 27.4027 56.8146 27.2461C57.0854 27.0853 57.407 27.0049 57.7794 27.0049C57.8641 27.0049 57.9614 27.0155 58.0714 27.0366C58.1814 27.0535 58.2576 27.0726 58.2999 27.0938ZM62.507 33.1621C62.7863 33.1621 63.0444 33.105 63.2814 32.9907C63.5184 32.8765 63.713 32.7199 63.8654 32.521C64.0177 32.3179 64.1045 32.0872 64.1256 31.8291H65.2428C65.2216 32.2354 65.0841 32.6141 64.8302 32.9653C64.5805 33.3123 64.2526 33.5938 63.8463 33.8096C63.4401 34.0212 62.9936 34.127 62.507 34.127C61.9907 34.127 61.54 34.036 61.1549 33.854C60.774 33.672 60.4567 33.4224 60.2028 33.105C59.9531 32.7876 59.7648 32.4237 59.6378 32.0132C59.5151 31.5985 59.4537 31.1605 59.4537 30.6992V30.4326C59.4537 29.9714 59.5151 29.5355 59.6378 29.125C59.7648 28.7103 59.9531 28.3442 60.2028 28.0269C60.4567 27.7095 60.774 27.4598 61.1549 27.2778C61.54 27.0959 61.9907 27.0049 62.507 27.0049C63.0444 27.0049 63.5141 27.1149 63.9161 27.335C64.3182 27.5508 64.6334 27.847 64.8619 28.2236C65.0947 28.596 65.2216 29.0192 65.2428 29.4932H64.1256C64.1045 29.2096 64.024 28.9536 63.8844 28.7251C63.749 28.4966 63.5628 28.3146 63.3258 28.1792C63.0931 28.0396 62.8201 27.9697 62.507 27.9697C62.1473 27.9697 61.8447 28.0417 61.5992 28.1855C61.358 28.3252 61.1655 28.5156 61.0216 28.7568C60.882 28.9938 60.7804 29.2583 60.7169 29.5503C60.6577 29.8381 60.6281 30.1322 60.6281 30.4326V30.6992C60.6281 30.9997 60.6577 31.2959 60.7169 31.5879C60.7762 31.8799 60.8756 32.1444 61.0153 32.3813C61.1591 32.6183 61.3517 32.8088 61.5929 32.9526C61.8383 33.0923 62.143 33.1621 62.507 33.1621ZM68.2374 24.25V34H67.0631V24.25H68.2374ZM67.9581 30.3057L67.4694 30.2866C67.4736 29.8169 67.5434 29.3831 67.6788 28.9854C67.8142 28.5833 68.0047 28.2342 68.2501 27.938C68.4956 27.6418 68.7876 27.4132 69.1261 27.2524C69.4689 27.0874 69.8476 27.0049 70.2623 27.0049C70.6009 27.0049 70.9056 27.0514 71.1764 27.1445C71.4472 27.2334 71.6779 27.3773 71.8683 27.5762C72.0629 27.7751 72.2111 28.0332 72.3126 28.3506C72.4142 28.6637 72.465 29.0467 72.465 29.4995V34H71.2843V29.4868C71.2843 29.1271 71.2314 28.8394 71.1256 28.6235C71.0198 28.4035 70.8654 28.2448 70.6622 28.1475C70.4591 28.0459 70.2094 27.9951 69.9132 27.9951C69.6212 27.9951 69.3546 28.0565 69.1134 28.1792C68.8764 28.3019 68.6712 28.4712 68.4977 28.687C68.3284 28.9028 68.1951 29.1504 68.0978 29.4297C68.0047 29.7048 67.9581 29.9967 67.9581 30.3057ZM84.6622 28.7314V29.728H79.6603V28.7314H84.6622ZM79.8507 24.7578V34H78.6256V24.7578H79.8507ZM85.7286 24.7578V34H84.5099V24.7578H85.7286ZM92.4303 32.4131V27.1318H93.611V34H92.4874L92.4303 32.4131ZM92.6525 30.9658L93.1412 30.9531C93.1412 31.4102 93.0926 31.8333 92.9952 32.2227C92.9021 32.6077 92.7498 32.9421 92.5382 33.2256C92.3266 33.5091 92.0494 33.7313 91.7067 33.8921C91.3639 34.0487 90.9471 34.127 90.4562 34.127C90.1219 34.127 89.8151 34.0783 89.5358 33.981C89.2607 33.8836 89.0237 33.7334 88.8248 33.5303C88.6259 33.3271 88.4715 33.0627 88.3615 32.7368C88.2557 32.411 88.2028 32.0195 88.2028 31.5625V27.1318H89.3771V31.5752C89.3771 31.8841 89.4109 32.1401 89.4786 32.3433C89.5506 32.5422 89.6458 32.7008 89.7643 32.8193C89.887 32.9336 90.0224 33.014 90.1705 33.0605C90.3229 33.1071 90.4795 33.1304 90.6403 33.1304C91.1396 33.1304 91.5353 33.0352 91.8273 32.8447C92.1193 32.6501 92.3287 32.3898 92.4557 32.064C92.5869 31.7339 92.6525 31.3678 92.6525 30.9658ZM95.8947 24.25H97.0753V32.667L96.9738 34H95.8947V24.25ZM101.715 30.5088V30.6421C101.715 31.1414 101.656 31.6048 101.538 32.0322C101.419 32.4554 101.246 32.8236 101.017 33.1367C100.789 33.4499 100.509 33.6932 100.179 33.8667C99.8492 34.0402 99.4705 34.127 99.0431 34.127C98.6072 34.127 98.2242 34.0529 97.8942 33.9048C97.5683 33.7524 97.2933 33.5345 97.069 33.251C96.8447 32.9674 96.6648 32.6247 96.5294 32.2227C96.3982 31.8206 96.3073 31.3678 96.2565 30.8643V30.2803C96.3073 29.7725 96.3982 29.3175 96.5294 28.9155C96.6648 28.5135 96.8447 28.1707 97.069 27.8872C97.2933 27.5994 97.5683 27.3815 97.8942 27.2334C98.22 27.0811 98.5988 27.0049 99.0304 27.0049C99.462 27.0049 99.845 27.0895 100.179 27.2588C100.514 27.4238 100.793 27.6608 101.017 27.9697C101.246 28.2786 101.419 28.6489 101.538 29.0806C101.656 29.508 101.715 29.984 101.715 30.5088ZM100.535 30.6421V30.5088C100.535 30.166 100.503 29.8444 100.44 29.5439C100.376 29.2393 100.275 28.9727 100.135 28.7441C99.9952 28.5114 99.8112 28.3294 99.5826 28.1982C99.3541 28.0628 99.0727 27.9951 98.7384 27.9951C98.4422 27.9951 98.184 28.0459 97.964 28.1475C97.7482 28.249 97.5641 28.3866 97.4117 28.5601C97.2594 28.7293 97.1346 28.924 97.0372 29.144C96.9441 29.3599 96.8743 29.5841 96.8278 29.8169V31.3467C96.8955 31.6429 97.0055 31.9285 97.1578 32.2036C97.3144 32.4744 97.5218 32.6966 97.7799 32.8701C98.0423 33.0436 98.366 33.1304 98.7511 33.1304C99.0685 33.1304 99.3393 33.0669 99.5636 32.9399C99.7921 32.8088 99.9762 32.6289 100.116 32.4004C100.26 32.1719 100.366 31.9074 100.433 31.6069C100.501 31.3065 100.535 30.9849 100.535 30.6421Z" fill="#444444"/>
</svg>
