<svg width="16" height="12" viewBox="0 0 16 12" fill="none" xmlns="http://www.w3.org/2000/svg">
<path d="M11.2505 5H15.183C15.3949 5 15.5107 5.24721 15.375 5.41005L13.4088 7.76953C13.3088 7.88947 13.1246 7.88947 13.0247 7.76953L11.0584 5.41005C10.9227 5.24721 11.0385 5 11.2505 5Z" fill="#444444"/>
<path d="M0.250478 7H4.18296C4.39492 7 4.51071 6.75279 4.37501 6.58995L2.40877 4.23047C2.30882 4.11053 2.12461 4.11053 2.02466 4.23047L0.0584224 6.58995C-0.0772707 6.75279 0.0385187 7 0.250478 7Z" fill="#444444"/>
<path fill-rule="evenodd" clip-rule="evenodd" d="M7.71672 1C6.16423 1 4.77728 1.70697 3.8594 2.81839C3.68356 3.03131 3.36841 3.06137 3.15549 2.88552C2.94257 2.70968 2.91251 2.39453 3.08836 2.18161C4.18806 0.850027 5.85334 0 7.71672 0C10.6584 0 13.1047 2.1165 13.6178 4.90967C13.6233 4.9397 13.6286 4.96981 13.6337 5H12.6168C12.1538 2.71778 10.1353 1 7.71672 1ZM2.81664 7C3.27965 9.28222 5.29809 11 7.71672 11C9.26921 11 10.6562 10.293 11.574 9.18161C11.7499 8.96869 12.065 8.93863 12.2779 9.11448C12.4909 9.29032 12.5209 9.60547 12.3451 9.81839C11.2454 11.15 9.5801 12 7.71672 12C4.77501 12 2.3287 9.8835 1.81563 7.09033C1.81012 7.0603 1.80482 7.03019 1.79976 7H2.81664Z" fill="#444444"/>
</svg>
