<?xml version="1.0" encoding="utf-8"?>
<!-- Generator: Adobe Illustrator 22.1.0, SVG Export Plug-In . SVG Version: 6.00 Build 0)  -->
<svg version="1.1" id="Capa_1" xmlns="http://www.w3.org/2000/svg" xmlns:xlink="http://www.w3.org/1999/xlink" x="0px" y="0px"
	 viewBox="0 0 512 512" style="enable-background:new 0 0 512 512;" xml:space="preserve">
<style type="text/css">
	.st0{fill:#A9C6CC;}
	.st1{fill:#FFFFFF;}
</style>
<rect class="st0" width="512" height="512"/>
<g>
	<path class="st1" d="M256,252.5c35.4,0,64.1-34.8,64.1-77.8s-9.4-77.8-64.1-77.8s-64.1,34.8-64.1,77.8S220.6,252.5,256,252.5z"/>
	<path class="st1" d="M135,371.3C135,368.7,135,370.6,135,371.3L135,371.3z"/>
	<path class="st1" d="M377,373.4C377,372.6,377,368.4,377,373.4L377,373.4z"/>
	<path class="st1" d="M376.8,368.2c-1.2-74.9-11-96.2-85.8-109.7c0,0-10.5,13.4-35.1,13.4c-24.6,0-35.1-13.4-35.1-13.4
		c-74,13.4-84.4,34.4-85.7,107.3c-0.1,6-0.2,6.3-0.2,5.6c0,1.3,0,3.7,0,7.9c0,0,17.8,35.9,121,35.9s121-35.9,121-35.9
		c0-2.7,0-4.5,0-5.8C377,373.8,376.9,373,376.8,368.2z M197.3,352.8h-10.1l-13-19v19h-10.1v-34.7h10l13.1,19.2v-19.2h10.1V352.8z
		 M234.5,326.7h-10.9v26.1h-10.7v-26.1H202v-8.6h32.6V326.7z M272.6,338.8c0,2-0.3,4-1,5.8c-0.6,1.8-1.6,3.4-3,4.8
		c-1.4,1.4-2.8,2.3-4.3,2.9c-2.1,0.8-4.6,1.2-7.5,1.2c-1.7,0-3.5-0.1-5.5-0.4c-2-0.2-3.7-0.7-5-1.4c-1.3-0.7-2.6-1.7-3.7-3
		c-1.1-1.3-1.9-2.6-2.3-4c-0.7-2.2-1-4.2-1-5.9v-20.7h10.7v21.1c0,1.9,0.5,3.4,1.6,4.4c1,1.1,2.5,1.6,4.4,1.6c1.8,0,3.3-0.5,4.3-1.6
		c1-1,1.6-2.5,1.6-4.5v-21.1h10.7V338.8z M309.2,348.1c-1.4,1.8-3,3.1-5,4c-2,0.9-4.6,1.3-7.7,1.3c-3.8,0-6.8-0.5-9.2-1.6
		c-2.4-1.1-4.5-3-6.2-5.8c-1.7-2.8-2.6-6.3-2.6-10.6c0-5.7,1.5-10.1,4.6-13.2c3-3.1,7.4-4.6,12.9-4.6c4.4,0,7.8,0.9,10.3,2.6
		s4.4,4.5,5.6,8.1l-9.5,2.1c-0.3-1.1-0.7-1.8-1-2.3c-0.6-0.8-1.3-1.5-2.2-1.9c-0.9-0.4-1.8-0.7-2.9-0.7c-2.4,0-4.3,1-5.6,2.9
		c-1,1.4-1.5,3.7-1.5,6.8c0,3.8,0.6,6.5,1.8,7.9c1.2,1.4,2.8,2.1,4.9,2.1c2,0,3.6-0.6,4.6-1.7c1-1.2,1.8-2.8,2.3-5l9.4,2.8
		C311.5,344.1,310.6,346.3,309.2,348.1z M346.9,348.1c-1.4,1.8-3,3.1-5,4s-4.6,1.3-7.7,1.3c-3.8,0-6.8-0.5-9.2-1.6
		c-2.4-1.1-4.4-3-6.2-5.8s-2.6-6.3-2.6-10.6c0-5.7,1.5-10.1,4.6-13.2s7.4-4.6,12.9-4.6c4.4,0,7.8,0.9,10.3,2.6
		c2.5,1.8,4.4,4.5,5.6,8.1l-9.5,2.1c-0.3-1.1-0.7-1.8-1-2.3c-0.6-0.8-1.3-1.5-2.2-1.9c-0.9-0.4-1.8-0.7-2.9-0.7
		c-2.4,0-4.3,1-5.6,2.9c-1,1.4-1.5,3.7-1.5,6.8c0,3.8,0.6,6.5,1.8,7.9c1.2,1.4,2.8,2.1,4.9,2.1c2,0,3.6-0.6,4.6-1.7
		c1-1.2,1.8-2.8,2.3-5l9.4,2.8C349.2,344.1,348.2,346.3,346.9,348.1z"/>
</g>
</svg>
